<svg xmlns="http://www.w3.org/2000/svg" viewBox="0 0 2572.2 365.76"><defs><style>.cls-1{fill:none;}.cls-2{fill:#e6f9f7;}.cls-3{fill:#60ccbd;}.cls-4{fill:#13342c;}.cls-5{fill:#fff;}.cls-6{fill:#d9f5f3;}.cls-7{fill:#236057;}.cls-7,.cls-8{opacity:0.2;}.cls-10,.cls-8{fill:#48998e;}.cls-9{fill:#80d6ca;}</style></defs><title>Agile-ch1-4</title><g id="Layer_2" data-name="Layer 2"><g id="Layer_1-2" data-name="Layer 1"><rect class="cls-1" width="2572.2" height="365.76"/><path class="cls-2" d="M1483.36,14.76c-39.35,0-39.35,45.63-78.7,45.63S1365.3,14.76,1326,14.76h-1c-39.18,0-39.35,45.24-78.21,45.62-38.86-.38-39-45.62-78.22-45.62v0l-1,0c-39.35,0-39.35,45.63-78.71,45.63s-39.36-45.63-78.71-45.63V288.53c39.35,0,39.35,45.63,78.71,45.63s39.36-45.63,78.71-45.63,39.35,45.63,78.71,45.63h1c39.19,0,39.36-45.24,78.22-45.62,38.85.38,39,45.62,78.21,45.62v0l1,0c39.35,0,39.35-45.63,78.7-45.63s39.35,45.63,78.71,45.63V60.39C1522.71,60.39,1522.71,14.76,1483.36,14.76Z"/><path class="cls-3" d="M1255.49,248.37l-19.84-19.84-13.22,13.22,9.92,9.92.06-.06,9.81,9.81,6.55-6.54.1.1Z"/><path class="cls-4" d="M1352.76,336.06h0A23.09,23.09,0,0,1,1330,358.87h0A23.67,23.67,0,0,1,1313,351.7l-73-79.51a6.31,6.31,0,0,1,0-9.12l17-16.94a6.29,6.29,0,0,1,9.12,0l79.5,73.64C1350.16,323.68,1352.76,330.19,1352.76,336.06Z"/><path class="cls-3" d="M1163.78,72.13a97.75,97.75,0,1,0,97.75,97.75A97.62,97.62,0,0,0,1163.78,72.13Zm0,176a78.2,78.2,0,1,1,78.2-78.2A78.43,78.43,0,0,1,1163.78,248.08Z"/><circle class="cls-5" cx="1163.78" cy="169.88" r="80.1" transform="translate(-7.9 271.93) rotate(-13.28)"/><path class="cls-6" d="M1120.77,172.16a55.3,55.3,0,0,1,47.57-47.57h.65c11.08-1.31,11.73-17,1.3-18.9a65.8,65.8,0,0,0-19.55-.65c-25.41,3.91-45.61,24.11-48.87,48.87-1.31,6.52-.65,13.69.65,19.55,2,11.08,17.59,9.78,18.9-1.3C1120.77,172.81,1120.77,172.16,1120.77,172.16Z"/><path class="cls-7" d="M1163.78,267.63h0a97.62,97.62,0,0,0,97.75-97.75h0a6.53,6.53,0,0,0-6.52,6.52,88.62,88.62,0,0,1-26.07,57.35c-15,15.64-35.84,25.41-58.65,27.37A6.52,6.52,0,0,0,1163.78,267.63Z"/><path class="cls-8" d="M1344.94,319.11l-3.91-3.25a22.76,22.76,0,0,1,5.22,14.33h0c0,8.47-10.43,11.73-16.3,5.87l-68.42-68.43a9.46,9.46,0,0,0-13.69,0l-6.51,6.52,71,76.25c3.91,3.91,9.12,7.16,14.34,7.82a22.83,22.83,0,0,0,25.41-25.42C1352.11,327.59,1348.85,323,1344.94,319.11Z"/><path class="cls-4" d="M1339.53,7.16C1236,7.16,1165,99.35,1165,99.35s71,92.2,174.58,92.2,174.59-92.2,174.59-92.2S1443.12,7.16,1339.53,7.16Z"/><circle class="cls-5" cx="1340.5" cy="102.2" r="73.78"/><path class="cls-4" d="M1344.32,78.23a21,21,0,0,1,2.2-9.37,33.88,33.88,0,1,0,27.86,33.34,34.63,34.63,0,0,0-.33-4.69,21.11,21.11,0,0,1-29.73-19.28Z"/><path class="cls-9" d="M1386.57,78.49a21.12,21.12,0,0,0-40-9.37,34,34,0,0,1,27.53,28.65A21.15,21.15,0,0,0,1386.57,78.49Z"/><path class="cls-4" d="M1346.52,68.86a21.11,21.11,0,0,0,27.53,28.65A34,34,0,0,0,1346.52,68.86Z"/><path class="cls-10" d="M1346.52,68.86a21.11,21.11,0,0,0,27.53,28.65A34,34,0,0,0,1346.52,68.86Z"/><path class="cls-3" d="M1515.51,98.17c-24-29.29-51.21-52-81-67.55S1373,7.16,1340.5,7.16s-64.08,7.89-94,23.46-57.09,38.26-81,67.55l-.53.65.66-.51c51.89-40.37,112.37-61.7,174.89-61.7s123,21.33,174.88,61.7l.66.51Z"/></g></g></svg>