<svg xmlns="http://www.w3.org/2000/svg" viewBox="0 0 2572.2 333.36"><defs><style>.cls-1{fill:none;}.cls-2,.cls-4{fill:#f3b641;}.cls-2{opacity:0.2;}.cls-3{fill:#e88144;}.cls-5{fill:#f1af56;}.cls-6{fill:#964117;}.cls-7{fill:#f8f4e3;}.cls-8{fill:#713111;}.cls-9{fill:#fff;}</style></defs><title>Agile-ch4-4</title><g id="Layer_2" data-name="Layer 2"><g id="Layer_1-2" data-name="Layer 1"><rect class="cls-1" width="2572.2" height="333.36"/><path class="cls-2" d="M1060.71,11.88h-50.28a28,28,0,0,0-27.91,27.91V62.57a28,28,0,0,0,27.91,27.91h75.07a28,28,0,0,1,27.91,27.91v13.38a28,28,0,0,1-27.91,27.91h-31.86a28,28,0,0,0-27.91,27.91v22.78a28,28,0,0,0,27.91,27.91h57.22a28,28,0,0,1,27.91,27.91v4.36a28,28,0,0,0,27.91,27.91h267.45A28,28,0,0,0,1462,270.55V247.77a28,28,0,0,0-27.91-27.91h-98.89c-15.35,0-27.91-10.7-27.91-23.77s11.26-23.77,25-23.77c1.58,0,110.26-.17,111.76-.48,11.58-2.44,20.4-13.84,20.4-27.43l-37.61.08a19.94,19.94,0,0,1-20-19.94V101.49a13.41,13.41,0,0,1,13.42-13.41h21.17a23,23,0,0,0,23-23V39.79a28,28,0,0,0-27.91-27.91H1060.71Z"/><path class="cls-3" d="M1603.53,181.48l-179.32-19.9-17.31-58.23a474.78,474.78,0,0,1,118.84-15.12c95.33,0,143.69,60.11,222.53,113.7Z"/><path class="cls-4" d="M1363.76,215.69a21,21,0,0,0-21-21h-.17c2.39-17.7,13.65-34.31,33.8-41.68q19.82-7.24,40.11-12.48a435.23,435.23,0,0,1,353.85,61.38,435.16,435.16,0,0,1-93.58,48.23,435.32,435.32,0,0,1-151.08,27,435,435,0,0,1-109.17-13.9q-20.28-5.25-40.12-12.48c-.58-.2-1.15-.42-1.72-.65a50.79,50.79,0,0,1-30.78-34.47Z"/><path class="cls-5" d="M1374.71,250.16q.84-.34,1.71-.66,19.82-7.23,40.11-12.48a435.67,435.67,0,0,1,260.27,13.15,435.31,435.31,0,0,1-151.07,27,435,435,0,0,1-109.18-13.9q-20.28-5.25-40.12-12.48c-.58-.2-1.15-.42-1.72-.65Z"/><path class="cls-6" d="M1363.76,215.69a21,21,0,0,0-21-21h-6.35a47.55,47.55,0,0,1,30.3-38,434.2,434.2,0,0,1,49.78-16.14,149,149,0,0,1,0,122.73,432.25,432.25,0,0,1-49.78-16.14,47.47,47.47,0,0,1-28.92-31.46Z"/><path class="cls-7" d="M1376,196.68a20.56,20.56,0,1,1,20.55,20.55A20.55,20.55,0,0,1,1376,196.68Z"/><path class="cls-8" d="M1384,196.68a12.58,12.58,0,1,1,12.57,12.58A12.57,12.57,0,0,1,1384,196.68Z"/><path class="cls-6" d="M1505.1,302.53a50.1,50.1,0,0,1-20.46-67.83l50.69,27.19a50.11,50.11,0,0,1,20.46,67.84Z"/><path class="cls-3" d="M861.45,285.29a43.65,43.65,0,0,1,43.65-43.66h50.13a43.66,43.66,0,0,1-43.66,43.66Z"/><path class="cls-3" d="M1006.41,305.06a43.64,43.64,0,0,1,17.83-59.1l44.17-23.7a43.66,43.66,0,0,1-17.84,59.11Z"/><path class="cls-3" d="M1040.25,180.15a57.8,57.8,0,0,0-23.61-78.27L958.15,70.51a57.81,57.81,0,0,0,23.62,78.26Z"/><path class="cls-4" d="M1209,195.23a378.5,378.5,0,0,1-118.06,53.47,379.4,379.4,0,0,1-95.14,12.11,378.87,378.87,0,0,1-213.18-65.58,379.23,379.23,0,0,1,426.38,0Z"/><path class="cls-5" d="M1208.94,195.23a378.79,378.79,0,0,1-213.18,65.58,378.8,378.8,0,0,1-213.19-65.58Z"/><path class="cls-6" d="M1209,195.23a378.5,378.5,0,0,1-118.06,53.47,129.9,129.9,0,0,1,0-106.94,378.68,378.68,0,0,1,118,53.47Z"/><path class="cls-7" d="M1142.52,195.22A22.48,22.48,0,1,1,1120,172.75a22.47,22.47,0,0,1,22.48,22.47Z"/><path class="cls-8" d="M1133.8,195.22A13.76,13.76,0,1,1,1120,181.47a13.76,13.76,0,0,1,13.76,13.75Z"/><circle class="cls-9" cx="1161.16" cy="131.06" r="18.58"/><path class="cls-7" d="M1172.56,131.69h2.53a14.79,14.79,0,0,0-14.77-14.78v2.54A12.25,12.25,0,0,1,1172.56,131.69Z"/><circle class="cls-9" cx="1188.32" cy="56.79" r="14.36"/><path class="cls-7" d="M1187.25,46.39h-.32V49h.32a9.16,9.16,0,0,1,9.14,9.15v.32H1199v-.32A11.75,11.75,0,0,0,1187.25,46.39Z"/><circle class="cls-9" cx="1316.99" cy="52.42" r="14.36"/><path class="cls-7" d="M1315.91,42h-.31v2.6h.31a9.15,9.15,0,0,1,9.15,9.14v.32h2.59v-.32A11.76,11.76,0,0,0,1315.91,42Z"/><circle class="cls-9" cx="1351.68" cy="114.27" r="18.58"/><path class="cls-7" d="M1340.28,114.91h-2.53a14.8,14.8,0,0,1,14.78-14.78v2.53A12.27,12.27,0,0,0,1340.28,114.91Z"/><path class="cls-9" d="M912.14,177.35c-7.3,0-14.7-5-14.7-14.71v-6.89H900v6.89c0,8.32,6.28,12.11,12.11,12.11s12.11-3.79,12.11-12.11v-6.89h2.6v6.89C926.85,172.3,919.45,177.35,912.14,177.35Z"/><path class="cls-9" d="M938.92,177.35c-7.3,0-14.7-5-14.7-14.71v-6.89h2.59v6.89c0,8.32,6.28,12.11,12.11,12.11S951,171,951,162.64v-6.89h2.59v6.89C953.63,172.3,946.23,177.35,938.92,177.35Z"/><path class="cls-9" d="M1010.63,177.35c-7.31,0-14.7-5-14.7-14.71v-6.89h2.59v6.89c0,8.32,6.28,12.11,12.11,12.11s12.11-3.79,12.11-12.11v-6.89h2.59v6.89C1025.33,172.3,1017.94,177.35,1010.63,177.35Z"/><path class="cls-9" d="M1037.41,177.35c-7.31,0-14.7-5-14.7-14.71v-6.89h2.59v6.89c0,8.32,6.28,12.11,12.11,12.11s12.11-3.79,12.11-12.11v-6.89h2.59v6.89C1052.11,172.3,1044.72,177.35,1037.41,177.35Z"/><path class="cls-9" d="M951.31,233.21c-7.31,0-14.71-5.05-14.71-14.7v-6.89h2.59v6.89c0,8.32,6.28,12.11,12.12,12.11s12.11-3.79,12.11-12.11v-6.89H966v6.89C966,228.16,958.61,233.21,951.31,233.21Z"/><path class="cls-9" d="M978.09,233.21c-7.31,0-14.71-5.05-14.71-14.7v-6.89H966v6.89c0,8.32,6.27,12.11,12.11,12.11s12.11-3.79,12.11-12.11v-6.89h2.59v6.89C992.79,228.16,985.39,233.21,978.09,233.21Z"/><path class="cls-9" d="M1004.87,233.21c-7.31,0-14.7-5.05-14.7-14.7v-6.89h2.59v6.89c0,8.32,6.28,12.11,12.11,12.11s12.11-3.79,12.11-12.11v-6.89h2.59v6.89C1019.57,228.16,1012.18,233.21,1004.87,233.21Z"/><path class="cls-9" d="M1540.41,176.77c7.3,0,14.7-5.05,14.7-14.71v-6.89h-2.59v6.89c0,8.33-6.28,12.12-12.11,12.12s-12.12-3.79-12.12-12.12v-6.89h-2.59v6.89C1525.7,171.72,1533.1,176.77,1540.41,176.77Z"/><path class="cls-9" d="M1513.62,176.77c7.31,0,14.71-5.05,14.71-14.71v-6.89h-2.59v6.89c0,8.33-6.28,12.12-12.12,12.12s-12.11-3.79-12.11-12.12v-6.89h-2.59v6.89C1498.92,171.72,1506.32,176.77,1513.62,176.77Z"/><path class="cls-9" d="M1654.73,207.58c7.31,0,14.7-5.05,14.7-14.7V186h-2.59v6.9c0,8.32-6.28,12.11-12.11,12.11s-12.11-3.79-12.11-12.11V186H1640v6.9C1640,202.53,1647.42,207.58,1654.73,207.58Z"/><path class="cls-9" d="M1628,207.58c7.31,0,14.7-5.05,14.7-14.7V186h-2.59v6.9c0,8.32-6.28,12.11-12.11,12.11s-12.11-3.79-12.11-12.11V186h-2.59v6.9C1613.25,202.53,1620.64,207.58,1628,207.58Z"/><path class="cls-9" d="M1601.17,207.58c7.3,0,14.7-5.05,14.7-14.7V186h-2.59v6.9c0,8.32-6.28,12.11-12.11,12.11s-12.11-3.79-12.11-12.11V186h-2.6v6.9C1586.46,202.53,1593.86,207.58,1601.17,207.58Z"/><path class="cls-3" d="M1753,201.92a66.72,66.72,0,0,1,66.72-66.72h31.4a66.71,66.71,0,0,1-66.73,66.72Z"/><path class="cls-3" d="M1753,201.93a66.72,66.72,0,0,0,66.72,66.72h31.4a66.72,66.72,0,0,0-66.73-66.72Z"/><path class="cls-3" d="M796.55,195.22H767.38a62,62,0,0,1-62-62h29.17a62,62,0,0,1,62,62Z"/><path class="cls-3" d="M796.55,195.22H767.38a62,62,0,0,0-62,62h29.17a62,62,0,0,0,62-62Z"/></g></g></svg>