<svg xmlns="http://www.w3.org/2000/svg" viewBox="0 0 2572.2 385.77"><defs><style>.cls-1{fill:none;}.cls-2,.cls-4{fill:#f3b641;}.cls-2{opacity:0.2;}.cls-3{fill:#e88144;}.cls-5{fill:#f1af56;}.cls-6{fill:#964117;}.cls-7{fill:#f8f4e3;}.cls-8{fill:#713111;}.cls-9{fill:#fff;}</style></defs><title>Agile-ch4-1</title><g id="Layer_2" data-name="Layer 2"><g id="Layer_1-2" data-name="Layer 1"><rect class="cls-1" width="2572.2" height="385.77"/><path class="cls-2" d="M1022.3,123.8h-46a25.59,25.59,0,0,0-25.51,25.51v20.83a25.59,25.59,0,0,0,25.51,25.51H1045a25.59,25.59,0,0,1,25.52,25.51V233.4A25.59,25.59,0,0,1,1045,258.91h-29.12a25.59,25.59,0,0,0-25.51,25.51v20.83a25.59,25.59,0,0,0,25.51,25.51h52.3a25.59,25.59,0,0,1,25.52,25.51v4a25.59,25.59,0,0,0,25.51,25.51h310.65a25.59,25.59,0,0,0,25.52-25.51V339.43a25.59,25.59,0,0,0-25.52-25.51h-58.64c-14,0-25.51-9.78-25.51-21.73s10.29-21.73,22.87-21.73S1391.42,259,1391.42,245V149.31a25.59,25.59,0,0,0-25.51-25.51H1022.3Z"/><path class="cls-3" d="M1297.38,312.56a36,36,0,0,1,36-36h41.32a36,36,0,0,1-36,36Z"/><path class="cls-3" d="M1416.89,328.87a36,36,0,0,1,14.69-48.73L1468,260.6a36,36,0,0,1-14.7,48.73Z"/><path class="cls-3" d="M1444.79,225.89a47.66,47.66,0,0,0-19.47-64.53l-48.22-25.87A47.67,47.67,0,0,0,1396.57,200Z"/><path class="cls-4" d="M1583.86,238.32a312,312,0,0,1-97.32,44.08,312.9,312.9,0,0,1-78.44,10,312.36,312.36,0,0,1-175.75-54.06,312.58,312.58,0,0,1,351.51,0Z"/><path class="cls-5" d="M1583.86,238.32a312.31,312.31,0,0,1-175.75,54.06,312.29,312.29,0,0,1-175.76-54.06Z"/><path class="cls-6" d="M1583.86,238.32a312,312,0,0,1-97.32,44.08,107.14,107.14,0,0,1,0-88.17,311.89,311.89,0,0,1,97.32,44.09Z"/><path class="cls-7" d="M1529.1,238.31a18.53,18.53,0,1,1-18.53-18.53,18.53,18.53,0,0,1,18.53,18.53Z"/><path class="cls-8" d="M1521.91,238.31A11.34,11.34,0,1,1,1510.57,227a11.34,11.34,0,0,1,11.34,11.33Z"/><circle class="cls-2" cx="1561.49" cy="171.16" r="15.32"/><path class="cls-9" d="M1570.89,171.69H1573a12.2,12.2,0,0,0-12.18-12.19v2.09A10.11,10.11,0,0,1,1570.89,171.69Z"/><circle class="cls-2" cx="1611.67" cy="61.9" r="61.9"/><path class="cls-9" d="M1616.29,17h1.37V28.22h-1.37a39.47,39.47,0,0,0-39.42,39.44V69H1565.7V67.66A50.67,50.67,0,0,1,1616.29,17Z"/><path class="cls-9" d="M1339.17,223.57c-6,0-12.12-4.16-12.12-12.12v-5.68h2.13v5.68c0,6.86,5.18,10,10,10s10-3.13,10-10v-5.68h2.14v5.68C1351.29,219.41,1345.19,223.57,1339.17,223.57Z"/><path class="cls-9" d="M1361.25,223.57c-6,0-12.12-4.16-12.12-12.12v-5.68h2.13v5.68c0,6.86,5.18,10,10,10s10-3.13,10-10v-5.68h2.14v5.68C1373.37,219.41,1367.27,223.57,1361.25,223.57Z"/><path class="cls-9" d="M1420.36,223.57c-6,0-12.12-4.16-12.12-12.12v-5.68h2.14v5.68c0,6.86,5.17,10,10,10s10-3.13,10-10v-5.68h2.14v5.68C1432.49,219.41,1426.39,223.57,1420.36,223.57Z"/><path class="cls-9" d="M1442.44,223.57c-6,0-12.12-4.16-12.12-12.12v-5.68h2.14v5.68c0,6.86,5.17,10,10,10s10-3.13,10-10v-5.68h2.13v5.68C1454.56,219.41,1448.47,223.57,1442.44,223.57Z"/><path class="cls-9" d="M1371.46,269.63c-6,0-12.12-4.16-12.12-12.12v-5.68h2.13v5.68c0,6.86,5.18,10,10,10s10-3.12,10-10v-5.68h2.14v5.68C1383.58,265.47,1377.48,269.63,1371.46,269.63Z"/><path class="cls-9" d="M1393.54,269.63c-6,0-12.13-4.16-12.13-12.12v-5.68h2.14v5.68c0,6.86,5.18,10,10,10s10-3.12,10-10v-5.68h2.14v5.68C1405.66,265.47,1399.56,269.63,1393.54,269.63Z"/><path class="cls-9" d="M1415.62,269.63c-6,0-12.13-4.16-12.13-12.12v-5.68h2.14v5.68c0,6.86,5.18,10,10,10s10-3.12,10-10v-5.68h2.14v5.68C1427.74,265.47,1421.64,269.63,1415.62,269.63Z"/><path class="cls-3" d="M1243.88,238.31h-24.06a51.11,51.11,0,0,1-51.11-51.11h24a51.12,51.12,0,0,1,51.12,51.11Z"/><path class="cls-3" d="M1243.88,238.31h-24.06a51.12,51.12,0,0,0-51.11,51.12h24a51.12,51.12,0,0,0,51.12-51.12Z"/><polygon class="cls-6" points="1617.22 70.78 1606.12 70.78 1603.77 19.83 1619.56 19.83 1617.22 70.78"/><circle class="cls-6" cx="1611.67" cy="94.6" r="9.37"/></g></g></svg>