<svg xmlns="http://www.w3.org/2000/svg" viewBox="0 0 2572.2 437.66"><defs><style>.cls-1,.cls-10,.cls-11,.cls-4{fill:none;}.cls-2{fill:#fff;}.cls-3{fill:#f3b641;}.cls-10,.cls-11,.cls-4{stroke:#093447;stroke-miterlimit:10;}.cls-11,.cls-4{stroke-width:5px;}.cls-4{stroke-dasharray:11;}.cls-5{fill:#e88144;}.cls-6{fill:#964117;}.cls-7{fill:#713111;}.cls-8{fill:#f7ce80;}.cls-9{fill:#093447;}.cls-10{stroke-width:4px;}</style></defs><title>Agile-ch4-3</title><g id="Layer_2" data-name="Layer 2"><g id="Layer_1-2" data-name="Layer 1"><rect class="cls-1" width="2572.2" height="437.66"/><rect class="cls-2" x="861.45" y="62.6" width="218.4" height="369.81" rx="13.67" ry="13.67"/><path class="cls-3" d="M1066.17,63.6a12.69,12.69,0,0,1,12.67,12.67V418.74a12.68,12.68,0,0,1-12.67,12.67H875.12a12.68,12.68,0,0,1-12.67-12.67V76.27A12.69,12.69,0,0,1,875.12,63.6h191.05m0-2H875.12a14.67,14.67,0,0,0-14.67,14.67V418.74a14.67,14.67,0,0,0,14.67,14.67h191.05a14.67,14.67,0,0,0,14.67-14.67V76.27a14.67,14.67,0,0,0-14.67-14.67Z"/><path class="cls-4" d="M1044,110.75c0,13.3-13.5,24.18-30,24.18H927.33c-16.5,0-30-10.88-30-24.18s13.5-24.19,30-24.19H1014C1030.46,86.56,1044,97.45,1044,110.75Z"/><path class="cls-3" d="M1044,180.46c0,13.3-13.5,24.18-30,24.18H927.33c-16.5,0-30-10.88-30-24.18s13.5-24.19,30-24.19H1014C1030.46,156.27,1044,167.15,1044,180.46Z"/><path class="cls-5" d="M1044,250.16c0,13.31-13.5,24.19-30,24.19H927.33c-16.5,0-30-10.88-30-24.19s13.5-24.18,30-24.18H1014C1030.46,226,1044,236.86,1044,250.16Z"/><path class="cls-6" d="M1044,319.87c0,13.3-13.5,24.19-30,24.19H927.33c-16.5,0-30-10.89-30-24.19s13.5-24.19,30-24.19H1014C1030.46,295.68,1044,306.57,1044,319.87Z"/><path class="cls-7" d="M1044,389.58c0,13.3-13.5,24.19-30,24.19H927.33c-16.5,0-30-10.89-30-24.19s13.5-24.19,30-24.19H1014C1030.46,365.39,1044,376.28,1044,389.58Z"/><path class="cls-8" d="M1121.58,117.74c0,12.69-13.5,23.08-30,23.08H1005c-16.5,0-30-10.39-30-23.08s13.5-23.09,30-23.09h86.62C1108.08,94.65,1121.58,105,1121.58,117.74Z"/><polygon class="cls-9" points="1118.74 163.34 1107.25 151.84 1116.96 142.14 1079.61 129.13 1092.62 166.47 1102.33 156.77 1113.82 168.26 1118.74 163.34"/><path class="cls-2" d="M1178.88,432.41a14.17,14.17,0,0,1-14.16-14.15V84.05h567.15V418.26a14.17,14.17,0,0,1-14.16,14.15Z"/><path class="cls-3" d="M1730.87,85.05V418.26a13.17,13.17,0,0,1-13.16,13.15H1178.88a13.17,13.17,0,0,1-13.16-13.15V85.05h565.15m2-2H1163.72V418.26a15.15,15.15,0,0,0,15.16,15.15h538.83a15.15,15.15,0,0,0,15.16-15.15V83.05Z"/><path class="cls-5" d="M1178.69,61.6h539.2a15,15,0,0,1,15,15V91.5a0,0,0,0,1,0,0H1163.72a0,0,0,0,1,0,0V76.57A15,15,0,0,1,1178.69,61.6Z"/><line class="cls-10" x1="1269.93" y1="246.36" x2="1675" y2="246.36"/><line class="cls-10" x1="1269.93" y1="207.67" x2="1675" y2="207.67"/><line class="cls-10" x1="1269.93" y1="285.04" x2="1675" y2="285.04"/><rect class="cls-5" x="1212.46" y="202.91" width="44.48" height="86.9"/><line class="cls-10" x1="1269.93" y1="148.7" x2="1675" y2="148.7"/><rect class="cls-3" x="1212.46" y="117.5" width="44.48" height="62.4"/><line class="cls-10" x1="1269.93" y1="335.86" x2="1675" y2="335.86"/><line class="cls-10" x1="1269.93" y1="378.73" x2="1675" y2="378.73"/><rect class="cls-6" x="1212.46" y="313.85" width="44.48" height="86.9"/><polygon class="cls-3" points="1330.46 137.16 1320.77 148.69 1330.46 160.23 1340.15 148.69 1330.46 137.16"/><polygon class="cls-3" points="1421.32 137.16 1411.63 148.69 1421.32 160.23 1431.01 148.69 1421.32 137.16"/><polygon class="cls-3" points="1603.02 137.16 1593.33 148.69 1603.02 160.23 1612.7 148.69 1603.02 137.16"/><rect class="cls-3" x="1503.95" y="140.55" width="16.28" height="16.28"/><path class="cls-5" d="M1367.56,213.84h-66.65c-8.79,0-8.79-13.18,0-13.18h66.65C1376.35,200.66,1376.35,213.84,1367.56,213.84Z"/><path class="cls-5" d="M1420.36,290.93H1371.9c-8.79,0-8.79-13.18,0-13.18h48.46C1429.15,277.75,1429.15,290.93,1420.36,290.93Z"/><path class="cls-6" d="M1555.73,342.72h-48.47c-8.79,0-8.79-13.18,0-13.18h48.47C1564.51,329.54,1564.51,342.72,1555.73,342.72Z"/><path class="cls-6" d="M1639.6,385.09H1510.07c-8.79,0-8.79-13.18,0-13.18H1639.6C1648.39,371.91,1648.39,385.09,1639.6,385.09Z"/><path class="cls-5" d="M1594.19,290.93H1488.81c-8.78,0-8.78-13.18,0-13.18h105.38C1603,277.75,1603,290.93,1594.19,290.93Z"/><path class="cls-5" d="M1603,213.84H1449.23c-8.78,0-8.78-13.18,0-13.18H1603C1611.8,200.66,1611.8,213.84,1603,213.84Z"/><path class="cls-6" d="M1454.63,342.72H1337.79c-8.78,0-8.78-13.18,0-13.18h116.84C1463.42,329.54,1463.42,342.72,1454.63,342.72Z"/><path class="cls-6" d="M1390.57,385.09h-86.64c-8.79,0-8.79-13.18,0-13.18h86.64C1399.36,371.91,1399.36,385.09,1390.57,385.09Z"/><path class="cls-5" d="M1409.35,253.08h-85.13c-8.78,0-8.78-13.18,0-13.18h85.13C1418.13,239.9,1418.13,253.08,1409.35,253.08Z"/><path class="cls-5" d="M1516.12,253.08h-62.54c-8.78,0-8.78-13.18,0-13.18h62.54C1524.91,239.9,1524.91,253.08,1516.12,253.08Z"/><path class="cls-5" d="M1648,253.08h-90.22c-8.79,0-8.79-13.18,0-13.18H1648C1656.82,239.9,1656.82,253.08,1648,253.08Z"/><line class="cls-11" x1="1722.64" y1="23.62" x2="1722.64"/><line class="cls-11" x1="1757.66" y1="36.16" x2="1773.19" y2="21.63"/><line class="cls-11" x1="1687.63" y1="37.16" x2="1672.1" y2="21.63"/><line class="cls-11" x1="1770.01" y1="72.66" x2="1793.63" y2="72.66"/><line class="cls-11" x1="1756.48" y1="107.67" x2="1772" y2="123.2"/></g></g></svg>