<svg xmlns="http://www.w3.org/2000/svg" viewBox="0 0 2573.2 493.65"><defs><style>.cls-1{fill:#53c0f0;}.cls-10,.cls-2,.cls-4,.cls-9{fill:none;stroke-miterlimit:10;}.cls-2{stroke:#093447;stroke-width:5px;}.cls-3{fill:#fff;}.cls-4{stroke:#00172f;stroke-width:1.5px;}.cls-5{fill:#ceddf6;}.cls-6{fill:#9adcfa;}.cls-7{fill:#f66631;}.cls-8{fill:#0061bc;}.cls-9{stroke:#0061bc;stroke-width:7px;}.cls-10{stroke:#fff;}</style></defs><title>Agile-ch3-5</title><g id="Layer_2" data-name="Layer 2"><g id="Layer_1-2" data-name="Layer 1"><path class="cls-1" d="M1538.83,293.06c0-30.48-25.36-44.13-48-40.89-27.36,2.9-47.8,10.41-47.8,40.89v34.78H1168.78V493.15h370V339.2h0Z"/><line class="cls-2" x1="1288.7" y1="392.94" x2="1476.07" y2="392.94"/><line class="cls-2" x1="1288.7" y1="421.88" x2="1476.07" y2="421.88"/><line class="cls-2" x1="1288.7" y1="450.81" x2="1388.92" y2="450.81"/><rect class="cls-3" x="1222.58" y="392.94" width="27.91" height="27.91"/><line class="cls-4" x1="1288.7" y1="359.32" x2="1388.92" y2="359.32"/><rect class="cls-5" x="1222.58" y="301.46" width="27.91" height="27.91"/><rect class="cls-6" x="1121.04" y="0.5" width="257.01" height="369.25"/><path class="cls-6" d="M1275.44,325.12a44.8,44.8,0,0,1-44.67,44.67H1079a44.8,44.8,0,0,1-44.67-44.67V.5h196.41a44.8,44.8,0,0,1,44.67,44.67Z"/><path class="cls-6" d="M1352.37,369.78h63.15S1378,363,1378,320.27Z"/><path class="cls-7" d="M1495.24,251.73h1.53S1496.2,251.71,1495.24,251.73Z"/><path class="cls-8" d="M1378,251.69v79.07c0,52.13,78.21,52.13,78.21,0v-37.3c0-37.8,32.74-41.49,39.16-41.73Z"/><line class="cls-2" x1="1144.05" y1="50.63" x2="1331.41" y2="50.63"/><line class="cls-2" x1="1144.05" y1="79.56" x2="1331.41" y2="79.56"/><line class="cls-2" x1="1144.05" y1="108.49" x2="1244.26" y2="108.49"/><rect class="cls-3" x="1077.93" y="50.63" width="27.91" height="27.91"/><line class="cls-2" x1="1144.05" y1="153.6" x2="1331.41" y2="153.6"/><line class="cls-2" x1="1144.05" y1="182.53" x2="1331.41" y2="182.53"/><line class="cls-2" x1="1144.05" y1="211.46" x2="1304.46" y2="211.46"/><rect class="cls-3" x="1077.93" y="153.6" width="27.91" height="27.91"/><line class="cls-2" x1="1144.05" y1="256.57" x2="1331.41" y2="256.57"/><line class="cls-2" x1="1144.05" y1="285.5" x2="1331.41" y2="285.5"/><line class="cls-2" x1="1144.05" y1="314.43" x2="1275.95" y2="314.43"/><rect class="cls-3" x="1077.93" y="256.57" width="27.91" height="27.91"/><polyline class="cls-9" points="1116.64 44.57 1090.53 71.4 1082.06 62.94"/><polyline class="cls-9" points="1116.64 147.54 1090.53 174.37 1082.06 165.91"/><polyline class="cls-9" points="1116.64 250.51 1090.53 277.35 1082.06 268.88"/><rect class="cls-10" x="0.5" y="0.5" width="2572.2" height="492.65"/></g></g></svg>