<svg xmlns="http://www.w3.org/2000/svg" viewBox="0 0 2572.2 367.25"><defs><style>.cls-1,.cls-5{fill:none;}.cls-2{fill:#e6f9f7;}.cls-3{fill:#13342c;}.cls-4{fill:#60ccbd;}.cls-5{stroke:#093447;stroke-miterlimit:10;stroke-width:5px;}</style></defs><title>Agile-ch1-1</title><g id="Layer_2" data-name="Layer 2"><g id="Layer_1-2" data-name="Layer 1"><rect class="cls-1" y="1.49" width="2572.2" height="365.76"/><ellipse class="cls-2" cx="1331.08" cy="327.46" rx="194.4" ry="39.79"/><path class="cls-3" d="M1421.9,309.66l-41-60.85-43.63,1.31,74.06,80.38h39S1455,309.66,1421.9,309.66Z"/><path class="cls-3" d="M1335.61,142.81c12.9,16.13,16.22,25.45,28.59,28.29,11,4,31.12,1.45,46.72,19.65L1313.78,56.24C1303.53,45.44,1296,65.3,1302,85,1306.7,105.77,1325,126.39,1335.61,142.81Z"/><path class="cls-4" d="M1354.39,136.68c8.26,16.53,9.42,25.3,19.7,30.11,8.91,5.53,27,7.11,37.18,26L1351.54,56.86c-6.94-11.37-17.28,4.58-15.69,22.93C1336.06,98.86,1348.19,120.32,1354.39,136.68Z"/><path class="cls-3" d="M1229.19,84.74c-21.09-8.39-28.57,4.94-36.24,24.21l-5.8-8.9-76.82-30.57L1062.22,90.2s4.72,29,21,24c4-1.24,34.48-16.89,34.48-16.89L1179.2,168a18.56,18.56,0,0,0,3.6,4.13l.35.41.08-.06a33.63,33.63,0,0,0,9,5.11,49.94,49.94,0,1,0,36.93-92.8Z"/><path class="cls-4" d="M1384.53,248.48c-40.68-68.45-55.76-104.24-102.47-165.84-48.07-63.39-143.15,8.71-95.08,72.1L1347.82,330.5h39s4.63-20.84-28.45-20.84l-34.72-54.89,55.56-4.3Z"/><path class="cls-4" d="M1199.83,102.48c-22.7,0-24.72,15.15-24.73,35.88l-8.67-6.12h-82.68l-37,37s15.12,25.21,28.44,14.55c3.31-2.64,25.8-28.44,25.8-28.44l83.19,42.88a19,19,0,0,0,4.88,2.51l.48.25,0-.09a33.62,33.62,0,0,0,10.28,1.41,49.94,49.94,0,1,0,0-99.87Z"/><path class="cls-4" d="M1319.79,254.77h120s34.39-3.31,27.12-30.43l-31.75-35.05a41.28,41.28,0,0,0-34.39-15.88s-14.56,3-18.86,5.3-42.33,39.35-42.33,39.35Z"/><path class="cls-4" d="M1197.2,39.22c15,10.15,18.72,25.12,8.25,33.44s-24.22,1.33-30.71-15.6-10.18-31.91-8.25-33.45S1182.17,29.06,1197.2,39.22Z"/><circle class="cls-2" cx="1422.21" cy="212.54" r="4.85"/><line class="cls-5" x1="1278.62" y1="310.48" x2="1225.04" y2="251.95"/><line class="cls-5" x1="1242.9" y1="300.07" x2="1189.33" y2="241.53"/><line class="cls-5" x1="1295.67" y1="47.82" x2="1266.12" y2="7.9"/><line class="cls-5" x1="1263.49" y1="41.4" x2="1233.94" y2="1.49"/></g></g></svg>