<svg xmlns="http://www.w3.org/2000/svg" viewBox="0 0 2573.2 448.11"><defs><style>.cls-1,.cls-2,.cls-5,.cls-7{fill:none;stroke-miterlimit:10;}.cls-1{stroke:#fff;}.cls-2{stroke:#53c0f0;}.cls-2,.cls-7{stroke-width:20px;}.cls-3{fill:#9adcfa;}.cls-4{fill:#0061bc;}.cls-5{stroke:#093447;stroke-width:5px;}.cls-6{fill:#53c0f0;}.cls-7{stroke:#9adcfa;}</style></defs><title>Agile-ch3-1</title><g id="Layer_2" data-name="Layer 2"><g id="Layer_1-2" data-name="Layer 1"><rect class="cls-1" x="0.5" y="0.5" width="2572.2" height="447.11"/><path class="cls-2" d="M1206.85,115.65h-19.62a64,64,0,0,1-64-64V14.53h62.91"/><rect class="cls-3" x="1268.56" y="187.57" width="46.08" height="107.41"/><path class="cls-3" d="M1174.28.5V85.92c0,76.7,52.25,138.88,116.7,138.88s116.69-62.18,116.69-138.88V.5Z"/><polygon class="cls-3" points="1352.07 435.64 1132.65 435.64 1164.61 325.11 1339.47 325.11 1352.07 435.64"/><polygon class="cls-3" points="1321.11 325.11 1187.59 325.11 1198.46 274.31 1321.11 274.31 1321.11 325.11"/><polygon class="cls-4" points="1380.85 325.11 1313.02 325.11 1321.11 274.31 1366.04 274.31 1380.85 325.11"/><polygon class="cls-4" points="1438.44 435.64 1309.73 435.64 1330.99 325.11 1398.51 325.11 1438.44 435.64"/><line class="cls-5" x1="1205.95" y1="362.86" x2="1259.91" y2="362.86"/><line class="cls-5" x1="1181.71" y1="391.62" x2="1271.49" y2="391.62"/><path class="cls-6" d="M1334.23,4.84V131.08c0,55.53-43.25,93.72-43.25,93.72,64.45,0,116.69-62.18,116.69-138.88V.5h-73.44Z"/><path class="cls-4" d="M1270.74,55.08l10.41,22.09a2.41,2.41,0,0,0,1.87,1.36l24.23,3.08a2.4,2.4,0,0,1,1.34,4.14l-17.79,16.73a2.38,2.38,0,0,0-.71,2.2l4.56,24a2.41,2.41,0,0,1-3.53,2.56l-21.4-11.75a2.39,2.39,0,0,0-2.32,0L1246,131.23a2.41,2.41,0,0,1-3.53-2.56l4.56-24a2.36,2.36,0,0,0-.72-2.2l-17.79-16.73a2.41,2.41,0,0,1,1.35-4.14l24.22-3.08a2.41,2.41,0,0,0,1.88-1.36l10.41-22.09A2.41,2.41,0,0,1,1270.74,55.08Z"/><path class="cls-7" d="M1386,115.65a64,64,0,0,0,64-64V14.53h-62.91"/></g></g></svg>