<svg xmlns="http://www.w3.org/2000/svg" viewBox="0 0 2572.2 162.92"><defs><style>.cls-1{fill:none;}.cls-2{fill:#80d6ca;}.cls-3{fill:#c0efeb;}.cls-4{fill:#13342c;}.cls-5{fill:#48998e;}</style></defs><title>Agile-ch1-3</title><g id="Layer_2" data-name="Layer 2"><g id="Layer_1-2" data-name="Layer 1"><rect class="cls-1" width="2572.2" height="162.92"/><path class="cls-2" d="M1234.48,101.08a21.68,21.68,0,0,1-1.64,8.39,21.34,21.34,0,0,1-2,3.7,21.67,21.67,0,0,1-2.72,3.3,21.15,21.15,0,0,1-15.39,6.36h-143c-.72,0-1.43,0-2.14-.1a21.8,21.8,0,0,1-9.92-3.53l-.25-.19a21.56,21.56,0,0,1-9.44-17.93h-29.13a50.94,50.94,0,0,0,15,35.91,50.64,50.64,0,0,0,35.8,14.87h143a50.66,50.66,0,0,0,46-29.06c.35-.75.68-1.5,1-2.26a51.24,51.24,0,0,0,3.81-19.46Z"/><path class="cls-3" d="M973.49,101.08C973.6,73.9,949.9,50.2,922.71,50.3h-143A51,51,0,0,0,729,101.08h29.14a21.63,21.63,0,0,1,21.75-21.75h143c5.33,0,10.66,2.47,15,6.77s6.77,9.65,6.77,15h28.93a51.45,51.45,0,0,1-2.92,17.15A51.45,51.45,0,0,0,973.49,101.08Z"/><path class="cls-4" d="M1088.3,101.08a21.68,21.68,0,0,1-1.64,8.39,21.29,21.29,0,0,1-2,3.7,22.35,22.35,0,0,1-2.73,3.3,21.12,21.12,0,0,1-15.38,6.36h-143c-.72,0-1.44,0-2.15-.1a21.76,21.76,0,0,1-9.91-3.53l-.26-.19a21.62,21.62,0,0,1-9.43-17.93H872.69a51,51,0,0,0,15,35.91,50.64,50.64,0,0,0,35.8,14.87h143a50.66,50.66,0,0,0,46-29.06c.35-.75.68-1.5,1-2.26a51.23,51.23,0,0,0,3.8-19.46Z"/><path class="cls-2" d="M944.56,101.08a21.68,21.68,0,0,1-1.64,8.39,21.29,21.29,0,0,1-2,3.7,22.35,22.35,0,0,1-2.73,3.3,21.12,21.12,0,0,1-15.38,6.36h-143c-.72,0-1.44,0-2.15-.1a21.76,21.76,0,0,1-9.91-3.53l-.26-.19a21.62,21.62,0,0,1-9.43-17.93H729a51,51,0,0,0,15,35.91,50.64,50.64,0,0,0,35.8,14.87h143a50.66,50.66,0,0,0,46-29.06c.35-.75.68-1.5,1-2.26a51.23,51.23,0,0,0,3.8-19.46Z"/><path class="cls-5" d="M1117.23,101.08c.11-27.18-23.59-50.88-50.78-50.78h-143a51,51,0,0,0-50.78,50.78h29.14a21.63,21.63,0,0,1,21.75-21.75h143c5.33,0,10.66,2.47,15,6.77s6.77,9.65,6.77,15h28.93a51.45,51.45,0,0,1-2.92,17.15A51.45,51.45,0,0,0,1117.23,101.08Z"/><path class="cls-3" d="M1263.41,101.08c.1-27.18-23.6-50.88-50.78-50.78h-143a51,51,0,0,0-50.78,50.78H1048a21.64,21.64,0,0,1,21.75-21.75h143c5.34,0,10.67,2.47,15,6.77s6.77,9.65,6.77,15h28.93a51.2,51.2,0,0,1-2.93,17.15A51.2,51.2,0,0,0,1263.41,101.08Z"/><path class="cls-4" d="M1378.22,101.08a21.68,21.68,0,0,1-1.64,8.39,21.34,21.34,0,0,1-2,3.7,21.67,21.67,0,0,1-2.72,3.3,21.15,21.15,0,0,1-15.39,6.36h-143c-.72,0-1.43,0-2.14-.1a21.8,21.8,0,0,1-9.92-3.53l-.25-.19a21.56,21.56,0,0,1-9.44-17.93h-29.13a50.94,50.94,0,0,0,15,35.91,50.64,50.64,0,0,0,35.8,14.87h143a50.66,50.66,0,0,0,46-29.06c.35-.75.68-1.5,1-2.26a51.24,51.24,0,0,0,3.81-19.46Z"/><path class="cls-5" d="M1407.15,101.08c.1-27.18-23.6-50.88-50.78-50.78h-143a51,51,0,0,0-50.78,50.78h29.13a21.64,21.64,0,0,1,21.75-21.75h143c5.34,0,10.67,2.47,15,6.77s6.77,9.65,6.77,15h28.93a51.2,51.2,0,0,1-2.93,17.15A51.2,51.2,0,0,0,1407.15,101.08Z"/><path class="cls-2" d="M1230.84,113.17a21.67,21.67,0,0,1-2.72,3.3,21.15,21.15,0,0,1-15.39,6.36h-55.86l19,29h36.8a50.66,50.66,0,0,0,46-29.06c.35-.75.68-1.5,1-2.26a50.41,50.41,0,0,0,2.67-8.71l-30.18-.78A19.64,19.64,0,0,1,1230.84,113.17Z"/><path class="cls-2" d="M1814.31,101.08a21.68,21.68,0,0,1-1.64,8.39,21.29,21.29,0,0,1-2,3.7,22.35,22.35,0,0,1-2.73,3.3,21.13,21.13,0,0,1-15.39,6.36h-143c-.71,0-1.43,0-2.14-.1a21.84,21.84,0,0,1-9.92-3.53l-.25-.19a21.62,21.62,0,0,1-9.43-17.93H1598.7a51,51,0,0,0,15,35.91,50.64,50.64,0,0,0,35.8,14.87h143a50.66,50.66,0,0,0,46-29.06c.35-.75.68-1.5,1-2.26a51.24,51.24,0,0,0,3.81-19.46Z"/><path class="cls-3" d="M1553.33,101.08c.1-27.18-23.6-50.88-50.78-50.78h-143a51,51,0,0,0-50.79,50.78h29.14a21.63,21.63,0,0,1,21.75-21.75h143c5.33,0,10.67,2.47,15,6.77s6.77,9.65,6.77,15h28.93a51.2,51.2,0,0,1-2.93,17.15A51.2,51.2,0,0,0,1553.33,101.08Z"/><path class="cls-4" d="M1668.14,101.08a21.86,21.86,0,0,1-1.64,8.39,21.34,21.34,0,0,1-2,3.7,22.92,22.92,0,0,1-2.72,3.3,21.15,21.15,0,0,1-15.39,6.36h-143c-.72,0-1.43,0-2.14-.1a21.76,21.76,0,0,1-9.92-3.53l-.25-.19a21.56,21.56,0,0,1-9.44-17.93h-29.14a51,51,0,0,0,15,35.91,50.64,50.64,0,0,0,35.81,14.87h143a50.66,50.66,0,0,0,46-29.06c.35-.75.69-1.5,1-2.26a51.24,51.24,0,0,0,3.81-19.46Z"/><path class="cls-2" d="M1524.4,101.08a21.86,21.86,0,0,1-1.64,8.39,21.34,21.34,0,0,1-2,3.7,22.92,22.92,0,0,1-2.72,3.3,21.15,21.15,0,0,1-15.39,6.36h-143c-.72,0-1.43,0-2.14-.1a21.76,21.76,0,0,1-9.92-3.53l-.25-.19a21.56,21.56,0,0,1-9.44-17.93h-29.14a51,51,0,0,0,15,35.91,50.64,50.64,0,0,0,35.81,14.87h143a50.66,50.66,0,0,0,46-29.06c.35-.75.69-1.5,1-2.26a51.24,51.24,0,0,0,3.81-19.46Z"/><path class="cls-5" d="M1697.07,101.08c.1-27.18-23.6-50.88-50.78-50.78h-143a51,51,0,0,0-50.79,50.78h29.14a21.63,21.63,0,0,1,21.75-21.75h143c5.33,0,10.67,2.47,15,6.77s6.77,9.65,6.77,15h28.93a51.2,51.2,0,0,1-2.93,17.15A51.2,51.2,0,0,0,1697.07,101.08Z"/><path class="cls-3" d="M1843.24,101.08c.11-27.18-23.59-50.88-50.78-50.78h-143a51,51,0,0,0-50.78,50.78h29.14a21.62,21.62,0,0,1,21.74-21.75h143c5.34,0,10.67,2.47,15,6.77s6.77,9.65,6.77,15h28.93a51.45,51.45,0,0,1-2.92,17.15A51.45,51.45,0,0,0,1843.24,101.08Z"/><path class="cls-2" d="M1810.68,113.17a22.35,22.35,0,0,1-2.73,3.3,21.13,21.13,0,0,1-15.39,6.36H1736.7l19,29h36.79a50.66,50.66,0,0,0,46-29.06c.35-.75.68-1.5,1-2.26a50.44,50.44,0,0,0,2.68-8.71l-30.19-.78A21.34,21.34,0,0,1,1810.68,113.17Z"/><path class="cls-4" d="M1374.58,113.17a21.67,21.67,0,0,1-2.72,3.3,21.15,21.15,0,0,1-15.39,6.36h-56l17.42,29h38.52a50.66,50.66,0,0,0,46-29.06c.35-.75.68-1.5,1-2.26a50.06,50.06,0,0,0,1.91-5.61l-29.83-3.14C1375.15,112.26,1374.89,112.72,1374.58,113.17Z"/></g></g></svg>