<svg xmlns="http://www.w3.org/2000/svg" viewBox="0 0 80.63 80.63"><defs><style>.cls-1{fill:#9adcfa;}.cls-2{fill:#0061bc;}.cls-3{fill:#f8f8f8;}.cls-4{fill:#190944;}.cls-5{fill:none;}</style></defs><title>agile-ch3</title><g id="Layer_2" data-name="Layer 2"><g id="Layer_1-2" data-name="Layer 1"><path class="cls-1" d="M12.84,75.6C7.12,75.6,3.71,71,3.71,65.23v-61A1.23,1.23,0,0,1,4.93,3h60.9a1.23,1.23,0,0,1,1.23,1.23V75.6Z"/><path class="cls-1" d="M3.81,66.85C4.52,72,7.69,75.6,12.67,75.6c4.52,0,8.26-3.62,8.87-8.66L3.81,66.85"/><path class="cls-2" d="M12.84,75.6c4.59,0,8.36-4.07,8.82-9.29a1.12,1.12,0,0,1,1-1.08H75.87a1.18,1.18,0,0,1,1,1.38c-.58,5.07-4.3,9-8.79,9Z"/><rect class="cls-3" x="13.91" y="14.15" width="9.11" height="9.11" rx="1.23" ry="1.23"/><path class="cls-2" d="M21.79,23.7H15.14A1.68,1.68,0,0,1,13.46,22V15.38a1.68,1.68,0,0,1,1.68-1.68h6.65a1.68,1.68,0,0,1,1.67,1.68V22A1.67,1.67,0,0,1,21.79,23.7Zm-6.65-9.1a.79.79,0,0,0-.79.78V22a.79.79,0,0,0,.79.78h6.65a.78.78,0,0,0,.78-.78V15.38a.78.78,0,0,0-.78-.78Z"/><rect class="cls-3" x="13.91" y="30.12" width="9.11" height="9.11" rx="1.23" ry="1.23"/><path class="cls-2" d="M21.79,39.68H15.14A1.68,1.68,0,0,1,13.46,38V31.35a1.68,1.68,0,0,1,1.68-1.67h6.65a1.67,1.67,0,0,1,1.67,1.67V38A1.68,1.68,0,0,1,21.79,39.68Zm-6.65-9.11a.79.79,0,0,0-.79.78V38a.79.79,0,0,0,.79.78h6.65a.78.78,0,0,0,.78-.78V31.35a.78.78,0,0,0-.78-.78Z"/><rect class="cls-3" x="13.91" y="46.09" width="9.11" height="9.11" rx="1.23" ry="1.23"/><path class="cls-2" d="M21.79,55.65H15.14A1.68,1.68,0,0,1,13.46,54V47.32a1.68,1.68,0,0,1,1.68-1.67h6.65a1.67,1.67,0,0,1,1.67,1.67V54A1.68,1.68,0,0,1,21.79,55.65Zm-6.65-9.11a.79.79,0,0,0-.79.78V54a.79.79,0,0,0,.79.78h6.65a.78.78,0,0,0,.78-.78V47.32a.78.78,0,0,0-.78-.78Z"/><rect class="cls-3" x="31.01" y="16.86" width="25.8" height="3.69"/><rect class="cls-3" x="31.01" y="32.83" width="25.8" height="3.69"/><rect class="cls-3" x="31.01" y="48.8" width="25.8" height="3.69"/><path class="cls-4" d="M18,21.71a.73.73,0,0,1-.56-.25l-2.16-2.41,1.12-1,1.58,1.76L23,13.67l1.16,1-5.68,6.81a.79.79,0,0,1-.56.27Z"/><path class="cls-4" d="M18,37.68a.73.73,0,0,1-.56-.25L15.23,35l1.12-1,1.58,1.76L23,29.64l1.16,1-5.68,6.81a.75.75,0,0,1-.56.27Z"/><path class="cls-2" d="M44.31,51.87l5.84-1.67a1,1,0,0,0,.7-.31l25.2-25.2a1.05,1.05,0,0,0,0-1.5L71.88,19a1.07,1.07,0,0,0-1.5,0L45.17,44.22a1.13,1.13,0,0,0-.31.7L43.2,50.76A1.06,1.06,0,0,0,44.31,51.87Z"/><rect class="cls-5" width="80.63" height="80.63"/></g></g></svg>