<svg xmlns="http://www.w3.org/2000/svg" viewBox="0 0 2573.2 451.45"><defs><style>.cls-1,.cls-3,.cls-5{fill:none;stroke-miterlimit:10;}.cls-1{stroke:#fff;}.cls-2{fill:#0061bc;}.cls-3{stroke:#9adcfa;}.cls-3,.cls-5{stroke-width:5px;}.cls-4{fill:#9adcfa;}.cls-5{stroke:#0061bc;}.cls-6{fill:#ffcc05;}.cls-7{fill:#00354d;}.cls-8{fill:#093447;}</style></defs><title>Agile-ch3-3</title><g id="Layer_2" data-name="Layer 2"><g id="Layer_1-2" data-name="Layer 1"><rect class="cls-1" x="0.5" y="0.5" width="2572.2" height="450.45"/><rect class="cls-2" x="1017.94" y="105.48" width="371.09" height="227.76" rx="21.73" ry="21.73"/><polygon class="cls-2" points="1053.64 321.96 1158.54 377.48 1158.54 321.96 1053.64 321.96"/><line class="cls-3" x1="1073.66" y1="169.55" x2="1333.31" y2="169.55"/><line class="cls-3" x1="1073.66" y1="217.83" x2="1333.31" y2="217.83"/><line class="cls-3" x1="1073.66" y1="266.12" x2="1333.31" y2="266.12"/><rect class="cls-4" x="1255.28" y="214.43" width="299.98" height="184.11" rx="21.73" ry="21.73" transform="translate(2810.54 612.97) rotate(-180)"/><polygon class="cls-4" points="1528.06 387.91 1448.66 438.58 1448.66 387.91 1528.06 387.91"/><line class="cls-5" x1="1510.21" y1="267.45" x2="1300.33" y2="267.45"/><line class="cls-5" x1="1510.21" y1="306.49" x2="1300.33" y2="306.49"/><line class="cls-5" x1="1413.69" y1="345.52" x2="1300.33" y2="345.52"/><path class="cls-6" d="M1468.82,27.56a88.45,88.45,0,1,0,0,122.78,88.38,88.38,0,0,1,0-122.78Z"/><ellipse class="cls-6" cx="1468.82" cy="88.95" rx="24.81" ry="61.39"/><circle class="cls-7" cx="1374.44" cy="63.06" r="5.82"/><circle class="cls-7" cx="1437" cy="63.06" r="5.82"/><path class="cls-8" d="M1405.72,132.1A43.19,43.19,0,0,1,1362.58,89h4.31a38.84,38.84,0,0,0,77.67,0h4.31A43.2,43.2,0,0,1,1405.72,132.1Z"/></g></g></svg>