<svg xmlns="http://www.w3.org/2000/svg" viewBox="0 0 2573.2 477.68"><defs><style>.cls-1{fill:#f5f6fa;}.cls-2{fill:#0061bc;}.cls-3{fill:#9adcfa;}.cls-4{fill:#53c0f0;}.cls-5{fill:none;stroke:#fff;stroke-miterlimit:10;}</style></defs><title>Agile-ch3-4</title><g id="Layer_2" data-name="Layer 2"><g id="Layer_1-2" data-name="Layer 1"><ellipse class="cls-1" cx="1286.6" cy="368.85" rx="292.39" ry="102.1"/><polygon class="cls-2" points="1021.59 228.61 1021.59 349.55 1132.18 410.02 1242.77 349.55 1242.77 228.61 1132.18 168.13 1021.59 228.61"/><polygon class="cls-3" points="1132.18 168.13 1021.59 228.61 1021.59 349.55 1132.18 410.02 1132.18 168.13"/><polygon class="cls-4" points="1242.77 229.35 1242.77 228.61 1132.18 168.13 1021.59 228.61 1021.59 229.35 1132.18 289.82 1242.77 229.35"/><polygon class="cls-2" points="1320.78 228.61 1320.78 349.55 1431.38 410.02 1541.97 349.55 1541.97 228.61 1431.38 168.13 1320.78 228.61"/><polygon class="cls-3" points="1431.38 168.13 1320.78 228.61 1320.78 349.55 1431.38 410.02 1431.38 168.13"/><polygon class="cls-4" points="1541.97 229.35 1541.97 228.61 1431.38 168.13 1320.78 228.61 1320.78 229.35 1431.38 289.82 1541.97 229.35"/><polygon class="cls-3" points="1096.06 68.88 1096.06 189.83 1206.65 250.3 1317.24 189.83 1317.24 68.88 1206.65 8.41 1096.06 68.88"/><polygon class="cls-2" points="1206.65 8.41 1096.06 68.88 1096.06 189.83 1206.65 250.3 1206.65 8.41"/><polygon class="cls-4" points="1317.24 69.62 1317.24 68.88 1206.65 8.41 1096.06 68.88 1096.06 69.62 1206.65 130.1 1317.24 69.62"/><rect class="cls-5" x="0.5" y="0.5" width="2572.2" height="476.68"/></g></g></svg>