<svg xmlns="http://www.w3.org/2000/svg" viewBox="0 0 2572.2 385.77"><defs><style>.cls-1{fill:none;}.cls-2{fill:#e88144;}.cls-3{fill:#f3b641;}.cls-4{fill:#fdfcf8;}.cls-5{fill:#f8f4e3;}.cls-6{fill:#964117;}</style></defs><title>Agile-ch4-2</title><g id="Layer_2" data-name="Layer 2"><g id="Layer_1-2" data-name="Layer 1"><rect class="cls-1" width="2572.2" height="385.77"/><path class="cls-2" d="M1302.13,380.13h-23.88V6.67h23.88C1543,6.67,1543,380.13,1302.13,380.13Z"/><circle class="cls-2" cx="1276.46" cy="193.28" r="187.06"/><circle class="cls-3" cx="1269.19" cy="193.28" r="167.71"/><circle class="cls-4" cx="1269.19" cy="193.28" r="154.81"/><path class="cls-5" d="M1151.79,193.28A154.82,154.82,0,0,1,1287.37,39.66a154.81,154.81,0,1,0-19.22,308.43,156.31,156.31,0,0,0,19.22-1.19A154.82,154.82,0,0,1,1151.79,193.28Z"/><path class="cls-2" d="M1198.23,270.68a6.45,6.45,0,0,1-4.56-11l87.08-87.08a6.45,6.45,0,0,1,9.12,9.12l-87.08,87.08A6.43,6.43,0,0,1,1198.23,270.68Z"/><path class="cls-6" d="M1269.19,83.63h0a6.45,6.45,0,0,1-6.45-6.45V57.82a6.45,6.45,0,0,1,6.45-6.45h0a6.45,6.45,0,0,1,6.45,6.45V77.18A6.45,6.45,0,0,1,1269.19,83.63Z"/><path class="cls-6" d="M1269.19,335.18h0a6.44,6.44,0,0,1-6.45-6.45V309.38a6.45,6.45,0,0,1,6.45-6.45h0a6.45,6.45,0,0,1,6.45,6.45v19.35A6.45,6.45,0,0,1,1269.19,335.18Z"/><path class="cls-6" d="M1378.84,193.28h0a6.45,6.45,0,0,1,6.45-6.45h19.35a6.45,6.45,0,0,1,6.45,6.45h0a6.45,6.45,0,0,1-6.45,6.45h-19.35A6.45,6.45,0,0,1,1378.84,193.28Z"/><path class="cls-6" d="M1127.28,193.28h0a6.45,6.45,0,0,1,6.45-6.45h19.35a6.45,6.45,0,0,1,6.45,6.45h0a6.45,6.45,0,0,1-6.45,6.45h-19.35A6.45,6.45,0,0,1,1127.28,193.28Z"/><path class="cls-6" d="M1392.08,264.23h0a6.45,6.45,0,0,1-8.81,2.36l-5.59-3.22a6.45,6.45,0,0,1-2.36-8.81h0a6.44,6.44,0,0,1,8.81-2.36l5.59,3.22A6.45,6.45,0,0,1,1392.08,264.23Z"/><path class="cls-6" d="M1163.05,132h0a6.45,6.45,0,0,1-8.81,2.36l-5.59-3.22a6.45,6.45,0,0,1-2.36-8.81h0a6.44,6.44,0,0,1,8.81-2.36l5.59,3.22A6.45,6.45,0,0,1,1163.05,132Z"/><path class="cls-6" d="M1146.29,264.23h0a6.45,6.45,0,0,0,8.81,2.36l5.59-3.22a6.45,6.45,0,0,0,2.36-8.81h0a6.44,6.44,0,0,0-8.81-2.36l-5.59,3.22A6.45,6.45,0,0,0,1146.29,264.23Z"/><path class="cls-6" d="M1375.32,132h0a6.45,6.45,0,0,0,8.81,2.36l5.59-3.22a6.45,6.45,0,0,0,2.36-8.81h0a6.44,6.44,0,0,0-8.81-2.36l-5.59,3.22A6.45,6.45,0,0,0,1375.32,132Z"/><path class="cls-6" d="M1198.23,316.17h0a6.45,6.45,0,0,1-2.36-8.81l3.23-5.58a6.45,6.45,0,0,1,8.81-2.37h0a6.47,6.47,0,0,1,2.36,8.82l-3.23,5.58A6.44,6.44,0,0,1,1198.23,316.17Z"/><path class="cls-6" d="M1330.46,87.14h0a6.45,6.45,0,0,1-2.36-8.81l3.23-5.58a6.44,6.44,0,0,1,8.81-2.36h0a6.45,6.45,0,0,1,2.36,8.81l-3.23,5.58A6.44,6.44,0,0,1,1330.46,87.14Z"/><path class="cls-6" d="M1198.23,70.39h0a6.45,6.45,0,0,0-2.36,8.81l3.23,5.58a6.44,6.44,0,0,0,8.81,2.36h0a6.45,6.45,0,0,0,2.36-8.81L1207,72.75A6.44,6.44,0,0,0,1198.23,70.39Z"/><path class="cls-6" d="M1330.46,299.41h0a6.47,6.47,0,0,0-2.36,8.82l3.23,5.58a6.44,6.44,0,0,0,8.81,2.36h0a6.45,6.45,0,0,0,2.36-8.81l-3.23-5.58A6.45,6.45,0,0,0,1330.46,299.41Z"/><path class="cls-6" d="M1359.49,186.83h-83.85v-71a6.45,6.45,0,0,0-12.9,0v71h-12.91a6.45,6.45,0,1,0,0,12.9h12.91v12.9a6.45,6.45,0,1,0,12.9,0v-12.9h83.85a6.45,6.45,0,1,0,0-12.9Z"/><circle class="cls-3" cx="1269.19" cy="193.28" r="12.9"/></g></g></svg>