<svg xmlns="http://www.w3.org/2000/svg" viewBox="0 0 2572.2 328.81"><defs><style>.cls-1,.cls-10{fill:none;}.cls-2{fill:#e6f9f7;}.cls-3{fill:#c0efeb;}.cls-4{fill:#13342c;}.cls-5{fill:#60ccbd;}.cls-6{fill:#80d6ca;}.cls-7{fill:#236057;opacity:0.2;}.cls-8{fill:#48998e;}.cls-9{fill:#d9f5f3;}.cls-10{stroke:#093447;stroke-miterlimit:10;stroke-width:5px;}</style></defs><title>Agile-ch1-2</title><g id="Layer_2" data-name="Layer 2"><g id="Layer_1-2" data-name="Layer 1"><rect class="cls-1" width="2572.2" height="328.81"/><path class="cls-2" d="M1390.39,249.08c0,44-98.15,79.73-225.36,79.73s-230.34-35.69-230.34-79.73,103.12-79.73,230.34-79.73S1390.39,205.05,1390.39,249.08Z"/><ellipse class="cls-3" cx="1183.57" cy="62.59" rx="205.99" ry="62.59"/><path class="cls-4" d="M1183.57,124.52c-113.76,0-206-28-206-62.59V234.69c0,34.57,92.23,62.59,206,62.59q7.54,0,15-.17V231.85L1306,285c50.7-11.4,83.58-29.71,83.58-50.34l-.11-172.84C1389.45,96.42,1297.34,124.52,1183.57,124.52Z"/><polygon class="cls-5" points="1174.32 56.58 1198.52 124.36 1198.52 231.85 1305.77 284.93 1305.77 112.32 1174.32 56.58"/><polygon class="cls-6" points="1198.52 231.85 1305.77 284.93 1305.77 241.38 1198.52 188.8 1198.52 231.85"/><polygon class="cls-5" points="1305.77 112.32 1174.32 56.58 1191.68 105.21 1305.77 161.13 1305.77 112.32"/><polygon class="cls-6" points="1305.77 161.13 1191.68 105.21 1198.33 125.25 1198.52 148.68 1305.77 201.25 1305.77 161.13"/><polygon class="cls-5" points="1198.52 148.68 1198.52 188.8 1305.77 241.38 1305.77 201.25 1198.52 148.68"/><path class="cls-3" d="M1075.14,137.35c0,10.23-8.09,18.6-18,18.6s-18-8.37-18-18.6V97.93c0-10.23,8.1-18.6,18-18.6s18,8.37,18,18.6Z"/><path class="cls-3" d="M1126,151.23c0,7.5-5.68,13.64-12.63,13.64s-12.64-6.14-12.64-13.64V112.39c0-7.5,5.69-13.64,12.64-13.64s12.63,6.14,12.63,13.64Z"/><path class="cls-4" d="M1100.66,154.69c0,7.51-5.74,13.64-12.75,13.64s-12.76-6.13-12.76-13.64V115.85c0-7.5,5.74-13.64,12.76-13.64s12.75,6.14,12.75,13.64Z"/><path class="cls-3" d="M1341.74,134.25c0,10.23-8.1,18.6-18,18.6s-18-8.37-18-18.6V94.83c0-10.23,8.09-18.6,18-18.6s18,8.37,18,18.6Z"/><path class="cls-3" d="M1389.84,125.19c0,7.51-5.06,13.64-11.26,13.64s-11.26-6.13-11.26-13.64V65.34c0-7.5,5.07-13.64,11.26-13.64s11.26,6.14,11.26,13.64Z"/><path class="cls-4" d="M1367.25,128.65c0,7.51-5.74,13.64-12.75,13.64s-12.75-6.13-12.75-13.64V89.81c0-7.5,5.74-13.64,12.75-13.64s12.75,6.14,12.75,13.64Z"/><path class="cls-4" d="M1039.07,136.4c0,7.51-5.87,13.64-13,13.64s-13-6.13-13-13.64V97.56c0-7.5,5.87-13.64,13-13.64s13,6.14,13,13.64Z"/><polygon class="cls-7" points="1174.32 56.58 1191.68 105.21 1198.33 125.25 1198.52 148.68 1198.52 188.8 1198.52 231.85 1220.54 242.74 1220.54 199.6 1220.54 159.47 1220.54 119.35 1220.54 76.18 1174.32 56.58"/><path class="cls-3" d="M1012.94,100.73c0,10.23-8.1,18.6-18,18.6s-18-8.37-18-18.6V63.26c0-10.23,8.09-18.6,18-18.6s18,8.37,18,18.6Z"/><path class="cls-3" d="M1174.4,55.33c-4.82-11.82-22.22,51.38-22.22,64.58v34.28c0,13.2,10.45,24,23.21,24s23.22-10.8,23.22-24V128.94C1198.61,115.74,1179.67,68.25,1174.4,55.33Z"/><path class="cls-4" d="M1469.56,148.73s27.41,13,61,8.74c0,0,42.53-8.08,73.23-25.76,0,0,9.38-7.81,23,3.88,0,0,17.84-1.6,7.52-38.33l-5.4-19.19-166.08,46.71Z"/><path class="cls-8" d="M1512.81,138.57a9.09,9.09,0,1,1-3.46-12.4,9.1,9.1,0,0,1,3.46,12.4Z"/><path class="cls-8" d="M1611.91,110.71a9.1,9.1,0,1,1-3.51-12.39,9.1,9.1,0,0,1,3.51,12.39Z"/><path class="cls-2" d="M1257,192.08a73.36,73.36,0,0,0,90.29,50.76l135-37.75a9.57,9.57,0,0,0,6.63-11.78l-19.74-70.57-205.55,57.5A9.59,9.59,0,0,0,1257,192.08Z"/><path class="cls-9" d="M1257,192a73.09,73.09,0,0,0,8.57,19.32l211.82-59.24-8.21-29.37-205.55,57.5A9.56,9.56,0,0,0,1257,192Z"/><path class="cls-4" d="M1152.32,160.38a13.19,13.19,0,1,1-26.36,0V121.54a13.19,13.19,0,1,1,26.36,0Z"/><line class="cls-10" x1="1224.96" y1="170.83" x2="1239.13" y2="178.6"/><line class="cls-10" x1="1217.18" y1="202.66" x2="1233.33" y2="202.31"/><line class="cls-10" x1="1279.08" y1="137.97" x2="1279.44" y2="154.13"/><line class="cls-10" x1="1247.62" y1="147.15" x2="1256.01" y2="160.96"/></g></g></svg>