<svg xmlns="http://www.w3.org/2000/svg" viewBox="0 0 80.63 80.63"><defs><style>.cls-1{fill:#ffcd5c;}.cls-2{fill:#ffe682;}.cls-3{fill:#f9f4e1;}.cls-4{fill:#f66631;}.cls-5{fill:#093447;}.cls-6{fill:#ffb40e;}.cls-7{fill:none;}</style></defs><title>agile-ch4</title><g id="Layer_2" data-name="Layer 2"><g id="Layer_1-2" data-name="Layer 1"><path class="cls-1" d="M26.57,25H23.18A13.39,13.39,0,0,1,9.81,11.63V2.88H23V7.56H14.49v4.07a8.7,8.7,0,0,0,8.69,8.69h3.39Z"/><rect class="cls-2" x="37.21" y="35.06" width="7.95" height="18.52"/><path class="cls-2" d="M21,2.8V17.53c0,13.23,9,23.95,20.12,23.95S61.19,30.76,61.19,17.53V2.8Z"/><polygon class="cls-2" points="51.61 77.83 13.77 77.83 19.28 58.77 49.43 58.77 51.61 77.83"/><polygon class="cls-3" points="46.27 58.77 23.25 58.77 25.12 50.01 46.27 50.01 46.27 58.77"/><polygon class="cls-4" points="56.57 58.77 44.87 58.77 46.27 50.01 54.01 50.01 56.57 58.77"/><polygon class="cls-4" points="66.5 77.83 44.31 77.83 47.97 58.77 59.61 58.77 66.5 77.83"/><rect class="cls-5" x="26.41" y="64.53" width="9.3" height="1.5"/><rect class="cls-5" x="22.23" y="69.49" width="15.48" height="1.5"/><path class="cls-1" d="M48.53,3.55V25.32c0,9.57-7.46,16.16-7.46,16.16,11.11,0,20.12-10.72,20.12-23.95V2.8H48.53Z"/><path class="cls-6" d="M37.58,12.21,39.38,16a.42.42,0,0,0,.32.24l4.18.53a.41.41,0,0,1,.23.71L41,20.39a.41.41,0,0,0-.12.38l.79,4.13a.42.42,0,0,1-.61.44l-3.69-2a.41.41,0,0,0-.4,0l-3.69,2a.41.41,0,0,1-.61-.44l.78-4.13a.41.41,0,0,0-.12-.38L30.3,17.5a.41.41,0,0,1,.24-.71l4.17-.53A.43.43,0,0,0,35,16l1.79-3.81A.42.42,0,0,1,37.58,12.21Z"/><path class="cls-2" d="M57.45,25V20.32a8.7,8.7,0,0,0,8.69-8.69V7.56h-8.5V2.88H70.82v8.75A13.39,13.39,0,0,1,57.45,25Z"/><rect class="cls-7" width="80.63" height="80.63"/></g></g></svg>