<svg xmlns="http://www.w3.org/2000/svg" viewBox="0 0 80.63 80.63"><defs><style>.cls-1{fill:#282982;}.cls-2{fill:#b2b3ec;}.cls-3{fill:#383a9b;}.cls-4{fill:#190944;}.cls-5{fill:#d7daf2;}.cls-6{fill:#093447;}.cls-7{fill:none;}</style></defs><title>agile-ch2</title><g id="Layer_2" data-name="Layer 2"><g id="Layer_1-2" data-name="Layer 1"><rect class="cls-1" x="8" y="5.73" width="45.27" height="61.13" rx="4.62" ry="4.62" transform="translate(-10.71 12.92) rotate(-20.35)"/><rect class="cls-2" x="18.51" y="8.08" width="45.27" height="61.13" rx="4.62" ry="4.62" transform="translate(-0.23 0.25) rotate(-0.35)"/><path class="cls-3" d="M24,19.09a1.9,1.9,0,0,1-1.32-.5A2.09,2.09,0,0,1,22.05,17h1.5c0,.21,0,.48.2.56a.69.69,0,0,0,.53,0V13.14h1.5v4.67C25.78,18.6,24.85,19.09,24,19.09Z"/><path class="cls-4" d="M58.25,64.14h-2V59.47c0-.94,1.06-1.52,2-1.52a2.17,2.17,0,0,1,1.49.56,2.36,2.36,0,0,1,.68,1.79h-2c0-.27-.06-.34-.06-.34s-.11,0-.19,0Z"/><rect class="cls-5" x="27.59" y="13.87" width="45.27" height="61.13" rx="4.62" ry="4.62" transform="translate(17.87 -14.3) rotate(19.65)"/><path class="cls-3" d="M54.36,32.72l-3.12,1.47c-3,1.39-5.94,2.8-8.92,4.18a5.89,5.89,0,0,0-2,9.25,5.56,5.56,0,0,0,6.31,1.55,16.05,16.05,0,0,0,2-1.13m0,0c.36.81.59,1.35.85,1.88a5.91,5.91,0,0,0,10,1.08,5.78,5.78,0,0,0,.67-6.4C58.43,41,56.68,37.47,55,33.9l-.6-1.18"/><path class="cls-1" d="M46,55.71l6.09,2.22a14.31,14.31,0,0,1-3.8-8.62"/><path class="cls-3" d="M48.31,49.31a14.14,14.14,0,0,1-8.38,4.19L46,55.71"/><path class="cls-1" d="M48.62,48c.36.81.59,1.35.85,1.88a5.91,5.91,0,0,0,10,1.08,5.78,5.78,0,0,0,.67-6.4C58.43,41,56.68,37.47,55,33.9l-.6-1.18"/><path class="cls-6" d="M43.77,20.83l-.31-3.16-2.13,2.24-1.08-1,3.25-3.44a.76.76,0,0,1,1.3.45l.47,4.79Z"/><path class="cls-6" d="M56.62,74.92a.69.69,0,0,1-.25,0,.75.75,0,0,1-.5-.64l-.49-5,1.49-.14.33,3.38,2.28-2.4,1.09,1-3.41,3.6A.74.74,0,0,1,56.62,74.92Z"/><rect class="cls-7" width="80.63" height="80.63"/></g></g></svg>