<svg xmlns="http://www.w3.org/2000/svg" viewBox="0 0 2572.2 548.05"><defs><style>.cls-1,.cls-6,.cls-8{fill:none;}.cls-2,.cls-4{fill:#f3b641;}.cls-2{opacity:0.2;}.cls-3{fill:#fff;}.cls-5{fill:#e88144;}.cls-6,.cls-8{stroke:#093447;stroke-miterlimit:10;}.cls-6{stroke-width:3px;}.cls-7{fill:#964117;}.cls-8{stroke-width:5px;}.cls-9{fill:#f8f4e3;}.cls-10{fill:#713111;}.cls-11{fill:#f1af56;}.cls-12{fill:#fbf8ee;}.cls-13{fill:#f5c567;}.cls-14{fill:#f4bf78;}.cls-15{fill:#ed9a69;}</style></defs><title>Agile-ch4-5_1</title><g id="Layer_2" data-name="Layer 2"><g id="Layer_1-2" data-name="Layer 1"><rect class="cls-1" width="2572.2" height="548.05"/><path class="cls-2" d="M1348.53,418.72c-25.26,0,53.09,19.53,53.09-2s18.53-39.11,41.17-39.11S1484,357,1484,331.71V159.57A46.06,46.06,0,0,0,1438,113.65H1362.5a46,46,0,0,1-45.92-45.92V55.55a46.06,46.06,0,0,0-45.92-45.92H911.43A46.06,46.06,0,0,0,865.5,55.55V67.73a46,46,0,0,1-45.92,45.92H736.86a46.06,46.06,0,0,0-45.92,45.92v37.49A46.06,46.06,0,0,0,736.86,243H860.37a46,46,0,0,1,45.92,45.92v22a46,46,0,0,1-45.92,45.92H808A46.06,46.06,0,0,0,762,402.76v.36A46.06,46.06,0,0,0,808,449h94.14A46.06,46.06,0,0,1,948,495v7.17a46.06,46.06,0,0,0,45.92,45.92h367a46.06,46.06,0,0,0,45.92-45.92V464.64A46.06,46.06,0,0,0,1361,418.72Z"/><path class="cls-3" d="M1311.44,459.34a13.75,13.75,0,0,1-13.73-13.73V120.83h551.15V445.61a13.74,13.74,0,0,1-13.72,13.73Z"/><path class="cls-4" d="M1847.87,121.83V445.61a12.75,12.75,0,0,1-12.73,12.73h-523.7a12.74,12.74,0,0,1-12.73-12.73V121.83h549.16m2-2H1296.71V445.61a14.73,14.73,0,0,0,14.73,14.73h523.7a14.73,14.73,0,0,0,14.73-14.73V119.83Z"/><path class="cls-5" d="M1311.27,99h524a14.55,14.55,0,0,1,14.55,14.55V128a0,0,0,0,1,0,0H1296.71a0,0,0,0,1,0,0V113.53A14.55,14.55,0,0,1,1311.27,99Z"/><line class="cls-6" x1="1399.94" y1="278.54" x2="1793.63" y2="278.54"/><line class="cls-6" x1="1399.94" y1="240.95" x2="1793.63" y2="240.95"/><line class="cls-6" x1="1399.94" y1="316.14" x2="1793.63" y2="316.14"/><rect class="cls-5" x="1344.08" y="236.32" width="43.23" height="84.46"/><line class="cls-6" x1="1399.94" y1="183.62" x2="1793.63" y2="183.62"/><rect class="cls-4" x="1344.08" y="153.3" width="43.23" height="60.65"/><line class="cls-6" x1="1399.94" y1="365.53" x2="1793.63" y2="365.53"/><line class="cls-6" x1="1399.94" y1="407.2" x2="1793.63" y2="407.2"/><rect class="cls-7" x="1344.08" y="344.13" width="43.23" height="84.46"/><polygon class="cls-4" points="1458.77 172.42 1449.35 183.63 1458.77 194.83 1468.19 183.63 1458.77 172.42"/><polygon class="cls-4" points="1547.08 172.42 1537.66 183.63 1547.08 194.83 1556.49 183.63 1547.08 172.42"/><polygon class="cls-4" points="1723.66 172.42 1714.25 183.63 1723.66 194.83 1733.08 183.63 1723.66 172.42"/><rect class="cls-4" x="1627.38" y="175.71" width="15.83" height="15.83"/><path class="cls-5" d="M1494.83,246.94h-64.78c-8.54,0-8.54-12.81,0-12.81h64.78C1503.37,234.13,1503.37,246.94,1494.83,246.94Z"/><path class="cls-5" d="M1546.15,321.86H1499c-8.54,0-8.54-12.81,0-12.81h47.11C1554.69,309.05,1554.69,321.86,1546.15,321.86Z"/><path class="cls-7" d="M1677.7,372.19h-47.1c-8.54,0-8.54-12.81,0-12.81h47.1C1686.24,359.38,1686.24,372.19,1677.7,372.19Z"/><path class="cls-7" d="M1759.22,413.38H1633.33c-8.54,0-8.54-12.81,0-12.81h125.89C1767.76,400.57,1767.76,413.38,1759.22,413.38Z"/><path class="cls-5" d="M1715.08,321.86H1612.67c-8.54,0-8.54-12.81,0-12.81h102.41C1723.62,309.05,1723.62,321.86,1715.08,321.86Z"/><path class="cls-5" d="M1723.66,246.94H1574.2c-8.54,0-8.54-12.81,0-12.81h149.46C1732.2,234.13,1732.2,246.94,1723.66,246.94Z"/><path class="cls-7" d="M1579.45,372.19H1465.9c-8.54,0-8.54-12.81,0-12.81h113.55C1588,359.38,1588,372.19,1579.45,372.19Z"/><path class="cls-7" d="M1517.19,413.38H1433c-8.54,0-8.54-12.81,0-12.81h84.21C1525.73,400.57,1525.73,413.38,1517.19,413.38Z"/><path class="cls-5" d="M1535.44,285.08h-82.73c-8.54,0-8.54-12.81,0-12.81h82.73C1544,272.27,1544,285.08,1535.44,285.08Z"/><path class="cls-5" d="M1639.21,285.08h-60.78c-8.54,0-8.54-12.81,0-12.81h60.78C1647.75,272.27,1647.75,285.08,1639.21,285.08Z"/><path class="cls-5" d="M1767.41,285.08h-87.68c-8.54,0-8.54-12.81,0-12.81h87.68C1776,272.27,1776,285.08,1767.41,285.08Z"/><line class="cls-8" x1="1839.93" y1="65.95" x2="1839.93" y2="39.11"/><line class="cls-8" x1="1870.07" y1="79.11" x2="1889.05" y2="60.13"/><line class="cls-8" x1="1809.79" y1="79.11" x2="1790.81" y2="60.13"/><line class="cls-8" x1="1882.08" y1="109.73" x2="1908.92" y2="109.73"/><line class="cls-8" x1="1868.92" y1="139.87" x2="1887.9" y2="158.85"/><path class="cls-7" d="M825.41,297.4a10,10,0,0,1,14.08,0L859.06,317,845,331.05l-19.56-19.56a10,10,0,0,1,0-14.09Z"/><path class="cls-7" d="M811.32,311.49a10,10,0,0,1,14.09,0L845,331.05l-14.08,14.09-19.57-19.57a10,10,0,0,1,0-14.08Z"/><path class="cls-7" d="M812.91,433.67a10,10,0,0,1,0-14.09L832.47,400l14.09,14.09L827,433.67a10,10,0,0,1-14.09,0Z"/><path class="cls-7" d="M827,447.75a10,10,0,0,1,0-14.08l19.56-19.56,14.09,14.08-19.57,19.56a10,10,0,0,1-14.08,0Z"/><path class="cls-4" d="M994.32,389.26l-38,38-12.89,12.9a64.1,64.1,0,0,1-90.66,0l-67.51-67.51,67.51-67.5a64.1,64.1,0,0,1,90.66,0L956.32,318l38,38a23.71,23.71,0,0,1,3.54,4.53l-9.6,9.6a9.57,9.57,0,0,0,0,13.53l12.87-12.87a23.44,23.44,0,0,1-6.81,18.43Z"/><path class="cls-5" d="M803.29,372.65h-20.2a42.92,42.92,0,0,1-42.92-42.92h20.2a42.93,42.93,0,0,1,42.92,42.92Z"/><path class="cls-5" d="M803.29,372.65h-20.2a42.93,42.93,0,0,0-42.92,42.92h20.2a42.93,42.93,0,0,0,42.92-42.92Z"/><path class="cls-5" d="M994.32,389.26l-38,38a77.23,77.23,0,0,1,0-109.22l38,38a23.71,23.71,0,0,1,3.54,4.53l-9.6,9.6a9.57,9.57,0,0,0,0,13.53l12.87-12.87a23.44,23.44,0,0,1-6.81,18.43Z"/><path class="cls-9" d="M973.88,372.65a12.51,12.51,0,1,1-12.51-12.51,12.51,12.51,0,0,1,12.51,12.51Z"/><path class="cls-10" d="M969,372.65a7.65,7.65,0,1,1-7.65-7.65,7.65,7.65,0,0,1,7.65,7.65Z"/><path class="cls-5" d="M909.64,446.67H870.05a30.56,30.56,0,0,1,30.56-30.56h25.54v14.05a16.51,16.51,0,0,1-16.51,16.51Z"/><path class="cls-5" d="M979.51,212a26.8,26.8,0,0,1,26.8-26.8h30.77a26.8,26.8,0,0,1-26.8,26.8Z"/><path class="cls-5" d="M1068.5,224.16a26.8,26.8,0,0,1,10.94-36.29l27.12-14.54a26.79,26.79,0,0,1-11,36.28Z"/><path class="cls-5" d="M1089.27,147.48a35.49,35.49,0,0,0-14.49-48l-35.9-19.25a35.47,35.47,0,0,0,14.49,48Z"/><path class="cls-4" d="M1192.83,156.74a232.17,232.17,0,0,1-72.47,32.82A232.93,232.93,0,0,1,1062,197a232.58,232.58,0,0,1-130.87-40.25,232.75,232.75,0,0,1,261.74,0Z"/><path class="cls-11" d="M1192.83,156.74A232.58,232.58,0,0,1,1062,197a232.58,232.58,0,0,1-130.87-40.25Z"/><path class="cls-7" d="M1192.83,156.74a232.17,232.17,0,0,1-72.47,32.82,79.68,79.68,0,0,1,0-65.65,232.47,232.47,0,0,1,72.46,32.83Z"/><path class="cls-9" d="M1152.05,156.73a13.8,13.8,0,1,1-13.8-13.8,13.8,13.8,0,0,1,13.8,13.8Z"/><path class="cls-10" d="M1146.7,156.73a8.45,8.45,0,1,1-8.45-8.44,8.44,8.44,0,0,1,8.45,8.44Z"/><path class="cls-5" d="M1307.94,330.57a3.93,3.93,0,0,1-5.56-5.55l5.58-5.58H1109.37A101.57,101.57,0,0,0,1211,421.06c1.74,0,3.47,0,5.19-.13a101.61,101.61,0,0,0,96.21-94.81Z"/><path class="cls-4" d="M1307.94,330.57a3.93,3.93,0,0,1-5.56-5.55l5.59-5.58h-59.36a101.81,101.81,0,0,0,16.54,86,101.54,101.54,0,0,0,47.24-79.31Z"/><path class="cls-9" d="M1289.07,343.17a13.1,13.1,0,1,1-13.1-13.1,13.09,13.09,0,0,1,13.1,13.1Z"/><path class="cls-10" d="M1284,343.17a8,8,0,1,1-8-8,8,8,0,0,1,8,8Z"/><path class="cls-4" d="M1178.48,319.44h31.67V309.07a18,18,0,0,0-18-18h-34.07v8a20.43,20.43,0,0,0,20.42,20.43Z"/><path class="cls-4" d="M1189.72,432.3h-31.66V421.94a18,18,0,0,1,18-18h34.08v7.95a20.43,20.43,0,0,1-20.43,20.43Z"/><circle class="cls-12" cx="1002.65" cy="318.05" r="12.56"/><path class="cls-9" d="M995,318.47h-1.72a10,10,0,0,1,10-10v1.71A8.29,8.29,0,0,0,995,318.47Z"/><circle class="cls-12" cx="979.9" cy="262.95" r="9.71"/><path class="cls-9" d="M979.17,255.91H979v1.76h.21a6.19,6.19,0,0,1,6.19,6.18v.22h1.75v-.22A8,8,0,0,0,979.17,255.91Z"/><circle class="cls-12" cx="1197.82" cy="117.34" r="11.4"/><path class="cls-9" d="M1204.82,117.73h1.55a9.08,9.08,0,0,0-9.07-9.07v1.56A7.52,7.52,0,0,1,1204.82,117.73Z"/><path class="cls-13" d="M838.81,366a8.74,8.74,0,0,1-9-9v-4.23h1.59V357a7.44,7.44,0,0,0,14.87,0v-4.23h1.59V357A8.74,8.74,0,0,1,838.81,366Z"/><path class="cls-13" d="M855.25,366a8.74,8.74,0,0,1-9-9v-4.23h1.59V357a7.44,7.44,0,0,0,14.87,0v-4.23h1.59V357A8.74,8.74,0,0,1,855.25,366Z"/><path class="cls-13" d="M885,346.44a8.74,8.74,0,0,1-9-9v-4.23h1.59v4.23a7.44,7.44,0,1,0,14.87,0v-4.23H894v4.23A8.74,8.74,0,0,1,885,346.44Z"/><path class="cls-13" d="M901.39,346.44a8.74,8.74,0,0,1-9-9v-4.23H894v4.23a7.44,7.44,0,1,0,14.87,0v-4.23h1.59v4.23A8.74,8.74,0,0,1,901.39,346.44Z"/><path class="cls-13" d="M860.2,398.23a8.74,8.74,0,0,1-9-9V385h1.59v4.23a7.44,7.44,0,0,0,14.87,0V385h1.59v4.23A8.74,8.74,0,0,1,860.2,398.23Z"/><path class="cls-13" d="M876.64,398.23a8.74,8.74,0,0,1-9-9V385h1.59v4.23a7.44,7.44,0,0,0,14.87,0V385h1.59v4.23A8.74,8.74,0,0,1,876.64,398.23Z"/><path class="cls-13" d="M893.08,398.23a8.74,8.74,0,0,1-9-9V385h1.59v4.23a7.44,7.44,0,0,0,14.87,0V385h1.59v4.23A8.74,8.74,0,0,1,893.08,398.23Z"/><path class="cls-13" d="M1010.63,145.76a8.74,8.74,0,0,1-9-9V132.5h1.59v4.23a7.44,7.44,0,1,0,14.87,0V132.5h1.59v4.23A8.74,8.74,0,0,1,1010.63,145.76Z"/><path class="cls-13" d="M1027.07,145.76a8.74,8.74,0,0,1-9-9V132.5h1.59v4.23a7.44,7.44,0,1,0,14.87,0V132.5h1.59v4.23A8.74,8.74,0,0,1,1027.07,145.76Z"/><path class="cls-13" d="M1071.09,145.76a8.74,8.74,0,0,1-9-9V132.5h1.59v4.23a7.44,7.44,0,1,0,14.87,0V132.5h1.59v4.23A8.74,8.74,0,0,1,1071.09,145.76Z"/><path class="cls-13" d="M1087.53,145.76a8.74,8.74,0,0,1-9-9V132.5h1.59v4.23a7.44,7.44,0,1,0,14.87,0V132.5h1.59v4.23A8.74,8.74,0,0,1,1087.53,145.76Z"/><path class="cls-14" d="M1034.67,180.05a8.74,8.74,0,0,1-9-9v-4.24h1.59V171a7.44,7.44,0,0,0,14.87,0v-4.24h1.59V171A8.74,8.74,0,0,1,1034.67,180.05Z"/><path class="cls-14" d="M1051.11,180.05a8.74,8.74,0,0,1-9-9v-4.24h1.59V171a7.44,7.44,0,0,0,14.87,0v-4.24h1.59V171A8.74,8.74,0,0,1,1051.11,180.05Z"/><path class="cls-14" d="M1067.55,180.05a8.74,8.74,0,0,1-9-9v-4.24h1.59V171a7.44,7.44,0,0,0,14.87,0v-4.24h1.59V171A8.74,8.74,0,0,1,1067.55,180.05Z"/><path class="cls-15" d="M1202.8,346.94a8.74,8.74,0,0,1-9-9v-4.23h1.59v4.23a7.44,7.44,0,1,0,14.87,0v-4.23h1.59v4.23A8.74,8.74,0,0,1,1202.8,346.94Z"/><path class="cls-15" d="M1219.24,346.94a8.74,8.74,0,0,1-9-9v-4.23h1.59v4.23a7.44,7.44,0,1,0,14.87,0v-4.23h1.59v4.23A8.74,8.74,0,0,1,1219.24,346.94Z"/><path class="cls-15" d="M1212.69,392.19a8.74,8.74,0,0,1-9-9v-4.23h1.59v4.23a7.44,7.44,0,1,0,14.87,0v-4.23h1.59v4.23A8.74,8.74,0,0,1,1212.69,392.19Z"/><path class="cls-15" d="M1229.13,392.19a8.74,8.74,0,0,1-9-9v-4.23h1.59v4.23a7.44,7.44,0,1,0,14.87,0v-4.23h1.59v4.23A8.74,8.74,0,0,1,1229.13,392.19Z"/><path class="cls-15" d="M1153.47,369.55a8.74,8.74,0,0,1-9-9v-4.24H1146v4.24c0,5.11,3.85,7.43,7.44,7.43a7.12,7.12,0,0,0,7.43-7.43v-4.24h1.59v4.24A8.74,8.74,0,0,1,1153.47,369.55Z"/><path class="cls-15" d="M1169.91,369.55a8.74,8.74,0,0,1-9-9v-4.24h1.59v4.24c0,5.11,3.85,7.43,7.44,7.43a7.12,7.12,0,0,0,7.43-7.43v-4.24h1.59v4.24A8.74,8.74,0,0,1,1169.91,369.55Z"/><path class="cls-15" d="M1186.35,369.55a8.74,8.74,0,0,1-9-9v-4.24h1.59v4.24c0,5.11,3.85,7.43,7.44,7.43a7.12,7.12,0,0,0,7.43-7.43v-4.24h1.59v4.24A8.74,8.74,0,0,1,1186.35,369.55Z"/><path class="cls-7" d="M1113.24,323.3l-6.24-6.25a35.31,35.31,0,0,1,0-49.95l6.24-6.25,6.25,6.25a35.33,35.33,0,0,1,0,49.95Z"/><path class="cls-7" d="M1113.24,323.3l-6.24,6.25a35.34,35.34,0,0,1-50,0l-6.24-6.25,6.24-6.25a35.34,35.34,0,0,1,50,0Z"/><path class="cls-5" d="M939.68,156.73H921.77a38.06,38.06,0,0,1-38.06-38.06h17.91a38.06,38.06,0,0,1,38.06,38.06Z"/><path class="cls-5" d="M939.68,156.73H921.77a38.06,38.06,0,0,0-38.06,38.06h17.91a38.06,38.06,0,0,0,38.06-38.06Z"/></g></g></svg>