<svg xmlns="http://www.w3.org/2000/svg" viewBox="0 0 80.63 80.63"><defs><style>.cls-1{fill:#b2f1eb;}.cls-2{fill:#007369;}.cls-3{fill:#093447;}.cls-4{fill:none;}</style></defs><title>agile-ch1</title><g id="Layer_2" data-name="Layer 2"><g id="Layer_1-2" data-name="Layer 1"><polygon class="cls-1" points="50.75 54.71 29.51 32.07 29.51 40.07 3.81 40.07 3.81 69.35 29.51 69.35 29.51 76.79 50.75 54.71"/><polygon class="cls-2" points="29.5 25.68 50.74 48.33 50.74 40.33 76.44 40.33 76.44 11.05 50.74 11.05 50.74 3.6 29.5 25.68"/><rect class="cls-3" x="23.37" y="17.72" width="1.5" height="5.41" transform="translate(-7.38 23.04) rotate(-45)"/><rect class="cls-3" x="19.24" y="24.94" width="5.41" height="1.5"/><rect class="cls-3" x="21.42" y="30.19" width="5.41" height="1.5" transform="translate(-14.81 26.12) rotate(-45)"/><rect class="cls-3" x="55.42" y="56.98" width="1.5" height="5.41" transform="translate(-25.75 57.2) rotate(-45)"/><rect class="cls-3" x="55.64" y="53.68" width="5.41" height="1.5"/><rect class="cls-3" x="53.46" y="48.43" width="5.41" height="1.5" transform="translate(-18.32 54.12) rotate(-45)"/><rect class="cls-4" width="80.63" height="80.63"/></g></g></svg>