<svg xmlns="http://www.w3.org/2000/svg" viewBox="0 0 2572.2 365.76"><defs><style>.cls-1,.cls-4{fill:none;}.cls-2{fill:#f66631;}.cls-3{fill:#f3b641;}.cls-4{stroke:#093447;stroke-miterlimit:10;stroke-width:5px;}</style></defs><title>Basics-ch3-1</title><g id="Layer_2" data-name="Layer 2"><g id="Layer_1-2" data-name="Layer 1"><rect class="cls-1" width="2572.2" height="365.76"/><path class="cls-2" d="M1255.26,174.6Q1175.37,94.74,1095.5,14.86c-1.36-1.36-2.68-2.75-4.08-4.07-5-4.71-5.15-4.83-10-.07-12.54,12.39-25,24.9-37.42,37.36-4.08,4.08-8.25,8.07-12.2,12.26-4.52,4.8-4.61,5.39.15,10.22,14,14.14,28.06,28.13,42.11,42.18,7.93,7.93,15.87,15.84,23.77,23.81,1.05,1.06,2.61,1.95,2,4.88H966c-1.61,0-3.22,0-4.83,0H932.7c-1.92,0-3.84,0-5.77,0-8.12.15-8.28.16-8.31,7.83q-.14,33.64,0,67.29c0,7.67.2,7.81,8.32,7.82q24.21,0,48.41,0h125.21c-1.06,4.42-4,6.11-6.11,8.27q-28.47,28.63-57.08,57.13c-1.81,1.81-3.68,3.57-5.41,5.46-4.59,5-4.62,5.39-.12,10.24,2.61,2.82,5.41,5.46,8.13,8.18q20.38,20.4,40.8,40.77c5.53,5.48,5.7,5.48,11.32-.11q34.73-34.62,69.35-69.33,46.9-46.89,93.82-93.79c2.49-2.49,5.11-4.84,7.67-7.25,0-.71,0-1.42,0-2.13C1260.37,179.44,1257.75,177.09,1255.26,174.6Z"/><path class="cls-3" d="M1316.94,174.6q79.89-79.86,159.75-159.74c1.36-1.36,2.69-2.75,4.09-4.07,5-4.71,5.15-4.83,10-.07,12.53,12.39,25,24.9,37.41,37.36,4.08,4.08,8.25,8.07,12.21,12.26,4.52,4.8,4.61,5.39-.15,10.22-14,14.14-28.06,28.13-42.11,42.18-7.93,7.93-15.88,15.84-23.77,23.81-1.06,1.06-2.62,1.95-2,4.88h133.93c1.61,0,3.22,0,4.83,0h28.44c1.93,0,3.85,0,5.77,0,8.13.15,8.29.16,8.32,7.83q.14,33.64,0,67.29c0,7.67-.19,7.81-8.32,7.82q-24.19,0-48.4,0H1471.65c1,4.42,3.95,6.11,6.11,8.27q28.47,28.63,57.07,57.13c1.82,1.81,3.68,3.57,5.42,5.46,4.58,5,4.61,5.39.12,10.24-2.61,2.82-5.41,5.46-8.13,8.18q-20.4,20.4-40.81,40.77c-5.52,5.48-5.7,5.48-11.31-.11q-34.72-34.62-69.35-69.33-46.9-46.89-93.82-93.79c-2.49-2.49-5.11-4.84-7.67-7.25,0-.71,0-1.42,0-2.13C1311.83,179.44,1314.45,177.09,1316.94,174.6Z"/><line class="cls-4" x1="1247.47" y1="126.33" x2="1267.05" y2="152.97"/><line class="cls-4" x1="1324.73" y1="126.33" x2="1305.15" y2="152.97"/><line class="cls-4" x1="1285.67" y1="115.48" x2="1286.52" y2="150.06"/><line class="cls-4" x1="1324.73" y1="239.44" x2="1305.15" y2="212.79"/><line class="cls-4" x1="1247.47" y1="239.44" x2="1267.05" y2="212.79"/><line class="cls-4" x1="1286.52" y1="250.28" x2="1285.67" y2="215.7"/></g></g></svg>