<svg xmlns="http://www.w3.org/2000/svg" viewBox="0 0 80.63 80.63"><defs><style>.cls-1{fill:#093447;}.cls-2{fill:#e6faf3;}.cls-3{fill:#096642;}.cls-4{fill:#88e6c1;}.cls-5{fill:#11cc83;}.cls-6{fill:none;}</style></defs><title>basics-ch1</title><g id="Layer_2" data-name="Layer 2"><g id="Layer_1-2" data-name="Layer 1"><path class="cls-1" d="M38.21,76.57a3.18,3.18,0,1,1,3.18-3.17A3.17,3.17,0,0,1,38.21,76.57Zm0-4.85a1.68,1.68,0,1,0,1.68,1.68A1.68,1.68,0,0,0,38.21,71.72Z"/><rect class="cls-1" x="37.46" y="66.74" width="1.5" height="4.23"/><path class="cls-2" d="M4.18,58.14c0,2.31-.14,6.36-2.5,8.81a.78.78,0,0,0,.57,1.31H69.62a8.07,8.07,0,0,0,8.07-8.08V10.94a1.08,1.08,0,0,0-1.08-1.09H5.3a1.08,1.08,0,0,0-1.08,1.09Z"/><rect class="cls-3" x="3.83" y="8.81" width="73.87" height="6.83"/><rect class="cls-1" x="10.57" y="26.97" width="60.25" height="1"/><rect class="cls-1" x="10.57" y="41.63" width="60.25" height="1"/><rect class="cls-1" x="10.57" y="56.29" width="60.25" height="1"/><path class="cls-3" d="M19,46.17l-3.19-4a.32.32,0,0,1,0-.43L19,37.85a.34.34,0,0,1,.53,0l3.19,3.94a.35.35,0,0,1,0,.43l-3.19,4A.34.34,0,0,1,19,46.17Z"/><rect class="cls-4" x="17.38" y="23.73" width="19.76" height="7.21" rx="3.61" ry="3.61"/><circle class="cls-5" cx="61.28" cy="27.34" r="3.61"/><rect class="cls-4" x="28.46" y="38.4" width="25.59" height="7.21" rx="3.61" ry="3.61"/><rect class="cls-5" x="18.89" y="53.07" width="12.65" height="7.21" rx="3.61" ry="3.61"/><rect class="cls-3" x="37.49" y="53.07" width="15.02" height="7.21" rx="3.61" ry="3.61"/><path class="cls-3" d="M45.22,23.07l5.65,4.15a.14.14,0,0,1,0,.23L45.22,31.6a.14.14,0,0,1-.22-.11V23.18A.14.14,0,0,1,45.22,23.07Z"/><path class="cls-3" d="M60.37,37.74,66,41.9a.14.14,0,0,1,0,.22l-5.65,4.15a.14.14,0,0,1-.22-.11V37.85A.14.14,0,0,1,60.37,37.74Z"/><rect class="cls-4" x="56.88" y="53.09" width="7.19" height="7.19" rx="0.14" ry="0.14"/><circle class="cls-3" cx="3.83" cy="12.23" r="3.42"/><ellipse class="cls-4" cx="77.69" cy="12.23" rx="2.53" ry="3.42"/><rect class="cls-6" width="80.63" height="80.63"/></g></g></svg>