<svg xmlns="http://www.w3.org/2000/svg" viewBox="0 0 2572.2 526.29"><defs><style>.cls-1{fill:#fae690;}.cls-10,.cls-2,.cls-4,.cls-8,.cls-9{fill:none;}.cls-2{stroke:#093447;stroke-width:5px;}.cls-2,.cls-4,.cls-8,.cls-9{stroke-miterlimit:10;}.cls-3{fill:#fff;}.cls-4{stroke:#00172f;stroke-width:1.5px;}.cls-5{fill:#ceddf6;}.cls-6{fill:#f3b641;}.cls-7{fill:#f66631;}.cls-8{stroke:#c72a04;}.cls-8,.cls-9{stroke-width:7px;}.cls-9{stroke:#f66631;}</style></defs><title>Basics-ch3-4</title><g id="Layer_2" data-name="Layer 2"><g id="Layer_1-2" data-name="Layer 1"><path class="cls-1" d="M1555.55,312.53c0-32.56-27.09-47.14-51.23-43.68-29.23,3.1-51.07,11.12-51.07,43.68v37.16h-293v176.6h395.3V361.82h0Z"/><line class="cls-2" x1="1288.35" y1="419.23" x2="1488.5" y2="419.23"/><line class="cls-2" x1="1288.35" y1="450.14" x2="1488.5" y2="450.14"/><line class="cls-2" x1="1288.35" y1="481.05" x2="1395.41" y2="481.05"/><rect class="cls-3" x="1217.72" y="419.23" width="29.81" height="29.81"/><line class="cls-4" x1="1288.35" y1="383.32" x2="1395.41" y2="383.32"/><rect class="cls-5" x="1217.72" y="321.5" width="29.81" height="29.81"/><rect class="cls-6" x="1109.24" width="274.55" height="394.46"/><path class="cls-6" d="M1274.17,346.78a47.86,47.86,0,0,1-47.71,47.72h-162.1a47.86,47.86,0,0,1-47.72-47.72V0h209.82a47.85,47.85,0,0,1,47.71,47.71Z"/><path class="cls-6" d="M1356.36,394.49h67.46s-40-7.29-40-52.89Z"/><path class="cls-7" d="M1509,268.39h1.62S1510,268.36,1509,268.39Z"/><path class="cls-7" d="M1383.69,268.34V352.8c0,55.7,83.54,55.7,83.54,0V313c0-40.39,35-44.33,41.84-44.58Z"/><line class="cls-2" x1="1133.81" y1="53.55" x2="1333.97" y2="53.55"/><line class="cls-2" x1="1133.81" y1="84.45" x2="1333.97" y2="84.45"/><line class="cls-2" x1="1133.81" y1="115.36" x2="1240.87" y2="115.36"/><rect class="cls-3" x="1063.18" y="53.55" width="29.81" height="29.81"/><line class="cls-2" x1="1133.81" y1="163.55" x2="1333.97" y2="163.55"/><line class="cls-2" x1="1133.81" y1="194.45" x2="1333.97" y2="194.45"/><line class="cls-2" x1="1133.81" y1="225.36" x2="1305.18" y2="225.36"/><rect class="cls-3" x="1063.18" y="163.55" width="29.81" height="29.81"/><line class="cls-2" x1="1133.81" y1="273.55" x2="1333.97" y2="273.55"/><line class="cls-2" x1="1133.81" y1="304.45" x2="1333.97" y2="304.45"/><line class="cls-2" x1="1133.81" y1="335.36" x2="1274.72" y2="335.36"/><rect class="cls-3" x="1063.18" y="273.55" width="29.81" height="29.81"/><line class="cls-8" x1="1057.55" y1="51.52" x2="1086.22" y2="79.42"/><line class="cls-8" x1="1085.83" y1="51.14" x2="1057.93" y2="79.8"/><line class="cls-8" x1="1067.98" y1="159.1" x2="1096.64" y2="187"/><line class="cls-8" x1="1096.26" y1="158.72" x2="1068.36" y2="187.38"/><line class="cls-8" x1="1057.55" y1="276.17" x2="1086.22" y2="304.07"/><line class="cls-8" x1="1085.83" y1="275.79" x2="1057.93" y2="304.45"/><line class="cls-9" x1="1219.56" y1="416.44" x2="1248.23" y2="444.34"/><line class="cls-9" x1="1247.84" y1="416.06" x2="1219.94" y2="444.73"/><rect class="cls-10" width="2572.2" height="526.29"/></g></g></svg>