<svg xmlns="http://www.w3.org/2000/svg" viewBox="0 0 2572.2 538.63"><defs><style>.cls-1,.cls-8{fill:none;}.cls-2{fill:#ebf1fb;}.cls-3{fill:#3274d9;}.cls-4{fill:#0e39be;}.cls-5{fill:#ceddf6;}.cls-6{fill:#adc7f0;}.cls-7{fill:#0e39a5;}.cls-8{stroke:#00172f;stroke-miterlimit:10;stroke-width:1.5px;}</style></defs><title>Basics-ch2-3</title><g id="Layer_2" data-name="Layer 2"><g id="Layer_1-2" data-name="Layer 1"><rect class="cls-1" width="2572.2" height="538.63"/><ellipse class="cls-2" cx="1286.1" cy="500.18" rx="221.07" ry="38.45"/><rect class="cls-3" x="1197.68" y="394.21" width="180.59" height="15.24"/><path class="cls-3" d="M1293.5,481.47h-14.81a7.82,7.82,0,0,1-7.81-7.82V200.45h30.44v273.2A7.82,7.82,0,0,1,1293.5,481.47Z"/><path class="cls-4" d="M1286.1,200.45v273.2a7.81,7.81,0,0,1-7.61,7.81h15a7.82,7.82,0,0,0,7.82-7.82V200.45Z"/><path class="cls-3" d="M1300.09,179.91l99.34,340.42a7.81,7.81,0,0,0,7.5,5.62h16.37a7.81,7.81,0,0,0,7.5-10l-98.06-336Z"/><path class="cls-4" d="M1430.8,516l-98.06-336h-16.26l98.06,336a7.81,7.81,0,0,1-7.5,10h16.26A7.81,7.81,0,0,0,1430.8,516Z"/><path class="cls-3" d="M1239.46,179.91l-98.07,336a7.82,7.82,0,0,0,7.51,10h16.36a7.82,7.82,0,0,0,7.51-5.62l99.33-340.42Z"/><path class="cls-4" d="M1255.08,179.91l-99.34,340.42a7.8,7.8,0,0,1-7.22,5.6l.38,0h16.36a7.82,7.82,0,0,0,7.51-5.62l99.33-340.42Z"/><path class="cls-5" d="M1482,312.16a8.94,8.94,0,0,0,.37-1s0,0,0-.06a7.91,7.91,0,0,0,.22-1c0-.1,0-.2,0-.3a7.17,7.17,0,0,0,.08-1V43.52a8,8,0,0,0-7.85-8.2H1097.32a8,8,0,0,0-7.86,8.2V308.74h0a8.66,8.66,0,0,0,.33,2.35,8,8,0,0,0,5.94,5.68,7,7,0,0,0,.78.13,7.32,7.32,0,0,0,.81,0h377.56a7.62,7.62,0,0,0,3.7-1l0,0c.17-.09.32-.2.48-.3l.17-.11c.13-.09.24-.19.36-.29l.25-.19.3-.29a3,3,0,0,0,.26-.24l.24-.27.26-.31c.07-.08.12-.17.19-.26l.27-.38h0l0,0a9.33,9.33,0,0,0,.48-.88Z"/><rect class="cls-6" x="1089.39" y="266.61" width="393.26" height="48"/><path class="cls-3" d="M1299.1,0h-26a3.88,3.88,0,0,0-3.88,3.87V42.68H1303V3.87A3.87,3.87,0,0,0,1299.1,0Z"/><path class="cls-4" d="M1299.1,0h-13V42.68H1303V3.87A3.87,3.87,0,0,0,1299.1,0Z"/><path class="cls-3" d="M1317.33,26.34a2.63,2.63,0,0,0-.49,0h-61.49a2.26,2.26,0,0,0-2.42,2v15a2.26,2.26,0,0,0,2.42,2h61.49a2.26,2.26,0,0,0,2.42-2v-15A2.16,2.16,0,0,0,1317.33,26.34Z"/><circle class="cls-6" cx="1197.42" cy="134.48" r="60.56"/><path class="cls-7" d="M1354.22,266.12,1270.5,122c-12.45-21.44-32.84-21.44-45.3,0l-83.71,144.1Z"/><path class="cls-4" d="M1438.21,266.12,1370.1,148.88c-10.13-17.45-26.72-17.45-36.86,0l-68.11,117.24Z"/><path class="cls-3" d="M1075.5,306.48v13.64a5.73,5.73,0,0,0,5.63,5.83h409.93a5.73,5.73,0,0,0,5.64-5.83V306.48Z"/><path class="cls-2" d="M1179.33,122.1a5.48,5.48,0,0,0-4,1.78,8.45,8.45,0,0,0-14-5.6c0-.14,0-.27,0-.41a15.26,15.26,0,0,0-30.52,0c0,.14,0,.27,0,.41a8.45,8.45,0,0,0-14,5.6,5.48,5.48,0,0,0-9.36,2.37h77.16A5.51,5.51,0,0,0,1179.33,122.1Z"/><path class="cls-8" d="M1417.67,141.14a8.23,8.23,0,0,0-15-.58,8.22,8.22,0,0,0-15,.58"/><path class="cls-8" d="M1378.65,118.16a8.23,8.23,0,0,0-15-.57,8.23,8.23,0,0,0-15,.57"/><path class="cls-8" d="M1439.56,99.85a8.23,8.23,0,0,0-15-.58,8.22,8.22,0,0,0-14.95.58"/><path class="cls-6" d="M1089.39,274c6,0,6,2.61,11.93,2.61s6-2.61,11.93-2.61,6,2.61,11.92,2.61,6-2.61,11.92-2.61,6,2.61,11.92,2.61,6-2.61,11.92-2.61,6,2.61,11.92,2.61,6-2.61,11.91-2.61,6,2.61,11.92,2.61,6-2.61,11.92-2.61,6,2.61,11.92,2.61,6-2.61,11.92-2.61,6,2.61,11.92,2.61,6-2.61,11.91-2.61,6,2.61,11.92,2.61,6-2.61,11.91-2.61,6,2.61,11.92,2.61,6-2.61,11.91-2.61,6,2.61,11.92,2.61,6-2.61,11.91-2.61,6,2.61,11.91,2.61,6-2.61,11.91-2.61,6,2.61,11.92,2.61,6-2.61,11.91-2.61,6,2.61,11.92,2.61,6-2.61,11.91-2.61,6,2.61,11.92,2.61,6-2.61,11.91-2.61,6,2.61,11.92,2.61,6-2.61,11.92-2.61,5.95,2.61,11.91,2.61,6-2.61,11.91-2.61,6,2.61,11.92,2.61V265c-6,0-6-2.6-11.92-2.6s-6,2.6-11.91,2.6-6-2.6-11.91-2.6-6,2.6-11.92,2.6-6-2.6-11.92-2.6-6,2.6-11.91,2.6-6-2.6-11.92-2.6-6,2.6-11.91,2.6-6-2.6-11.92-2.6-6,2.6-11.91,2.6-6-2.6-11.92-2.6-5.95,2.6-11.91,2.6-6-2.6-11.91-2.6-6,2.6-11.91,2.6-6-2.6-11.92-2.6-6,2.6-11.91,2.6-6-2.6-11.92-2.6-5.95,2.6-11.91,2.6-6-2.6-11.92-2.6-6,2.6-11.91,2.6-6-2.6-11.92-2.6-6,2.6-11.92,2.6-6-2.6-11.92-2.6-6,2.6-11.92,2.6-6-2.6-11.92-2.6-6,2.6-11.91,2.6-6-2.6-11.92-2.6-6,2.6-11.92,2.6-6-2.6-11.92-2.6-6,2.6-11.92,2.6-6-2.6-11.92-2.6-6,2.6-11.93,2.6-6-2.6-11.93-2.6Z"/><rect class="cls-5" x="1210.14" y="289.36" width="7.81" height="3.04" rx="1" ry="1"/><rect class="cls-5" x="1222.04" y="289.36" width="23.65" height="3.04" rx="1" ry="1"/><rect class="cls-5" x="1250.65" y="289.36" width="13.56" height="3.04" rx="1" ry="1"/><rect class="cls-5" x="1333.75" y="289.36" width="46.45" height="3.04" rx="1" ry="1"/><rect class="cls-5" x="1319.28" y="289.36" width="8.42" height="3.04" rx="1" ry="1"/><rect class="cls-5" x="1446.87" y="277.77" width="7.81" height="3.04" rx="1" ry="1"/><rect class="cls-5" x="1435.21" y="277.77" width="7.81" height="3.04" rx="1" ry="1"/><rect class="cls-5" x="1367.89" y="277.77" width="25.39" height="3.04" rx="1" ry="1"/><rect class="cls-5" x="1397.86" y="277.77" width="33.27" height="3.04" rx="1" ry="1"/><rect class="cls-5" x="1101.96" y="275.27" width="7.81" height="3.04" rx="1" ry="1"/><rect class="cls-5" x="1113.61" y="275.27" width="7.81" height="3.04" rx="1" ry="1"/><rect class="cls-5" x="1125.5" y="275.27" width="57.4" height="3.04" rx="1" ry="1"/><path class="cls-2" d="M1442.47,196.22a6.85,6.85,0,0,0-5,2.2,10.53,10.53,0,0,0-17.41-7c0-.17,0-.34,0-.51a19,19,0,0,0-38,0c0,.17,0,.34,0,.51a10.53,10.53,0,0,0-17.41,7,6.83,6.83,0,0,0-11.64,3h96A6.85,6.85,0,0,0,1442.47,196.22Z"/></g></g></svg>