<svg xmlns="http://www.w3.org/2000/svg" viewBox="0 0 2572.2 379.23"><defs><style>.cls-1{fill:#fcf0bc;}.cls-2{fill:none;}.cls-3{fill:#dc5711;}.cls-4{fill:#e77a41;}.cls-5{fill:#c72a04;}.cls-6{fill:#810b00;}.cls-7{fill:#f3b641;}.cls-8{fill:#be1e01;}.cls-9{fill:#fae690;}.cls-10{fill:#eea425;}.cls-11{fill:#d84e0a;}.cls-12{fill:#f7d86a;}.cls-13{fill:#eb9a1b;}</style></defs><title>Basics-ch3-3</title><g id="Layer_2" data-name="Layer 2"><g id="Layer_1-2" data-name="Layer 1"><path class="cls-1" d="M1671.91,80a143.55,143.55,0,0,0-62.53-59.67A142.42,142.42,0,0,0,1487.08,19a142.39,142.39,0,0,0-119.53,0A142.39,142.39,0,0,0,1248,19a142.39,142.39,0,0,0-119.53,0A142.58,142.58,0,0,0,926.15,148.45V171.3l-42.28,60.39a6.19,6.19,0,0,0,5.08,9.75h37.2v43.4a43.44,43.44,0,0,0,43.39,43.39h24.8v43.4h651.71v-7.72a365.9,365.9,0,0,1,26.62-135.11,222.15,222.15,0,0,0,16.77-80.22v-.13A141.73,141.73,0,0,0,1671.91,80Z"/><rect class="cls-2" width="2572.2" height="379.23"/><path class="cls-3" d="M1089.07,328.23a43.4,43.4,0,0,1-36.2-19.5,368.68,368.68,0,0,0-4.48,55.18v7.72h65.48v-43.4Z"/><path class="cls-3" d="M1068.73,70.81A143.53,143.53,0,0,1,1128.49,19,142.39,142.39,0,0,0,1009,19c.93.43,1.85.86,2.77,1.31A143.5,143.5,0,0,1,1068.73,70.81Z"/><path class="cls-3" d="M1052.87,308.73a43.15,43.15,0,0,1-7.19-23.89v-43.4h-37.2a6.19,6.19,0,0,1-5.07-9.75l42.27-60.39V148.45a141.72,141.72,0,0,1,23-77.64,143.5,143.5,0,0,0-57-50.48c-.92-.45-1.84-.88-2.77-1.31a142.76,142.76,0,0,0-82.81,129.43V171.3l-42.28,60.39a6.19,6.19,0,0,0,5.08,9.75h37.2v43.4a43.44,43.44,0,0,0,43.39,43.39h24.8v43.4h54.05v-7.72A368.68,368.68,0,0,1,1052.87,308.73Z"/><path class="cls-4" d="M1188.26,70.81A143.53,143.53,0,0,1,1248,19a142.39,142.39,0,0,0-119.53,0c.93.43,1.85.86,2.77,1.31A143.5,143.5,0,0,1,1188.26,70.81Z"/><path class="cls-4" d="M1208.61,328.23a43.37,43.37,0,0,1-36.2-19.5,367.37,367.37,0,0,0-4.49,55.18v7.72h65.48v-43.4Z"/><path class="cls-5" d="M1172.41,308.73a43.07,43.07,0,0,1-7.2-23.89v-43.4H1128a6.19,6.19,0,0,1-5.07-9.75l42.27-60.39V148.45a141.72,141.72,0,0,1,23-77.64,143.5,143.5,0,0,0-57-50.48c-.92-.45-1.84-.88-2.77-1.31a143.53,143.53,0,0,0-59.76,51.79c2,3,3.8,6,5.52,9.19a141.74,141.74,0,0,1,17.54,68.45v.13A222.57,222.57,0,0,1,1075,228.8a366.38,366.38,0,0,0-18.2,58.91q-2.28,10.44-4,21a43.4,43.4,0,0,0,36.2,19.5h24.8v43.4h54.05v-7.72A367.37,367.37,0,0,1,1172.41,308.73Z"/><path class="cls-6" d="M1045.68,171.3l-42.27,60.39a6.19,6.19,0,0,0,5.07,9.75h37.2v43.4a43.15,43.15,0,0,0,7.19,23.89q1.68-10.58,4-21A366.38,366.38,0,0,1,1075,228.8a222.57,222.57,0,0,0,16.77-80.22v-.13A141.74,141.74,0,0,0,1074.25,80c-1.72-3.14-3.57-6.2-5.52-9.19a141.72,141.72,0,0,0-23,77.64Z"/><path class="cls-7" d="M1328.14,328.23a43.37,43.37,0,0,1-36.2-19.5,367.37,367.37,0,0,0-4.49,55.18v7.72h65.48v-43.4Z"/><path class="cls-7" d="M1307.79,70.81A143.53,143.53,0,0,1,1367.55,19,142.39,142.39,0,0,0,1248,19c.93.43,1.85.86,2.77,1.31A143.5,143.5,0,0,1,1307.79,70.81Z"/><path class="cls-3" d="M1291.94,308.73a43.07,43.07,0,0,1-7.2-23.89v-43.4h-37.2a6.19,6.19,0,0,1-5.07-9.75l42.27-60.39V148.45a141.72,141.72,0,0,1,23-77.64,143.5,143.5,0,0,0-57-50.48c-.92-.45-1.84-.88-2.77-1.31a143.53,143.53,0,0,0-59.76,51.79c2,3,3.8,6,5.52,9.19a141.74,141.74,0,0,1,17.54,68.45v.13a222.57,222.57,0,0,1-16.77,80.22,366.38,366.38,0,0,0-18.2,58.91q-2.28,10.44-3.94,21a43.37,43.37,0,0,0,36.2,19.5h24.79v43.4h54v-7.72A367.37,367.37,0,0,1,1291.94,308.73Z"/><path class="cls-8" d="M1165.21,171.3l-42.27,60.39a6.19,6.19,0,0,0,5.07,9.75h37.2v43.4a43.07,43.07,0,0,0,7.2,23.89q1.66-10.58,3.94-21a366.38,366.38,0,0,1,18.2-58.91,222.57,222.57,0,0,0,16.77-80.22v-.13A141.74,141.74,0,0,0,1193.78,80c-1.72-3.14-3.57-6.2-5.52-9.19a141.72,141.72,0,0,0-23,77.64Z"/><path class="cls-9" d="M1447.67,328.23a43.37,43.37,0,0,1-36.2-19.5,366.06,366.06,0,0,0-4.48,55.18v7.72h65.48v-43.4Z"/><path class="cls-9" d="M1427.33,70.81A143.44,143.44,0,0,1,1487.08,19a142.39,142.39,0,0,0-119.53,0c.93.43,1.86.86,2.77,1.31A143.59,143.59,0,0,1,1427.33,70.81Z"/><path class="cls-10" d="M1411.47,308.73a43.15,43.15,0,0,1-7.2-23.89v-43.4h-37.19a6.19,6.19,0,0,1-5.08-9.75l42.27-60.39V148.45a141.64,141.64,0,0,1,23.06-77.64,143.59,143.59,0,0,0-57-50.48c-.91-.45-1.84-.88-2.77-1.31a143.53,143.53,0,0,0-59.76,51.79c2,3,3.8,6,5.52,9.19a141.63,141.63,0,0,1,17.54,68.45v.13a222.57,222.57,0,0,1-16.77,80.22,366.38,366.38,0,0,0-18.2,58.91q-2.28,10.44-3.94,21a43.37,43.37,0,0,0,36.2,19.5h24.79v43.4H1407v-7.72A366.06,366.06,0,0,1,1411.47,308.73Z"/><path class="cls-11" d="M1284.74,171.3l-42.27,60.39a6.19,6.19,0,0,0,5.07,9.75h37.2v43.4a43.07,43.07,0,0,0,7.2,23.89q1.66-10.58,3.94-21a366.38,366.38,0,0,1,18.2-58.91,222.57,222.57,0,0,0,16.77-80.22v-.13A141.63,141.63,0,0,0,1313.31,80c-1.72-3.14-3.57-6.2-5.52-9.19a141.72,141.72,0,0,0-23,77.64Z"/><path class="cls-1" d="M1671.91,80a143.55,143.55,0,0,0-62.53-59.67A142.42,142.42,0,0,0,1487.08,19c.93.43,1.86.86,2.77,1.31A143.55,143.55,0,0,1,1552.38,80a141.73,141.73,0,0,1,17.53,68.45v.13a222.15,222.15,0,0,1-16.77,80.22,365.35,365.35,0,0,0-26.62,135.11v7.72h119.53v-7.72a365.9,365.9,0,0,1,26.62-135.11,222.15,222.15,0,0,0,16.77-80.22v-.13A141.73,141.73,0,0,0,1671.91,80Z"/><path class="cls-12" d="M1534.94,287.71a366.38,366.38,0,0,1,18.2-58.91,222.15,222.15,0,0,0,16.77-80.22v-.13A141.73,141.73,0,0,0,1552.38,80a143.55,143.55,0,0,0-62.53-59.67c-.91-.45-1.84-.88-2.77-1.31a143.44,143.44,0,0,0-59.75,51.79q2.93,4.48,5.52,9.19a141.73,141.73,0,0,1,17.53,68.45v.13a222.36,222.36,0,0,1-16.77,80.22,366.38,366.38,0,0,0-18.2,58.91q-2.28,10.44-3.94,21a43.37,43.37,0,0,0,36.2,19.5h24.8v43.4h54v-7.72A366.87,366.87,0,0,1,1534.94,287.71Z"/><path class="cls-13" d="M1404.27,171.3,1362,231.69a6.19,6.19,0,0,0,5.08,9.75h37.19v43.4a43.15,43.15,0,0,0,7.2,23.89q1.66-10.58,3.94-21a366.38,366.38,0,0,1,18.2-58.91,222.36,222.36,0,0,0,16.77-80.22v-.13A141.73,141.73,0,0,0,1432.85,80q-2.6-4.71-5.52-9.19a141.64,141.64,0,0,0-23.06,77.64Z"/></g></g></svg>