<svg xmlns="http://www.w3.org/2000/svg" viewBox="0 0 2572.2 531.41"><defs><style>.cls-1,.cls-3,.cls-5{fill:none;}.cls-2{fill:#adc7f0;}.cls-3,.cls-5{stroke:#00172f;stroke-miterlimit:10;}.cls-3{stroke-width:4px;}.cls-4{fill:#ceddf6;}.cls-5{stroke-width:1.5px;}.cls-6{fill:#3274d9;}.cls-7{fill:#0e39be;}</style></defs><title>Basics-ch2-2</title><g id="Layer_2" data-name="Layer 2"><g id="Layer_1-2" data-name="Layer 1"><rect class="cls-1" y="2.53" width="2572.2" height="528.88"/><path class="cls-2" d="M1466.71,387.66c0-21.89-18.22-31.7-34.46-29.38-19.65,2.09-34.34,7.49-34.34,29.38v25H1200.86V531.41h265.83V420.81h0Z"/><line class="cls-3" x1="1287.01" y1="459.42" x2="1421.62" y2="459.42"/><line class="cls-3" x1="1287.01" y1="480.2" x2="1421.62" y2="480.2"/><line class="cls-3" x1="1287.01" y1="500.99" x2="1359.01" y2="500.99"/><rect class="cls-4" x="1239.51" y="459.42" width="20.05" height="20.05"/><line class="cls-5" x1="1287.01" y1="435.27" x2="1359.01" y2="435.27"/><rect class="cls-4" x="1239.51" y="393.7" width="20.05" height="20.05"/><path class="cls-2" d="M1201.58,0V314.89l198.41-.55,13.65-7.61c15.39,19.52,54.26,13.13,54.26-19.19V0Z"/><rect class="cls-6" x="1166.56" y="177.49" width="184.63" height="265.27"/><rect class="cls-6" x="1104.29" y="177.49" width="173.19" height="265.3" rx="32.09" ry="32.09"/><path class="cls-6" d="M1352,177.49h27l-15.85,23.12-15.85,15.84-20-20S1352,177,1352,177.49Z"/><path class="cls-7" d="M1434.21,317.7s-26.26-4.8-26.9-34.47V205.58c0-37.46-56.18-37.46-56.18,0V317.69h83.08Z"/><path class="cls-6" d="M1332.75,442.78h45.37s-26.93-4.91-26.93-35.57Z"/><path class="cls-7" d="M1435.39,358h1.1S1436.08,358,1435.39,358Z"/><path class="cls-7" d="M1351.13,357.94v56.8c0,37.46,56.18,37.46,56.18,0V388c0-27.16,23.53-29.81,28.14-30Z"/><line class="cls-3" x1="1183.09" y1="213.5" x2="1317.69" y2="213.5"/><line class="cls-3" x1="1183.09" y1="234.28" x2="1317.69" y2="234.28"/><rect class="cls-4" x="1135.59" y="213.5" width="20.05" height="20.05"/><line class="cls-3" x1="1183.09" y1="287.47" x2="1317.69" y2="287.47"/><line class="cls-3" x1="1183.09" y1="308.26" x2="1317.69" y2="308.26"/><line class="cls-3" x1="1183.09" y1="329.04" x2="1298.33" y2="329.04"/><rect class="cls-4" x="1135.59" y="287.47" width="20.05" height="20.05"/><line class="cls-3" x1="1183.09" y1="361.44" x2="1317.69" y2="361.44"/><line class="cls-3" x1="1183.09" y1="382.23" x2="1317.69" y2="382.23"/><line class="cls-3" x1="1183.09" y1="403.01" x2="1277.85" y2="403.01"/><rect class="cls-4" x="1135.59" y="361.44" width="20.05" height="20.05"/><polygon class="cls-7" points="1147.18 230.44 1137.06 220.33 1141.11 216.28 1147.18 222.35 1159.99 209.54 1164.04 213.59 1147.18 230.44"/><line class="cls-3" x1="1287.01" y1="42.89" x2="1421.62" y2="42.89"/><line class="cls-3" x1="1287.01" y1="63.67" x2="1421.62" y2="63.67"/><line class="cls-3" x1="1287.01" y1="84.46" x2="1359.01" y2="84.46"/><rect class="cls-4" x="1239.51" y="42.89" width="20.05" height="20.05"/><polygon class="cls-7" points="1251.1 59.84 1240.99 49.72 1245.03 45.67 1251.1 51.74 1263.92 38.93 1267.96 42.98 1251.1 59.84"/><line class="cls-3" x1="1287.01" y1="118" x2="1421.62" y2="118"/><line class="cls-3" x1="1287.01" y1="138.79" x2="1421.62" y2="138.79"/><line class="cls-3" x1="1287.01" y1="159.57" x2="1359.01" y2="159.57"/><rect class="cls-4" x="1239.51" y="118" width="20.05" height="20.05"/><polygon class="cls-7" points="1251.1 134.95 1240.99 124.83 1245.03 120.79 1251.1 126.86 1263.92 114.04 1267.96 118.09 1251.1 134.95"/><polygon class="cls-7" points="1147.18 303.85 1137.06 293.73 1141.11 289.69 1147.18 295.76 1159.99 282.94 1164.04 286.99 1147.18 303.85"/></g></g></svg>