<svg xmlns="http://www.w3.org/2000/svg" viewBox="0 0 2572.2 338.86"><defs><style>.cls-1,.cls-6,.cls-7{fill:none;}.cls-2{fill:#3274d9;}.cls-3{fill:#ebf1fb;}.cls-4{fill:#adc7f0;}.cls-5{fill:#5b90e1;}.cls-6,.cls-7{stroke:#00172f;stroke-miterlimit:10;stroke-width:4px;}.cls-7{stroke-dasharray:11.23 11.23;}.cls-8{fill:#0e39a5;}.cls-9{fill:#0e39be;}</style></defs><title>Basics-ch2-5</title><g id="Layer_2" data-name="Layer 2"><g id="Layer_1-2" data-name="Layer 1"><rect class="cls-1" width="2572.2" height="338.86"/><path class="cls-2" d="M1077.44,308.88a14.5,14.5,0,0,1-14.61,14.29H646.14a14.5,14.5,0,0,1-14.61-14.29V22.51A14.5,14.5,0,0,1,646.14,8.22h416.69a14.5,14.5,0,0,1,14.61,14.29Z"/><rect class="cls-3" x="651.91" y="32.99" width="405.15" height="264.36"/><ellipse class="cls-4" cx="854.49" cy="21.08" rx="4.38" ry="4.29"/><path class="cls-5" d="M1109.2,330.64H599.77c-8.29-12.67-11.95-26.78-10.4-39.45H1119.6C1121.15,303.86,1117.49,318,1109.2,330.64Z"/><path class="cls-4" d="M883.2,315.3H825.77c-8.77,0-8.77-13.15,0-13.15H883.2C892,302.15,892,315.3,883.2,315.3Z"/><rect class="cls-2" x="676.42" y="56.66" width="79.86" height="23.43" rx="3" ry="3"/><rect class="cls-5" x="769.74" y="56.66" width="79.86" height="23.43" rx="3" ry="3"/><rect class="cls-5" x="861.8" y="56.66" width="79.86" height="23.43" rx="3" ry="3"/><rect class="cls-4" x="731.24" y="105.93" width="298.06" height="5.07" rx="2" ry="2"/><rect class="cls-4" x="681.41" y="101.26" width="14.4" height="14.4"/><rect class="cls-4" x="731.24" y="142.66" width="298.06" height="5.07" rx="2" ry="2"/><rect class="cls-4" x="681.41" y="138" width="14.4" height="14.4"/><rect class="cls-4" x="731.24" y="179.4" width="298.06" height="5.07" rx="2" ry="2"/><rect class="cls-4" x="681.41" y="174.73" width="14.4" height="14.4"/><rect class="cls-4" x="731.24" y="216.14" width="298.06" height="5.07" rx="2" ry="2"/><rect class="cls-4" x="681.41" y="211.47" width="14.4" height="14.4"/><rect class="cls-4" x="731.24" y="252.87" width="298.06" height="5.07" rx="2" ry="2"/><rect class="cls-4" x="681.41" y="248.21" width="14.4" height="14.4"/><path class="cls-6" d="M1109.74,150.44c0,1.85.07,3.68.21,5.5"/><path class="cls-7" d="M1111.67,167a71.47,71.47,0,0,0,141-16.59,71.45,71.45,0,0,1,142-11.05"/><path class="cls-6" d="M1395.35,144.94c.13,1.81.2,3.65.2,5.5"/><rect class="cls-2" x="1434.96" y="27.99" width="312.04" height="191.52" rx="13" ry="13"/><line class="cls-6" x1="1481.82" y1="83.15" x2="1700.15" y2="83.15"/><line class="cls-6" x1="1481.82" y1="117.73" x2="1700.15" y2="117.73"/><line class="cls-6" x1="1481.82" y1="152.31" x2="1700.15" y2="152.31"/><rect class="cls-4" x="1634.54" y="118.35" width="252.24" height="154.81" rx="16.56" ry="16.56" transform="translate(3521.31 391.52) rotate(-180)"/><line class="cls-6" x1="1848.9" y1="171.05" x2="1672.41" y2="171.05"/><line class="cls-6" x1="1848.9" y1="200.44" x2="1672.41" y2="200.44"/><line class="cls-6" x1="1767.74" y1="229.83" x2="1672.41" y2="229.83"/><polyline class="cls-2" points="1468.18 215.39 1561.62 256.98 1561.62 217.01"/><polyline class="cls-4" points="1859.99 272.33 1789 303.93 1789 273.56"/><path class="cls-3" d="M1769.72,228.19,1793.4,185l19.87,20.19-43.56,23Z"/><path class="cls-8" d="M1965.3,43.9l-8.24-8.38L1799.21,190.89c.29,5.3,3.24,7.88,8.24,8.38Z"/><path class="cls-2" d="M1965.31,43.9l5.81,5.9L1813.26,205.17c-4.56.27-6.26-1.9-5.81-5.9Z"/><path class="cls-3" d="M1956.24,24.71l19.86,20.18-5,4.91-19.86-20.18Z"/><path class="cls-9" d="M1971.12,19.88a7,7,0,0,0-9.9-.08l-5,4.91,19.86,20.18,5-4.9a7,7,0,0,0,.08-9.9l-10.05-10.21Z"/><path class="cls-9" d="M1766.88,230.16,1778.64,212l7.41,7.53L1767.71,231l-.83-.84Z"/><path class="cls-2" d="M1799.21,190.9,1957.06,35.52l-5.8-5.9L1793.4,185c-.34,4.57,1.8,6.3,5.81,5.9Z"/></g></g></svg>