<svg xmlns="http://www.w3.org/2000/svg" viewBox="0 0 2572.2 462.82"><defs><style>.cls-1,.cls-2{fill:none;}.cls-2{stroke:#093447;stroke-miterlimit:10;stroke-width:5px;}.cls-3{fill:#adc7f0;}.cls-4{fill:#3274d9;}.cls-5{fill:#0e39be;}.cls-6{fill:#498add;}.cls-7{fill:#ceddf6;}</style></defs><title>Basics-ch2-1</title><g id="Layer_2" data-name="Layer 2"><g id="Layer_1-2" data-name="Layer 1"><rect class="cls-1" width="2572.2" height="462.82"/><path class="cls-2" d="M1045.31,404.26c9.49-9.49,25.17-9.34,34.85.34l44.51,44.52a25,25,0,0,0,35.2,0h0a25,25,0,0,0,0-35.2l-43.13-43.13c-9.68-9.68-9.84-25.37-.35-34.86s25.17-9.33,34.85.35l44.17,44.17c9.68,9.68,25.36,9.83,34.85.34s9.34-25.17-.34-34.85l-14.32-14.32c-9.68-9.68-9.91-25.29-.52-34.68l17.08-17.08"/><path class="cls-3" d="M1306.25,163.14l-100.5,112.68a8.7,8.7,0,0,0,.3,11.88l20.2,20.48a8.7,8.7,0,0,0,11.88.46l114-98.94Z"/><path class="cls-4" d="M1217.73,289.73l101.33-113.6-12.81-13-100.5,112.68a8.7,8.7,0,0,0,.3,11.88l9.66,9.8A8.8,8.8,0,0,1,1217.73,289.73Z"/><path class="cls-4" d="M1353.1,214l28.54-14.1a6.7,6.7,0,0,0,1.8-10.71l-56.28-57.06a6.7,6.7,0,0,0-10.73,1.65l-14.49,28.34a6.71,6.71,0,0,0,1.19,7.76l42.24,42.82A6.7,6.7,0,0,0,1353.1,214Z"/><path class="cls-5" d="M1330.28,147.47a6.94,6.94,0,0,1,8.75-3.28l-11.87-12a6.7,6.7,0,0,0-10.73,1.65l-14.49,28.34a6.7,6.7,0,0,0,1.19,7.76l11.57,11.72C1313.63,177.23,1315.79,177.05,1330.28,147.47Z"/><path class="cls-4" d="M1318.35,133.67c70,71,64.78,66.21,66.54,66.38a75.88,75.88,0,0,0,53.88-15.66c37.17-29,39.08-85.32,3.93-116.73a76,76,0,0,0-126.46,61.26A7.39,7.39,0,0,0,1318.35,133.67Z"/><path class="cls-6" d="M1359,108.11a81.84,81.84,0,0,1,54.89-56.56c-50.46-15-100.77,24.54-97.63,77.37a7.39,7.39,0,0,0,2.11,4.75c68,68.56,64.31,66.17,66.54,66.38a76.15,76.15,0,0,0,11.2.23A81.93,81.93,0,0,1,1359,108.11Z"/><path class="cls-4" d="M1224.47,254.83l-18.72,21a8.69,8.69,0,0,0,.3,11.88l20.2,20.48a8.7,8.7,0,0,0,11.88.46l21.24-18.43Z"/><path class="cls-5" d="M1215.71,297.5a8.8,8.8,0,0,1,2-7.77l19.55-21.92-12.81-13c-18.88,21.63-19.72,21-20.65,24.6-1.73,6.74,4.21,9.62,8.1,14.22C1212,293.72,1215.77,297.55,1215.71,297.5Z"/><circle class="cls-5" cx="1407.2" cy="83.34" r="4.88"/><circle class="cls-5" cx="1420.18" cy="96.32" r="4.88"/><circle class="cls-5" cx="1433.15" cy="109.29" r="4.88"/><circle class="cls-5" cx="1376.82" cy="87.77" r="4.88"/><circle class="cls-5" cx="1389.8" cy="100.75" r="4.88"/><circle class="cls-5" cx="1402.77" cy="113.72" r="4.88"/><circle class="cls-5" cx="1415.75" cy="126.7" r="4.88"/><circle class="cls-5" cx="1428.72" cy="139.67" r="4.88"/><circle class="cls-5" cx="1359.42" cy="105.18" r="4.88"/><circle class="cls-5" cx="1372.39" cy="118.15" r="4.88"/><circle class="cls-5" cx="1385.37" cy="131.13" r="4.88"/><circle class="cls-5" cx="1398.34" cy="144.1" r="4.88"/><circle class="cls-5" cx="1411.32" cy="157.08" r="4.88"/><circle class="cls-5" cx="1354.99" cy="135.56" r="4.88"/><circle class="cls-5" cx="1367.96" cy="148.53" r="4.88"/><circle class="cls-5" cx="1380.94" cy="161.51" r="4.88"/><path class="cls-7" d="M1510.37,155.49a26.37,26.37,0,0,0-14.92-15.2.64.64,0,0,1,0-1.2,26.31,26.31,0,0,0,14.92-15.2.64.64,0,0,1,1.18,0,26.31,26.31,0,0,0,14.92,15.2.64.64,0,0,1,0,1.2,26.37,26.37,0,0,0-14.92,15.2A.64.64,0,0,1,1510.37,155.49Z"/><path class="cls-7" d="M1273.17,100.61a25.45,25.45,0,0,0,14.69-14.42.62.62,0,0,1,1.16,0,25.45,25.45,0,0,0,14.69,14.42.62.62,0,0,1,0,1.14A25.47,25.47,0,0,0,1289,116.17a.62.62,0,0,1-1.16,0,25.47,25.47,0,0,0-14.69-14.42A.62.62,0,0,1,1273.17,100.61Z"/><path class="cls-7" d="M1412.24,27.08a22.33,22.33,0,0,0-12.63-12.87.54.54,0,0,1,0-1A22.31,22.31,0,0,0,1412.24.34a.53.53,0,0,1,1,0,22.34,22.34,0,0,0,12.63,12.86.54.54,0,0,1,0,1,22.36,22.36,0,0,0-12.63,12.87A.53.53,0,0,1,1412.24,27.08Z"/><path class="cls-7" d="M1475.45,192.1A20.31,20.31,0,0,0,1464,180.4a.49.49,0,0,1,0-.92,20.29,20.29,0,0,0,11.49-11.69.48.48,0,0,1,.9,0,20.29,20.29,0,0,0,11.49,11.69.49.49,0,0,1,0,.92,20.31,20.31,0,0,0-11.49,11.7A.48.48,0,0,1,1475.45,192.1Z"/></g></g></svg>