<svg xmlns="http://www.w3.org/2000/svg" viewBox="0 0 2572.2 374.76"><defs><style>.cls-1{fill:none;}.cls-2{fill:#faf5e0;}.cls-3{fill:#f3b641;}.cls-4,.cls-6{fill:#f66631;}.cls-5{fill:#fff;}.cls-6,.cls-7{opacity:0.2;}.cls-7{fill:#a5410d;}</style></defs><title>Basics-ch3-2</title><g id="Layer_2" data-name="Layer 2"><g id="Layer_1-2" data-name="Layer 1"><rect class="cls-1" width="2572.2" height="374.76"/><path class="cls-2" d="M1492.48,13c-41.17,0-41.17,47.74-82.34,47.74S1369,13,1327.79,13h-1c-41,0-41.18,47.34-81.83,47.73-40.66-.39-40.84-47.73-81.84-47.73v0l-1,0c-41.17,0-41.17,47.74-82.35,47.74S1038.55,13,997.37,13V299.4c41.18,0,41.18,47.73,82.35,47.73s41.18-47.73,82.35-47.73,41.17,47.73,82.35,47.73h1c41,0,41.18-47.32,81.83-47.73,40.66.41,40.84,47.73,81.83,47.73h1c41.17,0,41.17-47.73,82.34-47.73s41.17,47.73,82.34,47.73V60.71C1533.65,60.71,1533.65,13,1492.48,13Z"/><path class="cls-3" d="M1254.07,257.38l-20.75-20.75-13.83,13.83,10.37,10.38.07-.07L1240.2,271l6.85-6.85.1.1Z"/><path class="cls-4" d="M1355.84,349.12h0A24.15,24.15,0,0,1,1332,373h0a24.78,24.78,0,0,1-17.73-7.5l-76.36-83.18a6.61,6.61,0,0,1,0-9.55L1255.62,255a6.59,6.59,0,0,1,9.55,0l83.17,77C1353.12,336.17,1355.84,343,1355.84,349.12Z"/><path class="cls-3" d="M1158.12,73a102.27,102.27,0,1,0,102.27,102.27A102.13,102.13,0,0,0,1158.12,73Zm0,184.08a81.82,81.82,0,1,1,81.82-81.81A82.06,82.06,0,0,1,1158.12,257.08Z"/><circle class="cls-5" cx="1158.12" cy="175.27" r="83.8" transform="translate(-9.29 270.77) rotate(-13.28)"/><path class="cls-2" d="M1113.12,177.65a57.87,57.87,0,0,1,49.77-49.77h.69c11.59-1.37,12.27-17.73,1.36-19.77a68.51,68.51,0,0,0-20.45-.69c-26.59,4.09-47.73,25.23-51.14,51.14-1.36,6.82-.68,14.32.68,20.45,2,11.59,18.41,10.23,19.78-1.36C1113.12,178.33,1113.12,177.65,1113.12,177.65Z"/><path class="cls-6" d="M1158.12,277.53h0a102.13,102.13,0,0,0,102.27-102.26h0a6.83,6.83,0,0,0-6.82,6.81,92.73,92.73,0,0,1-27.27,60c-15.68,16.36-37.5,26.59-61.36,28.64A6.83,6.83,0,0,0,1158.12,277.53Z"/><path class="cls-7" d="M1347.66,331.4l-4.09-3.41a23.81,23.81,0,0,1,5.46,15h0c0,8.86-10.91,12.27-17,6.13l-71.59-71.59a9.88,9.88,0,0,0-14.31,0l-6.82,6.82,74.31,79.77c4.09,4.09,9.55,7.5,15,8.18a23.87,23.87,0,0,0,26.59-26.59C1355.16,340.26,1351.75,335.49,1347.66,331.4Z"/><path class="cls-4" d="M1526,100.11S1451.57,4.75,1343,4.75s-183,95.36-183,95.36"/><path class="cls-4" d="M1526,100.11s-74.41,95.36-183,95.36-183-95.36-183-95.36"/><circle class="cls-5" cx="1343.01" cy="104.45" r="77.19"/><path class="cls-4" d="M1347,79.38a21.92,21.92,0,0,1,2.3-9.8,35.44,35.44,0,1,0,29.15,34.87,36,36,0,0,0-.35-4.9A22.07,22.07,0,0,1,1347,79.38Z"/><path class="cls-2" d="M1391.21,79.38a22.09,22.09,0,0,0-41.9-9.8,35.51,35.51,0,0,1,28.8,30A22.12,22.12,0,0,0,1391.21,79.38Z"/><path class="cls-4" d="M1349.31,69.58a22.08,22.08,0,0,0,28.8,30A35.51,35.51,0,0,0,1349.31,69.58Z"/><path class="cls-3" d="M1349.31,69.58a22.08,22.08,0,0,0,28.8,30A35.51,35.51,0,0,0,1349.31,69.58Z"/><path class="cls-3" d="M1526.11,100c-25-30.65-53.58-54.43-84.78-70.68S1377,4.75,1343,4.75s-67,8.25-98.32,24.54-59.73,40-84.78,70.68l-.56.68.69-.54c54.29-42.23,117.56-64.55,183-64.55s128.68,22.32,183,64.55l.7.54Z"/></g></g></svg>