<svg xmlns="http://www.w3.org/2000/svg" viewBox="0 0 2572.2 415.68"><defs><style>.cls-1{fill:#c72a04;}.cls-2{fill:#f3b641;}.cls-3{fill:#f66631;}.cls-4{fill:#fae690;}.cls-5{fill:#fff;}.cls-6,.cls-7{fill:none;}.cls-6{stroke:#f66631;stroke-miterlimit:10;stroke-width:5px;}</style></defs><title>Basics-ch3-5</title><g id="Layer_2" data-name="Layer 2"><g id="Layer_1-2" data-name="Layer 1"><path class="cls-1" d="M1278.09,415.68h17.71a17.63,17.63,0,0,0,14.18-7.09l12.4-16.54h-70.87l12.4,16.54a17.63,17.63,0,0,0,14.18,7.09"/><path class="cls-2" d="M1334.2,318v70.88h-94.51V318Z"/><path class="cls-3" d="M1334.2,318v17h-94.51V318Z"/><path class="cls-3" d="M1334.2,347.4v17h-94.51v-17Z"/><path class="cls-3" d="M1334.2,376.81v6.47a10.55,10.55,0,0,1-10.55,10.55h-73.4a10.55,10.55,0,0,1-10.56-10.55v-6.47Z"/><path class="cls-4" d="M1175.31,172.1A115.51,115.51,0,0,1,1276.9,70.5c3.55,0,6.5-.59,10-.59a57.41,57.41,0,0,1,10,.59c53.16,5.91,95.68,49,101.59,101.6a113.81,113.81,0,0,1-34.85,95.68c-14.18,13.59-26,31.31-29.53,50.21h-94.51c-3.54-18.9-15.35-36.62-29.53-50.21a113.81,113.81,0,0,1-34.85-95.68"/><path class="cls-5" d="M1291.49,94.48c-1.22-.06-2.53-.06-4.14-.06-1,0-2.16.1-3.45.21-1.45.14-3.08.28-4.93.32-42.27,5-76.27,39.16-81,81.51a92.92,92.92,0,0,0,1.39,29.23A146.15,146.15,0,0,1,1291.49,94.48Z"/><line class="cls-6" x1="1286.95" y1="28.67" x2="1286.95"/><line class="cls-6" x1="1396.4" y1="74.71" x2="1416.67" y2="54.43"/><line class="cls-6" x1="1441.24" y1="184.65" x2="1469.9" y2="184.65"/><line class="cls-6" x1="1395.2" y1="294.1" x2="1415.47" y2="314.37"/><line class="cls-6" x1="1175.8" y1="292.9" x2="1155.53" y2="313.17"/><line class="cls-6" x1="1130.96" y1="182.96" x2="1102.29" y2="182.96"/><line class="cls-6" x1="1177" y1="73.51" x2="1156.73" y2="53.24"/><rect class="cls-7" width="2572.2" height="415.68"/></g></g></svg>