<svg xmlns="http://www.w3.org/2000/svg" viewBox="0 0 80.63 80.63"><defs><style>.cls-1{fill:#093447;}.cls-2{fill:#d9f1fd;}.cls-3{fill:#0074e0;}.cls-4{fill:#0034c5;}.cls-5{fill:none;}</style></defs><title>basics-ch2</title><g id="Layer_2" data-name="Layer 2"><g id="Layer_1-2" data-name="Layer 1"><path class="cls-1" d="M30,28h-1.5V15.72A7.77,7.77,0,0,1,36.3,8h3.12v1.5H36.3A6.26,6.26,0,0,0,30,15.72Z"/><circle class="cls-2" cx="41.54" cy="8.71" r="2.73"/><rect class="cls-2" x="7.99" y="22.05" width="54.87" height="5.67" rx="1.27" ry="1.27"/><rect class="cls-2" x="13.97" y="27.72" width="43.74" height="50.13"/><rect class="cls-3" x="13.97" y="27.72" width="43.74" height="5.8"/><polygon class="cls-4" points="57.71 27.72 68.79 34.51 68.69 77.85 57.71 77.85 57.71 27.72"/><polygon class="cls-4" points="57.71 27.72 62.86 27.72 73.53 34.7 68.79 34.51 57.71 27.72"/><polygon class="cls-4" points="25.73 42.73 25.73 77.87 28.97 77.87 28.97 45.58 25.73 42.73"/><polygon class="cls-3" points="25.73 42.73 28.97 45.58 43.1 45.58 45.95 42.73 25.73 42.73"/><path class="cls-4" d="M73.53,34.67A1.29,1.29,0,0,0,74.65,34l-12-6.95a1.28,1.28,0,0,1-1.12.66Z"/><rect class="cls-4" x="44.96" y="3.53" width="3.8" height="1.16" transform="translate(10.84 34.36) rotate(-45.03)"/><rect class="cls-4" x="46.91" y="7.94" width="3.8" height="1.16"/><rect class="cls-4" x="46.5" y="11.11" width="1.16" height="3.8" transform="translate(4.59 37.1) rotate(-44.99)"/><rect class="cls-5" width="80.63" height="80.63"/></g></g></svg>