<svg xmlns="http://www.w3.org/2000/svg" viewBox="0 0 80.63 80.63"><defs><style>.cls-1{fill:#f66631;}.cls-2{fill:#ffe682;}.cls-3{fill:#ffb40e;}.cls-4{fill:#fff8e3;}.cls-5{fill:#093447;}.cls-6{fill:none;}</style></defs><title>basics-ch3</title><g id="Layer_2" data-name="Layer 2"><g id="Layer_1-2" data-name="Layer 1"><rect class="cls-1" x="15.76" y="0.71" width="54.86" height="79.21" rx="5.31" ry="5.31"/><rect class="cls-2" x="10.01" y="0.71" width="54.86" height="79.21" rx="5.31" ry="5.31"/><circle class="cls-3" cx="37.44" cy="74.24" r="3.7"/><rect class="cls-3" x="31.38" y="5.54" width="12.13" height="2.26" rx="1.13" ry="1.13" transform="translate(74.89 13.34) rotate(180)"/><rect class="cls-3" x="66.56" y="13.78" width="2.19" height="9.24" rx="1.1" ry="1.1" transform="translate(135.31 36.8) rotate(180)"/><circle class="cls-3" cx="67.66" cy="26.19" r="1.06"/><circle class="cls-3" cx="67.66" cy="29.95" r="1.06"/><rect class="cls-4" x="12.99" y="12.32" width="47.52" height="56.01" transform="translate(73.51 80.64) rotate(-180)"/><rect class="cls-3" x="21.04" y="27.75" width="4.69" height="8.2"/><rect class="cls-3" x="27.78" y="22.95" width="4.69" height="13"/><rect class="cls-3" x="34.52" y="18.4" width="4.69" height="17.55"/><rect class="cls-5" x="19.29" y="35.2" width="22.14" height="1.5"/><rect class="cls-2" x="45.4" y="21.63" width="8.4" height="11.09"/><circle class="cls-3" cx="29.05" cy="53.35" r="7.93"/><path class="cls-1" d="M34.65,59l-5.6-5.61V45.42A7.93,7.93,0,0,1,34.66,59"/><rect class="cls-2" x="42.81" y="46.58" width="11" height="2.26"/><rect class="cls-2" x="42.81" y="52.22" width="11" height="2.26"/><rect class="cls-2" x="42.81" y="57.86" width="11" height="2.26"/><rect class="cls-6" width="80.63" height="80.63"/></g></g></svg>