<svg xmlns="http://www.w3.org/2000/svg" viewBox="0 0 2572.2 334.52"><defs><style>.cls-1,.cls-4{fill:none;}.cls-2{fill:#0e39be;}.cls-3{fill:#adc7f0;}.cls-4{stroke:#093447;stroke-miterlimit:10;stroke-width:5px;}</style></defs><title>Basics-ch2-4</title><g id="Layer_2" data-name="Layer 2"><g id="Layer_1-2" data-name="Layer 1"><rect class="cls-1" width="2572.2" height="334.52"/><path class="cls-2" d="M1259.28,159.42Q1189.8,90,1120.35,20.51c-1.18-1.18-2.33-2.39-3.55-3.54-4.36-4.09-4.48-4.19-8.67-.06-10.9,10.77-21.69,21.65-32.53,32.49-3.55,3.55-7.18,7-10.62,10.67-3.93,4.16-4,4.68.14,8.88,12.13,12.29,24.4,24.46,36.61,36.68q10.35,10.35,20.68,20.7c.92.93,2.27,1.7,1.77,4.25H1007.71c-1.4,0-2.8,0-4.2,0H978.77c-1.67,0-3.34,0-5,0-7.07.13-7.21.14-7.24,6.81q-.1,29.26,0,58.52c0,6.66.17,6.79,7.24,6.8l42.09,0v0l28.93,0h80c-.92,3.84-3.44,5.31-5.31,7.2q-24.77,24.88-49.64,49.67c-1.58,1.58-3.2,3.11-4.71,4.75-4,4.36-4,4.69-.1,8.91,2.27,2.45,4.7,4.75,7.07,7.11q17.73,17.75,35.48,35.46c4.81,4.76,5,4.77,9.84-.1q30.2-30.11,60.31-60.29l81.59-81.56c2.16-2.17,4.45-4.21,6.67-6.31,0-.62,0-1.23,0-1.85C1263.72,163.63,1261.44,161.59,1259.28,159.42Z"/><path class="cls-3" d="M1312.92,159.42Q1382.39,90,1451.85,20.51c1.18-1.18,2.33-2.39,3.55-3.54,4.36-4.09,4.48-4.19,8.66-.06,10.9,10.77,21.7,21.65,32.54,32.49,3.54,3.55,7.17,7,10.61,10.67,3.93,4.16,4,4.68-.13,8.88-12.14,12.29-24.4,24.46-36.62,36.68-6.89,6.9-13.81,13.78-20.67,20.7-.92.93-2.28,1.7-1.77,4.25h116.47c1.4,0,2.8,0,4.2,0h24.73c1.68,0,3.35,0,5,0,7.06.13,7.21.14,7.23,6.81q.12,29.26,0,58.52c0,6.66-.16,6.79-7.23,6.8l-42.09,0v0l-28.94,0h-80c.92,3.84,3.44,5.31,5.31,7.2q24.76,24.88,49.64,49.67c1.57,1.58,3.2,3.11,4.7,4.75,4,4.36,4,4.69.11,8.91-2.27,2.45-4.71,4.75-7.07,7.11q-17.73,17.75-35.49,35.46c-4.8,4.76-5,4.77-9.84-.1q-30.19-30.11-60.31-60.29-40.79-40.78-81.59-81.56c-2.16-2.17-4.44-4.21-6.67-6.31v-1.85C1308.47,163.63,1310.75,161.59,1312.92,159.42Z"/><line class="cls-4" x1="1252.5" y1="117.44" x2="1269.53" y2="140.62"/><line class="cls-4" x1="1319.69" y1="117.44" x2="1302.67" y2="140.62"/><line class="cls-4" x1="1285.73" y1="108.02" x2="1286.47" y2="138.08"/><line class="cls-4" x1="1319.69" y1="215.81" x2="1302.67" y2="192.64"/><line class="cls-4" x1="1252.5" y1="215.81" x2="1269.53" y2="192.64"/><line class="cls-4" x1="1286.47" y1="225.24" x2="1285.73" y2="195.17"/></g></g></svg>