<svg xmlns="http://www.w3.org/2000/svg" viewBox="0 0 2573.2 456.54"><defs><style>.cls-1,.cls-4,.cls-7{fill:none;stroke-miterlimit:10;}.cls-1{stroke:#fff;}.cls-2{fill:#fff;}.cls-3{fill:#4eaaef;}.cls-4,.cls-7{stroke:#093447;}.cls-4{stroke-width:3px;}.cls-5{fill:#b8ddf9;}.cls-6{fill:#0e39be;}.cls-7{stroke-width:5px;}.cls-8{fill:#e8f4fd;}.cls-9{fill:#093447;}</style></defs><title>Product-ch1-2</title><g id="Layer_2" data-name="Layer 2"><g id="Layer_2-2" data-name="Layer 2"><rect class="cls-1" x="0.5" y="0.5" width="2572.2" height="455.54"/><path class="cls-2" d="M1009.75,422.87a13.52,13.52,0,0,1-13.51-13.51V89.6h542.63V409.36a13.52,13.52,0,0,1-13.51,13.51Z"/><path class="cls-3" d="M1537.87,90.6V409.36a12.52,12.52,0,0,1-12.51,12.51H1009.75a12.52,12.52,0,0,1-12.51-12.51V90.6h540.63m2-2H995.24V409.36a14.51,14.51,0,0,0,14.51,14.51h515.61a14.51,14.51,0,0,0,14.51-14.51V88.6Z"/><path class="cls-3" d="M1009.57,68.07h516a14.33,14.33,0,0,1,14.33,14.33V96.68a0,0,0,0,1,0,0H995.24a0,0,0,0,1,0,0V82.4A14.33,14.33,0,0,1,1009.57,68.07Z"/><line class="cls-4" x1="1096.88" y1="244.87" x2="1484.5" y2="244.87"/><line class="cls-4" x1="1096.88" y1="207.85" x2="1484.5" y2="207.85"/><line class="cls-4" x1="1096.88" y1="281.89" x2="1484.5" y2="281.89"/><rect class="cls-3" x="1041.88" y="203.29" width="42.56" height="83.16"/><line class="cls-4" x1="1096.88" y1="151.41" x2="1484.5" y2="151.41"/><rect class="cls-5" x="1041.88" y="121.56" width="42.56" height="59.71"/><line class="cls-4" x1="1096.88" y1="330.51" x2="1484.5" y2="330.51"/><line class="cls-4" x1="1096.88" y1="371.54" x2="1484.5" y2="371.54"/><rect class="cls-6" x="1041.88" y="309.45" width="42.56" height="83.16"/><polygon class="cls-5" points="1241.75 140.38 1232.48 151.41 1241.75 162.45 1251.02 151.41 1241.75 140.38"/><rect class="cls-5" x="1320.81" y="143.62" width="15.58" height="15.58"/><path class="cls-3" d="M1240.83,287.52h-46.38c-8.41,0-8.41-12.61,0-12.61h46.38C1249.24,274.91,1249.24,287.52,1240.83,287.52Z"/><path class="cls-6" d="M1370.36,337.08H1324c-8.41,0-8.41-12.62,0-12.62h46.38C1378.77,324.46,1378.77,337.08,1370.36,337.08Z"/><path class="cls-6" d="M1450.62,377.63H1326.67c-8.41,0-8.41-12.62,0-12.62h123.95C1459,365,1459,377.63,1450.62,377.63Z"/><path class="cls-3" d="M1407.16,287.52H1306.33c-8.41,0-8.41-12.61,0-12.61h100.83C1415.57,274.91,1415.57,287.52,1407.16,287.52Z"/><path class="cls-3" d="M1415.61,213.75H1268.45c-8.41,0-8.41-12.61,0-12.61h147.16C1424,201.14,1424,213.75,1415.61,213.75Z"/><path class="cls-6" d="M1273.62,337.08h-111.8c-8.41,0-8.41-12.62,0-12.62h111.8C1282,324.46,1282,337.08,1273.62,337.08Z"/><path class="cls-6" d="M1212.32,377.63h-82.91c-8.41,0-8.41-12.62,0-12.62h82.91C1220.73,365,1220.73,377.63,1212.32,377.63Z"/><path class="cls-3" d="M1230.29,251.3h-81.46c-8.41,0-8.41-12.61,0-12.61h81.46C1238.69,238.69,1238.69,251.3,1230.29,251.3Z"/><path class="cls-3" d="M1332.46,251.3h-59.84c-8.41,0-8.41-12.61,0-12.61h59.84C1340.87,238.69,1340.87,251.3,1332.46,251.3Z"/><path class="cls-3" d="M1458.68,251.3h-86.33c-8.4,0-8.4-12.61,0-12.61h86.33C1467.09,238.69,1467.09,251.3,1458.68,251.3Z"/><line class="cls-7" x1="1530.08" y1="35.55" x2="1530.08" y2="9.13"/><line class="cls-7" x1="1559.76" y1="48.51" x2="1578.45" y2="29.82"/><line class="cls-7" x1="1500.41" y1="48.51" x2="1481.72" y2="29.82"/><line class="cls-7" x1="1571.59" y1="78.66" x2="1598.01" y2="78.66"/><line class="cls-7" x1="1558.63" y1="108.33" x2="1577.32" y2="127.02"/><circle class="cls-8" cx="1026.33" cy="51.65" r="51.15"/><path class="cls-7" d="M1008.48,38.53a17.85,17.85,0,0,1,35.7,0c0,9.86-15.78,16.5-17.85,17.85V68.56"/><circle class="cls-9" cx="1026.51" cy="78.97" r="3.65"/><circle class="cls-8" cx="1518.25" cy="391.75" r="64.28"/><path class="cls-7" d="M1495.81,375.27a22.44,22.44,0,0,1,44.88,0c0,12.39-19.83,20.73-22.44,22.43V413"/><circle class="cls-9" cx="1518.48" cy="426.09" r="4.59"/></g></g></svg>