<svg xmlns="http://www.w3.org/2000/svg" viewBox="0 0 2573.2 300.63"><defs><style>.cls-1{fill:#c6e4fa;}.cls-2,.cls-3,.cls-4,.cls-7{fill:none;stroke-miterlimit:10;}.cls-2,.cls-3{stroke:#4eaaef;stroke-width:1.5px;}.cls-3{stroke-dasharray:11.51 11.51;}.cls-4{stroke:#093447;stroke-width:5px;}.cls-5{fill:#0e39be;}.cls-6{fill:#4eaaef;}.cls-7{stroke:#fff;}</style></defs><title>Product-ch1-1</title><g id="Layer_2" data-name="Layer 2"><g id="Layer_2-2" data-name="Layer 2"><rect class="cls-1" x="296.11" y="18.77" width="200.5" height="236.93"/><line class="cls-2" x1="393.58" y1="22.39" x2="393.58" y2="27.89"/><line class="cls-3" x1="393.58" y1="39.4" x2="393.58" y2="240.82"/><line class="cls-2" x1="393.58" y1="246.58" x2="393.58" y2="252.08"/><path class="cls-4" d="M348.64,121.38c16-10.06,37.18-16.17,60.34-16.17,50.17,0,90.83,28.67,90.83,64"/><polygon class="cls-4" points="340.44 125.26 351.54 124.56 347.28 116.49 340.44 125.26"/><polygon class="cls-5" points="2030.95 201.21 2081.78 235.43 2059.13 188.31 2030.95 201.21"/><polygon class="cls-1" points="2135.25 119.32 1870.17 35.33 2086.75 162.29 2135.25 119.32"/><polygon class="cls-1" points="2059.13 188.31 1991.19 246.97 1870.17 35.33 2059.13 188.31"/><polygon class="cls-6" points="1870.17 35.33 2086.75 162.29 2081.78 235.43 2059.13 188.31 1870.17 35.33"/><path class="cls-4" d="M2086.45,244.2a47.66,47.66,0,1,0,95.32,0,47.66,47.66,0,0,1,95.32,0"/><rect class="cls-1" x="554.14" y="18.77" width="200.5" height="236.93"/><line class="cls-2" x1="654.39" y1="22.39" x2="654.39" y2="255.72"/><path class="cls-6" d="M742.43,92.18,734,85.6l.93-1.18L743.35,91ZM725.6,79l-8.42-6.58.92-1.18,8.42,6.58ZM708.76,65.87l-8.41-6.57.92-1.18,8.42,6.57ZM691.93,52.72l-8.42-6.57.93-1.19,8.41,6.58ZM675.09,39.57,666.68,33l.92-1.18L676,38.39Z"/><polygon class="cls-6" points="658.26 26.42 654.39 23.39 650.52 26.42 649.59 25.24 654.39 21.49 659.18 25.24 658.26 26.42"/><path class="cls-6" d="M566.35,92.18,565.42,91l8.42-6.58.92,1.18ZM583.18,79l-.92-1.18,8.41-6.58.93,1.18ZM600,65.87l-.92-1.18,8.42-6.57.92,1.18Zm16.84-13.15-.92-1.18L624.34,45l.93,1.19Zm16.83-13.15-.92-1.18,8.42-6.58L642.1,33Z"/><path class="cls-4" d="M680.81,84.67a39.31,39.31,0,0,1,56.47-40.08"/><polygon class="cls-4" points="680.52 93.69 685.43 82.78 675.62 82.78 680.52 93.69"/><path class="cls-4" d="M628,84.67a39.32,39.32,0,0,0-56.48-40.08"/><polygon class="cls-4" points="628.25 93.69 623.34 82.78 633.16 82.78 628.25 93.69"/><polygon class="cls-6" points="557.01 97.57 554.12 99.83 554.12 101.73 557.93 98.75 557.01 97.57"/><polygon class="cls-6" points="751.77 97.57 750.85 98.75 754.62 101.7 754.62 99.8 751.77 97.57"/><polygon class="cls-1" points="910.81 18.23 1011.08 101.05 810.56 100.94 910.81 18.23"/><rect class="cls-1" x="810.57" y="101" width="200.5" height="154.16"/><line class="cls-2" x1="910.82" y1="22.39" x2="910.82" y2="255.05"/><path class="cls-6" d="M1003.62,192.44l-5-9.16,1.32-.72,5,9.15Zm-10.09-18.31-5-9.16,1.31-.73,5,9.16Zm-10.09-18.32-5-9.15,1.31-.73,5,9.16ZM973.35,137.5l-5-9.16,1.31-.72,5,9.16Zm-10.09-18.31-5-9.16,1.31-.72,5.05,9.15Zm-10.09-18.32-5-9.15,1.31-.73,5,9.16ZM943.09,82.56,938,73.4l1.31-.72,5,9.16ZM933,64.25l-5-9.16,1.32-.72,5,9.15ZM922.91,45.93l-5-9.15,1.32-.73,5,9.16Z"/><polygon class="cls-6" points="912.82 27.62 910.82 24 908.82 27.62 907.51 26.9 910.82 20.89 914.13 26.9 912.82 27.62"/><path class="cls-6" d="M818,192.44l-1.31-.73,5-9.15,1.31.72Zm10.09-18.31-1.31-.73,5-9.16,1.32.73Zm10.09-18.32-1.31-.72,5-9.16,1.32.73Zm10.09-18.31-1.31-.72,5-9.16,1.32.72Zm10.09-18.31-1.31-.73,5-9.15,1.31.72Zm10.09-18.32-1.32-.72L872.2,91l1.31.73Zm10.09-18.31-1.32-.72,5-9.16,1.31.72Zm10.09-18.31-1.32-.73,5-9.15,1.31.72Zm10.09-18.32-1.32-.72,5.05-9.16,1.31.73Z"/><polygon class="cls-6" points="811.67 200.87 810.56 202.88 810.56 205.98 812.98 201.59 811.67 200.87"/><polygon class="cls-6" points="1009.98 200.87 1008.66 201.59 1011.06 205.95 1011.06 202.84 1009.98 200.87"/><polygon class="cls-6" points="1010.17 100.25 811.46 100.25 810.53 100.99 810.53 101.75 1011.08 101.75 1011.08 101.03 1010.17 100.25"/><path class="cls-4" d="M884.4,136.76a39.32,39.32,0,0,0-56.47-40.09"/><polygon class="cls-4" points="884.68 145.77 879.78 134.86 889.6 134.86 884.68 145.77"/><path class="cls-4" d="M937.24,136.76a39.33,39.33,0,0,1,56.48-40.09"/><polygon class="cls-4" points="936.96 145.77 941.87 134.86 932.05 134.86 936.96 145.77"/><polygon class="cls-1" points="1067 188.3 1067 255.16 1267.5 255.16 1267.5 188.3 1267.49 187.98 1167.24 20.25 1066.99 187.98 1067 188.3"/><polygon class="cls-6" points="1168 255.18 1166.5 255.18 1166.5 21.51 1167.24 20.26 1168 21.52 1168 255.18"/><polygon class="cls-6" points="1167.25 130.3 1066.99 187.99 1066.99 189.64 1067.03 189.7 1167.25 132.03 1267.46 189.7 1267.47 189.69 1267.47 187.97 1167.25 130.3"/><polygon class="cls-1" points="1325.89 188.3 1325.89 255.16 1526.39 255.16 1526.39 188.3 1526.38 187.98 1426.13 20.25 1325.88 187.98 1325.89 188.3"/><path class="cls-6" d="M1426.89,251h-1.5V240h1.5Zm0-21.94h-1.5v-11h1.5Zm0-21.93h-1.5v-11h1.5Zm0-21.94h-1.5v-11h1.5Zm0-21.94h-1.5v-11h1.5Zm0-21.93h-1.5v-11h1.5Zm0-21.94h-1.5v-11h1.5Zm0-21.94h-1.5v-11h1.5Zm0-21.93h-1.5v-11h1.5Zm0-21.94h-1.5v-11h1.5Zm0-21.94h-1.5V21.5l.74-1.24.76,1.26Z"/><polygon class="cls-6" points="1426.16 130.31 1325.9 188 1325.9 189.65 1325.94 189.71 1426.16 132.04 1526.38 189.71 1526.38 189.7 1526.38 187.98 1426.16 130.31"/><path class="cls-4" d="M1403.28,172.92c-3.58.17-7.26.26-11,.26-39.39,0-71.32-10-71.32-22.4,0-4.94,5.1-9.51,13.73-13.22"/><polygon class="cls-4" points="1346.37 138 1333.52 132.21 1333.52 143.79 1346.37 138"/><polygon class="cls-1" points="1587.52 20.26 1587.52 255.16 1687.78 255.16 1687.78 200.85 1587.52 20.26"/><polygon class="cls-6" points="1687.77 200.84 1587.52 151.57 1587.52 153.24 1687.77 202.51 1687.77 200.84"/><polygon class="cls-1" points="1753.25 20.26 1753.25 255.16 1853.5 255.16 1853.5 200.85 1753.25 20.26"/><rect class="cls-6" x="1819.54" y="230.24" width="1.5" height="11" transform="translate(11.58 548.17) rotate(-17.18)"/><rect class="cls-6" x="1813.04" y="209.22" width="1.5" height="11" transform="translate(17.5 545.31) rotate(-17.18)"/><rect class="cls-6" x="1806.54" y="188.2" width="1.5" height="11" transform="translate(23.41 542.38) rotate(-17.18)"/><rect class="cls-6" x="1800.05" y="167.18" width="1.5" height="11" transform="translate(29.34 539.6) rotate(-17.18)"/><rect class="cls-6" x="1793.55" y="146.17" width="1.5" height="11" transform="translate(35.26 536.74) rotate(-17.18)"/><rect class="cls-6" x="1787.05" y="125.15" width="1.5" height="11" transform="translate(41.17 533.88) rotate(-17.18)"/><rect class="cls-6" x="1780.55" y="104.13" width="1.5" height="11" transform="translate(47.09 531.02) rotate(-17.18)"/><rect class="cls-6" x="1774.05" y="83.11" width="1.5" height="11" transform="translate(53.01 528.17) rotate(-17.18)"/><rect class="cls-6" x="1767.56" y="62.09" width="1.5" height="11" transform="translate(58.93 525.31) rotate(-17.18)"/><rect class="cls-6" x="1761.06" y="41.07" width="1.5" height="11" transform="translate(64.83 522.38) rotate(-17.18)"/><polygon class="cls-6" points="1755.96 25.13 1757.65 30.59 1756.22 31.03 1753.24 21.39 1753.26 20.28 1755.96 25.13"/><polygon class="cls-6" points="1853.52 200.84 1753.27 151.57 1753.27 153.24 1853.52 202.51 1853.52 200.84"/><path class="cls-4" d="M1767.8,191.48a39.33,39.33,0,0,0,69.07-5.13"/><polygon class="cls-4" points="1761.84 184.72 1772.57 189.99 1765.01 196.25 1761.84 184.72"/><polygon class="cls-6" points="1825.88 251.28 1824.45 251.73 1825.5 255.14 1827.07 255.14 1825.88 251.28"/><rect class="cls-7" x="0.5" y="0.5" width="2572.2" height="299.63"/></g></g></svg>