<svg xmlns="http://www.w3.org/2000/svg" viewBox="0 0 80.63 80.63"><defs><style>.cls-1{fill:#ef290a;}.cls-2{fill:#d11c00;}.cls-3{fill:#fbd5c6;}.cls-4{fill:#f76631;}.cls-5{fill:#093447;}.cls-6{fill:none;}</style></defs><title>product-ch3</title><g id="Layer_2" data-name="Layer 2"><g id="Layer_1-2" data-name="Layer 1"><path class="cls-1" d="M35.56,26.51a.83.83,0,0,1-.83-.83V5.61a2.94,2.94,0,0,0-2.94-2.95h0a3,3,0,0,0-2.95,3V25.68a.83.83,0,0,1-.83.83h-.15a.83.83,0,0,1-.82-.83V8.34a3,3,0,0,0-2.95-2.95h0a3,3,0,0,0-2.95,3V26.51h0V37.72a.68.68,0,0,1-1.19.44l-7-8.09c-3-3-7.24.35-7.24.35L19.25,50.89a3.13,3.13,0,0,1-.14,3.63l-5.7,7.41A30.66,30.66,0,0,0,19,69.13a28.35,28.35,0,0,0,8,5.9l21-25.54,0-.05.09-.1h0a9.61,9.61,0,0,0,2.11-6V26.51"/><path class="cls-2" d="M32.06,26.76V12.35a1.15,1.15,0,0,0-1.15-1.15,2.07,2.07,0,0,0-2.07,2.06V25.67a.8.8,0,0,1-.83.84.83.83,0,0,1-1-.87v17.2a11.42,11.42,0,0,0,2.73,8.3c3.37,4.15,8.43,10.14,8.43,10.14l4.48-5.16Z"/><path class="cls-3" d="M61.39,50.89,74.93,30.42s-4.25-3.34-7.25-.35L61,37.79a.85.85,0,0,1-1.5-.56V26.51h0V8.82a3,3,0,0,0-3-2.94h0A2.94,2.94,0,0,0,53.6,8.82V25.68a.83.83,0,0,1-.83.83h-.15a.83.83,0,0,1-.83-.83V5.26a2.94,2.94,0,0,0-2.94-2.94h0a3,3,0,0,0-3,2.94V25.68a.83.83,0,0,1-.83.83h-.15a.83.83,0,0,1-.83-.83V7.45A3,3,0,0,0,41.15,4.5h0a3,3,0,0,0-2.95,3V25.68a.83.83,0,0,1-.83.83h-.15a.83.83,0,0,1-.83-.83V14A2.94,2.94,0,0,0,33.45,11h0a3,3,0,0,0-3,2.94V43.3a9.61,9.61,0,0,0,2.11,6h0l.08.1.05.05L53.57,74.77,66.88,61.46l-5.36-6.94A3.13,3.13,0,0,1,61.39,50.89Z"/><path class="cls-1" d="M64.46,71.88h2.39a0,0,0,0,1,0,0v1a.4.4,0,0,1-.4.4H64.86a.4.4,0,0,1-.4-.4v-1A0,0,0,0,1,64.46,71.88Z" transform="translate(-32.09 67.68) rotate(-45)"/><rect class="cls-1" x="50.08" y="64.54" width="21.42" height="7.67" rx="0.84" ry="0.84" transform="translate(-30.55 63.01) rotate(-45)"/><rect class="cls-4" x="54.81" y="62.28" width="13.11" height="11.39" rx="1.84" ry="1.84" transform="translate(-30.09 63.3) rotate(-45)"/><rect class="cls-3" x="57.22" y="63.21" width="8.29" height="9.54" transform="translate(66.04 -23.48) rotate(45)"/><path class="cls-1" d="M62,71.49H60.72V67.7a.59.59,0,0,1,.18-.44l2.7-2.7.88.88L62,68Z"/><rect class="cls-5" x="13.31" y="24.21" width="5.05" height="1.5" transform="translate(-13.01 18.51) rotate(-45)"/><rect class="cls-5" x="15.09" y="11.13" width="1.5" height="5.05" transform="translate(-5.01 15.2) rotate(-45)"/><rect class="cls-5" x="9.35" y="18.55" width="5.29" height="1.5"/><rect class="cls-5" x="64.03" y="22.43" width="1.5" height="5.05" transform="translate(1.32 53.11) rotate(-45)"/><rect class="cls-5" x="62.25" y="12.9" width="5.05" height="1.5" transform="translate(9.32 49.8) rotate(-45)"/><rect class="cls-5" x="65.97" y="18.55" width="5.29" height="1.5"/><rect class="cls-6" width="80.63" height="80.63"/></g></g></svg>