<svg xmlns="http://www.w3.org/2000/svg" viewBox="0 0 2573.2 442.91"><defs><style>.cls-1,.cls-11,.cls-4,.cls-5{fill:none;}.cls-1{stroke:#fff;}.cls-1,.cls-11,.cls-3{stroke-miterlimit:10;}.cls-2{fill:#f2f2f2;}.cls-3{fill:#fff;stroke:#ccc;stroke-width:3px;}.cls-4,.cls-5{stroke:#093447;stroke-linejoin:round;}.cls-4{stroke-width:4px;}.cls-5{stroke-width:1.5px;}.cls-6{fill:#096642;}.cls-7{fill:#88e6c1;}.cls-8{fill:#11cc83;}.cls-9{fill:#ffad08;}.cls-10{fill:#ffcc05;}.cls-11{stroke:#ffad08;stroke-width:7px;}</style></defs><title>Product-ch4-1</title><g id="Layer_2" data-name="Layer 2"><g id="Layer_2-2" data-name="Layer 2"><rect class="cls-1" x="0.5" y="0.5" width="2572.2" height="441.91"/><rect class="cls-2" x="1050.44" y="58.12" width="514.51" height="358.89" rx="13.65" ry="13.65"/><rect class="cls-3" x="1034.51" y="41.06" width="514.51" height="358.89" rx="13.65" ry="13.65"/><line class="cls-4" x1="1090.98" y1="121.39" x2="1493.46" y2="121.39"/><line class="cls-5" x1="1087.95" y1="222.88" x2="1194.28" y2="222.88"/><line class="cls-4" x1="1189.86" y1="222.88" x2="1495.66" y2="222.88"/><line class="cls-4" x1="1090.98" y1="324.37" x2="1493.46" y2="324.37"/><path class="cls-6" d="M1151.33,251.67l-22.1-27.31a2.38,2.38,0,0,1,0-3l22.1-27.31a2.35,2.35,0,0,1,3.65,0l22.09,27.31a2.35,2.35,0,0,1,0,3L1155,251.67A2.35,2.35,0,0,1,1151.33,251.67Z"/><rect class="cls-7" x="1133.06" y="96.44" width="129" height="49.88" rx="24.94" ry="24.94"/><circle class="cls-6" cx="1295.42" cy="324.37" r="24.94"/><rect class="cls-8" x="1125.64" y="299.43" width="79.82" height="49.88" rx="24.94" ry="24.94"/><rect class="cls-6" x="1366.81" y="299.43" width="118.85" height="49.88" rx="24.94" ry="24.94"/><rect class="cls-6" x="1235.99" y="199.03" width="118.85" height="49.88" rx="24.94" ry="24.94"/><path class="cls-6" d="M1318,96.6l39.09,24.14a.74.74,0,0,1,0,1.3L1318,146.17c-.63.39-1.53,0-1.53-.65V97.25C1316.46,96.59,1317.36,96.21,1318,96.6Z"/><rect class="cls-7" x="1408.94" y="96.53" width="49.71" height="49.71" rx="0.96" ry="0.96"/><path class="cls-8" d="M1435.32,198.1l39.09,24.13a.74.74,0,0,1,0,1.3l-39.09,24.13a1,1,0,0,1-1.53-.65V198.75A1,1,0,0,1,1435.32,198.1Z"/><path class="cls-9" d="M1066.18,135.42a67.46,67.46,0,1,0,0-134.92h-15.62a67.46,67.46,0,1,0,0,134.92Z"/><path class="cls-10" d="M1066.65,12V6.29h-43.42a66.46,66.46,0,0,0-10.3,5.68Z"/><path class="cls-10" d="M1095.05,32.32V26.64H997.26a66.29,66.29,0,0,0-4,5.68Z"/><path class="cls-10" d="M1095.05,52.67V47H986.44c-.61,1.86-1.13,3.75-1.58,5.68Z"/><path class="cls-10" d="M983.31,73h111.74V67.34H983.12c0,.21,0,.41,0,.62C983.1,69.67,983.18,71.35,983.31,73Z"/><path class="cls-10" d="M1095.05,93.37V87.69H986q.88,2.91,2,5.68Z"/><path class="cls-10" d="M1095.05,113.72v-5.67H996.3a67.41,67.41,0,0,0,4.71,5.67Z"/><path class="cls-10" d="M1066.65,134.08V128.4h-46.06a67,67,0,0,0,16.52,5.68Z"/><circle class="cls-10" cx="1066.18" cy="67.96" r="67.46"/><path class="cls-11" d="M1087.82,35.63h-33.47a15.15,15.15,0,1,0,0,30.29h18.32a15.15,15.15,0,1,1,0,30.29H1039.2"/><line class="cls-11" x1="1063.51" y1="22.38" x2="1063.51" y2="112.78"/><path class="cls-9" d="M1115.29,442.37a67.46,67.46,0,1,0-.38-134.92l-15.62,0a67.46,67.46,0,1,0,.38,134.92Z"/><path class="cls-10" d="M1115.41,318.91v-5.68l-43.43.13a66.88,66.88,0,0,0-10.28,5.71Z"/><path class="cls-10" d="M1143.87,339.18l0-5.68-97.79.28a67.84,67.84,0,0,0-4,5.69Z"/><path class="cls-10" d="M1143.93,359.53l0-5.68-108.61.31q-.9,2.79-1.56,5.69Z"/><path class="cls-10" d="M1032.24,380.2l111.75-.31,0-5.68-111.93.32c0,.2,0,.41,0,.61C1032,376.85,1032.12,378.53,1032.24,380.2Z"/><path class="cls-10" d="M1144,400.24v-5.68l-109,.31c.59,1.93,1.28,3.82,2,5.67Z"/><path class="cls-10" d="M1144.1,420.59v-5.68l-98.75.28a67.53,67.53,0,0,0,4.72,5.67Z"/><path class="cls-10" d="M1115.76,441v-5.68l-46.07.13a66.75,66.75,0,0,0,16.54,5.64Z"/><circle class="cls-10" cx="1115.1" cy="374.91" r="67.46"/><path class="cls-11" d="M1136.65,342.52l-33.47.09a15.15,15.15,0,1,0,.08,30.29l18.33,0a15.15,15.15,0,0,1,.09,30.29l-33.48.1"/><line class="cls-11" x1="1112.3" y1="329.33" x2="1112.56" y2="419.73"/><path class="cls-9" d="M1522.64,224.29a67.46,67.46,0,0,0,0-134.92H1507a67.46,67.46,0,0,0,0,134.92Z"/><path class="cls-10" d="M1523.11,100.84V95.16h-43.43a67.39,67.39,0,0,0-10.3,5.68Z"/><path class="cls-10" d="M1551.51,121.19v-5.68h-97.8a66.18,66.18,0,0,0-4,5.68Z"/><path class="cls-10" d="M1551.51,141.54v-5.68H1442.9q-.92,2.79-1.58,5.68Z"/><path class="cls-10" d="M1439.76,161.89h111.75v-5.68H1439.57c0,.21,0,.41,0,.62C1439.56,158.54,1439.64,160.22,1439.76,161.89Z"/><path class="cls-10" d="M1551.51,182.24v-5.68h-109c.59,1.94,1.27,3.83,2,5.68Z"/><path class="cls-10" d="M1551.51,202.59v-5.67h-98.75a67.41,67.41,0,0,0,4.71,5.67Z"/><path class="cls-10" d="M1523.11,223v-5.68H1477a67,67,0,0,0,16.53,5.68Z"/><circle class="cls-10" cx="1522.64" cy="156.83" r="67.46"/><path class="cls-11" d="M1544.28,124.5H1510.8a15.15,15.15,0,0,0,0,30.29h18.33a15.15,15.15,0,1,1,0,30.29h-33.47"/><line class="cls-11" x1="1519.97" y1="111.25" x2="1519.97" y2="201.65"/></g></g></svg>