<svg xmlns="http://www.w3.org/2000/svg" viewBox="0 0 2573.2 415.47"><defs><style>.cls-1{fill:#f5f6fa;}.cls-2{fill:#373d95;}.cls-3{fill:#b2b4e8;}.cls-4{fill:#6469d1;}.cls-5,.cls-6{fill:none;stroke-miterlimit:10;}.cls-5{stroke:#093447;stroke-width:5px;}.cls-6{stroke:#fff;}</style></defs><title>Product-ch5-1</title><g id="Layer_2" data-name="Layer 2"><g id="Layer_2-2" data-name="Layer 2"><ellipse class="cls-1" cx="1286.6" cy="321.47" rx="255.64" ry="89.27"/><polygon class="cls-2" points="1054.89 198.85 1054.89 304.6 1151.59 357.47 1248.28 304.6 1248.28 198.85 1151.59 145.98 1054.89 198.85"/><polygon class="cls-3" points="1151.59 145.98 1054.89 198.85 1054.89 304.6 1151.59 357.47 1151.59 145.98"/><polygon class="cls-4" points="1248.28 199.5 1248.28 198.85 1151.59 145.98 1054.89 198.85 1054.89 199.5 1151.59 252.37 1248.28 199.5"/><polygon class="cls-2" points="1316.49 198.85 1316.49 304.6 1413.18 357.47 1509.87 304.6 1509.87 198.85 1413.18 145.98 1316.49 198.85"/><polygon class="cls-3" points="1413.18 145.98 1316.49 198.85 1316.49 304.6 1413.18 357.47 1413.18 145.98"/><polygon class="cls-4" points="1509.87 199.5 1509.87 198.85 1413.18 145.98 1316.49 198.85 1316.49 199.5 1413.18 252.37 1509.87 199.5"/><polygon class="cls-3" points="1120.01 59.2 1120.01 164.95 1216.7 217.82 1313.39 164.95 1313.39 59.2 1216.7 6.33 1120.01 59.2"/><polygon class="cls-2" points="1216.7 6.33 1120.01 59.2 1120.01 164.95 1216.7 217.82 1216.7 6.33"/><polygon class="cls-4" points="1313.39 59.85 1313.39 59.2 1216.7 6.33 1120.01 59.2 1120.01 59.85 1216.7 112.72 1313.39 59.85"/><polygon class="cls-5" points="1269.87 257.74 1283.52 263.89 1283.52 251.6 1269.87 257.74"/><line class="cls-5" x1="1281.43" y1="257.74" x2="1345.99" y2="257.74"/><polygon class="cls-5" points="1336.06 39.14 1329.91 52.79 1342.2 52.79 1336.06 39.14"/><line class="cls-5" x1="1336.06" y1="50.7" x2="1336.06" y2="115.26"/><rect class="cls-6" x="0.5" y="0.5" width="2572.2" height="414.47"/></g></g></svg>