<svg xmlns="http://www.w3.org/2000/svg" viewBox="0 0 2572.2 450.45"><defs><style>.cls-1,.cls-3,.cls-5{fill:none;}.cls-2{fill:#db3f26;}.cls-3{stroke:#f7d3c4;}.cls-3,.cls-5{stroke-miterlimit:10;stroke-width:5px;}.cls-4{fill:#f7d3c4;}.cls-5{stroke:#db3f26;}.cls-6{fill:#ffcc05;}.cls-7{fill:#00354d;}.cls-8{fill:#093447;}</style></defs><title>Product-ch3-4</title><g id="Layer_2" data-name="Layer 2"><g id="Layer_2-2" data-name="Layer 2"><rect class="cls-1" width="2572.2" height="450.45"/><rect class="cls-2" x="1017.44" y="104.98" width="371.09" height="227.76" rx="21.73" ry="21.73"/><polygon class="cls-2" points="1053.14 321.46 1158.04 376.98 1158.04 321.46 1053.14 321.46"/><line class="cls-3" x1="1073.16" y1="169.05" x2="1332.81" y2="169.05"/><line class="cls-3" x1="1073.16" y1="217.33" x2="1332.81" y2="217.33"/><line class="cls-3" x1="1073.16" y1="265.62" x2="1332.81" y2="265.62"/><rect class="cls-4" x="1254.78" y="213.93" width="299.98" height="184.11" rx="21.73" ry="21.73" transform="translate(2809.54 611.97) rotate(-180)"/><polygon class="cls-4" points="1527.56 387.41 1448.16 438.08 1448.16 387.41 1527.56 387.41"/><line class="cls-5" x1="1509.71" y1="266.95" x2="1299.83" y2="266.95"/><line class="cls-5" x1="1509.71" y1="305.99" x2="1299.83" y2="305.99"/><line class="cls-5" x1="1413.19" y1="345.02" x2="1299.83" y2="345.02"/><circle class="cls-6" cx="1405.22" cy="88.45" r="88.45"/><circle class="cls-7" cx="1373.94" cy="62.56" r="5.82"/><circle class="cls-7" cx="1436.5" cy="62.56" r="5.82"/><path class="cls-8" d="M1405.22,131.6a43.19,43.19,0,0,1-43.14-43.15h4.31a38.84,38.84,0,0,0,77.67,0h4.31A43.2,43.2,0,0,1,1405.22,131.6Z"/></g></g></svg>