<svg xmlns="http://www.w3.org/2000/svg" viewBox="0 0 2573.2 418.57"><defs><style>.cls-1,.cls-6,.cls-9{fill:none;stroke-miterlimit:10;}.cls-1{stroke:#fff;}.cls-2{fill:#1f4840;}.cls-3{fill:#fff;}.cls-4{fill:#ccc;}.cls-5{fill:#11cc83;}.cls-6,.cls-9{stroke:#093447;}.cls-6{stroke-width:3px;}.cls-7{fill:#88e6c1;}.cls-8{fill:#096642;}.cls-9{stroke-width:5px;}.cls-10{fill:#093447;}</style></defs><title>Product-ch4-3</title><g id="Layer_2" data-name="Layer 2"><g id="Layer_2-2" data-name="Layer 2"><rect class="cls-1" x="0.5" y="0.5" width="2572.2" height="417.57"/><path class="cls-2" d="M1093,193a12.8,12.8,0,0,0-12.77-12.77h-55.43a4.27,4.27,0,0,1,0-8.53h81a12.78,12.78,0,1,0,0-25.55h-72.44a4.27,4.27,0,0,1,0-8.53h81a12.77,12.77,0,0,0,0-25.54h-81a4.27,4.27,0,0,1,0-8.53h63.91a12.78,12.78,0,0,0,0-25.55H990.74l23.64-17.28c7.86-5.11,10.52-15.1,6-22.42s-14.68-9.07-22.55-4c0,0-42.11,27.84-60.12,39.7s-32.17,31.09-32.17,67c0,59.5,45.94,64.83,59.67,64.83h115A12.82,12.82,0,0,0,1093,193Z"/><path class="cls-3" d="M1070.05,366.92A13.1,13.1,0,0,1,1057,353.84V32.94h544.42v320.9a13.1,13.1,0,0,1-13.08,13.08Z"/><path class="cls-4" d="M1599.88,34.44v319.4a11.59,11.59,0,0,1-11.57,11.58H1070.05a11.6,11.6,0,0,1-11.58-11.58V34.44h541.41m3-3H1055.47v322.4a14.58,14.58,0,0,0,14.58,14.58h518.26a14.57,14.57,0,0,0,14.57-14.58V31.44Z"/><path class="cls-5" d="M1069.87.5h518.61a14.4,14.4,0,0,1,14.4,14.4V39.56a0,0,0,0,1,0,0H1055.47a0,0,0,0,1,0,0V14.9A14.4,14.4,0,0,1,1069.87.5Z"/><line class="cls-6" x1="1157.63" y1="188.51" x2="1547.23" y2="188.51"/><line class="cls-6" x1="1157.63" y1="151.3" x2="1547.23" y2="151.3"/><line class="cls-6" x1="1157.63" y1="225.71" x2="1547.23" y2="225.71"/><rect class="cls-5" x="1091" y="146.72" width="54.12" height="83.58" rx="7.46" ry="7.46"/><line class="cls-6" x1="1157.63" y1="94.57" x2="1547.23" y2="94.57"/><rect class="cls-7" x="1091" y="64.56" width="54.12" height="60.02" rx="7.46" ry="7.46"/><line class="cls-6" x1="1157.63" y1="274.59" x2="1547.23" y2="274.59"/><line class="cls-6" x1="1157.63" y1="315.83" x2="1547.23" y2="315.83"/><rect class="cls-8" x="1091" y="253.42" width="54.12" height="83.58" rx="7.46" ry="7.46"/><polygon class="cls-7" points="1222.9 79.44 1210.19 94.57 1222.9 109.7 1235.61 94.57 1222.9 79.44"/><polygon class="cls-7" points="1322.56 79.44 1309.86 94.57 1322.56 109.7 1335.27 94.57 1322.56 79.44"/><polygon class="cls-7" points="1404.04 79.44 1391.33 94.57 1404.04 109.7 1416.75 94.57 1404.04 79.44"/><rect class="cls-7" x="1480.64" y="83.89" width="21.36" height="21.36"/><path class="cls-5" d="M1302.32,231.37H1255.7c-8.45,0-8.45-12.67,0-12.67h46.62C1310.77,218.7,1310.77,231.37,1302.32,231.37Z"/><path class="cls-8" d="M1432.51,281.18h-46.62c-8.45,0-8.45-12.67,0-12.67h46.62C1441,268.51,1441,281.18,1432.51,281.18Z"/><path class="cls-8" d="M1513.18,321.94H1388.59c-8.45,0-8.45-12.68,0-12.68h124.59C1521.63,309.26,1521.63,321.94,1513.18,321.94Z"/><path class="cls-5" d="M1469.5,231.37H1368.15c-8.45,0-8.45-12.67,0-12.67H1469.5C1478,218.7,1478,231.37,1469.5,231.37Z"/><path class="cls-5" d="M1478,157.23H1330.08c-8.45,0-8.45-12.68,0-12.68H1478C1486.44,144.55,1486.44,157.23,1478,157.23Z"/><path class="cls-8" d="M1335.27,281.18H1222.9c-8.45,0-8.45-12.67,0-12.67h112.37C1343.72,268.51,1343.72,281.18,1335.27,281.18Z"/><path class="cls-8" d="M1273.66,321.94h-83.34c-8.45,0-8.45-12.68,0-12.68h83.34C1282.11,309.26,1282.11,321.94,1273.66,321.94Z"/><path class="cls-5" d="M1291.72,195h-81.87c-8.45,0-8.45-12.68,0-12.68h81.87C1300.17,182.29,1300.17,195,1291.72,195Z"/><path class="cls-5" d="M1394.42,195h-60.15c-8.45,0-8.45-12.68,0-12.68h60.15C1402.87,182.29,1402.87,195,1394.42,195Z"/><path class="cls-5" d="M1521.29,195h-86.77c-8.46,0-8.46-12.68,0-12.68h86.77C1529.74,182.29,1529.74,195,1521.29,195Z"/><path class="cls-9" d="M1654.24,197.72A91.34,91.34,0,0,0,1574.89,95.8"/><polygon class="cls-10" points="1654.91 218.66 1643.5 193.32 1666.32 193.32 1654.91 218.66"/><path class="cls-9" d="M1341,347.43a91.34,91.34,0,0,0,116.93,54.88"/><polygon class="cls-10" points="1330.91 329.07 1352.56 346.48 1332.23 356.82 1330.91 329.07"/><path class="cls-5" d="M1624.49,224.61a11.94,11.94,0,0,0-8.58,14.5l12.86,50.11a4,4,0,0,1-7.72,2L1602.27,218a11.92,11.92,0,0,0-23.09,5.93L1596,289.41a4,4,0,0,1-7.72,2l-18.78-73.19a11.92,11.92,0,1,0-23.09,5.92l18.79,73.19a4,4,0,0,1-7.72,2l-14.82-57.76a11.92,11.92,0,1,0-23.09,5.92l24.71,96.28-21.1-17.35c-6.44-5.92-16.09-6-21.66-.21s-4.79,15.37,1.59,21.32c0,0,34.92,31.6,49.83,45.13s35.55,21.86,68,13.52c53.78-13.8,47.94-56.56,44.75-69l-26.69-104A12,12,0,0,0,1624.49,224.61Z"/></g></g></svg>