<svg xmlns="http://www.w3.org/2000/svg" viewBox="0 0 2573.2 413.6"><defs><style>.cls-1,.cls-5{fill:none;stroke-miterlimit:10;}.cls-1{stroke:#fff;}.cls-2{fill:#f1b69c;}.cls-3{fill:#db3f26;}.cls-4{fill:#ed8260;}.cls-5{stroke:#093447;stroke-width:5px;}</style></defs><title>Product-ch3-1</title><g id="Layer_2" data-name="Layer 2"><g id="Layer_2-2" data-name="Layer 2"><rect class="cls-1" x="0.5" y="0.5" width="2572.2" height="412.6"/><path class="cls-2" d="M1304.46,328a126.37,126.37,0,0,0,14.31-58.36v-.39h-21.89a103.79,103.79,0,0,0-2.53-22.38l21.39-4.77A126.23,126.23,0,0,0,1289,188.27l-16.76,14.17A105.29,105.29,0,0,0,1256,186.93l13.34-17.42a126.07,126.07,0,0,0-55.08-24.08L1210.5,167a105.1,105.1,0,0,0-17.76-1.54c-1.58,0-3.13.05-4.69.12l-1-21.88a126.26,126.26,0,0,0-57.67,16.92l11,19A105.07,105.07,0,0,0,1122.34,193l-14.84-16.16a126.61,126.61,0,0,0-33.31,50l20.6,7.45a103.29,103.29,0,0,0-5.3,21.88l-21.73-2.82a127.28,127.28,0,0,0-1,16.35,125.71,125.71,0,0,0,7.64,43.31l20.57-7.52a103.49,103.49,0,0,0,10,20.15l-18.5,11.81a127,127,0,0,0,43.38,41.48l11-19a103.21,103.21,0,0,0,20.59,9.1l-6.59,20.89a126.8,126.8,0,0,0,59.9,3.91l-3.8-21.59a102.6,102.6,0,0,0,21.61-6.29l8.38,20.26a126.77,126.77,0,0,0,48.42-35.52l-16.81-14.1A104.67,104.67,0,0,0,1285,317.82Zm-52.38-58.36a59.35,59.35,0,1,1-59.34-59.34A59.41,59.41,0,0,1,1252.08,269.63Z"/><circle class="cls-3" cx="1192.74" cy="269.63" r="26.89"/><path class="cls-3" d="M1396.28,93.74a66.26,66.26,0,0,0-1.6-14.18l13.55-3a80,80,0,0,0-17-34.1l-10.62,9a66.22,66.22,0,0,0-10.32-9.83l8.45-11a79.9,79.9,0,0,0-34.9-15.26L1341.54,29a66.2,66.2,0,0,0-11.25-1c-1,0-2,0-3,.08l-.62-13.86a80.06,80.06,0,0,0-36.54,10.72l7,12a66.74,66.74,0,0,0-11.48,8.45l-9.4-10.24a80.25,80.25,0,0,0-21.11,31.67l13.06,4.72a64.75,64.75,0,0,0-3.36,13.87l-13.77-1.79a80.15,80.15,0,0,0,4.18,37.8l13-4.76a65.46,65.46,0,0,0,6.35,12.76l-11.72,7.49a80.49,80.49,0,0,0,27.49,26.28l7-12a65.93,65.93,0,0,0,13,5.76l-4.17,13.24a79.75,79.75,0,0,0,24,3.69,80.72,80.72,0,0,0,13.91-1.21L1341.8,159a65.17,65.17,0,0,0,13.69-4l5.31,12.84a80.23,80.23,0,0,0,30.68-22.51l-10.65-8.94a66,66,0,0,0,7.94-11.84l12.31,6.45a80.09,80.09,0,0,0,9.07-37v-.25Zm-28.39.25a37.6,37.6,0,1,1-37.6-37.6A37.65,37.65,0,0,1,1367.89,94Z"/><circle class="cls-3" cx="1330.29" cy="93.99" r="17.04"/><path class="cls-4" d="M1492.62,257.3a66.26,66.26,0,0,0-1.6-14.18l13.55-3a80,80,0,0,0-17-34.11L1477,215a66.15,66.15,0,0,0-10.31-9.83l8.45-11a80,80,0,0,0-34.9-15.26l-2.36,13.68a66.2,66.2,0,0,0-11.25-1c-1,0-2,0-3,.08l-.61-13.86a80,80,0,0,0-36.54,10.72l7,12A65.77,65.77,0,0,0,1382,209l-9.4-10.24a80.25,80.25,0,0,0-21.11,31.67l13,4.72a66,66,0,0,0-3.36,13.87l-13.77-1.79a81.43,81.43,0,0,0-.67,10.36,79.66,79.66,0,0,0,4.85,27.44l13-4.76A66.32,66.32,0,0,0,1371,293l-11.72,7.49a80.58,80.58,0,0,0,27.49,26.28l7-12a66,66,0,0,0,13,5.76l-4.18,13.24a80.11,80.11,0,0,0,38,2.47l-2.41-13.67a65,65,0,0,0,13.69-4l5.31,12.83a80.21,80.21,0,0,0,30.68-22.5l-10.65-8.94a65.5,65.5,0,0,0,7.94-11.84l12.32,6.45a80.24,80.24,0,0,0,9.06-37v-.25Zm-28.39.25a37.6,37.6,0,1,1-37.6-37.6A37.64,37.64,0,0,1,1464.23,257.55Z"/><circle class="cls-3" cx="1426.63" cy="257.55" r="17.04"/><path class="cls-5" d="M1222.84,21.19a195,195,0,0,0-106.11,89.05"/><path class="cls-5" d="M1478.51,172.11a192.63,192.63,0,0,0-38.19-88.68"/><path class="cls-5" d="M1281.49,399.32c1.7.05,3.4.07,5.11.07a193.57,193.57,0,0,0,109.24-33.57"/><path class="cls-5" d="M1152.2,125.17a157.23,157.23,0,0,1,79.4-66.56"/><path class="cls-5" d="M1418.07,117.76a154.92,154.92,0,0,1,20.91,49.7"/><path class="cls-5" d="M1371.76,336a155.36,155.36,0,0,1-72.4,24.78"/><path class="cls-5" d="M1439,167.46a154.92,154.92,0,0,0-20.91-49.7"/></g></g></svg>