<svg xmlns="http://www.w3.org/2000/svg" viewBox="0 0 2573.2 489.97"><defs><style>.cls-1,.cls-3,.cls-9{fill:none;}.cls-1,.cls-3,.cls-4{stroke:#fff;}.cls-1,.cls-3,.cls-4,.cls-9{stroke-miterlimit:10;}.cls-2{fill:#11cc83;}.cls-3{stroke-width:3px;}.cls-4,.cls-5{fill:#fff;}.cls-4{stroke-width:1.5px;}.cls-6{fill:#ccc;}.cls-7{fill:#88e6c1;}.cls-8{fill:#096642;}.cls-9{stroke:#093447;stroke-width:5px;}.cls-10{fill:#093447;}</style></defs><title>Product-ch4-2</title><g id="Layer_2" data-name="Layer 2"><g id="Layer_2-2" data-name="Layer 2"><rect class="cls-1" x="0.5" y="0.5" width="2572.2" height="488.97"/><circle class="cls-2" cx="1769.05" cy="415.8" r="48.36"/><path class="cls-3" d="M1752.17,403.39a16.88,16.88,0,0,1,33.76,0c0,9.32-14.92,15.6-16.88,16.88v11.51"/><circle class="cls-4" cx="1769.22" cy="441.63" r="3.45"/><path class="cls-5" d="M844.05,280.26a14.84,14.84,0,0,1-14.82-14.82V45.71h387.29V265.44a14.84,14.84,0,0,1-14.83,14.82Z"/><path class="cls-6" d="M1215,47.21V265.44a13.34,13.34,0,0,1-13.33,13.32H844.05a13.33,13.33,0,0,1-13.32-13.32V47.21H1215m3-3H827.73V265.44a16.32,16.32,0,0,0,16.32,16.32h357.64A16.33,16.33,0,0,0,1218,265.44V44.21Z"/><path class="cls-7" d="M839.61,20.35h369.91a11.88,11.88,0,0,1,11.88,11.88V50.66a0,0,0,0,1,0,0H827.73a0,0,0,0,1,0,0V32.23A11.88,11.88,0,0,1,839.61,20.35Z"/><path class="cls-7" d="M936.86,201.57a40.94,40.94,0,0,0,0-81.88V89.59a71,71,0,0,1,0,142.08"/><path class="cls-5" d="M936.86,119.69a40.94,40.94,0,0,0,0,81.88v30.1a71,71,0,1,1,0-142.08"/><path class="cls-8" d="M936.86,119.69a40.94,40.94,0,0,0,0,81.88v30.1a71,71,0,1,1,0-142.08"/><path class="cls-2" d="M936.86,201.57a40.94,40.94,0,0,0,40.94-40.94h30.1a71,71,0,0,1-71,71Z"/><path class="cls-7" d="M936.86,201.57a40.94,40.94,0,0,1-40.94-40.94h-30.1a71,71,0,0,0,71,71"/><path class="cls-7" d="M964.23,130.18a40.85,40.85,0,0,1,13.57,30.45h30.1A70.86,70.86,0,0,0,984,107.51Z"/><rect class="cls-7" x="1053.07" y="169.96" width="27.7" height="50.2"/><rect class="cls-2" x="1099.08" y="143.22" width="27.7" height="76.94"/><rect class="cls-2" x="1145.1" y="119.3" width="27.7" height="100.86"/><rect class="cls-2" x="1053.07" y="131.81" width="27.7" height="39.24"/><rect class="cls-7" x="1099.08" y="110.9" width="27.7" height="60.15"/><rect class="cls-8" x="1145.1" y="92.19" width="27.7" height="78.86"/><path class="cls-5" d="M1359.08,478.09a18.5,18.5,0,0,1-18.48-18.48V241.48h390.68V459.61a18.5,18.5,0,0,1-18.48,18.48Z"/><path class="cls-6" d="M1729.78,243V459.61a17,17,0,0,1-17,17H1359.08a17,17,0,0,1-17-17V243h387.68m3-3H1339.1V459.61a20,20,0,0,0,20,20H1712.8a20,20,0,0,0,20-20V240Z"/><path class="cls-2" d="M1351,222.4H1720.9a11.88,11.88,0,0,1,11.88,11.88v18.43a0,0,0,0,1,0,0H1339.1a0,0,0,0,1,0,0V234.29A11.88,11.88,0,0,1,1351,222.4Z"/><rect class="cls-7" x="1412.57" y="297.63" width="280.19" height="4.8"/><rect class="cls-7" x="1412.57" y="327.29" width="280.19" height="4.8"/><rect class="cls-7" x="1412.57" y="377.14" width="280.19" height="4.8"/><rect class="cls-7" x="1412.57" y="406.8" width="280.19" height="4.8"/><rect class="cls-7" x="1412.57" y="436.46" width="280.19" height="4.8"/><rect class="cls-7" x="1372.81" y="287.66" width="30.76" height="60.11"/><rect class="cls-2" x="1372.81" y="363.49" width="30.76" height="90.77"/><path class="cls-9" d="M1144.74,254.92a75.71,75.71,0,0,0,151.41,0,75.71,75.71,0,1,1,151.41,0"/><polygon class="cls-10" points="1448.12 278.25 1436.63 252.72 1459.62 252.72 1448.12 278.25"/><polygon class="cls-10" points="1144.89 230.47 1156.38 256.01 1133.39 256.01 1144.89 230.47"/><line class="cls-9" x1="861.11" y1="204.99" x2="910.24" y2="254.12"/><line class="cls-9" x1="861.11" y1="254.12" x2="910.24" y2="204.99"/><circle class="cls-2" cx="1210.93" cy="48.86" r="48.36"/><path class="cls-3" d="M1194.05,36.45a16.88,16.88,0,1,1,33.76,0c0,9.33-14.92,15.6-16.88,16.88V64.84"/><circle class="cls-4" cx="1211.1" cy="74.69" r="3.45"/><line class="cls-9" x1="1644.44" y1="284.43" x2="1675.84" y2="315.83"/><line class="cls-9" x1="1644.44" y1="315.83" x2="1675.84" y2="284.43"/></g></g></svg>