<svg xmlns="http://www.w3.org/2000/svg" viewBox="0 0 80.63 80.63"><defs><style>.cls-1{fill:#282982;}.cls-2{fill:#6467d8;}.cls-3{fill:#383a9b;}.cls-4{fill:#b2b3ec;}.cls-5{fill:#d7daf2;}.cls-6{fill:#093447;}.cls-7{fill:#f8f8f8;}.cls-8{fill:none;}</style></defs><title>product-ch5</title><g id="Layer_2" data-name="Layer 2"><g id="Layer_1-2" data-name="Layer 1"><polyline class="cls-1" points="75.88 4.04 63.77 4.04 63.77 78.59 75.88 78.59"/><rect class="cls-2" x="42.08" y="4.04" width="24.21" height="74.54"/><rect class="cls-3" x="44.86" y="26.72" width="12.11" height="51.87"/><rect class="cls-4" x="23.17" y="26.72" width="24.21" height="51.87"/><rect class="cls-3" x="26.45" y="55.08" width="12.11" height="23.51"/><rect class="cls-5" x="4.76" y="55.08" width="24.21" height="23.51"/><rect class="cls-6" x="28.39" y="34.15" width="1.5" height="2.84"/><rect class="cls-6" x="34.52" y="34.15" width="1.5" height="2.84"/><rect class="cls-6" x="40.66" y="34.15" width="1.5" height="2.84"/><rect class="cls-7" x="28.39" y="43.71" width="1.5" height="2.84"/><rect class="cls-6" x="34.52" y="43.71" width="1.5" height="2.84"/><rect class="cls-6" x="40.66" y="43.71" width="1.5" height="2.84"/><rect class="cls-6" x="9.98" y="61.39" width="1.5" height="2.84"/><rect class="cls-6" x="16.11" y="61.39" width="1.5" height="2.84"/><rect class="cls-6" x="22.25" y="61.39" width="1.5" height="2.84"/><rect class="cls-6" x="9.98" y="70.95" width="1.5" height="2.84"/><rect class="cls-7" x="16.11" y="70.95" width="1.5" height="2.84"/><rect class="cls-6" x="22.25" y="70.95" width="1.5" height="2.84"/><rect class="cls-6" x="47.3" y="14.05" width="1.5" height="2.84"/><rect class="cls-6" x="53.44" y="14.05" width="1.5" height="2.84"/><rect class="cls-7" x="59.57" y="14.05" width="1.5" height="2.84"/><rect class="cls-8" width="80.63" height="80.63"/></g></g></svg>