<svg xmlns="http://www.w3.org/2000/svg" viewBox="0 0 80.63 80.63"><defs><style>.cls-1{fill:#f66631;}.cls-2{fill:#ffe682;}.cls-3{fill:#fff8e3;}.cls-4{fill:#ffb40e;}.cls-5{fill:#093447;}.cls-6{fill:none;}</style></defs><title>product-ch2</title><g id="Layer_2" data-name="Layer 2"><g id="Layer_1-2" data-name="Layer 1"><rect class="cls-1" x="19.64" y="14.27" width="60.99" height="51.3" rx="3.21" ry="3.21" transform="translate(100.28 79.83) rotate(-180)"/><path class="cls-2" d="M18.35,14.27H72.21a5.53,5.53,0,0,1,5.53,5.53V61.06a4.51,4.51,0,0,1-4.51,4.51H18.35a4.51,4.51,0,0,1-4.51-4.51V18.77a4.51,4.51,0,0,1,4.51-4.51Z" transform="translate(91.58 79.83) rotate(-180)"/><rect class="cls-3" x="15.88" y="19.89" width="59.99" height="39.88" transform="translate(91.75 79.66) rotate(-180)"/><circle class="cls-4" cx="46.25" cy="17.24" r="1.37"/><path class="cls-2" d="M4.39,65.57H74.67v-5.8H0v3.41C0,64.5,1.07,65.57,4.39,65.57Z"/><path class="cls-1" d="M59.39,65.58h18.5l.71-5.81H57.36v3.36A2.27,2.27,0,0,0,59.39,65.58Z"/><rect class="cls-5" x="22.93" y="27.37" width="46.42" height="1.5"/><rect class="cls-5" x="22.93" y="38.39" width="46.42" height="1.5"/><path class="cls-1" d="M32.08,42.27l-2.4-3a.27.27,0,0,1,0-.32l2.4-3a.25.25,0,0,1,.4,0l2.4,3a.24.24,0,0,1,0,.32l-2.4,3A.25.25,0,0,1,32.08,42.27Z"/><rect class="cls-2" x="25.51" y="25.41" width="16.63" height="5.42" rx="2.71" ry="2.71"/><circle class="cls-1" cx="60.78" cy="28.12" r="2.71"/><rect class="cls-4" x="44.2" y="45.78" width="21.6" height="5.42" rx="2.71" ry="2.71"/><rect class="cls-4" x="47.57" y="25.42" width="5.4" height="5.4" rx="0.1" ry="0.1"/><path class="cls-1" d="M61.82,53.15l-5.13-3.74a.14.14,0,0,0-.22.11V56a.14.14,0,0,0,.22.11l2-1.07L60,57.33l1.11-.64-1.3-2.26,2-1.06A.13.13,0,0,0,61.82,53.15Z"/><rect class="cls-6" width="80.63" height="80.63"/></g></g></svg>