<svg xmlns="http://www.w3.org/2000/svg" viewBox="0 0 2573.2 451.45"><defs><style>.cls-1,.cls-7,.cls-8,.cls-9{fill:none;}.cls-1{stroke:#fff;stroke-miterlimit:10;}.cls-2{fill:#282982;}.cls-3{fill:#6467d8;}.cls-4{fill:#383a9b;}.cls-5{fill:#b2b3ec;}.cls-6{fill:#d7daf2;}.cls-7{stroke:#093447;}.cls-7,.cls-8{stroke-linejoin:round;stroke-width:5px;}.cls-8{stroke:#f8f8f8;}</style></defs><title>Product-ch5-4</title><g id="Layer_2" data-name="Layer 2"><g id="Layer_2-2" data-name="Layer 2"><rect class="cls-1" x="0.5" y="0.5" width="2572.2" height="450.45"/><polyline class="cls-2" points="1485.25 23.09 1417.62 23.09 1417.62 439.53 1485.25 439.53"/><rect class="cls-3" x="1296.46" y="23.1" width="135.25" height="416.43"/><rect class="cls-4" x="1311.96" y="149.78" width="67.63" height="289.75"/><rect class="cls-5" x="1190.8" y="149.78" width="135.25" height="289.75"/><rect class="cls-4" x="1209.11" y="308.2" width="67.63" height="131.33"/><rect class="cls-6" x="1087.95" y="308.2" width="135.25" height="131.33"/><line class="cls-7" x1="1224.16" y1="191.28" x2="1224.16" y2="207.13"/><line class="cls-7" x1="1258.42" y1="191.28" x2="1258.42" y2="207.13"/><line class="cls-7" x1="1292.69" y1="191.28" x2="1292.69" y2="207.13"/><line class="cls-8" x1="1224.16" y1="244.69" x2="1224.16" y2="260.54"/><line class="cls-7" x1="1258.42" y1="244.69" x2="1258.42" y2="260.54"/><line class="cls-7" x1="1292.69" y1="244.69" x2="1292.69" y2="260.54"/><line class="cls-7" x1="1121.31" y1="343.46" x2="1121.31" y2="359.31"/><line class="cls-7" x1="1155.57" y1="343.46" x2="1155.57" y2="359.31"/><line class="cls-7" x1="1189.84" y1="343.46" x2="1189.84" y2="359.31"/><line class="cls-7" x1="1121.31" y1="396.87" x2="1121.31" y2="412.72"/><line class="cls-8" x1="1155.57" y1="396.87" x2="1155.57" y2="412.72"/><line class="cls-7" x1="1189.84" y1="396.87" x2="1189.84" y2="412.72"/><line class="cls-7" x1="1329.82" y1="78.96" x2="1329.82" y2="94.81"/><line class="cls-7" x1="1364.09" y1="78.96" x2="1364.09" y2="94.81"/><line class="cls-8" x1="1398.35" y1="78.96" x2="1398.35" y2="94.81"/><rect class="cls-9" x="1061.37" y="0.5" width="450.45" height="450.45"/></g></g></svg>