<svg xmlns="http://www.w3.org/2000/svg" viewBox="0 0 2573.2 451.45"><defs><style>.cls-1{fill:#f5f6fa;}.cls-2{fill:#373d95;}.cls-3{fill:#b2b4e8;}.cls-4{fill:#6469d1;}.cls-5{fill:#d7d8ea;}.cls-6,.cls-7{fill:none;stroke-miterlimit:10;}.cls-6{stroke:#093447;stroke-width:5px;}.cls-7{stroke:#fff;}</style></defs><title>Product-ch5-3</title><g id="Layer_2" data-name="Layer 2"><g id="Layer_2-2" data-name="Layer 2"><ellipse class="cls-1" cx="1283.21" cy="395.27" rx="244.91" ry="46.82"/><rect class="cls-2" x="1104.83" y="33.84" width="160.87" height="24.28"/><rect class="cls-3" x="1104.83" y="9.36" width="36.21" height="48.76"/><rect class="cls-3" x="1167.15" y="9.36" width="18.11" height="48.76"/><rect class="cls-4" x="1185.26" y="9.36" width="18.11" height="48.76"/><rect class="cls-4" x="1229.48" y="9.36" width="36.21" height="48.76"/><path class="cls-3" d="M1185.26,106.66h-52.38a28.05,28.05,0,0,1-28.05-28V58.11h80.43"/><path class="cls-4" d="M1185.26,58.11h80.43v20.5a28.05,28.05,0,0,1-28,28.05h-52.38"/><polyline class="cls-5" points="1185.26 144.71 1132.59 144.71 1132.59 106.66 1185.26 106.66"/><polyline class="cls-2" points="1185.26 106.66 1237.93 106.66 1237.93 144.71 1185.26 144.71"/><polyline class="cls-3" points="1185.26 287.44 1124.68 287.44 1124.68 132.16 1185.26 132.16"/><polyline class="cls-4" points="1185.26 132.16 1245.84 132.16 1245.84 287.44 1185.26 287.44"/><circle class="cls-2" cx="1215.55" cy="227.71" r="15.88"/><rect class="cls-2" x="1199.67" y="227.71" width="31.76" height="59.46"/><path class="cls-2" d="M1185.26,304h61.19A21.56,21.56,0,0,1,1268,325.57h-82.75Z"/><path class="cls-2" d="M1185.26,304h-61.19a21.56,21.56,0,0,0-21.56,21.56h82.75Z"/><rect class="cls-2" x="1124.68" y="287.44" width="121.16" height="16.58"/><rect class="cls-5" x="1102.51" y="325.57" width="82.75" height="57.4"/><rect class="cls-2" x="1184.1" y="325.57" width="83.93" height="57.4"/><path class="cls-2" d="M1325,343.28V391a16.8,16.8,0,0,1-16.8,16.8h0V343.28Z"/><path class="cls-2" d="M1325,343.28V295.6a16.8,16.8,0,0,0-16.8-16.8h0v64.48Z"/><rect class="cls-5" x="1253.64" y="288.67" width="64.48" height="44.73" transform="translate(1596.91 -974.84) rotate(90)"/><rect class="cls-2" x="1253.17" y="352.72" width="65.41" height="44.73" transform="translate(1660.96 -910.8) rotate(90)"/><path class="cls-2" d="M1534.89,343.28a44,44,0,0,1-88.05,0"/><path class="cls-5" d="M1446.84,343.28a44,44,0,1,1,88.05,0"/><path class="cls-5" d="M1418.78,343.28v-49h0a27.48,27.48,0,0,1,27.48,27.48v21.49"/><path class="cls-2" d="M1446.26,343.28v21.49a27.47,27.47,0,0,1-27.48,27.47h0v-49"/><path class="cls-3" d="M1324.46,343.28v-49s15.83,18.65,94.9,18.65v30.32Z"/><path class="cls-4" d="M1324.46,343.28v49s15.83-18.64,94.9-18.64V343.28Z"/><line class="cls-6" x1="1316.78" y1="225.65" x2="1314.58" y2="240.49"/><line class="cls-6" x1="1286.55" y1="229.12" x2="1292.06" y2="243.07"/><line class="cls-6" x1="1262.11" y1="247.25" x2="1273.86" y2="256.57"/><line class="cls-6" x1="1366.29" y1="292.43" x2="1351.46" y2="290.23"/><line class="cls-6" x1="1362.82" y1="262.2" x2="1348.87" y2="267.71"/><line class="cls-6" x1="1344.7" y1="237.76" x2="1335.37" y2="249.5"/><rect class="cls-7" x="0.5" y="0.5" width="2572.2" height="450.45"/></g></g></svg>