<svg xmlns="http://www.w3.org/2000/svg" viewBox="0 0 2573.2 392.34"><defs><style>.cls-1{fill:#db3f26;}.cls-2,.cls-4,.cls-5,.cls-6{fill:none;stroke-miterlimit:10;}.cls-2{stroke:#f7d3c4;}.cls-2,.cls-4,.cls-5{stroke-width:5px;}.cls-3{fill:#f7d3c4;}.cls-4{stroke:#db3f26;}.cls-5{stroke:#093447;}.cls-6{stroke:#fff;}</style></defs><title>Product-ch3-2</title><g id="Layer_2" data-name="Layer 2"><g id="Layer_2-2" data-name="Layer 2"><rect class="cls-1" x="1040.85" y="74.03" width="339.45" height="208.34" rx="19.88" ry="19.88"/><polygon class="cls-1" points="1073.51 272.05 1169.46 322.83 1169.46 272.05 1073.51 272.05"/><line class="cls-2" x1="1091.82" y1="132.63" x2="1329.33" y2="132.63"/><line class="cls-2" x1="1091.82" y1="176.8" x2="1329.33" y2="176.8"/><line class="cls-2" x1="1091.82" y1="220.98" x2="1329.33" y2="220.98"/><rect class="cls-3" x="1257.95" y="173.69" width="274.39" height="168.41" rx="19.88" ry="19.88" transform="translate(2790.3 515.79) rotate(-180)"/><polygon class="cls-3" points="1507.47 332.38 1434.84 378.73 1434.84 332.38 1507.47 332.38"/><line class="cls-4" x1="1491.14" y1="222.19" x2="1299.15" y2="222.19"/><line class="cls-4" x1="1491.14" y1="257.9" x2="1299.15" y2="257.9"/><line class="cls-4" x1="1402.85" y1="293.6" x2="1299.15" y2="293.6"/><line class="cls-5" x1="1374.14" y1="38.57" x2="1374.14" y2="14.72"/><line class="cls-5" x1="1400.92" y1="50.27" x2="1417.78" y2="33.4"/><line class="cls-5" x1="1347.35" y1="50.27" x2="1330.49" y2="33.4"/><line class="cls-5" x1="1411.59" y1="77.47" x2="1435.44" y2="77.47"/><line class="cls-5" x1="1399.9" y1="104.25" x2="1416.76" y2="121.12"/><rect class="cls-6" x="0.5" y="0.5" width="2572.2" height="391.34"/></g></g></svg>