<svg xmlns="http://www.w3.org/2000/svg" viewBox="0 0 80.63 80.63"><defs><style>.cls-1{fill:#096642;}.cls-2{fill:#88e6c1;}.cls-3{fill:#11cc83;}.cls-4{fill:#093447;}.cls-5{fill:none;}</style></defs><title>product-ch4</title><g id="Layer_2" data-name="Layer 2"><g id="Layer_1-2" data-name="Layer 1"><path class="cls-1" d="M0,58c14.09,0,27.22-2.22,38.27,4.84C49.53,70.34,63.05,69.9,77.6,69.9V26.18c-14.55,0-28.07,1.2-39.33-6.29C27.22,12.83,14.09,14.29,0,14.29Z"/><path class="cls-2" d="M3,54.57c14.09,0,27.22-1.47,38.27,5.6,11.26,7.49,24.78,6.29,39.32,6.29V22.74c-14.54,0-28.06,1.2-39.32-6.29-11-7.07-24.18-5.6-38.27-5.6Z"/><path class="cls-3" d="M70.25,62.16c-9.14,0-18.71-.44-26.52-5.63-9.32-6-19.63-6.46-28.56-6.46-2,0-4,0-6,.06l-1.77,0v-35l1.91,0c2,0,3.93-.06,5.85-.06,9.55,0,17.25.86,23.78,5,9.78,6.5,20.83,7.05,31.3,7.05,1.69,0,3.4,0,5.13,0h.88v35h-1C73.59,62.14,71.91,62.16,70.25,62.16Z"/><path class="cls-1" d="M70.25,62.81c-9.24,0-18.92-.44-26.89-5.74C34.21,51.22,24,50.73,15.17,50.73c-2,0-4,0-6,.06l-1.77,0A.89.89,0,0,1,7,50.63a.68.68,0,0,1-.19-.47v-35a.66.66,0,0,1,.64-.66l1.91,0c2,0,3.93-.07,5.86-.07,9.66,0,17.47.88,24.13,5.14,9.64,6.41,20.58,7,31,7l4.59,0h1.41a.6.6,0,0,1,.47.19.67.67,0,0,1,.2.46v35a.66.66,0,0,1-.66.66H75ZM15.17,49.42c9,0,19.45.5,28.91,6.56,7.67,5.1,17.13,5.52,26.17,5.52l4.72,0h.63V27.81h-.75l-4.6,0c-10.57,0-21.73-.55-31.66-7.16-6.39-4.08-14-4.92-23.42-4.92-1.92,0-3.87,0-5.84.06l-1.26,0V49.49h1.1C11.19,49.45,13.19,49.42,15.17,49.42Z"/><path class="cls-2" d="M76.24,53.38a8.78,8.78,0,0,0-8.78,8.78h8.78Z"/><path class="cls-2" d="M76.24,35.92a8.78,8.78,0,0,1-8.78-8.78h8.78Z"/><path class="cls-2" d="M7.41,23.88A8.79,8.79,0,0,0,16.2,15.1H7.41Z"/><path class="cls-2" d="M7.41,41.31a8.79,8.79,0,0,1,8.79,8.78H7.41Z"/><path class="cls-4" d="M70.25,62.66c-9.21,0-18.87-.44-26.8-5.72C34.26,51.07,24,50.57,15.17,50.57c-2,0-4,0-6,.06l-1.77,0a.65.65,0,0,1-.36-.14.55.55,0,0,1-.15-.36v-35a.5.5,0,0,1,.5-.5l1.9,0c2,0,3.93-.06,5.86-.06,9.64,0,17.41.87,24,5.12,9.67,6.43,20.63,7,31,7l4.59,0,1.41,0a.69.69,0,0,1,.36.15.47.47,0,0,1,.15.35v35a.5.5,0,0,1-.5.5l-1.28,0ZM15.17,49.57c9,0,19.4.51,28.83,6.54,7.7,5.12,17.19,5.55,26.25,5.55l4.72,0h.79v-34h-.91l-4.6,0c-10.55,0-21.68-.55-31.58-7.14-6.42-4.11-14-5-23.5-5-1.92,0-3.87,0-5.84.06l-1.42,0v34l1.26,0C11.2,49.6,13.2,49.57,15.17,49.57Z"/><circle class="cls-2" cx="41.84" cy="38.63" r="12.15"/><circle class="cls-3" cx="41.84" cy="38.63" r="8.94"/><circle class="cls-1" cx="41.84" cy="36.72" r="2.88"/><path class="cls-1" d="M37.05,44.85s.94-4.71,4.79-4.71S47,44.85,47,44.85Z"/><path class="cls-1" d="M37.05,44.85a9.18,9.18,0,0,0,4.79,1.68A11.13,11.13,0,0,0,47,44.85"/><rect class="cls-5" width="80.63" height="80.63"/></g></g></svg>