<svg xmlns="http://www.w3.org/2000/svg" viewBox="0 0 2573.2 410.87"><defs><style>.cls-1,.cls-7,.cls-8{fill:none;stroke-miterlimit:10;}.cls-1{stroke:#fff;}.cls-2{fill:#ed8260;}.cls-3{fill:#fff;}.cls-4{fill:#f7d3c4;}.cls-5{fill:#db3f26;}.cls-6{fill:#f5f5f5;}.cls-7{stroke:#093447;stroke-width:5px;}.cls-8{stroke:#f7d3c4;stroke-width:4px;}.cls-9{fill:#093447;}</style></defs><title>Product-ch3-3</title><g id="Layer_2" data-name="Layer 2"><g id="Layer_2-2" data-name="Layer 2"><rect class="cls-1" x="0.5" y="0.5" width="2572.2" height="409.87"/><rect class="cls-2" x="1068.88" y="44" width="443.91" height="346.11" rx="14.55" ry="14.55"/><rect class="cls-3" x="1089.16" y="69.22" width="403.34" height="271.1" rx="11.52" ry="11.52"/><path class="cls-4" d="M1544.41,400.89H1037.26c-8.25-12.61-11.9-26.66-10.35-39.27h527.85C1556.31,374.23,1552.66,388.28,1544.41,400.89Z"/><path class="cls-5" d="M1319.42,385.62h-57.18c-8.73,0-8.73-13.09,0-13.09h57.18C1328.15,372.53,1328.15,385.62,1319.42,385.62Z"/><circle class="cls-5" cx="1290.83" cy="57.1" r="4.36"/><rect class="cls-3" x="1166.17" y="26.16" width="249.34" height="369.4" transform="translate(1501.69 -1079.97) rotate(90)"/><rect class="cls-6" x="1135.11" y="110.09" width="176.79" height="76"/><rect class="cls-6" x="1135.52" y="204.27" width="66.09" height="45"/><rect class="cls-6" x="1135.52" y="265.02" width="66.09" height="45"/><rect class="cls-6" x="1346.51" y="204.27" width="100.4" height="45"/><rect class="cls-6" x="1346.51" y="265.02" width="100.4" height="45"/><line class="cls-7" x1="1346.6" y1="110.09" x2="1446.56" y2="110.09"/><line class="cls-7" x1="1346.6" y1="134.85" x2="1446.56" y2="134.85"/><line class="cls-7" x1="1346.6" y1="162.53" x2="1446.56" y2="162.53"/><line class="cls-7" x1="1346.6" y1="186.1" x2="1446.56" y2="186.1"/><line class="cls-7" x1="1216.41" y1="213.41" x2="1316.37" y2="213.41"/><line class="cls-7" x1="1216.41" y1="233.99" x2="1316.37" y2="233.99"/><line class="cls-7" x1="1216.41" y1="273.64" x2="1316.37" y2="273.64"/><line class="cls-7" x1="1216.41" y1="297.96" x2="1316.37" y2="297.96"/><rect class="cls-5" x="978.09" y="9.47" width="196.62" height="122.35"/><polyline class="cls-8" points="983.92 18.82 1077.16 77.78 1170.4 18.82"/><line class="cls-8" x1="1066.79" y1="71.33" x2="983.92" y2="123.73"/><line class="cls-8" x1="1170.4" y1="123.73" x2="1087.42" y2="71.27"/><path class="cls-7" d="M1047.52,154.68c13.47,45.26,58.61,76.94,111.4,76.94"/><polygon class="cls-9" points="1042.63 129.51 1062.89 154.93 1037.03 161.53 1042.63 129.51"/></g></g></svg>