<svg xmlns="http://www.w3.org/2000/svg" viewBox="0 0 80.63 80.63"><defs><style>.cls-1{fill:#0074e0;}.cls-2{fill:#d5f1fd;}.cls-3{fill:#093447;}.cls-4{fill:#0034c5;}.cls-5{fill:#2ebaf6;}.cls-6{fill:none;}</style></defs><title>product-ch1</title><g id="Layer_2" data-name="Layer 2"><g id="Layer_1-2" data-name="Layer 1"><rect class="cls-1" x="2.42" y="14.34" width="78.21" height="54.56" rx="2.07" ry="2.07"/><rect class="cls-2" y="11.74" width="78.21" height="54.56" rx="2.07" ry="2.07"/><rect class="cls-3" x="8.58" y="23.2" width="61.18" height="1.5"/><rect class="cls-3" x="8.12" y="38.63" width="16.16" height="1.5"/><rect class="cls-3" x="53.21" y="38.63" width="16.9" height="1.5"/><rect class="cls-3" x="8.58" y="54.06" width="61.18" height="1.5"/><path class="cls-4" d="M17.76,43.76,14.4,39.61a.35.35,0,0,1,0-.45L17.76,35a.36.36,0,0,1,.55,0l3.36,4.16a.35.35,0,0,1,0,.45l-3.36,4.15A.36.36,0,0,1,17.76,43.76Z"/><rect class="cls-5" x="14.98" y="20.16" width="19.61" height="7.58" rx="3.79" ry="3.79"/><circle class="cls-4" cx="39.66" cy="54.81" r="3.79"/><rect class="cls-1" x="13.85" y="51.02" width="12.13" height="7.58" rx="3.79" ry="3.79"/><rect class="cls-4" x="50.51" y="51.02" width="18.07" height="7.58" rx="3.79" ry="3.79"/><path class="cls-4" d="M43.09,20.18,49,23.85a.12.12,0,0,1,0,.2l-5.95,3.67a.15.15,0,0,1-.23-.1V20.28C42.86,20.18,43,20.13,43.09,20.18Z"/><rect class="cls-5" x="56.92" y="20.17" width="7.56" height="7.56" rx="0.15" ry="0.15"/><path class="cls-1" d="M60.93,35.61l5.94,3.67a.11.11,0,0,1,0,.2l-5.94,3.67a.15.15,0,0,1-.23-.1V35.71A.15.15,0,0,1,60.93,35.61Z"/><path class="cls-3" d="M40.41,45.8h-1.5V42.39a.75.75,0,0,1,.75-.75,4.33,4.33,0,1,0-4.32-4.32h-1.5a5.82,5.82,0,1,1,6.57,5.77Z"/><rect class="cls-6" width="80.63" height="80.63"/></g></g></svg>