<svg xmlns="http://www.w3.org/2000/svg" viewBox="0 0 2573.2 498.44"><defs><style>.cls-1{isolation:isolate;}.cls-2{fill:#b2b4e8;}.cls-3{fill:#6469d1;}.cls-11,.cls-12,.cls-4{fill:none;}.cls-12,.cls-4,.cls-5{stroke:#fff;}.cls-11,.cls-12,.cls-4,.cls-5{stroke-miterlimit:10;}.cls-4{stroke-width:3px;}.cls-5,.cls-9{fill:#fff;}.cls-5{stroke-width:1.5px;}.cls-6{fill:#d7d8ea;}.cls-7{fill:#373d95;}.cls-8{fill:#f5f6fa;}.cls-10{fill:#faf1e1;opacity:0.57;mix-blend-mode:overlay;}.cls-11{stroke:#093447;stroke-width:5px;}</style></defs><title>Product-ch5-2</title><g class="cls-1"><g id="Layer_2" data-name="Layer 2"><g id="Layer_2-2" data-name="Layer 2"><polygon class="cls-2" points="1341.26 242.02 1341.26 258.89 1341.26 488.82 1719.03 488.82 1719.03 258.89 1719.03 242.02 1341.26 242.02"/><circle class="cls-3" cx="1729.06" cy="399.02" r="46.4"/><path class="cls-4" d="M1712.86,387.11a16.2,16.2,0,0,1,32.39,0c0,8.95-14.31,15-16.19,16.2v11.05"/><circle class="cls-5" cx="1729.22" cy="423.8" r="3.31"/><polygon class="cls-6" points="797.74 53.76 797.74 70.48 797.74 298.43 1172.26 298.43 1172.26 70.48 1172.26 53.76 797.74 53.76"/><rect class="cls-7" x="825.77" y="25.73" width="374.52" height="16.72"/><rect class="cls-8" x="825.77" y="42.45" width="374.52" height="227.95"/><path class="cls-6" d="M930.49,193.45a39.29,39.29,0,1,0,0-78.57V86a68.17,68.17,0,0,1,0,136.34"/><path class="cls-9" d="M930.49,114.88a39.29,39.29,0,0,0,0,78.57v28.88a68.17,68.17,0,0,1,0-136.34"/><path class="cls-10" d="M930.49,114.88a39.29,39.29,0,0,0,0,78.57v28.88a68.17,68.17,0,0,1,0-136.34"/><path class="cls-3" d="M930.49,193.45a39.29,39.29,0,0,0,39.29-39.29h28.88a68.17,68.17,0,0,1-68.17,68.17Z"/><path class="cls-2" d="M930.49,193.45a39.29,39.29,0,0,1-39.28-39.29H862.33a68.17,68.17,0,0,0,68.16,68.17"/><path class="cls-2" d="M956.76,124.94a39.22,39.22,0,0,1,13,29.22h28.88a68,68,0,0,0-22.9-51Z"/><rect class="cls-2" x="1042.01" y="163.12" width="26.58" height="48.17"/><rect class="cls-6" x="1086.16" y="137.46" width="26.58" height="73.83"/><rect class="cls-3" x="1130.32" y="114.5" width="26.58" height="96.79"/><rect class="cls-6" x="1042.01" y="126.5" width="26.58" height="37.66"/><rect class="cls-2" x="1086.16" y="106.44" width="26.58" height="57.72"/><rect class="cls-7" x="1130.32" y="88.49" width="26.58" height="75.67"/><rect class="cls-3" x="1316.48" y="213.44" width="377.78" height="16.86"/><rect class="cls-8" x="1316.48" y="230.3" width="377.78" height="229.93"/><rect class="cls-2" x="1386.98" y="278.82" width="268.87" height="4.61"/><rect class="cls-2" x="1386.98" y="307.28" width="268.87" height="4.61"/><rect class="cls-2" x="1386.98" y="355.12" width="268.87" height="4.61"/><rect class="cls-2" x="1386.98" y="383.58" width="268.87" height="4.61"/><rect class="cls-2" x="1386.98" y="412.05" width="268.87" height="4.61"/><rect class="cls-2" x="1348.83" y="269.26" width="29.52" height="57.68"/><rect class="cls-3" x="1348.83" y="342.03" width="29.52" height="87.1"/><path class="cls-11" d="M1130,244.64a72.65,72.65,0,0,0,145.29,0,72.64,72.64,0,1,1,145.28,0"/><polygon class="cls-11" points="1421.1 267.03 1410.07 242.53 1432.13 242.53 1421.1 267.03"/><polygon class="cls-11" points="1130.12 221.18 1141.15 245.69 1119.08 245.69 1130.12 221.18"/><line class="cls-11" x1="857.8" y1="196.73" x2="904.94" y2="243.87"/><line class="cls-11" x1="857.8" y1="243.87" x2="904.94" y2="196.73"/><circle class="cls-3" cx="1193.49" cy="46.9" r="46.4"/><path class="cls-4" d="M1177.29,35a16.2,16.2,0,0,1,32.4,0c0,9-14.32,15-16.2,16.2v11"/><circle class="cls-5" cx="1193.65" cy="71.69" r="3.31"/><line class="cls-11" x1="1609.48" y1="266.16" x2="1639.61" y2="296.29"/><line class="cls-11" x1="1609.48" y1="296.29" x2="1639.61" y2="266.16"/><rect class="cls-12" x="0.5" y="0.5" width="2572.2" height="497.44"/></g></g></g></svg>