<svg xmlns="http://www.w3.org/2000/svg" viewBox="0 0 2572.2 450.45"><defs><style>.cls-1,.cls-4{fill:none;}.cls-2{fill:#0074e0;}.cls-3{fill:#daf2fd;}.cls-4{stroke:#093447;stroke-miterlimit:10;stroke-width:3.5px;}.cls-5{fill:#2ebaf6;}.cls-6{fill:#9adcfa;}.cls-7{fill:#005daa;}.cls-8{fill:#0061bc;}.cls-9{fill:#53c0f0;}.cls-10{fill:#ffcc05;}.cls-11{fill:#fe5f16;}.cls-12{fill:#fbb03b;}</style></defs><title>Bus-ch2-8</title><g id="Layer_2" data-name="Layer 2"><g id="Layer_1-2" data-name="Layer 1"><rect class="cls-1" width="2572.2" height="450.45"/><rect class="cls-2" x="1070.22" y="46.19" width="454.47" height="303" rx="7" ry="7"/><rect class="cls-3" x="1056.63" y="32.66" width="454.47" height="303" rx="7" ry="7"/><line class="cls-4" x1="1098.45" y1="94.8" x2="1469.29" y2="94.8"/><line class="cls-4" x1="1098.45" y1="184.69" x2="1469.29" y2="184.69"/><line class="cls-4" x1="1098.45" y1="274.57" x2="1469.29" y2="274.57"/><rect class="cls-5" x="1330.97" y="257.15" width="107.69" height="34.07" rx="14" ry="14"/><rect class="cls-6" x="1214.54" y="257.15" width="67.29" height="34.07" rx="14" ry="14"/><rect class="cls-5" x="1391.94" y="77.76" width="37.78" height="34.07" rx="14" ry="14"/><rect class="cls-6" x="1133.91" y="168.97" width="130.59" height="34.07" rx="14" ry="14"/><polygon class="cls-7" points="1404.28 156.17 1404.28 212.07 1440.68 184.12 1404.28 156.17"/><rect class="cls-5" x="1317.83" y="164.35" width="39.53" height="39.53"/><polygon class="cls-2" points="1133.49 248.12 1133.49 304.02 1169.89 276.07 1133.49 248.12"/><path class="cls-5" d="M1290.21,77.76H1171.75a95.64,95.64,0,0,1-8.17,34.08h126.63a17,17,0,1,0,0-34.08Z"/><path class="cls-2" d="M1150.56,77.76a17,17,0,1,0,0,34.08h13a95.64,95.64,0,0,0,8.17-34.08Z"/><path class="cls-5" d="M1150.56,77.76a17,17,0,1,0,0,34.08h13a95.64,95.64,0,0,0,8.17-34.08Z"/><polygon class="cls-8" points="1421.44 317.57 1421.44 402.05 1498.68 444.29 1575.93 402.05 1575.93 317.57 1498.68 275.33 1421.44 317.57"/><polygon class="cls-6" points="1498.68 275.33 1421.44 317.57 1421.44 402.05 1498.68 444.29 1498.68 275.33"/><polygon class="cls-9" points="1575.93 318.09 1575.93 317.57 1498.68 275.33 1421.44 317.57 1421.44 318.09 1498.68 360.33 1575.93 318.09"/><polygon class="cls-8" points="1473.91 205.89 1473.91 290.36 1551.16 332.6 1628.41 290.36 1628.41 205.89 1551.16 163.65 1473.91 205.89"/><polygon class="cls-6" points="1551.16 163.65 1473.91 205.89 1473.91 290.36 1551.16 332.6 1551.16 163.65"/><polygon class="cls-9" points="1628.41 206.4 1628.41 205.89 1551.16 163.65 1473.91 205.89 1473.91 206.4 1551.16 248.64 1628.41 206.4"/><polygon class="cls-10" points="963.79 48.41 963.79 132.88 1041.04 175.12 1118.28 132.88 1118.28 48.41 1041.04 6.17 963.79 48.41"/><polygon class="cls-11" points="1041.04 6.17 963.79 48.41 963.79 132.88 1041.04 175.12 1041.04 6.17"/><polygon class="cls-12" points="1118.28 48.92 1118.28 48.41 1041.04 6.17 963.79 48.41 963.79 48.92 1041.04 91.16 1118.28 48.92"/></g></g></svg>