<svg xmlns="http://www.w3.org/2000/svg" viewBox="0 0 2572.2 476.68"><defs><style>.cls-1,.cls-7{fill:none;}.cls-2{fill:#f5f6fa;}.cls-3{fill:#0061bc;}.cls-4{fill:#d5f1fd;}.cls-5{fill:#53c0f0;}.cls-6{fill:#fff;}.cls-7{stroke:#fe5f16;stroke-width:7.27px;}.cls-7,.cls-8{stroke-linecap:round;stroke-linejoin:round;}.cls-8{fill:#008ee0;stroke:#008ee0;stroke-width:10.18px;}</style></defs><title>Bus-ch5-3</title><g id="Layer_2" data-name="Layer 2"><g id="Layer_1-2" data-name="Layer 1"><rect class="cls-1" width="2572.2" height="476.68"/><path class="cls-2" d="M1542.88,35.11h-501.6a12.58,12.58,0,0,0-12.37,12.71V456.15a12.58,12.58,0,0,0,12.37,12.71h501.6a12.58,12.58,0,0,0,12.37-12.71V47.82A12.58,12.58,0,0,0,1542.88,35.11Z"/><path class="cls-3" d="M1539.26,47.38A12.3,12.3,0,0,0,1527,35.11H1029.22A12.3,12.3,0,0,0,1017,47.38V118.2h522.31Z"/><path class="cls-4" d="M1017,118.2V441.61a12.3,12.3,0,0,0,12.27,12.27H1527a12.3,12.3,0,0,0,12.27-12.27V118.2Z"/><rect class="cls-5" x="1051.06" y="142.23" width="95.69" height="78.25"/><rect class="cls-5" x="1171.04" y="142.23" width="95.69" height="78.25"/><rect class="cls-6" x="1291.01" y="142.23" width="95.69" height="78.25"/><rect class="cls-5" x="1410.98" y="142.23" width="95.69" height="78.25"/><rect class="cls-6" x="1051.06" y="244.75" width="95.69" height="78.25"/><rect class="cls-5" x="1171.04" y="244.75" width="95.69" height="78.25"/><rect class="cls-5" x="1291.01" y="244.75" width="95.69" height="78.25"/><rect class="cls-5" x="1410.98" y="244.75" width="95.69" height="78.25"/><rect class="cls-5" x="1051.06" y="347.27" width="95.69" height="78.25"/><rect class="cls-5" x="1171.04" y="347.27" width="95.69" height="78.25"/><rect class="cls-5" x="1291.01" y="347.27" width="95.69" height="78.25"/><rect class="cls-6" x="1410.98" y="347.27" width="95.69" height="78.25"/><line class="cls-7" x1="1068.62" y1="259.16" x2="1126.08" y2="307.94"/><line class="cls-7" x1="1126.08" y1="259.16" x2="1068.62" y2="307.94"/><line class="cls-7" x1="1428.85" y1="361.77" x2="1486.32" y2="410.55"/><line class="cls-7" x1="1486.32" y1="361.77" x2="1428.85" y2="410.55"/><line class="cls-7" x1="1309.81" y1="157.89" x2="1367.28" y2="206.67"/><line class="cls-7" x1="1367.28" y1="157.89" x2="1309.81" y2="206.67"/><rect class="cls-8" x="1053.7" y="29.99" width="51.53" height="7.19" rx="3.59" ry="3.59" transform="translate(1113.05 -1045.88) rotate(90)"/><rect class="cls-8" x="1186.13" y="29.99" width="51.53" height="7.19" rx="3.59" ry="3.59" transform="translate(1245.47 -1178.3) rotate(90)"/><rect class="cls-8" x="1318.55" y="29.99" width="51.53" height="7.19" rx="3.59" ry="3.59" transform="translate(1377.9 -1310.73) rotate(90)"/><rect class="cls-8" x="1450.98" y="29.99" width="51.53" height="7.19" rx="3.59" ry="3.59" transform="translate(1510.33 -1443.16) rotate(90)"/></g></g></svg>