<svg xmlns="http://www.w3.org/2000/svg" viewBox="0 0 2572.2 412.6"><defs><style>.cls-1,.cls-2{fill:none;}.cls-2{stroke:#093447;stroke-miterlimit:10;stroke-width:3.35px;}.cls-3{fill:#f76631;}.cls-4{fill:#fff;}.cls-5{fill:#093447;}.cls-6{fill:#fbd5c6;}.cls-7{fill:#051a24;}.cls-8{fill:#ef290a;}</style></defs><title>Bus-ch1-2</title><g id="Layer_2" data-name="Layer 2"><g id="Layer_1-2" data-name="Layer 1"><rect class="cls-1" width="2572.2" height="412.6"/><path class="cls-2" d="M1090.31,89.19h49.91a19.94,19.94,0,0,1,19.94,19.94v20.41"/><path class="cls-2" d="M1371,277.92v25.55a20.17,20.17,0,0,0,20.16,20.16h45.75"/><path class="cls-3" d="M1270.82,89.19c-122.07,0-205.74,108.64-205.74,108.64s83.67,108.65,205.74,108.65,205.74-108.65,205.74-108.65S1392.89,89.19,1270.82,89.19Z"/><circle class="cls-4" cx="1270.82" cy="197.83" r="86.95"/><path class="cls-5" d="M1274.26,171.9a22.89,22.89,0,0,1,4.21-13.23c-.19,0-.37-.08-.55-.12a40.58,40.58,0,0,0-7.1-.64,40,40,0,1,0,39.54,34.41c-.07-.47-.17-.92-.25-1.38a23,23,0,0,1-35.85-19Z"/><path class="cls-6" d="M1320.22,171.9a23,23,0,0,0-41.75-13.23,40,40,0,0,1,31.64,32.27A23,23,0,0,0,1320.22,171.9Z"/><path class="cls-7" d="M1278.47,158.67a23,23,0,0,0,31.64,32.27A40,40,0,0,0,1278.47,158.67Z"/><path class="cls-6" d="M875.28,34.12h220a0,0,0,0,1,0,0V163a12.73,12.73,0,0,1-12.73,12.73H888A12.73,12.73,0,0,1,875.28,163V34.12A0,0,0,0,1,875.28,34.12Z"/><path class="cls-8" d="M880.83,17.2h208.89a5.54,5.54,0,0,1,5.54,5.54V34.12a0,0,0,0,1,0,0h-220a0,0,0,0,1,0,0V22.74A5.54,5.54,0,0,1,880.83,17.2Z"/><circle class="cls-4" cx="916.52" cy="25.66" r="3.79"/><circle class="cls-4" cx="903.14" cy="25.66" r="3.79"/><circle class="cls-4" cx="889.77" cy="25.66" r="3.79"/><path class="cls-8" d="M1070.75,63.23h-42.48a5.87,5.87,0,0,1,0-11.73h42.48a5.87,5.87,0,1,1,0,11.73Z"/><path class="cls-4" d="M993.07,63.23H899.74a5.87,5.87,0,1,1,0-11.73h93.33a5.87,5.87,0,1,1,0,11.73Z"/><path class="cls-3" d="M1070.75,124h-24.59a5.87,5.87,0,1,1,0-11.73h24.59a5.87,5.87,0,1,1,0,11.73Z"/><path class="cls-4" d="M1023.25,124H939.42a5.87,5.87,0,1,1,0-11.73h83.83a5.87,5.87,0,0,1,0,11.73Z"/><path class="cls-8" d="M918.18,124H899.74a5.87,5.87,0,1,1,0-11.73h18.44a5.87,5.87,0,1,1,0,11.73Z"/><path class="cls-8" d="M1070.75,93.6H999.21a5.87,5.87,0,0,1,0-11.74h71.54a5.87,5.87,0,0,1,0,11.74Z"/><path class="cls-3" d="M967.36,93.6H899.74a5.87,5.87,0,0,1,0-11.74h67.62a5.87,5.87,0,1,1,0,11.74Z"/><path class="cls-8" d="M971.27,154.33H899.74a5.87,5.87,0,0,1,0-11.74h71.53a5.87,5.87,0,0,1,0,11.74Z"/><path class="cls-8" d="M1070.75,154.33h-67.62a5.87,5.87,0,1,1,0-11.74h67.62a5.87,5.87,0,0,1,0,11.74Z"/><path class="cls-6" d="M1427.93,251.79h220a0,0,0,0,1,0,0V381.42a12,12,0,0,1-12,12h-196a12,12,0,0,1-12-12V251.79A0,0,0,0,1,1427.93,251.79Z"/><path class="cls-8" d="M1432.72,234.87h210.41a4.78,4.78,0,0,1,4.78,4.78v12.14a0,0,0,0,1,0,0h-220a0,0,0,0,1,0,0V239.66a4.78,4.78,0,0,1,4.78-4.78Z"/><circle class="cls-4" cx="1469.17" cy="243.33" r="3.79"/><circle class="cls-4" cx="1455.79" cy="243.33" r="3.79"/><circle class="cls-4" cx="1442.42" cy="243.33" r="3.79"/><path class="cls-3" d="M1623.4,280.9h-42.48a5.87,5.87,0,0,1,0-11.73h42.48a5.87,5.87,0,1,1,0,11.73Z"/><path class="cls-4" d="M1561.08,280.9h-61.19a5.87,5.87,0,1,1,0-11.73h61.19a5.87,5.87,0,1,1,0,11.73Z"/><path class="cls-8" d="M1479.77,280.9h-27.38a5.87,5.87,0,1,1,0-11.73h27.38a5.87,5.87,0,1,1,0,11.73Z"/><path class="cls-8" d="M1623.4,341.63h-24.59a5.87,5.87,0,1,1,0-11.73h24.59a5.87,5.87,0,1,1,0,11.73Z"/><path class="cls-3" d="M1575.89,341.63h-83.82a5.87,5.87,0,1,1,0-11.73h83.82a5.87,5.87,0,1,1,0,11.73Z"/><path class="cls-8" d="M1470.83,341.63h-18.44a5.87,5.87,0,1,1,0-11.73h18.44a5.87,5.87,0,1,1,0,11.73Z"/><path class="cls-8" d="M1623.4,311.27h-71.54a5.87,5.87,0,0,1,0-11.74h71.54a5.87,5.87,0,0,1,0,11.74Z"/><path class="cls-3" d="M1520,311.27h-67.62a5.87,5.87,0,0,1,0-11.74H1520a5.87,5.87,0,1,1,0,11.74Z"/><path class="cls-4" d="M1579.53,372H1452.39a5.87,5.87,0,0,1,0-11.74h127.14a5.87,5.87,0,0,1,0,11.74Z"/><path class="cls-3" d="M1623.4,372h-16.21a5.87,5.87,0,0,1,0-11.74h16.21a5.87,5.87,0,0,1,0,11.74Z"/></g></g></svg>