<svg xmlns="http://www.w3.org/2000/svg" viewBox="0 0 2572.2 430.69"><defs><style>.cls-1{fill:none;}.cls-2{fill:#282982;}.cls-3{fill:#b2b3ec;}.cls-4{fill:#383a9b;}.cls-5{fill:#190944;}.cls-6{fill:#d7daf2;}.cls-7{fill:#093447;}</style></defs><title>Bus-ch4-2</title><g id="Layer_2" data-name="Layer 2"><g id="Layer_1-2" data-name="Layer 1"><rect class="cls-1" width="2572.2" height="430.69"/><rect class="cls-2" x="1117.32" y="29.95" width="236.42" height="319.26" rx="24.12" ry="24.12" transform="translate(11.18 441.47) rotate(-20.35)"/><rect class="cls-3" x="1172.21" y="42.18" width="236.42" height="319.26" rx="24.12" ry="24.12" transform="translate(-1.2 7.86) rotate(-0.35)"/><path class="cls-4" d="M1200.77,99.68a9.85,9.85,0,0,1-6.9-2.58c-1.45-1.37-3.18-3.93-3.18-8.41h7.83c0,1.11.19,2.51,1.06,2.93a4,4,0,0,0,2.76,0v-23h7.83V93C1210.17,97.13,1205.29,99.68,1200.77,99.68Z"/><path class="cls-5" d="M1379.77,335h-10.35V310.61c0-4.89,5.53-7.93,10.66-7.93a11.24,11.24,0,0,1,7.76,2.92c1.63,1.54,3.58,4.41,3.58,9.33h-10.35a3.09,3.09,0,0,0-.33-1.79,2.11,2.11,0,0,0-1-.09Z"/><rect class="cls-6" x="1219.61" y="72.45" width="236.42" height="319.26" rx="24.12" ry="24.12" transform="translate(155.96 -436.38) rotate(19.65)"/><path class="cls-4" d="M1359.45,170.88c-5.62,2.65-11,5.18-16.29,7.68-15.54,7.29-31.05,14.61-46.61,21.83-16.43,7.63-25.08,29.05-10.27,48.34,7.28,9.48,21.8,12.69,33,8.1,3.47-1.43,6.56-3.77,10.22-5.92m0,0c1.91,4.23,3.07,7.06,4.43,9.8,4.42,8.91,11.47,14.73,21.21,16.77,12.47,2.6,23.09-1.11,30.93-11.13,8-10.23,9.06-21.66,3.5-33.38-8.85-18.7-18-37.27-27-55.89-1-2-2-4-3.12-6.2"/><path class="cls-2" d="M1315.89,291l31.82,11.58a74.4,74.4,0,0,1-19.84-45"/><path class="cls-4" d="M1327.87,257.56a74,74,0,0,1-43.79,21.85L1315.89,291"/><path class="cls-2" d="M1329.46,250.91c1.91,4.23,3.07,7.06,4.43,9.8,4.42,8.91,11.47,14.73,21.21,16.77,12.47,2.6,23.09-1.11,30.93-11.13,8-10.23,9.06-21.66,3.5-33.38-8.85-18.7-18-37.27-27-55.89-1-2-2-4-3.12-6.2"/><path class="cls-7" d="M1304.14,108.77l-1.61-16.49L1291.41,104l-5.68-5.4,17-17.93a3.92,3.92,0,0,1,6.74,2.31l2.45,25Z"/><path class="cls-7" d="M1371.22,391.3a4,4,0,0,1-1.27-.21,3.93,3.93,0,0,1-2.63-3.32l-2.57-26.21,7.8-.77,1.73,17.68,11.93-12.57,5.68,5.4-17.83,18.78A3.91,3.91,0,0,1,1371.22,391.3Z"/><rect class="cls-1" x="1075.53" width="421.15" height="421.15"/></g></g></svg>