<svg xmlns="http://www.w3.org/2000/svg" viewBox="0 0 2572.2 476.68"><defs><style>.cls-1,.cls-4,.cls-9{fill:none;}.cls-2{fill:#0074e0;}.cls-3{fill:#daf2fd;}.cls-4{stroke:#093447;stroke-miterlimit:10;stroke-width:3.5px;}.cls-5{fill:#2ebaf6;}.cls-6{fill:#9adcfa;}.cls-7{fill:#005daa;}.cls-8{fill:#ffcb0e;}.cls-9{stroke:#f66631;stroke-linecap:round;stroke-linejoin:round;stroke-width:8.75px;}</style></defs><title>Bus-ch2-3</title><g id="Layer_2" data-name="Layer 2"><g id="Layer_1-2" data-name="Layer 1"><rect class="cls-1" width="2572.2" height="476.68"/><rect class="cls-2" x="1088.95" y="115.94" width="454.47" height="303" rx="7" ry="7"/><rect class="cls-3" x="1075.36" y="102.41" width="454.47" height="303" rx="7" ry="7"/><line class="cls-4" x1="1117.17" y1="164.55" x2="1488.02" y2="164.55"/><line class="cls-4" x1="1117.17" y1="254.44" x2="1488.02" y2="254.44"/><line class="cls-4" x1="1117.17" y1="344.32" x2="1488.02" y2="344.32"/><rect class="cls-5" x="1349.69" y="326.9" width="107.69" height="34.07" rx="14" ry="14"/><rect class="cls-6" x="1245.67" y="326.9" width="39.4" height="34.07" rx="14" ry="14"/><rect class="cls-5" x="1410.66" y="147.51" width="37.78" height="34.07" rx="14" ry="14"/><rect class="cls-6" x="1246.26" y="238.72" width="111.29" height="34.07" rx="14" ry="14"/><polygon class="cls-7" points="1423.01 225.92 1423.01 281.82 1459.41 253.87 1423.01 225.92"/><rect class="cls-5" x="1152.22" y="234.1" width="39.53" height="39.53"/><polygon class="cls-2" points="1152.22 317.87 1152.22 373.77 1188.62 345.82 1152.22 317.87"/><path class="cls-2" d="M1308.94,147.51H1190.48a96.07,96.07,0,0,1-8.17,34.08h126.63a17,17,0,1,0,0-34.08Z"/><path class="cls-6" d="M1152.22,164.55a17.1,17.1,0,0,1,17.06-17h21.2c.08-1.67.13-3.35.13-5a96,96,0,0,0-8.72-40.05H1075.36V237a96.47,96.47,0,0,0,107-55.42h-13A17.1,17.1,0,0,1,1152.22,164.55Z"/><path class="cls-2" d="M1169.28,147.51a17,17,0,1,0,0,34.08h13a96.07,96.07,0,0,0,8.17-34.08Z"/><path class="cls-7" d="M1169.28,147.51a17,17,0,1,0,0,34.08h13a96.07,96.07,0,0,0,8.17-34.08Z"/><circle class="cls-8" cx="1092.51" cy="141.48" r="83.73"/><polyline class="cls-9" points="1049.93 152.98 1079.35 175.61 1131.85 107.34"/></g></g></svg>