<svg xmlns="http://www.w3.org/2000/svg" viewBox="0 0 2572.2 376.1"><defs><style>.cls-1,.cls-4,.cls-5,.cls-6{fill:none;}.cls-2{fill:#d7daf2;}.cls-3{fill:#383a9b;}.cls-4,.cls-5,.cls-6{stroke:#093447;stroke-linejoin:round;stroke-width:4px;}.cls-5{stroke-dasharray:12.24 12.24;}.cls-6{stroke-dasharray:13.09 13.09;}</style></defs><title>Bus-ch4-4</title><g id="Layer_2" data-name="Layer 2"><g id="Layer_1-2" data-name="Layer 1"><rect class="cls-1" y="0.27" width="2572.2" height="375.35"/><rect class="cls-2" x="1137.79" y="73.08" width="294.2" height="229.7" rx="14.1" ry="14.1"/><path class="cls-3" d="M1220.92,292.75h-81.64a2.49,2.49,0,0,1-2.23-3.6l12.78-25.58a16,16,0,0,0,1.68-7.1,7.91,7.91,0,0,0-13.5-5.58l-47.6,47.61a50.42,50.42,0,0,0-14.88,35.92,41.72,41.72,0,0,0,41.67,41.68h62.57a8.55,8.55,0,1,0,0-17.09h-18.4a2.5,2.5,0,1,1,0-5h25.77a8.55,8.55,0,0,0,0-17.1h-25.77a2.5,2.5,0,1,1,0-5h33.13a8.55,8.55,0,0,0,0-17.09h-33.13a2.5,2.5,0,1,1,0-5h59.55a8.55,8.55,0,0,0,0-17.1Z"/><path class="cls-3" d="M1455,0h-62.58a8.55,8.55,0,0,0,0,17.09h18.41a2.5,2.5,0,0,1,0,5h-25.77a8.55,8.55,0,1,0,0,17.1h25.77a2.5,2.5,0,0,1,0,5H1377.7a8.55,8.55,0,1,0,0,17.09h33.13a2.5,2.5,0,0,1,0,5h-59.56a8.55,8.55,0,0,0,0,17.1h81.64a2.52,2.52,0,0,1,2.13,1.19,2.49,2.49,0,0,1,.1,2.41l-12.78,25.58a16,16,0,0,0-1.68,7.1,7.91,7.91,0,0,0,13.5,5.58l47.6-47.61a50.43,50.43,0,0,0,14.89-35.92A41.72,41.72,0,0,0,1455,0Z"/><line class="cls-4" x1="1137.45" y1="227.16" x2="1137.45" y2="220.82"/><path class="cls-5" d="M1137.45,208.58V89.08a15,15,0,0,1,15-15H1297"/><line class="cls-4" x1="1303.12" y1="74.13" x2="1309.46" y2="74.13"/><line class="cls-4" x1="1432.53" y1="155.28" x2="1432.53" y2="161.62"/><path class="cls-6" d="M1432.53,174.71V288.62a13.17,13.17,0,0,1-13.16,13.17H1272.56"/><line class="cls-4" x1="1266.01" y1="301.79" x2="1259.67" y2="301.79"/></g></g></svg>