<svg xmlns="http://www.w3.org/2000/svg" viewBox="0 0 2572.2 476.68"><defs><style>.cls-1,.cls-4,.cls-6{fill:none;}.cls-2{fill:#f66631;}.cls-3{fill:#db4619;}.cls-4,.cls-6{stroke:#093447;}.cls-4{stroke-linejoin:round;stroke-width:5.46px;}.cls-5{fill:#093447;}.cls-6{stroke-miterlimit:10;stroke-width:7.27px;}.cls-7{fill:#ffb40e;}</style></defs><title>Bus-ch6-2</title><g id="Layer_2" data-name="Layer 2"><g id="Layer_1-2" data-name="Layer 1"><rect class="cls-1" width="2572.2" height="476.68"/><path class="cls-2" d="M1208.62,166.36a48.93,48.93,0,0,1,48.88-48.88h159.43V66.36a36.15,36.15,0,0,0-36.15-36.15H1108.44a36.15,36.15,0,0,0-36.15,36.15V205.58a36.15,36.15,0,0,0,36.15,36.15h67.1l-41.6,79.79,80.15-53a48.54,48.54,0,0,1-5.47-22.43Z"/><path class="cls-3" d="M1380.78,241.73a36.15,36.15,0,0,0,36.15-36.15v-88.1H1257.5a48.93,48.93,0,0,0-48.88,48.88v79.75a48.54,48.54,0,0,0,5.47,22.43l40.56-26.81Z"/><line class="cls-4" x1="1365.18" y1="91.12" x2="1124.04" y2="91.12"/><line class="cls-4" x1="1365.18" y1="135.97" x2="1124.04" y2="135.97"/><line class="cls-4" x1="1254.28" y1="180.82" x2="1124.04" y2="180.82"/><circle class="cls-5" cx="1006.04" cy="276.27" r="7.95"/><path class="cls-6" d="M1052.45,430.72l2.5-48.27c-22.12-.91-51.88-19.78-63.13-40-1-1.86-1.54-3.68.57-3.92,24.36-2.75,39.35-3.79,58-14.82l-7-19.55,24.25-12c6.46-2-11-30.34-52.13-68,0,0-19.4-14.54-44.57-12.81C925,214.57,887.28,250.07,885.11,296a89.49,89.49,0,0,0,1.12,19.11h0l33.12,131.4Z"/><rect class="cls-7" x="1221.35" y="130.21" width="247.74" height="152.05" rx="36.15" ry="36.15"/><polygon class="cls-7" points="1324.72 273.48 1427.61 338.52 1390.29 273.48 1324.72 273.48"/><line class="cls-4" x1="1431.89" y1="173.99" x2="1258.55" y2="173.99"/><line class="cls-4" x1="1431.89" y1="206.23" x2="1258.55" y2="206.23"/><line class="cls-4" x1="1352.17" y1="238.47" x2="1258.55" y2="238.47"/><circle class="cls-5" cx="1553.66" cy="296.04" r="7.95"/><path class="cls-6" d="M1514.66,343.63l-1.78-26.76-27.12-12.14a8.9,8.9,0,0,1-3.58-14.89s19.42-39.11,76-69h0a89,89,0,0,1,129,79.44,90.09,90.09,0,0,1-1.22,14.79h0l-33.13,131.4-133.07-15.76-2.5-48.27Z"/><path class="cls-6" d="M1602.42,356.92c-23,21.43-54.17,27.08-84.76,21.24"/></g></g></svg>