<svg xmlns="http://www.w3.org/2000/svg" viewBox="0 0 2572.2 419.06"><defs><style>.cls-1,.cls-4{fill:none;}.cls-2{fill:#0074e0;}.cls-3{fill:#daf2fd;}.cls-4{stroke:#093447;stroke-miterlimit:10;stroke-width:3.5px;}.cls-5{fill:#2ebaf6;}.cls-6{fill:#9adcfa;}.cls-7{fill:#005daa;}.cls-8{fill:#fe5f16;}.cls-9{fill:#ffcc05;}</style></defs><title>Bus-ch2-7</title><g id="Layer_2" data-name="Layer 2"><g id="Layer_1-2" data-name="Layer 1"><rect class="cls-1" width="2572.2" height="419.06"/><rect class="cls-2" x="1058.95" y="87.13" width="454.47" height="303" rx="7" ry="7"/><rect class="cls-3" x="1045.36" y="73.59" width="454.47" height="303" rx="7" ry="7"/><line class="cls-4" x1="1087.17" y1="135.74" x2="1458.02" y2="135.74"/><line class="cls-4" x1="1087.17" y1="225.62" x2="1458.02" y2="225.62"/><line class="cls-4" x1="1087.17" y1="315.51" x2="1458.02" y2="315.51"/><rect class="cls-5" x="1319.69" y="298.09" width="107.69" height="34.07" rx="14" ry="14"/><rect class="cls-6" x="1203.27" y="298.09" width="67.29" height="34.07" rx="14" ry="14"/><rect class="cls-5" x="1380.66" y="118.7" width="37.78" height="34.07" rx="14" ry="14"/><rect class="cls-6" x="1122.63" y="209.9" width="130.59" height="34.07" rx="14" ry="14"/><polygon class="cls-7" points="1393.01 197.1 1393.01 253 1429.41 225.05 1393.01 197.1"/><rect class="cls-5" x="1306.56" y="205.29" width="39.53" height="39.53"/><polygon class="cls-2" points="1122.22 289.06 1122.22 344.96 1158.62 317.01 1122.22 289.06"/><path class="cls-5" d="M1278.94,118.7H1160.48a96,96,0,0,1-8.17,34.07h126.63a17,17,0,1,0,0-34.07Z"/><path class="cls-6" d="M1122.22,135.74a17.1,17.1,0,0,1,17.06-17h21.2c.08-1.67.13-3.36.13-5a96.1,96.1,0,0,0-8.72-40.06H1045.36V208.2a96.47,96.47,0,0,0,107-55.43h-13A17.09,17.09,0,0,1,1122.22,135.74Z"/><path class="cls-2" d="M1139.28,118.7a17,17,0,1,0,0,34.07h13a96,96,0,0,0,8.17-34.07Z"/><path class="cls-2" d="M1139.28,118.7a17,17,0,1,0,0,34.07h13a96,96,0,0,0,8.17-34.07Z"/><circle class="cls-8" cx="1062.51" cy="112.66" r="83.73"/><path class="cls-9" d="M1062.83,64.92l11.85,25.16a2.76,2.76,0,0,0,2.14,1.56l27.59,3.5a2.74,2.74,0,0,1,1.54,4.72l-20.27,19a2.75,2.75,0,0,0-.81,2.52l5.19,27.32a2.74,2.74,0,0,1-4,2.92l-24.38-13.39a2.75,2.75,0,0,0-2.64,0l-24.38,13.39a2.75,2.75,0,0,1-4-2.92l5.2-27.32a2.73,2.73,0,0,0-.82-2.52l-20.26-19a2.74,2.74,0,0,1,1.53-4.72l27.6-3.5a2.74,2.74,0,0,0,2.13-1.56l11.86-25.16A2.75,2.75,0,0,1,1062.83,64.92Z"/></g></g></svg>