<svg xmlns="http://www.w3.org/2000/svg" viewBox="0 0 2572.2 396.04"><defs><style>.cls-1{fill:none;}.cls-2{fill:#096642;}.cls-3{fill:#11cc83;}.cls-4{fill:#88e6c1;}.cls-5{fill:#fff;}.cls-6{fill:#ff6e56;}.cls-7{fill:#df3834;}.cls-8{fill:#fbb03b;}.cls-9{fill:#f7931e;}.cls-10{fill:#e3e4e6;}.cls-11{fill:#f2f2f2;}</style></defs><title>Bus-ch7-1</title><g id="Layer_2" data-name="Layer 2"><g id="Layer_1-2" data-name="Layer 1"><rect class="cls-1" width="2572.2" height="396.04"/><path class="cls-2" d="M1579,300.89V33.56H1455.32V261.1h-447v53.62h0a13.59,13.59,0,0,0,13.58,13.59H1593.2V300.89Z"/><circle class="cls-2" cx="1478.2" cy="328.31" r="39.88"/><circle class="cls-2" cx="1246.21" cy="328.31" r="39.88"/><path class="cls-3" d="M1455.32,261.1V33.56h-317.7c-11.67,0-18.27,8.82-23.12,20.2l-52.33,132.47L1008.3,239V261.1"/><rect class="cls-4" x="1205.04" y="73.89" width="210.01" height="112.34"/><polygon class="cls-5" points="1313.42 186.23 1205.04 186.23 1205.04 73.89 1313.42 186.23"/><path class="cls-2" d="M1355,288.42a39.89,39.89,0,0,1,0,79.77h-11.56V288.42Z"/><circle class="cls-3" cx="1343.42" cy="328.31" r="39.88"/><path class="cls-2" d="M1125.73,288.42a39.89,39.89,0,0,1,0,79.77h-11.56V288.42Z"/><circle class="cls-3" cx="1114.17" cy="328.31" r="39.88"/><circle class="cls-4" cx="1114.17" cy="328.31" r="23.31"/><circle class="cls-4" cx="1343.42" cy="328.31" r="23.31"/><polyline class="cls-5" points="1455.32 239 1008.3 239 1031.18 216.17 1455.32 216.17"/><path class="cls-6" d="M1415.05,62.11,1212.82,61s-35.44,3.43-35.49,54.12h198.2C1375.59,63.36,1415.05,62.11,1415.05,62.11Z"/><path class="cls-7" d="M1415.05,62.11v52.83l-45.19.34C1369.92,61.89,1415.05,62.11,1415.05,62.11Z"/><rect class="cls-2" x="1193.49" y="171.6" width="221.56" height="14.99"/><rect class="cls-2" x="1455.32" y="238.26" width="137.88" height="22.83"/><rect class="cls-3" x="1455.32" y="216.17" width="137.88" height="22.09"/><path class="cls-4" d="M1147.67,186.23h-45.38c-6.29,0-11.13-6.51-10.28-13.82l38.38-94.32c4.43-9.41,9.54-10.17,17.21-10.17h.07c5.73,0,10.38,5.45,10.38,12.18v94C1158.05,180.78,1153.4,186.23,1147.67,186.23Z"/><polygon class="cls-5" points="1122.67 97.05 1114.18 117.92 1158.05 174.06 1158.05 141.98 1122.67 97.05"/><rect class="cls-2" x="1090.86" y="171.6" width="69.75" height="14.99"/><circle class="cls-8" cx="1523.9" cy="99.84" r="33.33"/><path class="cls-9" d="M1535.5,68.59a33.44,33.44,0,0,1,19.64,42.85c-6.4,17.25-13.28,28.13-30.53,21.72C1524.61,133.16,1548.59,91.86,1535.5,68.59Z"/><path class="cls-5" d="M1484,103.9,1551.52,129l-57.39,63a4.49,4.49,0,0,1-7.8-2.89Z"/><polyline class="cls-10" points="1517.74 116.44 1551.52 128.97 1494.13 192"/><path class="cls-8" d="M1491.27,106.61a28.87,28.87,0,0,0,16.24,14.61c9.54,3.54,21.43-2.12,23.94.3"/><path class="cls-11" d="M940,368.19H1593.6l38.59,13.2Z"/></g></g></svg>