<svg xmlns="http://www.w3.org/2000/svg" viewBox="0 0 2572.2 536.59"><defs><style>.cls-1,.cls-6{fill:none;}.cls-2{fill:#f5f6fa;}.cls-3{fill:#0061bc;}.cls-4{fill:#9adcfa;}.cls-5{fill:#53c0f0;}.cls-6{stroke:#fe5f16;stroke-linejoin:round;stroke-width:6.75px;}</style></defs><title>Bus-ch5-4</title><g id="Layer_2" data-name="Layer 2"><g id="Layer_1-2" data-name="Layer 1"><rect class="cls-1" width="2572.2" height="536.59"/><ellipse class="cls-2" cx="1286.1" cy="415.8" rx="331.86" ry="117.78"/><polygon class="cls-3" points="985.32 254.01 985.32 393.53 1110.84 463.29 1236.35 393.53 1236.35 254.01 1110.84 184.25 985.32 254.01"/><polygon class="cls-4" points="1110.84 184.25 985.32 254.01 985.32 393.53 1110.84 463.29 1110.84 184.25"/><polygon class="cls-5" points="1236.35 254.87 1236.35 254.01 1110.84 184.25 985.32 254.01 985.32 254.87 1110.84 324.62 1236.35 254.87"/><polygon class="cls-3" points="1324.9 254.01 1324.9 393.53 1450.41 463.29 1575.93 393.53 1575.93 254.01 1450.41 184.25 1324.9 254.01"/><polygon class="cls-4" points="1450.41 184.25 1324.9 254.01 1324.9 393.53 1450.41 463.29 1450.41 184.25"/><polygon class="cls-5" points="1575.93 254.87 1575.93 254.01 1450.41 184.25 1324.9 254.01 1324.9 254.87 1450.41 324.62 1575.93 254.87"/><polygon class="cls-4" points="1069.84 69.76 1069.84 209.27 1195.36 279.03 1320.88 209.27 1320.88 69.76 1195.36 0 1069.84 69.76"/><polygon class="cls-3" points="1195.36 0 1069.84 69.76 1069.84 209.27 1195.36 279.03 1195.36 0"/><polygon class="cls-5" points="1320.88 70.61 1320.88 69.76 1195.36 0 1069.84 69.76 1069.84 70.61 1195.36 140.37 1320.88 70.61"/><polygon class="cls-6" points="1210.28 437.13 1234.86 448.38 1234.86 425.88 1210.28 437.13"/><line class="cls-6" x1="1231.1" y1="437.13" x2="1347.38" y2="437.13"/><polygon class="cls-6" points="1361.13 220.78 1345.99 198.1 1334.39 217.26 1361.13 220.78"/><line class="cls-6" x1="1343.39" y1="209.68" x2="1244.38" y2="147.72"/></g></g></svg>