<svg xmlns="http://www.w3.org/2000/svg" viewBox="0 0 2572.2 474.59"><defs><style>.cls-1{fill:none;}.cls-2{fill:#df3834;}.cls-3{fill:#ff6e56;}.cls-4{fill:#11cc83;}.cls-5{fill:#096642;}.cls-6{fill:#88e6c1;}.cls-7{fill:#fbb03b;}.cls-8{fill:#f7931e;}.cls-9{fill:#fff;}.cls-10{fill:#e3e4e6;}.cls-11{fill:#f2f2f2;}</style></defs><title>Bus-ch7-4</title><g id="Layer_2" data-name="Layer 2"><g id="Layer_1-2" data-name="Layer 1"><rect class="cls-1" width="2572.2" height="474.59"/><rect class="cls-2" x="1461.46" width="96.47" height="119.07"/><rect class="cls-3" x="1363.14" width="98.32" height="119.07"/><rect class="cls-2" x="1011.3" y="190.23" width="87.78" height="268.85"/><rect class="cls-3" x="1011.3" y="190.23" width="37.13" height="195.13"/><rect class="cls-4" x="979.83" y="375.42" width="119.25" height="83.66"/><rect class="cls-5" x="1460.53" y="17.99" width="114.14" height="441.09"/><rect class="cls-4" x="1345.69" y="17.99" width="141.74" height="441.09"/><rect class="cls-6" x="1386.08" y="126.34" width="64.35" height="20.2" rx="9.14" ry="9.14"/><rect class="cls-6" x="1386.08" y="73.36" width="64.35" height="20.2" rx="9.14" ry="9.14"/><rect class="cls-6" x="1386.08" y="174.66" width="64.35" height="20.2" rx="9.14" ry="9.14"/><rect class="cls-6" x="1386.08" y="222.98" width="64.35" height="20.2" rx="9.14" ry="9.14"/><rect class="cls-6" x="1386.08" y="271.31" width="64.35" height="20.2" rx="9.14" ry="9.14"/><rect class="cls-6" x="1386.08" y="319.63" width="64.35" height="20.2" rx="9.14" ry="9.14"/><rect class="cls-6" x="1386.08" y="367.95" width="64.35" height="20.2" rx="9.14" ry="9.14"/><rect class="cls-4" x="1131.39" y="61.37" width="160.15" height="61.95"/><rect class="cls-4" x="1131.39" y="61.37" width="160.15" height="59.86"/><rect class="cls-4" x="1099.08" y="121.23" width="202.74" height="337.85"/><rect class="cls-6" x="1137.16" y="213.51" width="16.81" height="37.11" rx="7.79" ry="7.79"/><rect class="cls-6" x="1137.16" y="155.02" width="16.81" height="37.11" rx="7.79" ry="7.79"/><rect class="cls-6" x="1192.16" y="213.51" width="16.81" height="37.11" rx="7.79" ry="7.79"/><rect class="cls-6" x="1192.16" y="155.02" width="16.81" height="37.11" rx="7.79" ry="7.79"/><rect class="cls-6" x="1247.17" y="213.51" width="16.81" height="37.11" rx="7.79" ry="7.79"/><rect class="cls-6" x="1247.17" y="155.02" width="16.81" height="37.11" rx="7.79" ry="7.79"/><rect class="cls-6" x="1137.16" y="275.13" width="16.81" height="37.11" rx="7.79" ry="7.79"/><rect class="cls-6" x="1192.16" y="275.13" width="16.81" height="37.11" rx="7.79" ry="7.79"/><rect class="cls-6" x="1247.17" y="275.13" width="16.81" height="37.11" rx="7.79" ry="7.79"/><rect class="cls-6" x="1137.16" y="339.43" width="16.81" height="37.11" rx="7.79" ry="7.79"/><rect class="cls-6" x="1192.16" y="339.43" width="16.81" height="37.11" rx="7.79" ry="7.79"/><rect class="cls-6" x="1247.17" y="339.43" width="16.81" height="37.11" rx="7.79" ry="7.79"/><rect class="cls-6" x="1177.81" y="422.42" width="41.17" height="36.66"/><rect class="cls-5" x="1177.81" y="422.42" width="20.58" height="36.66"/><path class="cls-6" d="M1137.16,164.7l13.71,14.91a12.27,12.27,0,0,1-5.92,1.6c-3.36,0-7.79-3.08-7.79-7.8Z"/><polygon class="cls-5" points="1371.16 121.3 1371.16 61.37 1291.54 61.37 1256.2 121.23 1291.54 121.23 1291.54 121.3 1301.88 121.3 1301.82 459.08 1404.2 459.08 1405.22 121.3 1371.16 121.3"/><rect class="cls-6" x="1001.06" y="409.93" width="11.32" height="24.99" rx="5.25" ry="5.25" transform="translate(2013.44 844.85) rotate(180)"/><rect class="cls-6" x="1026.33" y="409.93" width="11.32" height="24.99" rx="5.25" ry="5.25" transform="translate(2063.98 844.85) rotate(180)"/><polygon class="cls-5" points="1099.08 459.47 1061.15 459.47 1082.11 375.42 1099.08 375.42 1099.08 459.47"/><circle class="cls-4" cx="1533.65" cy="83.45" r="9.7"/><circle class="cls-4" cx="1533.65" cy="136.43" r="9.7"/><circle class="cls-4" cx="1533.65" cy="184.76" r="9.7"/><circle class="cls-4" cx="1533.65" cy="233.08" r="9.7"/><circle class="cls-4" cx="1533.65" cy="281.41" r="9.7"/><circle class="cls-4" cx="1533.65" cy="329.73" r="9.7"/><circle class="cls-4" cx="1533.65" cy="378.05" r="9.7"/><circle class="cls-7" cx="1220.75" cy="46.89" r="35.43"/><path class="cls-8" d="M1233.08,13.67A35.55,35.55,0,0,1,1254,59.22c-6.81,18.35-14.12,29.91-32.47,23.1C1221.5,82.32,1247,38.41,1233.08,13.67Z"/><path class="cls-9" d="M1178.28,51.21l71.84,26.66-61,67a4.77,4.77,0,0,1-8.29-3.08Z"/><polyline class="cls-10" points="1214.2 64.54 1250.12 77.87 1189.1 144.88"/><path class="cls-7" d="M1186.06,54.09a30.72,30.72,0,0,0,17.27,15.54c10.14,3.76,22.78-2.26,25.45.32"/><rect class="cls-5" x="1235.72" y="326.68" width="81.31" height="132.79"/><path class="cls-4" d="M1102.2,326.68h146.27a0,0,0,0,1,0,0V459.47a0,0,0,0,1,0,0H1086.83a0,0,0,0,1,0,0V342A15.37,15.37,0,0,1,1102.2,326.68Z"/><rect class="cls-6" x="1098.66" y="374.51" width="90.75" height="61.3"/><polygon class="cls-9" points="1161.27 432.58 1098.66 432.58 1098.66 388.97 1161.27 432.58"/><path class="cls-9" d="M1187.09,432.19c-.52,0-83.88-57.68-83.88-57.68h10.67L1189.19,426v6.24Z"/><rect class="cls-5" x="1095.33" y="430.25" width="95.67" height="7.77"/><rect class="cls-6" x="1201.38" y="383.96" width="34.35" height="75.51"/><polygon class="cls-5" points="1213.28 459.47 1201.38 459.47 1201.38 383.96 1235.72 383.96 1213.28 459.47"/><path class="cls-2" d="M1204.55,375.42c0-26.92,19.8-48.74,44.23-48.74v48.74Z"/><path class="cls-3" d="M1204.55,375.42c0-26.92,19.8-48.74,44.23-48.74H1103.4c-24.43,0-44.23,21.82-44.23,48.74Z"/><path class="cls-2" d="M1117.3,326.68c-19.75,5.15-33.58,25-33.58,48.68l3.91.06c1.1-26.54,21-48.74,45.31-48.74"/><path class="cls-2" d="M1207.33,326.68c-19.75,5.15-33.58,25-33.58,48.68l3.92.06c1.09-26.54,20.95-48.74,45.3-48.74"/><path class="cls-2" d="M1177.32,326.68c-19.75,5.15-33.58,25-33.58,48.68l3.92.06c1.09-26.54,20.95-48.74,45.3-48.74"/><path class="cls-2" d="M1147.31,326.68c-19.75,5.15-33.58,25-33.58,48.68l3.92.06c1.09-26.54,20.95-48.74,45.3-48.74"/><circle class="cls-7" cx="1286.26" cy="381.68" r="17.41"/><path class="cls-8" d="M1292.32,365.36a17.45,17.45,0,0,1,10.26,22.37c-3.34,9-6.93,14.7-15.95,11.35C1286.63,399.08,1299.16,377.51,1292.32,365.36Z"/><path class="cls-9" d="M1265.4,383.79l35.29,13.1-30,32.92a2.34,2.34,0,0,1-4.07-1.51Z"/><polyline class="cls-10" points="1283.05 390.34 1300.69 396.89 1270.71 429.81"/><path class="cls-7" d="M1269.22,385.21a15.08,15.08,0,0,0,8.49,7.63c5,1.85,11.19-1.1,12.5.16"/><path class="cls-11" d="M940.76,459.47h652.17l38.5,12.29Z"/></g></g></svg>