<svg xmlns="http://www.w3.org/2000/svg" viewBox="0 0 2572.2 498.73"><defs><style>.cls-1,.cls-6{fill:none;}.cls-2{fill:#0074e0;}.cls-3{fill:#daf2fd;}.cls-4{fill:#9adcfa;}.cls-5{fill:#ffcb0e;}.cls-6{stroke:#093447;stroke-miterlimit:10;stroke-width:3.5px;}.cls-7{fill:#2ebaf6;}.cls-8{fill:#005daa;}.cls-9{fill:#f66631;}</style></defs><title>Bus-ch2-2</title><g id="Layer_2" data-name="Layer 2"><g id="Layer_1-2" data-name="Layer 1"><rect class="cls-1" width="2572.2" height="498.73"/><rect class="cls-2" x="1072.47" y="111.36" width="454.47" height="303" rx="7" ry="7"/><rect class="cls-3" x="1058.88" y="97.83" width="454.47" height="303" rx="7" ry="7"/><path class="cls-4" d="M1129.15,222.72l-34-34L1083.8,200V161A124.36,124.36,0,0,1,1101,97.83h-35.12a7,7,0,0,0-7,7v184l2.11,2.1Z"/><path class="cls-5" d="M1209,0c-88.8,0-161,72.24-161,161v66L1026.86,206l-16.71,16.71L1061,273.56l50.83-50.84L1095.11,206l-23.56,23.57V161c0-75.77,61.63-137.4,137.4-137.4a137.56,137.56,0,0,1,122.43,75h26A161.21,161.21,0,0,0,1209,0Z"/><path class="cls-4" d="M1443.05,276l34,34,11.32-11.32v39a124.39,124.39,0,0,1-17.2,63.21h35.11a7,7,0,0,0,7-7V210l-2.1-2.11Z"/><line class="cls-6" x1="1100.7" y1="159.97" x2="1471.54" y2="159.97"/><line class="cls-6" x1="1100.7" y1="249.85" x2="1471.54" y2="249.85"/><line class="cls-6" x1="1100.7" y1="339.74" x2="1471.54" y2="339.74"/><rect class="cls-2" x="1133.48" y="233.38" width="199.62" height="34.07" rx="14" ry="14"/><rect class="cls-7" x="1394.18" y="233.38" width="37.78" height="34.07" rx="14" ry="14"/><rect class="cls-4" x="1135.94" y="144.82" width="111.29" height="34.07" rx="14" ry="14"/><polygon class="cls-8" points="1406.53 132.02 1406.53 187.92 1442.93 159.97 1406.53 132.02"/><rect class="cls-7" x="1303.35" y="140.2" width="39.53" height="39.53"/><rect class="cls-8" x="1134.98" y="322.32" width="113.65" height="34.07" rx="14" ry="14"/><rect class="cls-7" x="1364.39" y="322.32" width="76.56" height="34.07" rx="14" ry="14"/><polygon class="cls-4" points="1287.99 311.03 1287.99 366.93 1324.4 338.98 1287.99 311.03"/><path class="cls-9" d="M1511.21,225.17,1460.37,276l16.71,16.71,23.57-23.56v68.54c0,75.76-61.64,137.4-137.4,137.4a137.56,137.56,0,0,1-122.1-74.33H1215a161.22,161.22,0,0,0,148.21,98c88.79,0,161-72.25,161-161v-66l21,21L1562,276Z"/></g></g></svg>