<svg xmlns="http://www.w3.org/2000/svg" viewBox="0 0 2572.2 407.75"><defs><style>.cls-1{fill:none;}.cls-2{fill:#096642;}.cls-3{fill:#11cc83;}.cls-4{fill:#88e6c1;}.cls-5{fill:#fff;}.cls-6{fill:#df3834;}.cls-7{fill:#ff6e56;}.cls-8{fill:#fbb03b;}.cls-9{fill:#f7931e;}.cls-10{fill:#e3e4e6;}.cls-11{fill:#f2f2f2;}</style></defs><title>Bus-ch7-2</title><g id="Layer_2" data-name="Layer 2"><g id="Layer_1-2" data-name="Layer 1"><rect class="cls-1" width="2572.2" height="407.75"/><rect class="cls-2" x="1395.33" y="30.96" width="181.48" height="326.4"/><path class="cls-3" d="M1097.3,31h326.48a0,0,0,0,1,0,0v326.4a0,0,0,0,1,0,0H1063a0,0,0,0,1,0,0V65.26A34.3,34.3,0,0,1,1097.3,31Z"/><rect class="cls-4" x="1089.41" y="137.71" width="202.57" height="156.82"/><polygon class="cls-5" points="1229.14 287.33 1089.41 287.33 1089.41 170 1229.14 287.33"/><path class="cls-5" d="M1286.77,286.47c-1.15,0-187.21-148.76-187.21-148.76h23.8l168.11,134.82v13.94Z"/><rect class="cls-2" x="1081.96" y="282.14" width="213.54" height="17.35"/><rect class="cls-4" x="1318.67" y="158.81" width="76.66" height="198.55"/><polygon class="cls-2" points="1345.23 357.36 1318.67 357.36 1318.67 158.81 1395.33 158.81 1345.23 357.36"/><path class="cls-6" d="M1325.76,139.75C1325.76,79.67,1370,31,1424.47,31V139.75Z"/><path class="cls-7" d="M1325.76,139.75C1325.76,79.67,1370,31,1424.47,31H1100c-54.51,0-98.7,48.71-98.7,108.79Z"/><path class="cls-6" d="M1131,31c-44.09,11.49-75,55.78-75,108.66l8.74.12C1067.23,80.52,1111.57,31,1165.91,31"/><path class="cls-6" d="M1332,31c-44.09,11.49-75,55.78-75,108.66l8.74.12C1268.18,80.52,1312.52,31,1366.86,31"/><path class="cls-6" d="M1265,31c-44.09,11.49-75,55.78-75,108.66l8.74.12C1201.2,80.52,1245.54,31,1299.88,31"/><path class="cls-6" d="M1198,31c-44.09,11.49-75,55.78-75,108.66l8.74.12C1134.21,80.52,1178.55,31,1232.89,31"/><circle class="cls-8" cx="1508.14" cy="153.71" r="38.85"/><path class="cls-9" d="M1521.66,117.29a39,39,0,0,1,22.91,49.94c-7.47,20.12-15.49,32.8-35.6,25.33C1509,192.56,1536.93,144.41,1521.66,117.29Z"/><path class="cls-5" d="M1461.58,158.44l78.77,29.24-66.91,73.47a5.23,5.23,0,0,1-9.09-3.37Z"/><polyline class="cls-10" points="1500.96 173.06 1540.35 187.68 1473.43 261.15"/><path class="cls-8" d="M1470.11,161.61a33.63,33.63,0,0,0,18.93,17c11.12,4.13,25-2.47,27.9.35"/><path class="cls-11" d="M937.14,357.36h659l38.91,13.48Z"/></g></g></svg>