<svg xmlns="http://www.w3.org/2000/svg" viewBox="0 0 2572.2 476.68"><defs><style>.cls-1,.cls-4{fill:none;}.cls-2{fill:#0074e0;}.cls-3{fill:#daf2fd;}.cls-4{stroke:#093447;stroke-miterlimit:10;stroke-width:3.5px;}.cls-5{fill:#005daa;}.cls-6{fill:#2ebaf6;}.cls-7{fill:#9adcfa;}.cls-8{fill:#ffcc05;}.cls-9{fill:#fbb03b;}.cls-10{fill:#fe5f16;}</style></defs><title>Bus-ch2-6</title><g id="Layer_2" data-name="Layer 2"><g id="Layer_1-2" data-name="Layer 1"><rect class="cls-1" width="2572.2" height="476.68"/><rect class="cls-2" x="1061.58" y="150.72" width="454.47" height="303" rx="7" ry="7"/><rect class="cls-3" x="1047.99" y="137.18" width="454.47" height="303" rx="7" ry="7"/><line class="cls-4" x1="1089.81" y1="199.33" x2="1460.65" y2="199.33"/><line class="cls-4" x1="1089.81" y1="289.21" x2="1460.65" y2="289.21"/><line class="cls-4" x1="1089.81" y1="379.09" x2="1460.65" y2="379.09"/><rect class="cls-5" x="1246.81" y="272.74" width="104.59" height="34.07" rx="14" ry="14"/><polygon class="cls-5" points="1395.64 171.37 1395.64 227.27 1432.04 199.32 1395.64 171.37"/><rect class="cls-6" x="1292.46" y="179.56" width="39.53" height="39.53"/><rect class="cls-2" x="1391.01" y="269.29" width="39.53" height="39.53"/><rect class="cls-6" x="1310.26" y="361.68" width="113.65" height="34.07" rx="14" ry="14"/><rect class="cls-2" x="1122.59" y="272.74" width="88.71" height="34.07" rx="14" ry="14"/><path class="cls-7" d="M1125.05,201.21a17.1,17.1,0,0,1,17.06-17h32a129.75,129.75,0,0,0,3.47-29.76c0-2-.06-3.94-.15-5.9,0-.47,0-.95-.07-1.41-.11-1.94-.25-3.87-.44-5.85l-.06-.43c-.12-1.21-.3-2.43-.46-3.64h-119.9a8.56,8.56,0,0,0-8.54,8.53v138h.35a129.94,129.94,0,0,0,103.57-51.91c1.25-1.66,2.46-3.36,3.62-5.07,1.84-2.74,3.56-5.58,5.19-8.44h-18.61A17.1,17.1,0,0,1,1125.05,201.21Z"/><path class="cls-2" d="M1235.68,184.17h-61.54c-.19.84-.39,1.69-.6,2.53-.53,2-1.11,4.1-1.74,6.13-1.26,4-2.73,8-4.36,11.9S1164,212.38,1162,216c-.4.74-.85,1.47-1.27,2.21h75a17,17,0,1,0,0-34.08Z"/><path class="cls-5" d="M1167.44,204.73c1.63-3.86,3.1-7.86,4.36-11.9.63-2,1.21-4.09,1.74-6.13.21-.84.41-1.69.6-2.53h-32a17,17,0,1,0,0,34.08h18.61c.42-.74.87-1.47,1.27-2.21C1164,212.38,1165.82,208.57,1167.44,204.73Z"/><rect class="cls-7" x="1216.39" y="359.99" width="39.53" height="39.53"/><polygon class="cls-2" points="1124.85 352.65 1124.85 408.55 1161.25 380.6 1124.85 352.65"/><circle class="cls-8" cx="1048.34" cy="154.41" r="112.2"/><path class="cls-9" d="M1048.34,42.21v112.2l1.05,1,57.25-96.92A111.71,111.71,0,0,0,1048.34,42.21Z"/><path class="cls-10" d="M1106.64,58.53l-57.25,96.92,78.2,78.21.09.08a112.21,112.21,0,0,0-21-175.21Z"/><line class="cls-4" x1="991.32" y1="290.93" x2="991.32" y2="316.93"/><line class="cls-4" x1="978.32" y1="303.93" x2="1004.33" y2="303.93"/><line class="cls-4" x1="1195.97" y1="58.02" x2="1195.97" y2="84.02"/><line class="cls-4" x1="1182.97" y1="71.02" x2="1208.97" y2="71.02"/><line class="cls-4" x1="1150.74" y1="22.97" x2="1150.74" y2="48.97"/><line class="cls-4" x1="1137.74" y1="35.97" x2="1163.74" y2="35.97"/></g></g></svg>