<svg xmlns="http://www.w3.org/2000/svg" viewBox="0 0 2572.2 450.45"><defs><style>.cls-1,.cls-4{fill:none;}.cls-2{fill:#0074e0;}.cls-3{fill:#daf2fd;}.cls-4{stroke:#093447;stroke-miterlimit:10;stroke-width:3.5px;}.cls-5{fill:#2ebaf6;}.cls-6{fill:#9adcfa;}.cls-7{fill:#005daa;}.cls-8{fill:#fe5f16;}.cls-9{fill:#ffcc05;}.cls-10{fill:#fcf0bc;}.cls-11{fill:#fff;}</style></defs><title>Bus-ch2-5</title><g id="Layer_2" data-name="Layer 2"><g id="Layer_1-2" data-name="Layer 1"><rect class="cls-1" width="2572.2" height="450.45"/><rect class="cls-2" x="1063.96" y="139.82" width="454.47" height="303" rx="7" ry="7"/><rect class="cls-3" x="1050.38" y="126.29" width="454.47" height="303" rx="7" ry="7"/><line class="cls-4" x1="1092.19" y1="188.43" x2="1463.03" y2="188.43"/><line class="cls-4" x1="1092.19" y1="368.2" x2="1463.03" y2="368.2"/><rect class="cls-5" x="1324.71" y="350.79" width="107.69" height="34.07" rx="14" ry="14"/><rect class="cls-6" x="1127.23" y="350.79" width="84.32" height="34.07" rx="14" ry="14"/><rect class="cls-7" x="1221.27" y="173.66" width="111.29" height="34.07" rx="14" ry="14"/><polygon class="cls-6" points="1398.02 160.86 1398.02 216.76 1434.42 188.81 1398.02 160.86"/><polygon class="cls-2" points="1252.03 341.76 1252.03 397.66 1288.43 369.71 1252.03 341.76"/><path class="cls-2" d="M1166.76,169h-11.47a110.48,110.48,0,0,1-10.71,39.53h22.18Z"/><path class="cls-6" d="M1127.23,169h28.06a114.19,114.19,0,0,0-.3-21.38v0a110.35,110.35,0,0,0-4.6-21.32h-91.48a8.56,8.56,0,0,0-8.53,8.53V367.39h2.92a31.44,31.44,0,0,0,25.34-12.67l4.76-6.35A25.81,25.81,0,0,0,1102,323.61V271.53c2.32-10.2,9.21-21.34,19.06-30.78a111.46,111.46,0,0,0,23.51-32.18h-17.35Z"/><path class="cls-7" d="M1127.23,169v39.53h17.35A110.48,110.48,0,0,0,1155.29,169Z"/><path class="cls-8" d="M1038.69,350.32h14.61a14.52,14.52,0,0,0,11.68-5.84l10.23-13.64h-58.43L1027,344.48a14.54,14.54,0,0,0,11.69,5.84"/><path class="cls-8" d="M1085,269.79v50.06H1007V269.79Z"/><path class="cls-9" d="M1085,269.79v14H1007v-14Z"/><path class="cls-9" d="M1085,294v14H1007V294Z"/><path class="cls-9" d="M1085,318.28v5.34a8.71,8.71,0,0,1-8.7,8.7h-60.51a8.7,8.7,0,0,1-8.7-8.7v-5.34Z"/><path class="cls-10" d="M954,149.51a95.21,95.21,0,0,1,83.75-83.75c2.93,0,5.36-.49,8.28-.49a47,47,0,0,1,8.28.49c43.83,4.86,78.89,40.41,83.76,83.75a93.84,93.84,0,0,1-28.73,78.89c-11.69,11.2-21.43,25.81-24.35,41.39H1007c-2.93-15.58-12.66-30.19-24.35-41.39A93.84,93.84,0,0,1,954,149.51"/><path class="cls-11" d="M1049.74,85.52c-1,0-2.09,0-3.41,0-.87,0-1.79.08-2.85.18s-2.53.23-4.06.26a76.23,76.23,0,0,0-65.62,91.3A120.5,120.5,0,0,1,1049.74,85.52Z"/><line class="cls-4" x1="1045.99" y1="31.26" x2="1045.99" y2="7.63"/><line class="cls-4" x1="1136.23" y1="69.22" x2="1152.94" y2="52.51"/><line class="cls-4" x1="954.36" y1="249.11" x2="937.65" y2="265.82"/><line class="cls-4" x1="917.39" y1="158.46" x2="893.76" y2="158.46"/><line class="cls-4" x1="955.35" y1="68.23" x2="938.64" y2="51.52"/><line class="cls-4" x1="1092.19" y1="278.32" x2="1463.03" y2="278.32"/><rect class="cls-2" x="1127.23" y="262.06" width="173.79" height="34.07" rx="14" ry="14"/><rect class="cls-5" x="1343.03" y="262.06" width="80.43" height="34.07" rx="14" ry="14"/></g></g></svg>