<svg xmlns="http://www.w3.org/2000/svg" viewBox="0 0 2572.2 562.54"><defs><style>.cls-1,.cls-4{fill:none;}.cls-2{fill:#fe5f16;}.cls-3{fill:#ff6e56;}.cls-4{stroke:#093447;stroke-linejoin:round;stroke-width:5.74px;}.cls-5{fill:#53c0f0;}.cls-6{fill:#0061bc;}.cls-7{fill:#d5f1fd;}.cls-8{fill:#2ebaf6;}</style></defs><title>Bus-ch5-2</title><g id="Layer_2" data-name="Layer 2"><g id="Layer_1-2" data-name="Layer 1"><rect class="cls-1" width="2572.2" height="562.54"/><polygon class="cls-2" points="1395.21 15.8 1321.29 15.8 1321.29 57.85 1395.21 57.85 1375.7 36.83 1395.21 15.8"/><rect class="cls-3" x="1284.07" width="69.03" height="42.05"/><line class="cls-4" x1="1283.95" y1="110.52" x2="1283.95"/><polygon class="cls-5" points="1153.99 347.61 1117.35 283.79 1088.53 333.99 964.43 550.19 1270.27 550.19 1153.99 347.61"/><polygon class="cls-6" points="1531.92 397.19 1504.25 348.99 1482.48 386.91 1388.76 550.19 1619.74 550.19 1531.92 397.19"/><polygon class="cls-7" points="1346.6 193.59 1282.11 81.24 1231.38 169.62 1012.92 550.19 1551.3 550.19 1346.6 193.59"/><path class="cls-7" d="M1126.37,416.63a32.71,32.71,0,0,0-40-32,46.11,46.11,0,0,0-90.07.15,32.68,32.68,0,0,0-40.58,31.81c0,.32,0,.64,0,1h170.54C1126.33,417.27,1126.37,417,1126.37,416.63Z"/><path class="cls-8" d="M1519.43,246.32a38.72,38.72,0,0,0-47.38-37.86,54.62,54.62,0,0,0-106.71.17,38.71,38.71,0,0,0-48.08,37.69c0,.38,0,.75.06,1.14h202C1519.38,247.07,1519.43,246.7,1519.43,246.32Z"/><path class="cls-4" d="M915.66,547.81h473.1"/><path class="cls-4" d="M1388.76,547.81h267.78"/><polyline class="cls-4" points="1185.86 401.92 1242.58 295.12 1294.71 401.92"/><polyline class="cls-4" points="1329.14 324.07 1350.89 289.64 1371.46 324.07"/></g></g></svg>