<svg xmlns="http://www.w3.org/2000/svg" viewBox="0 0 2572.2 519.43"><defs><style>.cls-1,.cls-5{fill:none;}.cls-2{fill:#db4619;}.cls-3{fill:#fff8e3;}.cls-4{fill:#ffc33e;}.cls-5,.cls-6{stroke:#093447;stroke-width:4.92px;}.cls-5{stroke-linecap:round;stroke-linejoin:round;}.cls-6{fill:#093447;stroke-miterlimit:10;}.cls-7{fill:#f66631;}</style></defs><title>Bus-ch6-1</title><g id="Layer_2" data-name="Layer 2"><g id="Layer_1-2" data-name="Layer 1"><rect class="cls-1" width="2572.2" height="519.43"/><rect class="cls-2" x="995.18" y="170" width="488.92" height="326.78" rx="7.92" ry="7.92"/><rect class="cls-3" x="983.12" y="157.95" width="488.92" height="326.78" rx="7.92" ry="7.92"/><path class="cls-4" d="M1464.12,158h-55.45a42.59,42.59,0,0,1-14.7,25.21,4,4,0,0,0-.6,5.47l-2.91,2.42c-5.63,4.68-7,12.4-3,17.21a10.59,10.59,0,0,0,8.28,3.67,14.47,14.47,0,0,0,9.18-3.45l3-2.45a4,4,0,0,0,2.21.92,3.86,3.86,0,0,0,2.89-.89l2-1.62a42.41,42.41,0,0,1,31.21-9.7l6.41.59a4,4,0,0,0,2.89-.9L1472,180.64V165.87A7.94,7.94,0,0,0,1464.12,158Z"/><line class="cls-5" x1="1345.95" y1="198.94" x2="1395.57" y2="241.06"/><line class="cls-5" x1="1395.57" y1="198.94" x2="1345.95" y2="241.06"/><line class="cls-5" x1="1147.1" y1="301.81" x2="1196.72" y2="343.93"/><line class="cls-5" x1="1196.72" y1="301.81" x2="1147.1" y2="343.93"/><line class="cls-5" x1="1264.82" y1="301.81" x2="1314.44" y2="343.93"/><line class="cls-5" x1="1314.44" y1="301.81" x2="1264.82" y2="343.93"/><line class="cls-5" x1="1038.4" y1="395.34" x2="1088.01" y2="437.46"/><line class="cls-5" x1="1088.01" y1="395.34" x2="1038.4" y2="437.46"/><path class="cls-5" d="M1403.56,300.08v77.3a49.33,49.33,0,0,1-49.19,49.19h-93.64"/><path class="cls-6" d="M1416.75,312.94l-14-36.9a.12.12,0,0,0-.21,0l-14.12,37.14a.16.16,0,0,0,.15.21h27.9A.33.33,0,0,0,1416.75,312.94Z"/><path class="cls-5" d="M1056.8,311V258.61A49.33,49.33,0,0,1,1106,209.43h88.93"/><path class="cls-6" d="M1043.61,298.13l14,36.9a.12.12,0,0,0,.21,0L1072,297.89a.16.16,0,0,0-.15-.21h-27.91A.33.33,0,0,0,1043.61,298.13Z"/><circle class="cls-5" cx="1192.86" cy="421.56" r="22.83"/><circle class="cls-5" cx="1258.28" cy="221.12" r="22.83"/><path class="cls-2" d="M1398.36,204.05c-3.62,3.62-8.93,4.24-11.8,1.37s-2.26-8.18,1.37-11.81l9.61-9.61c3.63-3.63,8.94-4.24,11.81-1.37s2.25,8.18-1.37,11.8Z"/><rect class="cls-2" x="1397.74" y="65.59" width="189.46" height="61.94" transform="translate(368.82 1083.57) rotate(-45)"/><path class="cls-7" d="M1578.77,48.9l-38.65-38.65L1550.34,0a.13.13,0,0,1,.18,0l38.55,38.55Z"/><path class="cls-7" d="M1403.58,141.64l.6,6.57a46.69,46.69,0,0,1-13.48,37.23l15.46,15.45,1.79-1.78a46.63,46.63,0,0,1,33-13.67h6.43Z"/><path class="cls-7" d="M1442.23,132.4a3.64,3.64,0,0,1-2.58-6.22l87.59-87.59a3.65,3.65,0,1,1,5.16,5.15l-87.6,87.6a3.62,3.62,0,0,1-2.57,1.06"/><path class="cls-7" d="M1460.26,150.44a3.65,3.65,0,0,1-2.57-6.22l87.59-87.59a3.64,3.64,0,1,1,5.15,5.15l-87.59,87.59a3.65,3.65,0,0,1-2.58,1.07"/></g></g></svg>