<svg xmlns="http://www.w3.org/2000/svg" xmlns:xlink="http://www.w3.org/1999/xlink" viewBox="0 0 2581.67 500.9"><defs><style>.cls-1{fill:none;}.cls-2{fill:#fff8e3;}.cls-3{fill:#ffb40e;}.cls-4{fill:#fff;}.cls-5{fill:#db4619;}.cls-6{fill:#f66631;}.cls-7,.cls-8{fill:#ffd26e;}.cls-8{opacity:0.59;}.cls-9{clip-path:url(#clip-path);}</style><clipPath id="clip-path"><circle class="cls-1" cx="1172.59" cy="275.35" r="118.42"/></clipPath></defs><title>Bus-ch6-3</title><g id="Layer_2" data-name="Layer 2"><g id="Layer_1-2" data-name="Layer 1"><polygon class="cls-1" points="2572.2 500.89 0 500.89 9.47 0 2581.67 0 2572.2 500.89"/><path class="cls-2" d="M1111.89,48.69h445.9a0,0,0,0,1,0,0V311A24.75,24.75,0,0,1,1533,335.73H1136.64A24.75,24.75,0,0,1,1111.89,311V48.69A0,0,0,0,1,1111.89,48.69Z"/><path class="cls-3" d="M1128.84,14.39h412a16.95,16.95,0,0,1,16.95,16.95V48.69a0,0,0,0,1,0,0h-445.9a0,0,0,0,1,0,0V31.34A16.95,16.95,0,0,1,1128.84,14.39Z"/><circle class="cls-4" cx="1195.48" cy="31.54" r="7.67"/><circle class="cls-4" cx="1168.37" cy="31.54" r="7.67"/><circle class="cls-4" cx="1141.26" cy="31.54" r="7.67"/><path class="cls-5" d="M1508.1,107.7H1422a11.89,11.89,0,0,1,0-23.78h86.09a11.89,11.89,0,1,1,0,23.78Z"/><path class="cls-5" d="M1350.64,107.7H1161.47a11.89,11.89,0,1,1,0-23.78h189.17a11.89,11.89,0,1,1,0,23.78Z"/><path class="cls-3" d="M1508.1,230.8h-49.84a11.9,11.9,0,0,1,0-23.79h49.84a11.9,11.9,0,1,1,0,23.79Z"/><path class="cls-3" d="M1411.82,230.8H1241.9a11.9,11.9,0,1,1,0-23.79h169.92a11.9,11.9,0,0,1,0,23.79Z"/><path class="cls-3" d="M1198.85,230.8h-37.38a11.9,11.9,0,1,1,0-23.79h37.38a11.9,11.9,0,0,1,0,23.79Z"/><path class="cls-6" d="M1508.1,169.25h-145a11.9,11.9,0,1,1,0-23.79h145a11.9,11.9,0,1,1,0,23.79Z"/><path class="cls-6" d="M1298.54,169.25H1161.47a11.9,11.9,0,1,1,0-23.79h137.07a11.9,11.9,0,0,1,0,23.79Z"/><path class="cls-7" d="M1306.47,292.35h-145a11.9,11.9,0,1,1,0-23.79h145a11.9,11.9,0,0,1,0,23.79Z"/><path class="cls-7" d="M1508.1,292.35H1371a11.9,11.9,0,1,1,0-23.79H1508.1a11.9,11.9,0,1,1,0,23.79Z"/><path class="cls-3" d="M1338.11,350.76,1301,330.12l-13.76,24.75,18.56,10.32.08-.12,18.36,10.21L1331,363l.2.1Z"/><path class="cls-6" d="M1516.21,438h0c5.15,18-5.7,37.54-23.73,42.69h0a35.81,35.81,0,0,1-27.65-3.4l-139.32-85.42a9.54,9.54,0,0,1-3.8-13.28l17.63-31.72a9.54,9.54,0,0,1,13.28-3.79L1499,417.26C1507.27,421.06,1513.77,429.47,1516.21,438Z"/><path class="cls-3" d="M1131.32,132.27a148,148,0,1,0,183,101.7A147.82,147.82,0,0,0,1131.32,132.27Zm73.14,256.2c-62.62,17.88-128.49-18.74-146.37-81.36s18.73-128.5,81.36-146.38,128.49,18.74,146.37,81.36S1267.09,370.59,1204.46,388.47Z"/><path class="cls-8" d="M1212.59,416.93h0a147.82,147.82,0,0,0,101.7-183h0a9.87,9.87,0,0,0-6.78,12.19,134.2,134.2,0,0,1-14.12,94.34c-15.32,29-41.62,51.91-74,64.23A9.89,9.89,0,0,0,1212.59,416.93Z"/><path class="cls-5" d="M1491.49,413.89a34.52,34.52,0,0,1,13.56,18.71c3.52,12.33-10.31,21.41-21.29,15.31l-128.08-71.19a14.3,14.3,0,0,0-19.92,5.69l-6.78,12.2L1464.1,476.1c7.32,4.07,16.27,6.65,24.13,5.43,10.71-2,20.06-8.81,24.81-17.35s5.56-20.06,1.63-30.22c-2.17-7.59-8.81-12.88-16.13-16.95Z"/><g class="cls-9"><path class="cls-2" d="M1027.05,67h486.08V354.83a25,25,0,0,1-25,25h-436a25,25,0,0,1-25-25"/><path class="cls-3" d="M1044.19,29.56H1496a17.14,17.14,0,0,1,17.14,17.14V67a0,0,0,0,1,0,0H1027a0,0,0,0,1,0,0V46.7a17.14,17.14,0,0,1,17.14-17.14Z"/><circle class="cls-4" cx="1118.17" cy="48.26" r="8.36"/><circle class="cls-4" cx="1088.61" cy="48.26" r="8.36"/><circle class="cls-4" cx="1059.06" cy="48.26" r="8.36"/><path class="cls-5" d="M1459,131.28h-93.85a13,13,0,1,1,0-25.93H1459a13,13,0,1,1,0,25.93Z"/><path class="cls-5" d="M1287.31,131.28H1081.09a13,13,0,1,1,0-25.93h206.22a13,13,0,1,1,0,25.93Z"/><path class="cls-3" d="M1459,265.47h-54.33a13,13,0,1,1,0-25.93H1459a13,13,0,1,1,0,25.93Z"/><path class="cls-3" d="M1354,265.47H1168.76a13,13,0,0,1,0-25.93H1354a13,13,0,0,1,0,25.93Z"/><path class="cls-3" d="M1121.84,265.47h-40.75a13,13,0,1,1,0-25.93h40.75a13,13,0,0,1,0,25.93Z"/><path class="cls-6" d="M1459,198.38H1300.9a13,13,0,0,1,0-25.94H1459a13,13,0,1,1,0,25.94Z"/><path class="cls-6" d="M1230.51,198.38H1081.09a13,13,0,0,1,0-25.94h149.42a13,13,0,0,1,0,25.94Z"/><path class="cls-6" d="M1285.68,198.38H1136.26a13,13,0,0,1,0-25.94h149.42a13,13,0,1,1,0,25.94Z"/><path class="cls-7" d="M1239.15,332.57H1081.09a13,13,0,0,1,0-25.94h158.06a13,13,0,0,1,0,25.94Z"/><path class="cls-7" d="M1459,332.57H1309.54a13,13,0,0,1,0-25.94H1459a13,13,0,1,1,0,25.94Z"/></g></g></g></svg>