<svg xmlns="http://www.w3.org/2000/svg" viewBox="0 0 2572.2 492.65"><defs><style>.cls-1,.cls-12,.cls-4{fill:none;}.cls-2{fill:#0074e0;}.cls-3{fill:#daf2fd;}.cls-12,.cls-4{stroke:#093447;stroke-miterlimit:10;}.cls-4{stroke-width:3.5px;}.cls-5{fill:#005daa;}.cls-6{fill:#9adcfa;}.cls-7{fill:#2ebaf6;}.cls-8{fill:#f66631;}.cls-9{fill:#ffcb0e;}.cls-10{fill:#ffe682;}.cls-11{fill:#ffb40e;}.cls-12{stroke-width:4.14px;}</style></defs><title>Bus-ch2-4</title><g id="Layer_2" data-name="Layer 2"><g id="Layer_1-2" data-name="Layer 1"><rect class="cls-1" width="2572.2" height="492.65"/><rect class="cls-2" x="1094.28" y="156.77" width="454.47" height="303" rx="7" ry="7"/><rect class="cls-3" x="1080.69" y="143.24" width="454.47" height="303" rx="8.53" ry="8.53"/><line class="cls-4" x1="1122.51" y1="295.26" x2="1493.35" y2="295.26"/><line class="cls-4" x1="1122.51" y1="385.15" x2="1493.35" y2="385.15"/><rect class="cls-5" x="1252.66" y="278.79" width="129.18" height="34.07" rx="14" ry="14"/><rect class="cls-2" x="1423.71" y="275.35" width="39.53" height="39.53"/><rect class="cls-6" x="1428.37" y="366.04" width="39.53" height="39.53"/><rect class="cls-7" x="1238.95" y="367.73" width="154.01" height="34.07" rx="14" ry="14"/><polygon class="cls-6" points="1167.17 265.62 1167.17 321.52 1203.57 293.56 1167.17 265.62"/><rect class="cls-2" x="1157.51" y="366.04" width="39.53" height="39.53"/><path class="cls-6" d="M1080.69,151.77v71.1l7.46,18,10.85-4.49a129.44,129.44,0,0,0,49.46-36.27l7.54-9-15.92-13.37,18.42,9.64,5.44-10.4a128.85,128.85,0,0,0,11.94-33.8h-86.65A8.56,8.56,0,0,0,1080.69,151.77Z"/><line class="cls-4" x1="1122.51" y1="205.38" x2="1493.35" y2="205.38"/><rect class="cls-7" x="1157.75" y="190.23" width="127.7" height="34.07" rx="14" ry="14"/><polygon class="cls-5" points="1428.34 177.43 1428.34 233.33 1464.74 205.38 1428.34 177.43"/><rect class="cls-7" x="1325.16" y="185.61" width="39.53" height="39.53"/><path class="cls-8" d="M1101.36,224l.29-.11a98.94,98.94,0,0,0,38.63-27l-12.93-11.34a81.39,81.39,0,0,0,10.13-14.44l15.07,8.31A99.34,99.34,0,0,0,1164.84,134l-17.18-.4a81.29,81.29,0,0,0-1.51-17.59l16.86-3.32a100.18,100.18,0,0,0-4.81-16.6,98.79,98.79,0,0,0-15-26.1L1129.81,80.7a81.75,81.75,0,0,0-12.47-12.48l10.8-13.39a99.49,99.49,0,0,0-42.6-20l-3.41,16.87a81,81,0,0,0-17.56-1.64l-.31-17.17a99.27,99.27,0,0,0-45.49,12L1027,60a80.82,80.82,0,0,0-14.51,10.07l-11.27-13A99.17,99.17,0,0,0,974.06,95.6l16,6.29a81.53,81.53,0,0,0-4.63,17l-17-2.72a98.91,98.91,0,0,0,3.92,47l16.27-5.47c.39,1.15.79,2.31,1.24,3.46A81.56,81.56,0,0,0,996,173.68l-14.74,8.82A98.91,98.91,0,0,0,1014.45,216l9-14.68a81.86,81.86,0,0,0,15.95,7.53l-5.64,16.26a99,99,0,0,0,46.92,4.36l-2.55-17a81.22,81.22,0,0,0,17.08-4.47Zm-78.72-75.5a46.52,46.52,0,1,1,60.16,26.62A46.58,46.58,0,0,1,1022.64,148.47Z"/><circle class="cls-9" cx="1066.03" cy="131.7" r="29.7"/><path class="cls-10" d="M1002.3,391.08l.2-.08a68.68,68.68,0,0,0,26.81-18.7l-9-7.87a57.35,57.35,0,0,0,7-10l10.45,5.76a69,69,0,0,0,8.53-31.53l-11.92-.28a56.69,56.69,0,0,0-1-12.2l11.7-2.3a69.07,69.07,0,0,0-13.73-29.63l-9.31,7.44a56.29,56.29,0,0,0-8.65-8.67l7.49-9.29a69,69,0,0,0-29.55-13.88L989,271.53a57,57,0,0,0-12.19-1.13l-.21-11.91A68.93,68.93,0,0,0,945,266.84l5.69,10.47a56.32,56.32,0,0,0-10.06,7l-7.82-9A68.9,68.9,0,0,0,914,302l11.11,4.36a57.17,57.17,0,0,0-3.22,11.81l-11.79-1.88a68.73,68.73,0,0,0,2.72,32.57l11.29-3.79c.27.8.55,1.6.86,2.4a57.2,57.2,0,0,0,4.27,8.71L919,362.3a68.51,68.51,0,0,0,23,23.22l6.23-10.18a57.12,57.12,0,0,0,11.07,5.22l-3.91,11.28a68.61,68.61,0,0,0,32.55,3l-1.77-11.79A56.94,56.94,0,0,0,998,380Zm-54.62-52.4a32.28,32.28,0,1,1,41.75,18.48A32.31,32.31,0,0,1,947.68,338.68Z"/><circle class="cls-11" cx="977.79" cy="327.05" r="14.63"/><path class="cls-12" d="M1036.77,123.89,964.42,321.13A14.63,14.63,0,0,0,991.17,333v0L1095.27,144.3a29.43,29.43,0,0,0,.33-23.16,31.06,31.06,0,0,0-58.86,2.74Z"/></g></g></svg>