<svg xmlns="http://www.w3.org/2000/svg" viewBox="0 0 2572.2 476.68"><defs><style>.cls-1,.cls-4{fill:none;}.cls-2{fill:#0074e0;}.cls-3{fill:#daf2fd;}.cls-4{stroke:#093447;stroke-miterlimit:10;stroke-width:7.61px;}.cls-5{fill:#2ebaf6;}.cls-6{fill:#9adcfa;}.cls-7{fill:#005daa;}.cls-8{fill:#fe5f16;}.cls-9{fill:#fff;}</style></defs><title>Bus-ch5-1</title><g id="Layer_2" data-name="Layer 2"><g id="Layer_1-2" data-name="Layer 1"><rect class="cls-1" width="2572.2" height="476.68"/><rect class="cls-2" x="1131.56" y="145.66" width="494.12" height="329.43" rx="7.61" ry="7.61"/><rect class="cls-3" x="1116.79" y="130.95" width="494.12" height="329.43" rx="7.61" ry="7.61"/><line class="cls-4" x1="1162.25" y1="198.51" x2="1565.45" y2="198.51"/><line class="cls-4" x1="1162.25" y1="393.96" x2="1565.45" y2="393.96"/><rect class="cls-5" x="1415.05" y="375.03" width="117.08" height="37.05" rx="15.22" ry="15.22"/><rect class="cls-6" x="1200.35" y="375.03" width="91.67" height="37.05" rx="15.22" ry="15.22"/><rect class="cls-7" x="1302.6" y="182.45" width="121" height="37.05" rx="15.22" ry="15.22"/><polygon class="cls-8" points="1494.77 168.53 1494.77 229.31 1534.34 198.92 1494.77 168.53"/><polygon class="cls-8" points="1336.03 365.21 1336.03 425.99 1375.61 395.6 1336.03 365.21"/><path class="cls-2" d="M1243.33,177.43h-12.48a120.29,120.29,0,0,1-11.63,43h24.11Z"/><path class="cls-6" d="M1200.35,177.43h30.5a123.09,123.09,0,0,0-.32-23.25v-.06a119.87,119.87,0,0,0-5-23.17h-99.46a9.31,9.31,0,0,0-9.28,9.28V393.08H1120a34.15,34.15,0,0,0,27.55-13.78l5.17-6.89a28.08,28.08,0,0,0,20.25-26.93V288.85c2.53-11.08,10-23.2,20.72-33.45a121.43,121.43,0,0,0,25.57-35h-18.87Z"/><path class="cls-7" d="M1200.35,177.43v43h18.87a120.29,120.29,0,0,0,11.63-43Z"/><path class="cls-2" d="M1104.08,374.52H1120a15.76,15.76,0,0,0,12.7-6.35l11.12-14.82h-63.53l11.12,14.82a15.76,15.76,0,0,0,12.7,6.35"/><path class="cls-2" d="M1154.38,287V341.4h-84.71V287Z"/><path class="cls-5" d="M1154.38,287v15.26h-84.71V287Z"/><path class="cls-5" d="M1154.38,313.33v15.25h-84.71V313.33Z"/><path class="cls-5" d="M1154.38,339.69v5.8a9.46,9.46,0,0,1-9.46,9.46h-65.79a9.47,9.47,0,0,1-9.46-9.46v-5.8Z"/><path class="cls-3" d="M1012,156.2A103.55,103.55,0,0,1,1103,65.13c3.17,0,5.82-.53,9-.53a51.36,51.36,0,0,1,9,.53c47.64,5.3,85.76,44,91.06,91.07A102,102,0,0,1,1180.85,242c-12.7,12.18-23.29,28.06-26.47,45h-84.71c-3.18-16.94-13.76-32.82-26.47-45A102,102,0,0,1,1012,156.2"/><path class="cls-9" d="M1116.1,86.62c-1.09-.05-2.27-.05-3.71-.05-.94,0-1.94.09-3.09.19-1.31.12-2.76.25-4.42.28a82.88,82.88,0,0,0-71.35,99.27A131,131,0,0,1,1116.1,86.62Z"/><line class="cls-4" x1="1112.03" y1="27.63" x2="1112.03" y2="1.94"/><line class="cls-4" x1="1210.13" y1="68.9" x2="1228.3" y2="50.73"/><line class="cls-4" x1="1012.4" y1="264.48" x2="994.23" y2="282.65"/><line class="cls-4" x1="972.21" y1="165.93" x2="946.51" y2="165.93"/><line class="cls-4" x1="1013.48" y1="67.82" x2="995.31" y2="49.65"/><line class="cls-4" x1="1162.25" y1="296.24" x2="1565.45" y2="296.24"/><rect class="cls-2" x="1200.35" y="278.56" width="188.95" height="37.05" rx="15.22" ry="15.22"/><rect class="cls-5" x="1434.97" y="278.56" width="87.45" height="37.05" rx="15.22" ry="15.22"/></g></g></svg>