<svg xmlns="http://www.w3.org/2000/svg" viewBox="0 0 2572.2 419.52"><defs><style>.cls-1,.cls-6{fill:none;}.cls-2{fill:#b2b3ec;}.cls-3{fill:#383a9b;}.cls-4{fill:#1f2372;}.cls-5{fill:#d7daf2;}.cls-6{stroke:#093447;stroke-linejoin:round;stroke-width:6.9px;}</style></defs><title>Bus-ch4-3</title><g id="Layer_2" data-name="Layer 2"><g id="Layer_1-2" data-name="Layer 1"><rect class="cls-1" width="2572.2" height="419.52"/><polygon class="cls-2" points="1168.56 327.36 1340.8 327.36 1351.71 373.33 1179.47 373.33 1168.56 327.36"/><polygon class="cls-3" points="1168.56 327.36 1340.8 327.36 1344.92 344.73 1172.69 344.73 1168.56 327.36"/><rect class="cls-2" x="1099.59" y="367.03" width="208.34" height="28.49" rx="14.24" ry="14.24"/><rect class="cls-4" x="1243.29" y="367.03" width="110.84" height="28.49" rx="14.24" ry="14.24"/><polygon class="cls-4" points="1340.8 327.36 1308.12 327.36 1320.12 376.52 1353.83 378.34 1340.8 327.36"/><rect class="cls-4" x="1063.75" y="25.08" width="394.29" height="305.53" rx="25.71" ry="25.71" transform="translate(2521.79 355.69) rotate(-180)"/><rect class="cls-2" x="1036.14" y="25.08" width="394.29" height="305.53" rx="25.71" ry="25.71" transform="translate(2466.57 355.69) rotate(-180)"/><rect class="cls-5" x="1057.76" y="49.13" width="352.05" height="231.87" transform="translate(2467.58 330.14) rotate(-180)"/><circle class="cls-3" cx="1235.53" cy="305.86" r="16.96"/><line class="cls-6" x1="1097.1" y1="103.24" x2="1369.47" y2="103.24"/><line class="cls-6" x1="1097.1" y1="167.91" x2="1369.47" y2="167.91"/><path class="cls-4" d="M1150.78,186.26l-14.07-17.4a1.49,1.49,0,0,1,0-1.89l14.07-17.4a1.5,1.5,0,0,1,2.33,0l14.08,17.4a1.52,1.52,0,0,1,0,1.89l-14.08,17.4A1.5,1.5,0,0,1,1150.78,186.26Z"/><rect class="cls-2" x="1112.18" y="87.35" width="97.55" height="31.79" rx="15.89" ry="15.89"/><circle class="cls-4" cx="1325.59" cy="103.24" r="15.89"/><rect class="cls-3" x="1221.86" y="202.29" width="126.74" height="31.79" rx="15.89" ry="15.89"/><rect class="cls-3" x="1245.06" y="87.4" width="31.68" height="31.68" rx="0.61" ry="0.61"/><path class="cls-4" d="M1325.27,245.49l-30.11-22a.8.8,0,0,0-1.28.64v38a.8.8,0,0,0,1.28.64l11.7-6.22,7.79,13.48,6.51-3.75L1313.5,253l11.77-6.26A.8.8,0,0,0,1325.27,245.49Z"/></g></g></svg>