<svg xmlns="http://www.w3.org/2000/svg" viewBox="0 0 2576.45 458.69"><defs><style>.cls-1{fill:none;}.cls-2{fill:#fff8e3;}.cls-3{fill:#ffb40e;}.cls-4{fill:#fff;}.cls-5{fill:#db4619;}.cls-6{fill:#f66631;}.cls-7{fill:#ffd26e;}</style></defs><title>Bus-ch6-4</title><g id="Layer_2" data-name="Layer 2"><g id="Layer_1-2" data-name="Layer 1"><polygon class="cls-1" points="2576.45 458.69 4.25 458.69 0 0 2572.2 0 2576.45 458.69"/><path class="cls-2" d="M941.64,32.53h436.15a0,0,0,0,1,0,0V281A23.84,23.84,0,0,1,1354,304.79H965.48A23.84,23.84,0,0,1,941.64,281V32.53A0,0,0,0,1,941.64,32.53Z"/><path class="cls-3" d="M958,0h403.5a16.33,16.33,0,0,1,16.33,16.33V32.53a0,0,0,0,1,0,0H941.64a0,0,0,0,1,0,0V16.33A16.33,16.33,0,0,1,958,0Z"/><ellipse class="cls-4" cx="1023.4" cy="16.27" rx="7.5" ry="7.28"/><ellipse class="cls-4" cx="996.88" cy="16.27" rx="7.5" ry="7.28"/><ellipse class="cls-4" cx="970.36" cy="16.27" rx="7.5" ry="7.28"/><path class="cls-5" d="M1329.19,88.5H1245a11.29,11.29,0,1,1,0-22.56h84.21a11.29,11.29,0,1,1,0,22.56Z"/><path class="cls-5" d="M1175.17,88.5h-185a11.29,11.29,0,1,1,0-22.56h185a11.29,11.29,0,1,1,0,22.56Z"/><path class="cls-3" d="M1329.19,205.26h-48.76a11.29,11.29,0,1,1,0-22.56h48.76a11.29,11.29,0,1,1,0,22.56Z"/><path class="cls-3" d="M1235,205.26H1068.8a11.29,11.29,0,1,1,0-22.56H1235a11.29,11.29,0,1,1,0,22.56Z"/><path class="cls-3" d="M1026.69,205.26H990.13a11.29,11.29,0,1,1,0-22.56h36.56a11.29,11.29,0,1,1,0,22.56Z"/><path class="cls-6" d="M1329.19,146.88H1187.36a11.29,11.29,0,1,1,0-22.56h141.83a11.29,11.29,0,1,1,0,22.56Z"/><path class="cls-6" d="M1124.2,146.88H990.13a11.29,11.29,0,1,1,0-22.56H1124.2a11.29,11.29,0,1,1,0,22.56Z"/><path class="cls-7" d="M1132,263.64H990.13a11.29,11.29,0,1,1,0-22.56H1132a11.29,11.29,0,1,1,0,22.56Z"/><path class="cls-7" d="M1329.19,263.64H1195.12a11.29,11.29,0,1,1,0-22.56h134.07a11.29,11.29,0,1,1,0,22.56Z"/><path class="cls-2" d="M1198.65,184.93h436.15a0,0,0,0,1,0,0V433.35A23.84,23.84,0,0,1,1611,457.19H1222.49a23.84,23.84,0,0,1-23.84-23.84V184.93A0,0,0,0,1,1198.65,184.93Z"/><path class="cls-3" d="M1215,152.4h403.5a16.33,16.33,0,0,1,16.33,16.33v16.21a0,0,0,0,1,0,0H1198.65a0,0,0,0,1,0,0V168.72A16.33,16.33,0,0,1,1215,152.4Z"/><ellipse class="cls-7" cx="1280.41" cy="168.66" rx="7.5" ry="7.28"/><ellipse class="cls-7" cx="1253.89" cy="168.66" rx="7.5" ry="7.28"/><ellipse class="cls-7" cx="1227.38" cy="168.66" rx="7.5" ry="7.28"/><rect class="cls-3" x="1231.56" y="215.57" width="56.35" height="95.31"/><rect class="cls-6" x="1231.56" y="328.18" width="56.35" height="95.31"/><path class="cls-4" d="M1311.7,215.57h125.16a3.92,3.92,0,0,1,3.92,3.92v16.73a3.92,3.92,0,0,1-3.92,3.92H1311.7a0,0,0,0,1,0,0V215.57A0,0,0,0,1,1311.7,215.57Z"/><rect class="cls-3" x="1307.14" y="215.57" width="5.34" height="24.57"/><path class="cls-4" d="M1311.7,245.83h125.16a3.92,3.92,0,0,1,3.92,3.92v16.73a3.92,3.92,0,0,1-3.92,3.92H1311.7a0,0,0,0,1,0,0V245.83A0,0,0,0,1,1311.7,245.83Z"/><rect class="cls-3" x="1307.14" y="245.83" width="5.34" height="24.57"/><path class="cls-4" d="M1479.77,215.57h125.17a3.91,3.91,0,0,1,3.91,3.91v16.74a3.91,3.91,0,0,1-3.91,3.91H1479.77a0,0,0,0,1,0,0V215.57A0,0,0,0,1,1479.77,215.57Z"/><rect class="cls-3" x="1475.21" y="215.57" width="5.34" height="24.57"/><path class="cls-4" d="M1479.77,245.83h125.17a3.91,3.91,0,0,1,3.91,3.91v16.74a3.91,3.91,0,0,1-3.91,3.91H1479.77a0,0,0,0,1,0,0V245.83A0,0,0,0,1,1479.77,245.83Z"/><rect class="cls-3" x="1475.21" y="245.83" width="5.34" height="24.57"/><path class="cls-4" d="M1479.77,276h125.17a3.91,3.91,0,0,1,3.91,3.91v16.74a3.91,3.91,0,0,1-3.91,3.91H1479.77a0,0,0,0,1,0,0V276A0,0,0,0,1,1479.77,276Z"/><rect class="cls-3" x="1475.21" y="275.96" width="5.34" height="24.57"/><path class="cls-4" d="M1311.7,328.18h125.16a3.92,3.92,0,0,1,3.92,3.92v16.73a3.92,3.92,0,0,1-3.92,3.92H1311.7a0,0,0,0,1,0,0V328.18A0,0,0,0,1,1311.7,328.18Z"/><rect class="cls-6" x="1307.14" y="328.18" width="5.34" height="24.57"/><path class="cls-4" d="M1479.77,328.18h125.17a3.91,3.91,0,0,1,3.91,3.91v27.09a3.91,3.91,0,0,1-3.91,3.91H1479.77a0,0,0,0,1,0,0V328.18A0,0,0,0,1,1479.77,328.18Z"/><rect class="cls-6" x="1475.21" y="328.18" width="5.34" height="34.92"/><path class="cls-4" d="M1311.39,359.57h125.16a3.92,3.92,0,0,1,3.92,3.92v16.73a3.92,3.92,0,0,1-3.92,3.92H1311.39a0,0,0,0,1,0,0V359.57A0,0,0,0,1,1311.39,359.57Z"/><rect class="cls-6" x="1306.83" y="359.57" width="5.34" height="24.57"/><path class="cls-4" d="M1311.39,389.87h125.16a3.92,3.92,0,0,1,3.92,3.92v16.73a3.92,3.92,0,0,1-3.92,3.92H1311.39a0,0,0,0,1,0,0V389.87A0,0,0,0,1,1311.39,389.87Z"/><rect class="cls-6" x="1306.83" y="389.87" width="5.34" height="24.57"/></g></g></svg>