<svg xmlns="http://www.w3.org/2000/svg" viewBox="0 0 2572.2 492.65"><defs><style>.cls-1{fill:none;}.cls-2{fill:#df3834;}.cls-3{fill:#ff6e56;}.cls-4{fill:#11cc83;}.cls-5{fill:#88e6c1;}.cls-6{fill:#096642;}.cls-7{fill:#fbb03b;}.cls-8{fill:#f7931e;}.cls-9{fill:#fff;}.cls-10{fill:#e3e4e6;}.cls-11{fill:#f2f2f2;}</style></defs><title>Bus-ch7-3</title><g id="Layer_2" data-name="Layer 2"><g id="Layer_1-2" data-name="Layer 1"><rect class="cls-1" width="2572.2" height="492.65"/><rect class="cls-2" x="1296.07" y="61.01" width="119.89" height="104.41"/><rect class="cls-3" x="1150.97" y="61.01" width="145.1" height="104.41"/><rect class="cls-4" x="1129.66" y="79.27" width="171" height="59.24"/><rect class="cls-4" x="1097.81" y="138.51" width="225" height="332.34"/><rect class="cls-5" x="1201.53" y="301.55" width="17.55" height="38.74" rx="8.14" ry="8.14"/><rect class="cls-5" x="1201.53" y="239.72" width="17.55" height="38.74" rx="8.14" ry="8.14"/><rect class="cls-5" x="1201.53" y="177.89" width="17.55" height="38.74" rx="8.14" ry="8.14"/><rect class="cls-5" x="1259.1" y="301.55" width="17.55" height="38.74" rx="8.14" ry="8.14"/><rect class="cls-5" x="1259.1" y="239.72" width="17.55" height="38.74" rx="8.14" ry="8.14"/><rect class="cls-5" x="1259.1" y="177.89" width="17.55" height="38.74" rx="8.14" ry="8.14"/><polygon class="cls-6" points="1444.46 138.51 1444.46 79.27 1300.66 79.27 1268.16 138.51 1300.66 138.51 1322.8 138.51 1322.8 470.84 1468.59 470.84 1468.59 138.51 1444.46 138.51"/><rect class="cls-4" x="1359.92" y="301.55" width="17.55" height="38.74" rx="8.14" ry="8.14"/><rect class="cls-4" x="1359.92" y="239.72" width="17.55" height="38.74" rx="8.14" ry="8.14"/><rect class="cls-4" x="1359.92" y="177.89" width="17.55" height="38.74" rx="8.14" ry="8.14"/><rect class="cls-4" x="1417.06" y="301.55" width="17.55" height="38.74" rx="8.14" ry="8.14"/><rect class="cls-4" x="1417.06" y="239.72" width="17.55" height="38.74" rx="8.14" ry="8.14"/><rect class="cls-4" x="1417.06" y="177.89" width="17.55" height="38.74" rx="8.14" ry="8.14"/><rect class="cls-5" x="1201.53" y="363.38" width="17.55" height="38.74" rx="8.14" ry="8.14"/><rect class="cls-5" x="1145.66" y="301.55" width="17.55" height="38.74" rx="8.14" ry="8.14"/><rect class="cls-5" x="1145.66" y="239.72" width="17.55" height="38.74" rx="8.14" ry="8.14"/><rect class="cls-5" x="1145.66" y="177.89" width="17.55" height="38.74" rx="8.14" ry="8.14"/><rect class="cls-5" x="1145.66" y="363.38" width="17.55" height="38.74" rx="8.14" ry="8.14"/><rect class="cls-5" x="1259.1" y="363.38" width="17.55" height="38.74" rx="8.14" ry="8.14"/><rect class="cls-4" x="1359.92" y="363.38" width="17.55" height="38.74" rx="8.14" ry="8.14"/><rect class="cls-4" x="1417.06" y="363.38" width="17.55" height="38.74" rx="8.14" ry="8.14"/><circle class="cls-4" cx="1402.45" cy="109.04" r="8.33"/><circle class="cls-4" cx="1367.58" cy="109.04" r="8.33"/><rect class="cls-5" x="1163.24" y="428.36" width="94.13" height="42.49"/><rect class="cls-6" x="1163.24" y="428.36" width="48.76" height="42.49"/><circle class="cls-7" cx="1233.87" cy="44" r="36.69"/><path class="cls-8" d="M1246.64,9.6a36.82,36.82,0,0,1,21.64,47.17c-7.06,19-14.63,31-33.63,23.92C1234.65,80.69,1261.06,35.22,1246.64,9.6Z"/><path class="cls-9" d="M1189.89,48.47l74.4,27.61-63.2,69.39a4.93,4.93,0,0,1-8.58-3.18Z"/><polyline class="cls-10" points="1227.09 62.27 1264.29 76.08 1201.09 145.47"/><path class="cls-7" d="M1198,51.46a31.79,31.79,0,0,0,17.88,16.08c10.51,3.9,23.59-2.33,26.35.33"/><path class="cls-11" d="M995.18,470.84h545.09L1577,483.57Z"/></g></g></svg>