<svg xmlns="http://www.w3.org/2000/svg" viewBox="0 0 2572.2 447.11"><defs><style>.cls-1,.cls-6,.cls-7{fill:none;}.cls-2{fill:#b2b3ec;}.cls-3{fill:#1f2372;}.cls-4{fill:#d7daf2;}.cls-5{fill:#383a9b;}.cls-6{stroke:#d7daf2;stroke-width:7.13px;}.cls-6,.cls-7{stroke-linejoin:round;}.cls-7{stroke:#383a9b;stroke-width:8.43px;}</style></defs><title>Bus-ch4-1</title><g id="Layer_2" data-name="Layer 2"><g id="Layer_1-2" data-name="Layer 1"><rect class="cls-1" width="2572.2" height="447.11"/><path class="cls-2" d="M1226,281.88h121.63a136.17,136.17,0,1,0-121.63,0Z"/><rect class="cls-1" x="1071.37" y="1.29" width="429.45" height="429.45"/><rect class="cls-3" x="1150.66" y="339.89" width="272.33" height="71.01"/><path class="cls-4" d="M1182.66,204.06A113.08,113.08,0,0,1,1346.44,64s-69.35-27.64-127,30S1182.66,204.06,1182.66,204.06Z"/><circle class="cls-4" cx="1224.35" cy="100.37" r="15.75"/><rect class="cls-5" x="1342.65" y="339.89" width="17.8" height="71.01"/><line class="cls-6" x1="1446.55" y1="156.05" x2="1485.87" y2="156.05"/><line class="cls-6" x1="1426.85" y1="76.66" x2="1460.9" y2="57"/><line class="cls-6" x1="1426.85" y1="235.44" x2="1460.9" y2="255.1"/><line class="cls-6" x1="1122.88" y1="156.05" x2="1083.56" y2="156.05"/><line class="cls-6" x1="1142.58" y1="76.66" x2="1108.53" y2="57"/><line class="cls-6" x1="1142.58" y1="235.44" x2="1108.53" y2="255.1"/><path class="cls-3" d="M1399.86,330.82s-26.33-19.44-37.91-38.88h-30.37s17,26.53,27.73,38.88Z"/><path class="cls-3" d="M1320,291.94H1211.69c-12.11,22.85-37.91,38.88-37.91,38.88h168.87A230.08,230.08,0,0,1,1320,291.94Z"/><path class="cls-7" d="M1266.46,135.88c3.83-7.26,10.82-13.13,18.82-14.94,12.09-2.74,21.9,4.84,21.9,16.94s-9.81,24.12-21.9,26.85v17.18"/><ellipse class="cls-5" cx="1284.85" cy="199.96" rx="5.85" ry="4.67" transform="translate(279.81 1025.02) rotate(-48.23)"/></g></g></svg>