<svg xmlns="http://www.w3.org/2000/svg" viewBox="0 0 2572.2 492.65"><defs><style>.cls-1,.cls-4{fill:none;}.cls-2{fill:#0074e0;}.cls-3{fill:#daf2fd;}.cls-4{stroke:#093447;stroke-miterlimit:10;stroke-width:3.5px;}.cls-5{fill:#2ebaf6;}.cls-6{fill:#9adcfa;}.cls-7{fill:#005daa;}.cls-8{fill:#f66631;}.cls-9{fill:#ffcb0e;}.cls-10{fill:#f7931e;}.cls-11{fill:#ffeba6;}</style></defs><title>Bus-ch2-1</title><g id="Layer_2" data-name="Layer 2"><g id="Layer_1-2" data-name="Layer 1"><rect class="cls-1" width="2572.2" height="492.65"/><rect class="cls-2" x="1084.14" y="113.92" width="454.47" height="303" rx="7" ry="7"/><rect class="cls-3" x="1070.55" y="100.39" width="454.47" height="303" rx="8.53" ry="8.53"/><line class="cls-4" x1="1112.37" y1="162.53" x2="1483.21" y2="162.53"/><line class="cls-4" x1="1112.37" y1="252.42" x2="1483.21" y2="252.42"/><line class="cls-4" x1="1112.37" y1="342.3" x2="1483.21" y2="342.3"/><rect class="cls-2" x="1147.41" y="145.49" width="173.79" height="34.07" rx="14" ry="14"/><rect class="cls-5" x="1344.88" y="324.89" width="107.69" height="34.07" rx="14" ry="14"/><rect class="cls-5" x="1405.85" y="145.49" width="37.78" height="34.07" rx="14" ry="14"/><rect class="cls-6" x="1241.45" y="236.7" width="111.29" height="34.07" rx="14" ry="14"/><polygon class="cls-7" points="1418.2 223.9 1418.2 279.8 1454.6 251.85 1418.2 223.9"/><rect class="cls-6" x="1240.87" y="324.89" width="39.4" height="34.07" rx="14" ry="14"/><rect class="cls-5" x="1147.41" y="232.08" width="39.53" height="39.53"/><polygon class="cls-2" points="1147.41 315.86 1147.41 371.75 1183.81 343.81 1147.41 315.86"/><path class="cls-6" d="M1123.84,380.72a39.69,39.69,0,0,0-23.19-35V179.35a17.06,17.06,0,0,0-6.79-13.63,46.47,46.47,0,0,0,27.56-42.41V100.39h-42.34a8.56,8.56,0,0,0-8.53,8.53V394.86a8.56,8.56,0,0,0,8.53,8.53h44.79V381.76C1123.87,381.41,1123.86,381.06,1123.84,380.72Z"/><rect class="cls-8" x="960.14" y="104.71" width="146.28" height="22.07"/><rect class="cls-9" x="960.14" y="82.45" width="32.93" height="44.34"/><rect class="cls-9" x="1016.81" y="82.45" width="16.47" height="44.34"/><rect class="cls-10" x="1033.28" y="82.45" width="16.47" height="44.34"/><rect class="cls-10" x="1073.49" y="82.45" width="32.93" height="44.34"/><path class="cls-9" d="M1033.28,170.94H985.65a25.51,25.51,0,0,1-25.51-25.51V126.79h73.14"/><path class="cls-10" d="M1033.28,126.79h73.14v18.64a25.51,25.51,0,0,1-25.51,25.51h-47.63"/><polyline class="cls-11" points="1033.28 205.54 985.38 205.54 985.38 170.94 1033.28 170.94"/><polyline class="cls-8" points="1033.28 170.94 1081.18 170.94 1081.18 205.54 1033.28 205.54"/><polyline class="cls-9" points="1033.28 335.33 978.19 335.33 978.19 194.13 1033.28 194.13"/><polyline class="cls-10" points="1033.28 194.13 1088.37 194.13 1088.37 335.33 1033.28 335.33"/><circle class="cls-8" cx="1060.83" cy="281.01" r="14.44"/><rect class="cls-8" x="1046.38" y="281.01" width="28.88" height="54.07"/><path class="cls-8" d="M1033.28,350.4h55.64A19.61,19.61,0,0,1,1108.53,370h-75.25Z"/><path class="cls-8" d="M1033.28,350.4H977.64A19.61,19.61,0,0,0,958,370h75.25Z"/><rect class="cls-8" x="978.19" y="335.33" width="110.18" height="15.07"/><rect class="cls-9" x="958.03" y="370.01" width="75.25" height="52.2"/><rect class="cls-8" x="1032.23" y="370.01" width="76.32" height="52.2"/></g></g></svg>