<svg xmlns="http://www.w3.org/2000/svg" viewBox="0 0 2572.2 447.11"><defs><style>.cls-1,.cls-4,.cls-7,.cls-8{fill:none;}.cls-2{fill:#fbd5c6;}.cls-3{fill:#ef290a;}.cls-4,.cls-7{stroke:#093447;}.cls-4,.cls-7,.cls-8{stroke-miterlimit:10;}.cls-4{stroke-width:2.89px;}.cls-5{fill:#f76631;}.cls-6{fill:#fff;}.cls-7,.cls-8{stroke-width:4.82px;}.cls-8{stroke:#fff;}</style></defs><title>Bus-ch1-1</title><g id="Layer_2" data-name="Layer 2"><g id="Layer_1-2" data-name="Layer 1"><rect class="cls-1" width="2572.2" height="447.11"/><path class="cls-2" d="M1005.34,90h524.81a0,0,0,0,1,0,0V399.06a14,14,0,0,1-14,14H1019.32a14,14,0,0,1-14-14V90A0,0,0,0,1,1005.34,90Z"/><path class="cls-3" d="M1019.15,70.19h497.2A13.81,13.81,0,0,1,1530.15,84V97.76a0,0,0,0,1,0,0H1005.34a0,0,0,0,1,0,0V84A13.81,13.81,0,0,1,1019.15,70.19Z"/><line class="cls-4" x1="1103.28" y1="240.55" x2="1476.8" y2="240.55"/><line class="cls-4" x1="1103.28" y1="204.88" x2="1476.8" y2="204.88"/><line class="cls-4" x1="1103.28" y1="276.23" x2="1476.8" y2="276.23"/><rect class="cls-5" x="1050.28" y="200.49" width="41.01" height="80.13"/><line class="cls-4" x1="1103.28" y1="150.5" x2="1476.8" y2="150.5"/><rect class="cls-6" x="1050.28" y="121.73" width="41.01" height="57.54"/><line class="cls-4" x1="1103.28" y1="323.08" x2="1476.8" y2="323.08"/><line class="cls-4" x1="1103.28" y1="362.62" x2="1476.8" y2="362.62"/><rect class="cls-3" x="1050.28" y="302.78" width="41.01" height="80.13"/><polygon class="cls-6" points="1245.57 136.99 1233.94 150.5 1245.57 164.01 1257.19 150.5 1245.57 136.99"/><rect class="cls-6" x="1319.07" y="138.79" width="23.07" height="23.42"/><rect class="cls-6" x="1411.7" y="138.79" width="23.07" height="23.42"/><path class="cls-5" d="M1242,285.05H1197.3c-12.63,0-12.63-18.95,0-18.95H1242C1254.63,266.1,1254.63,285.05,1242,285.05Z"/><path class="cls-3" d="M1366.81,332.81h-44.69c-12.64,0-12.64-19,0-19h44.69C1379.45,313.85,1379.45,332.81,1366.81,332.81Z"/><path class="cls-3" d="M1444.15,371.88H1324.71c-12.64,0-12.64-18.95,0-18.95h119.44C1456.79,352.93,1456.79,371.88,1444.15,371.88Z"/><path class="cls-5" d="M1402.28,285.05h-97.17c-12.63,0-12.63-18.95,0-18.95h97.17C1414.91,266.1,1414.91,285.05,1402.28,285.05Z"/><path class="cls-5" d="M1410.42,214H1268.61c-12.63,0-12.63-18.95,0-18.95h141.81C1423.05,195,1423.05,214,1410.42,214Z"/><path class="cls-3" d="M1273.59,332.81H1165.86c-12.64,0-12.64-19,0-19h107.73C1286.22,313.85,1286.22,332.81,1273.59,332.81Z"/><path class="cls-3" d="M1214.52,371.88h-79.9c-12.63,0-12.63-18.95,0-18.95h79.9C1227.16,352.93,1227.16,371.88,1214.52,371.88Z"/><path class="cls-5" d="M1231.83,250.15h-78.49c-12.63,0-12.63-19,0-19h78.49C1244.47,231.2,1244.47,250.15,1231.83,250.15Z"/><path class="cls-5" d="M1330.29,250.15h-57.66c-12.64,0-12.64-19,0-19h57.66C1342.93,231.2,1342.93,250.15,1330.29,250.15Z"/><path class="cls-5" d="M1451.92,250.15h-83.19c-12.63,0-12.63-19,0-19h83.19C1464.56,231.2,1464.56,250.15,1451.92,250.15Z"/><line class="cls-7" x1="1520.73" y1="38.85" x2="1520.73" y2="13.39"/><line class="cls-7" x1="1549.33" y1="51.34" x2="1567.33" y2="33.33"/><line class="cls-7" x1="1492.13" y1="51.34" x2="1474.12" y2="33.33"/><line class="cls-7" x1="1560.72" y1="80.39" x2="1586.19" y2="80.39"/><line class="cls-7" x1="1548.24" y1="108.99" x2="1566.24" y2="126.99"/><circle class="cls-5" cx="1035.3" cy="54.36" r="49.29"/><path class="cls-8" d="M1018.09,41.72a17.21,17.21,0,1,1,34.41,0c0,9.5-15.2,15.9-17.2,17.2V70.65"/><circle class="cls-6" cx="1035.47" cy="80.69" r="3.52"/><circle class="cls-5" cx="1509.32" cy="382.09" r="61.94"/><path class="cls-8" d="M1487.7,366.21a21.63,21.63,0,1,1,43.25,0c0,11.94-19.11,20-21.63,21.62v14.74"/><circle class="cls-6" cx="1509.54" cy="415.18" r="4.42"/></g></g></svg>