<svg xmlns="http://www.w3.org/2000/svg" viewBox="0 0 255 255"><defs><style>.cls-1{fill:#093447;}.cls-10,.cls-2,.cls-8{fill:none;}.cls-2,.cls-8{stroke:#093447;stroke-miterlimit:10;}.cls-2{stroke-width:4.5px;}.cls-3{fill:#fff5cf;}.cls-4{fill:#efa106;}.cls-5{fill:#ffc800;}.cls-6{fill:#ffb401;}.cls-7{fill:#fe5f16;}.cls-8{stroke-width:2.85px;}.cls-9{fill:#f8f8f8;}</style></defs><title>agile-feature</title><g id="Layer_2" data-name="Layer 2"><g id="Layer_1-2" data-name="Layer 1"><rect class="cls-1" x="155" y="72.29" width="17.39" height="9.27"/><path class="cls-2" d="M163.48,70.75V47.66a43,43,0,1,0-85.92,0V74A29.43,29.43,0,0,1,18.7,74"/><circle class="cls-3" cx="169.53" cy="151.94" r="59.97"/><path class="cls-1" d="M97.81,151.94a71.72,71.72,0,0,1,71.72-71.72H157.19a71.72,71.72,0,0,0,0,143.44h12.34A71.72,71.72,0,0,1,97.81,151.94Z"/><path class="cls-4" d="M219.66,151.94c0-29.29-18.3-53.76-45.77-59.8,31.08,2.24,56.32,28.14,56.32,59.8S205,209.49,173.89,211.73C201.36,205.69,219.66,181.22,219.66,151.94Z"/><path class="cls-5" d="M169.53,80.22a71.72,71.72,0,1,0,71.71,71.72A71.72,71.72,0,0,0,169.53,80.22Zm0,131.69a60,60,0,1,1,60-60A60,60,0,0,1,169.53,211.91Z"/><rect class="cls-5" x="164.2" y="82.07" width="10.64" height="22.15" rx="5.32" ry="5.32"/><rect class="cls-5" x="164.2" y="199.66" width="10.64" height="22.15" rx="5.32" ry="5.32" transform="translate(339.05 421.46) rotate(180)"/><rect class="cls-5" x="223" y="140.86" width="10.64" height="22.15" rx="5.32" ry="5.32" transform="translate(380.25 -76.38) rotate(90)"/><polygon class="cls-6" points="152.4 185.7 179.64 156.78 169.53 151.69 159.41 146.6 152.4 185.7"/><polyline class="cls-6" points="169.53 151.69 159.41 146.6 152.4 185.7 169.53 151.69"/><polygon class="cls-7" points="186.65 117.68 179.64 156.78 169.53 151.69 159.41 146.6 186.65 117.68"/><polyline class="cls-7" points="169.53 151.69 159.41 146.6 186.65 117.68 169.53 151.69"/><rect class="cls-5" x="104.39" y="140.86" width="10.64" height="22.15" rx="5.32" ry="5.32" transform="translate(261.64 42.23) rotate(90)"/><circle class="cls-8" cx="169.53" cy="151.94" r="65.88"/><line class="cls-8" x1="235.41" y1="151.94" x2="223.28" y2="151.94"/><line class="cls-8" x1="169.53" y1="86.06" x2="169.53" y2="98.18"/><line class="cls-8" x1="103.64" y1="151.94" x2="115.77" y2="151.94"/><line class="cls-8" x1="169.53" y1="217.82" x2="169.53" y2="205.69"/><path class="cls-1" d="M172.38,109.58h2.07v11.16h-2l-5.74-7.68v7.68H164.6V109.58h2l5.76,7.7Z"/><circle class="cls-8" cx="169.53" cy="151.69" r="4.36"/><line class="cls-8" x1="160.96" y1="168.69" x2="167.57" y2="155.58"/><line class="cls-8" x1="171.48" y1="147.8" x2="178.09" y2="134.69"/><rect class="cls-1" x="150.26" y="67.98" width="26.03" height="7.59" rx="3.79" ry="3.79"/><ellipse class="cls-9" cx="167.57" cy="247.72" rx="67.84" ry="5.28"/><rect class="cls-10" width="255" height="255"/></g></g></svg>