<svg xmlns="http://www.w3.org/2000/svg" viewBox="0 0 333.86 236.67"><defs><style>.cls-1{opacity:0.3;}.cls-2{fill:#ffb401;}.cls-10,.cls-11,.cls-12,.cls-3,.cls-9{fill:none;}.cls-10,.cls-3,.cls-9{stroke:#ffb401;stroke-width:1.8px;}.cls-10,.cls-11,.cls-3,.cls-9{stroke-miterlimit:10;}.cls-4{fill:#ffd46a;}.cls-5{fill:#ffc800;}.cls-6{opacity:0.72;}.cls-7{fill:#fffac2;}.cls-8{fill:#fff;}.cls-9{stroke-dasharray:10.86 10.86;}.cls-10{stroke-dasharray:10.81;}.cls-11{stroke:#093447;stroke-width:2px;}</style></defs><title>agile-header</title><g id="Layer_2" data-name="Layer 2"><g id="Layer_1-2" data-name="Layer 1"><g class="cls-1"><rect class="cls-2" x="280.16" y="181.23" width="3.77" height="3.77"/><rect class="cls-2" x="291.48" y="181.23" width="3.77" height="3.77"/><rect class="cls-2" x="302.79" y="181.23" width="3.77" height="3.77"/><rect class="cls-2" x="314.1" y="181.23" width="3.77" height="3.77"/><rect class="cls-2" x="280.16" y="189.47" width="3.77" height="3.77"/><rect class="cls-2" x="291.48" y="189.47" width="3.77" height="3.77"/><rect class="cls-2" x="302.79" y="189.47" width="3.77" height="3.77"/><rect class="cls-2" x="314.1" y="189.47" width="3.77" height="3.77"/><rect class="cls-2" x="280.16" y="197.71" width="3.77" height="3.77"/><rect class="cls-2" x="291.48" y="197.71" width="3.77" height="3.77"/><rect class="cls-2" x="302.79" y="197.71" width="3.77" height="3.77"/><rect class="cls-2" x="314.1" y="197.71" width="3.77" height="3.77"/><rect class="cls-2" x="280.16" y="205.95" width="3.77" height="3.77"/><rect class="cls-2" x="291.48" y="205.95" width="3.77" height="3.77"/><rect class="cls-2" x="302.79" y="205.95" width="3.77" height="3.77"/><rect class="cls-2" x="314.1" y="205.95" width="3.77" height="3.77"/><rect class="cls-2" x="280.16" y="214.19" width="3.77" height="3.77"/><rect class="cls-2" x="291.48" y="214.19" width="3.77" height="3.77"/><rect class="cls-2" x="302.79" y="214.19" width="3.77" height="3.77"/><rect class="cls-2" x="314.1" y="214.19" width="3.77" height="3.77"/></g><g class="cls-1"><line class="cls-3" x1="18.51" y1="31.07" x2="65.62" y2="31.07"/><line class="cls-3" x1="18.51" y1="42.18" x2="65.62" y2="42.18"/><line class="cls-3" x1="18.51" y1="53.28" x2="65.62" y2="53.28"/><line class="cls-3" x1="18.51" y1="64.39" x2="65.62" y2="64.39"/></g><polygon class="cls-4" points="228.47 57.82 167.72 65.51 106.96 57.82 46.21 65.51 46.21 220.74 106.96 213.04 167.72 224.16 228.47 213.04 289.22 220.74 289.22 65.51 228.47 57.82"/><polygon class="cls-5" points="103.11 204.59 38.51 214.02 38.51 23.69 103.11 14.25 103.11 204.59"/><polygon class="cls-2" points="103.11 204.59 167.72 214.02 167.72 23.69 103.11 14.25 103.11 204.59"/><polygon class="cls-5" points="232.32 204.59 167.72 214.02 167.72 23.69 232.32 14.25 232.32 204.59"/><polygon class="cls-2" points="232.32 204.59 296.93 214.02 296.93 23.69 232.32 14.25 232.32 204.59"/><polygon class="cls-5" points="254.18 50.11 247.27 75.69 261.98 75.69 254.18 50.11"/><polygon class="cls-5" points="268.96 68.14 263.25 89.3 275.42 89.3 268.96 68.14"/><polygon class="cls-5" points="254.32 83.08 249.59 100.62 259.67 100.62 254.32 83.08"/><polygon class="cls-2" points="74.98 98.12 69.91 116.9 80.71 116.9 74.98 98.12"/><polygon class="cls-2" points="88.36 107.53 82.7 128.48 94.75 128.48 88.36 107.53"/><polygon class="cls-2" points="208.29 46.03 203.74 62.9 213.44 62.9 208.29 46.03"/><polygon class="cls-2" points="219.41 61.15 216.21 73.02 223.03 73.02 219.41 61.15"/><polygon class="cls-2" points="87.38 47.05 82.65 64.58 92.73 64.58 87.38 47.05"/><polygon class="cls-2" points="75.62 57.83 72.17 75.69 79.53 75.69 75.62 57.83"/><g class="cls-6"><path class="cls-7" d="M217.94,135.4h70.45V164H190A60.53,60.53,0,0,0,217.94,135.4Z"/><rect class="cls-8" x="47.68" y="135.4" width="114.72" height="28.59" transform="translate(210.08 299.4) rotate(-180)"/><path class="cls-8" d="M162.4,135.4v0l.85,0a25.5,25.5,0,1,0-16-5.63H112.93a54.26,54.26,0,1,1,2.62,5.63Z"/><path class="cls-8" d="M163.25,84.4a25.5,25.5,0,0,0-16,45.37H112.93a54.13,54.13,0,0,1,50.32-74Z"/></g><path class="cls-3" d="M130,129.77a39.57,39.57,0,0,1-2.37-4.85"/><path class="cls-9" d="M125,114.43a39.79,39.79,0,1,1,39.54,35.27H57.87"/><line class="cls-3" x1="52.44" y1="149.7" x2="47.04" y2="149.7"/><line class="cls-10" x1="208.59" y1="149.7" x2="288.39" y2="149.7"/><path class="cls-11" d="M103.11,193.34c.07,0,64.61,10,64.61,10l64.6-10c.15,0,55.17,7.54,55.17,7.54V32.46l-55.17-7.57-64.38,10a1.69,1.69,0,0,1-.45,0l-64.38-10L47.94,32.46V200.9Z"/><path class="cls-5" d="M103.11,183.32l14.15,0s-4.93-7.49-10.32-5.77a9.22,9.22,0,0,1-3.83.4"/><path class="cls-2" d="M103.11,177.9c-4.29-.51-7-4.14-9.57-4.14-4.76,0-6,6.19-13.68,6.19-3.07,0-4.55,3.48-4.55,3.48l27.8-.11"/><path class="cls-5" d="M238.79,180.42l30.09.39s-5.55-8.71-14.4-8.71c-4.09,0-5.12,5.33-11.78,5.33C240.06,177.43,238.79,180.42,238.79,180.42Z"/><rect class="cls-12" width="333.86" height="236.67"/></g></g></svg>