<svg xmlns="http://www.w3.org/2000/svg" viewBox="0 0 255 255"><defs><style>.cls-1,.cls-16{fill:none;}.cls-1{stroke:#093447;stroke-miterlimit:10;stroke-width:2px;}.cls-2{fill:#282982;}.cls-3{fill:#efa106;}.cls-4{fill:#ef290a;}.cls-5{fill:#007ae5;}.cls-6{fill:#007369;}.cls-7{fill:#096642;}.cls-8{fill:#0034c5;}.cls-9{fill:#484aa8;}.cls-10{fill:#fdc900;}.cls-11{fill:#ff7b57;}.cls-12{fill:#00abf5;}.cls-13{fill:#26d1c4;}.cls-14{fill:#11cc83;}.cls-15{fill:#f8f8f8;}</style></defs><title>bascis-feature</title><g id="Layer_2" data-name="Layer 2"><g id="Layer_1-2" data-name="Layer 1"><line class="cls-1" x1="1.28" y1="172.72" x2="237.43" y2="172.72"/><line class="cls-1" x1="1.28" y1="67.87" x2="237.43" y2="67.87"/><line class="cls-1" x1="17.57" y1="119.85" x2="253.72" y2="119.85"/><path class="cls-2" d="M53.48,104.65a1.21,1.21,0,0,0-.95.46L41.07,119.28a1.22,1.22,0,0,0,0,1.53L52.53,135a1.23,1.23,0,0,0,.95.45H58.1a1.22,1.22,0,0,0,.95-.45l11.47-14.18a1.22,1.22,0,0,0,0-1.53L59.05,105.11a1.2,1.2,0,0,0-.95-.46Z"/><rect class="cls-3" x="21.1" y="54.43" width="79.44" height="25.89" rx="12.94" ry="12.94"/><path class="cls-4" d="M187.4,80.32a12.95,12.95,0,0,0,0-25.89h-4.62a12.95,12.95,0,1,0,0,25.89Z"/><rect class="cls-5" x="88.22" y="107.1" width="103.22" height="25.89" rx="12.94" ry="12.94"/><rect class="cls-6" x="26.52" y="159.77" width="53.92" height="25.89" rx="12.94" ry="12.94"/><rect class="cls-4" x="101.81" y="159.77" width="53.92" height="25.89" rx="12.94" ry="12.94"/><path class="cls-7" d="M235.44,133H211.2a1,1,0,0,1-1-1.05A26.32,26.32,0,0,1,235.4,106.7H240V133Z"/><rect class="cls-3" x="182.78" y="159.82" width="25.8" height="25.8" rx="0.5" ry="0.5"/><path class="cls-8" d="M126,52h4.06a0,0,0,0,1,0,0V82.78a0,0,0,0,1,0,0H126a1.17,1.17,0,0,1-1.17-1.17V53.14A1.17,1.17,0,0,1,126,52Z"/><path class="cls-9" d="M57.15,135,45.69,120.81a1.22,1.22,0,0,1,0-1.53l11.46-14.17a1.22,1.22,0,0,1,1.9,0l11.47,14.17a1.22,1.22,0,0,1,0,1.53L59.05,135A1.23,1.23,0,0,1,57.15,135Z"/><rect class="cls-10" x="25.72" y="54.43" width="79.44" height="25.89" rx="12.94" ry="12.94"/><circle class="cls-11" cx="187.4" cy="67.37" r="12.94"/><rect class="cls-12" x="92.84" y="107.1" width="103.22" height="25.89" rx="12.94" ry="12.94"/><rect class="cls-13" x="31.14" y="159.77" width="53.92" height="25.89" rx="12.94" ry="12.94"/><rect class="cls-11" x="106.44" y="159.77" width="53.92" height="25.89" rx="12.94" ry="12.94"/><path class="cls-14" d="M214.79,131.94A26.32,26.32,0,0,1,240,106.7a1,1,0,0,1,1.05,1V132a1,1,0,0,1-1,1H215.82A1,1,0,0,1,214.79,131.94Z"/><path class="cls-5" d="M130.27,52.06,150.56,67a.51.51,0,0,1,0,.81l-20.29,14.9a.49.49,0,0,1-.79-.4V52.47A.5.5,0,0,1,130.27,52.06Z"/><rect class="cls-10" x="187.4" y="159.82" width="25.8" height="25.8" rx="0.5" ry="0.5"/><ellipse class="cls-15" cx="127.5" cy="230.24" rx="113.32" ry="4.3"/><rect class="cls-16" width="255" height="255"/></g></g></svg>