<svg xmlns="http://www.w3.org/2000/svg" viewBox="0 0 333.86 236.67"><defs><style>.cls-1{opacity:0.3;}.cls-10,.cls-12,.cls-16,.cls-2,.cls-9{fill:none;}.cls-2{stroke:#2ebaf6;stroke-width:1.8px;}.cls-10,.cls-2,.cls-9{stroke-miterlimit:10;}.cls-3{fill:#0074e0;}.cls-4{fill:#303260;}.cls-5{fill:#81dcef;}.cls-6{fill:#fff;}.cls-7{fill:#c8c8c8;}.cls-8{fill:#f1f1f1;}.cls-9{stroke:#fafafa;}.cls-10{stroke:#f1f1f1;}.cls-11{fill:#0380d3;}.cls-12{stroke:#c8c8c8;stroke-linejoin:round;stroke-width:1.5px;}.cls-13{fill:#2ebaf6;}.cls-14{fill:#ff7b57;}.cls-15{fill:#fafafa;}</style></defs><title>basics-header</title><g id="Layer_2" data-name="Layer 2"><g id="Layer_1-2" data-name="Layer 1"><g class="cls-1"><line class="cls-2" x1="286.69" y1="55.6" x2="333.8" y2="55.6"/><line class="cls-2" x1="286.69" y1="66.7" x2="333.8" y2="66.7"/><line class="cls-2" x1="286.69" y1="77.81" x2="333.8" y2="77.81"/><line class="cls-2" x1="286.69" y1="88.91" x2="333.8" y2="88.91"/></g><g class="cls-1"><rect class="cls-3" x="0.26" y="179.27" width="3.77" height="3.77"/><rect class="cls-3" x="11.58" y="179.27" width="3.77" height="3.77"/><rect class="cls-3" x="22.89" y="179.27" width="3.77" height="3.77"/><rect class="cls-3" x="34.2" y="179.27" width="3.77" height="3.77"/><rect class="cls-3" x="0.26" y="187.51" width="3.77" height="3.77"/><rect class="cls-3" x="11.58" y="187.51" width="3.77" height="3.77"/><rect class="cls-3" x="22.89" y="187.51" width="3.77" height="3.77"/><rect class="cls-3" x="34.2" y="187.51" width="3.77" height="3.77"/><rect class="cls-3" x="0.26" y="195.75" width="3.77" height="3.77"/><rect class="cls-3" x="11.58" y="195.75" width="3.77" height="3.77"/><rect class="cls-3" x="22.89" y="195.75" width="3.77" height="3.77"/><rect class="cls-3" x="34.2" y="195.75" width="3.77" height="3.77"/><rect class="cls-3" x="0.26" y="203.98" width="3.77" height="3.77"/><rect class="cls-3" x="11.58" y="203.98" width="3.77" height="3.77"/><rect class="cls-3" x="22.89" y="203.98" width="3.77" height="3.77"/><rect class="cls-3" x="34.2" y="203.98" width="3.77" height="3.77"/><rect class="cls-3" x="0.26" y="212.22" width="3.77" height="3.77"/><rect class="cls-3" x="11.58" y="212.22" width="3.77" height="3.77"/><rect class="cls-3" x="22.89" y="212.22" width="3.77" height="3.77"/><rect class="cls-3" x="34.2" y="212.22" width="3.77" height="3.77"/></g><rect class="cls-4" x="9.86" y="53.05" width="304.68" height="155.33" rx="7.18" ry="7.18"/><rect class="cls-5" x="9.86" y="45.13" width="304.68" height="157.33" rx="7.18" ry="7.18"/><path class="cls-3" d="M20.66,192.87,32,202.7v-.25H307.35a7.17,7.17,0,0,0,7.18-7.18v-143a7.17,7.17,0,0,0-7.18-7.18H41.06Z"/><path class="cls-6" d="M279.71,192.49H160.39V49.15a20,20,0,0,1,20-20h99.31Z"/><path class="cls-7" d="M160.39,192.49a20,20,0,0,1,20-20h99.31l20.4,20.39Z"/><polygon class="cls-8" points="279.71 29.14 300.11 49.53 300.11 192.87 279.71 172.48 279.71 29.14"/><path class="cls-6" d="M41.06,192.49H160.39V49.15a20,20,0,0,0-20-20H41.06Z"/><path class="cls-7" d="M160.39,192.49a20,20,0,0,0-20-20H41.06l-20.4,20.39Z"/><path class="cls-9" d="M34.2,176.12H140.6a15.71,15.71,0,0,1,15.1,11.4,16.1,16.1,0,0,1,1,5"/><path class="cls-9" d="M30,180.8H136.4c7.17,0,13.07,3.53,14.28,12.07"/><path class="cls-9" d="M25.76,186.11h109.6c3.83,0,7.87,2.17,8.4,6.76"/><polygon class="cls-8" points="41.06 29.14 20.66 49.53 20.66 192.87 41.06 172.48 41.06 29.14"/><path class="cls-9" d="M20.91,191.12H132c3.24,0,4.26,1.32,4.44,2.09"/><path class="cls-10" d="M286.57,176.12H180.17a15.71,15.71,0,0,0-15.1,11.4,16.24,16.24,0,0,0-1,5"/><path class="cls-10" d="M290.78,180.8H184.37c-7.16,0-13.06,3.53-14.28,12.07"/><path class="cls-10" d="M295,186.11H185.41c-3.82,0-7.86,2.17-8.4,6.76"/><path class="cls-10" d="M299.87,191.12H188.73c-3.23,0-4.25,1.32-4.43,2.09"/><rect class="cls-11" x="131.06" y="192.56" width="57.8" height="6.57"/><line class="cls-12" x1="279.71" y1="77.74" x2="180.04" y2="77.74"/><line class="cls-12" x1="272.71" y1="100.05" x2="180.04" y2="100.05"/><line class="cls-12" x1="279.71" y1="122.36" x2="180.04" y2="122.36"/><path class="cls-4" d="M255.15,106.38l4.86-6a.53.53,0,0,0,0-.65l-4.86-6a.51.51,0,0,0-.8,0l-4.86,6a.53.53,0,0,0,0,.65l4.86,6A.52.52,0,0,0,255.15,106.38Z"/><path class="cls-4" d="M71.58,95.24l1.69-7.53a.5.5,0,0,0-.28-.58l-7-3.24a.52.52,0,0,0-.72.36l-1.7,7.53a.5.5,0,0,0,.28.58l7,3.24A.52.52,0,0,0,71.58,95.24Z"/><rect class="cls-13" x="234.82" y="72.26" width="33.65" height="10.97" rx="5.48" ry="5.48" transform="translate(503.28 155.48) rotate(-180)"/><rect class="cls-13" x="115.79" y="116.87" width="23.35" height="10.97" rx="5.48" ry="5.48" transform="translate(199.23 283.82) rotate(-157.79)"/><rect class="cls-13" x="84.51" y="94.57" width="33.65" height="10.97" rx="5.48" ry="5.48" transform="translate(235.71 147.21) rotate(154.71)"/><circle class="cls-3" cx="197.07" cy="77.74" r="5.48"/><circle class="cls-3" cx="105.28" cy="69.23" r="5.48"/><rect class="cls-13" x="197.07" y="94.57" width="43.72" height="10.97" rx="5.48" ry="5.48" transform="translate(437.85 200.1) rotate(180)"/><rect class="cls-3" x="243.33" y="116.88" width="22.84" height="10.97" rx="5.48" ry="5.48" transform="translate(509.5 244.72) rotate(-180)"/><rect class="cls-3" x="62.37" y="130.25" width="22.84" height="10.97" rx="5.48" ry="5.48" transform="translate(190.61 236.83) rotate(159.4)"/><rect class="cls-4" x="211.44" y="116.88" width="22.84" height="10.97" rx="5.48" ry="5.48" transform="translate(445.71 244.72) rotate(-180)"/><path class="cls-4" d="M222.52,71.25l-8.59,6.32a.21.21,0,0,0,0,.34l8.59,6.31a.21.21,0,0,0,.34-.17V71.42A.22.22,0,0,0,222.52,71.25Z"/><path class="cls-3" d="M97.83,142.33l10.6,1.1a.21.21,0,0,0,.23-.25l-2.11-10.45a.21.21,0,0,0-.36-.1L97.69,142A.21.21,0,0,0,97.83,142.33Z"/><path class="cls-4" d="M127.92,70.31l-1,10.61a.21.21,0,0,0,.25.23L137.59,79a.21.21,0,0,0,.09-.36l-9.41-8.42A.21.21,0,0,0,127.92,70.31Z"/><path class="cls-3" d="M188.72,93.56l-8.59,6.32a.22.22,0,0,0,0,.34l8.59,6.31a.21.21,0,0,0,.34-.17V93.73A.22.22,0,0,0,188.72,93.56Z"/><rect class="cls-13" x="189.06" y="116.89" width="10.93" height="10.93" rx="0.21" ry="0.21" transform="translate(389.04 244.72) rotate(-180)"/><rect class="cls-13" x="73.79" y="56.91" width="10.93" height="10.93" rx="0.21" ry="0.21" transform="translate(105.99 159.62) rotate(-143.58)"/><path class="cls-12" d="M99.09,152.85a13.14,13.14,0,0,0,4.76,2.28,13.29,13.29,0,0,0,14.39-5.62"/><path class="cls-12" d="M114.58,79.66a13.3,13.3,0,0,0-.48-20.59"/><line class="cls-12" x1="82.11" y1="116.54" x2="65.95" y2="122.54"/><path class="cls-12" d="M110.27,119.54A11.21,11.21,0,0,1,128.75,111"/><polyline class="cls-12" points="65.95 54.13 58.48 65.88 64.98 70.12"/><path class="cls-12" d="M92.44,89.41s-8.62.87-7.87-8"/><polygon class="cls-14" points="212.21 208.84 202.83 204.84 193.45 208.84 193.45 181.3 212.21 181.3 212.21 208.84"/><path class="cls-12" d="M180,77.74c-13.5,0-21.32,10.25-21.32,15.78"/><path class="cls-12" d="M180,100.05c-13.5,0-21.32,10.25-21.32,15.78"/><path class="cls-12" d="M180,122.36c-13.5,0-21.32,10.25-21.32,15.78"/><path class="cls-15" d="M140.38,29.13l-.08,143.35h.08a20,20,0,0,1,20,20V49.15A20,20,0,0,0,140.38,29.13Z"/><rect class="cls-16" width="333.86" height="236.67"/></g></g></svg>