<svg xmlns="http://www.w3.org/2000/svg" viewBox="0 0 45.67 45.67"><defs><style>.cls-1{fill:#007ae5;}.cls-2{fill:none;}</style></defs><title>ebook-icon</title><g id="Layer_2" data-name="Layer 2"><g id="Layer_1-2" data-name="Layer 1"><path class="cls-1" d="M34,40.39H11.69a1,1,0,0,1-1-1V10.44a1,1,0,0,1,1-1H34a1,1,0,0,1,1,1v29A1,1,0,0,1,34,40.39Zm-21.29-2H33V11.44H12.69Z"/><path class="cls-1" d="M31.42,11.44H11.69a1,1,0,0,1-1-.87,1,1,0,0,1,.75-1.1l19.73-5a1,1,0,0,1,.86.18,1,1,0,0,1,.39.79v5A1,1,0,0,1,31.42,11.44Zm-11.69-2H30.42V6.75Z"/><rect class="cls-1" x="17.75" y="19.99" width="10.17" height="2"/><rect class="cls-1" x="17.75" y="25.88" width="10.17" height="2"/><rect class="cls-2" width="45.67" height="45.67"/></g></g></svg>