<svg xmlns="http://www.w3.org/2000/svg" viewBox="0 0 255 255"><defs><style>.cls-1{fill:#ff6239;}.cls-2{fill:#ffbfa8;}.cls-3{fill:#ffe8e0;}.cls-4{fill:#ef290a;}.cls-5{fill:#093447;}.cls-6{fill:none;}</style></defs><title>business-feature</title><g id="Layer_2" data-name="Layer 2"><g id="Nav"><path class="cls-1" d="M36.65,201.15a2.67,2.67,0,0,1-2.74-2.61V29.85a2.67,2.67,0,0,1,2.74-2.61h145.1a2.68,2.68,0,0,1,2.75,2.61V198.54a2.68,2.68,0,0,1-2.75,2.61Z"/><path class="cls-2" d="M47,211.08a2.68,2.68,0,0,1-2.75-2.61V39.78A2.68,2.68,0,0,1,47,37.17h145.1a2.68,2.68,0,0,1,2.75,2.61V208.47a2.68,2.68,0,0,1-2.75,2.61Z"/><path class="cls-3" d="M55.3,199.73V51.94A2.92,2.92,0,0,1,58.22,49H203a2.92,2.92,0,0,1,2.92,2.92V199.73Z"/><path class="cls-3" d="M55.3,199.73A15.28,15.28,0,0,0,71,215.22c8,0,14.65-6.41,15.72-15.34l-31.4-.15"/><rect class="cls-4" x="123.39" y="162.57" width="16.53" height="22.84"/><rect class="cls-4" x="75.49" y="162.57" width="16.53" height="22.84"/><rect class="cls-1" x="147.15" y="149.18" width="16.53" height="36.23"/><rect class="cls-1" x="99.97" y="149.18" width="16.53" height="36.23"/><rect class="cls-4" x="170.92" y="136.51" width="16.53" height="48.9"/><path class="cls-5" d="M77.24,147.15l-2.1-.88c.32-.77,8-18.78,24.83-18.78,6.27,0,11.71,4.46,17,8.77,5,4.08,9.68,7.94,14.73,7.94,11.09,0,19.25-7.28,27.89-15,7.62-6.8,15.51-13.83,25.94-16.22l.51,2.22c-9.86,2.26-17.52,9.1-24.93,15.7-9,8-17.45,15.56-29.41,15.56-5.86,0-11.11-4.3-16.18-8.46s-10.06-8.24-15.51-8.24C84.72,129.78,77.32,147,77.24,147.15Z"/><circle class="cls-1" cx="97.7" cy="87.94" r="18.86"/><path class="cls-4" d="M111,101.26,97.7,87.94V69.08A18.86,18.86,0,0,1,111,101.27"/><rect class="cls-1" x="135.01" y="75.77" width="48.14" height="9.17"/><rect class="cls-1" x="135.01" y="90.94" width="48.14" height="9.17"/><path class="cls-1" d="M71,215.22c8.13,0,14.81-7.21,15.64-16.45a2,2,0,0,1,1.83-1.91H225.22a2.08,2.08,0,0,1,1.86,2.44c-1,9-7.61,15.92-15.58,15.92Z"/><polygon class="cls-5" points="184.69 119.58 182.57 118.72 184.29 114.45 180.32 112.53 181.31 110.48 187.21 113.32 184.69 119.58"/><rect class="cls-6" width="255" height="255"/></g></g></svg>