<svg xmlns="http://www.w3.org/2000/svg" viewBox="0 0 333.86 236.67"><defs><style>.cls-1{fill:#ef290a;}.cls-2{fill:#ff6239;}.cls-3{fill:#ffeae3;}.cls-4{fill:#ffcab8;}.cls-5{fill:#fbd5c6;}.cls-6{fill:#093447;}.cls-7{fill:none;}</style></defs><title>business-header</title><g id="Layer_2" data-name="Layer 2"><g id="Nav"><rect class="cls-1" x="107.5" y="27.99" width="221.39" height="186.22" rx="11.67" ry="11.67" transform="translate(436.38 242.2) rotate(-180)"/><path class="cls-2" d="M106.51,214.21H302a16.35,16.35,0,0,0,16.35-16.35V44.34A16.35,16.35,0,0,0,302,28H102.79A16.35,16.35,0,0,0,86.44,44.34V194.15A20.06,20.06,0,0,0,106.51,214.21Z"/><rect class="cls-3" x="93.82" y="48.4" width="217.77" height="144.76" transform="translate(405.41 241.56) rotate(-180)"/><circle class="cls-4" cx="204.06" cy="38.8" r="4.99"/><path class="cls-2" d="M20.92,214.21H307.23V193.16H5v12.38C5,210.33,8.87,214.21,20.92,214.21Z"/><path class="cls-1" d="M210.14,214.25H318.91l2.58-21.09H202.76v12.21C202.76,210.27,206.07,214.25,210.14,214.25Z"/><path class="cls-2" d="M176.72,103.51C170.32,89.36,163.45,77,154.09,77c-21,0-14.21,54.26-60.27,54.26v18.35C161.5,161.88,160.12,117.64,176.72,103.51Z"/><path class="cls-2" d="M240.58,113.43c-7.08,0-11.44,5-15.27,10.92,12.17,24.12,23.75,55.4,60,55.4,0,0,5.3.79,4.5,0C274,164,257.16,113.43,240.58,113.43Z"/><path class="cls-5" d="M204.48,144.27c10.58,0,15.11-11.05,20.83-19.92-7.64-15.13-15.52-32.12-29.86-32.12-8.24,0-14,7.27-18.73,11.28C185.22,122.34,192.89,144.27,204.48,144.27Z"/><path class="cls-1" d="M225.31,124.35c-5.72,8.87-10.25,19.92-20.83,19.92-11.59,0-19.26-21.93-27.76-40.76-16.6,14.13-17.17,59-82.9,43.26v33H285.34C249.06,179.75,237.48,148.47,225.31,124.35Z"/><rect class="cls-6" x="151.87" y="61.64" width="2" height="118.38"/><rect class="cls-6" x="195.19" y="77.52" width="2" height="204.73" transform="translate(16.04 375.83) rotate(-89.92)"/><polygon class="cls-6" points="157.62 68.55 152.87 63.15 148.13 68.55 146.63 67.23 152.87 60.12 159.12 67.23 157.62 68.55"/><polygon class="cls-6" points="292.96 186.35 291.64 184.85 297.04 180.1 291.64 175.35 292.96 173.85 300.06 180.1 292.96 186.35"/><rect class="cls-3" x="43.22" y="141.84" width="55.33" height="18.45" rx="1.86" ry="1.86"/><rect class="cls-2" x="43.22" y="71.76" width="55.33" height="18.45" rx="1.86" ry="1.86"/><path class="cls-6" d="M88.36,83.28a14.58,14.58,0,0,1-5.12-.9,16.4,16.4,0,0,0-5.82-.95,9.09,9.09,0,0,0-3.34.84,9.34,9.34,0,0,1-6.23.75,17.79,17.79,0,0,1-3-1.13c-3.26-1.43-6.63-2.92-11,1.38l-1.41-1.43c5.32-5.25,9.87-3.24,13.2-1.78a16.64,16.64,0,0,0,2.66,1,7.42,7.42,0,0,0,5-.67,10.73,10.73,0,0,1,4.07-1,18.33,18.33,0,0,1,6.43,1,12.93,12.93,0,0,0,4.73.8l0,2Z"/><rect class="cls-1" x="43.22" y="106.8" width="55.33" height="18.45" rx="1.86" ry="1.86"/><path class="cls-6" d="M67.79,118a20.1,20.1,0,0,1-4.79-.53l-2.51-.65c-3.67-1-3.68-1-7.07.58l-.83-1.81c3.89-1.78,4.2-1.81,8.41-.7l2.48.63c5,1.25,11.36-.29,14.06-1a9.21,9.21,0,0,1,1.51-.31A46.26,46.26,0,0,1,89,115l-.43,2a44.55,44.55,0,0,0-9.45-.77c-.1,0-.6.14-1.08.25A43.78,43.78,0,0,1,67.79,118Z"/><path class="cls-6" d="M64.5,153.45c-5,0-11-.77-13.9-2.09l.82-1.83c4.51,2,16.36,2.51,19.31,1.2l.69-.32c3.07-1.38,5.72-2.58,12.21-.94,5.16,1.31,6.67.71,6.68.7l1,1.76c-.43.25-2.28,1-8.13-.52s-8-.51-10.89.82l-.71.32A20.09,20.09,0,0,1,64.5,153.45Z"/><rect class="cls-7" width="333.86" height="236.67"/></g></g></svg>