<svg xmlns="http://www.w3.org/2000/svg" xmlns:xlink="http://www.w3.org/1999/xlink" viewBox="0 0 1920 266.54"><defs><style>.cls-1{fill:#093447;}.cls-2{opacity:0.05;mix-blend-mode:luminosity;}.cls-3{fill:#1cb7a8;}</style><symbol id="CTA-teal" data-name="CTA-teal" viewBox="0 0 1920 266.54"><rect class="cls-1" width="1920" height="266.54"/><g class="cls-2"><path class="cls-3" d="M32.39,140.81A32.34,32.34,0,0,1,9.53,85.6L18,94.09a20.34,20.34,0,1,0,28.77,28.76l8.48,8.49A32.17,32.17,0,0,1,32.39,140.81Z"/><path class="cls-3" d="M170.27,150l-8.48-8.48A20.34,20.34,0,0,0,133,112.71l-8.48-8.48A32.34,32.34,0,0,1,170.27,150Z"/><circle class="cls-3" cx="91.08" cy="42.61" r="8"/><polygon class="cls-3" points="63.75 231.04 55.26 222.56 90.92 186.9 99.4 195.39 63.75 231.04"/><path class="cls-3" d="M371.67,121.37A32.34,32.34,0,0,1,316.46,98.5h12a20.34,20.34,0,0,0,40.68,0h12A32.12,32.12,0,0,1,371.67,121.37Z"/><path class="cls-3" d="M268.06,212.4h-12a20.34,20.34,0,0,0-40.68,0h-12a32.34,32.34,0,1,1,64.68,0Z"/><circle class="cls-3" cx="317.72" cy="223.04" r="8"/><polygon class="cls-3" points="223.92 49.95 232.41 41.46 268.06 77.11 259.58 85.6 223.92 49.95"/><path class="cls-3" d="M466.5,140.81A32.34,32.34,0,0,1,443.63,85.6l8.48,8.49a20.34,20.34,0,1,0,28.77,28.76l8.48,8.49A32.14,32.14,0,0,1,466.5,140.81Z"/><path class="cls-3" d="M604.37,150l-8.48-8.48a20.34,20.34,0,0,0-28.77-28.77l-8.48-8.48A32.34,32.34,0,1,1,604.37,150Z"/><circle class="cls-3" cx="525.18" cy="42.61" r="8"/><polygon class="cls-3" points="497.85 231.04 489.36 222.56 525.02 186.9 533.5 195.39 497.85 231.04"/><path class="cls-3" d="M805.77,121.37A32.34,32.34,0,0,1,750.56,98.5h12a20.34,20.34,0,0,0,40.68,0h12A32.12,32.12,0,0,1,805.77,121.37Z"/><path class="cls-3" d="M702.16,212.4h-12a20.34,20.34,0,1,0-40.68,0h-12a32.34,32.34,0,1,1,64.68,0Z"/><circle class="cls-3" cx="751.82" cy="223.04" r="8"/><polygon class="cls-3" points="658.02 49.95 666.51 41.46 702.16 77.11 693.68 85.6 658.02 49.95"/><path class="cls-3" d="M900.6,140.81A32.34,32.34,0,0,1,877.73,85.6l8.48,8.49A20.34,20.34,0,1,0,915,122.85l8.48,8.49A32.14,32.14,0,0,1,900.6,140.81Z"/><path class="cls-3" d="M1038.47,150l-8.48-8.48a20.34,20.34,0,0,0-28.77-28.77l-8.48-8.48A32.34,32.34,0,1,1,1038.47,150Z"/><circle class="cls-3" cx="959.28" cy="42.61" r="8"/><polygon class="cls-3" points="931.95 231.04 923.46 222.56 959.12 186.9 967.61 195.39 931.95 231.04"/><path class="cls-3" d="M1239.87,121.37a32.35,32.35,0,0,1-55.21-22.87h12a20.34,20.34,0,1,0,40.68,0h12A32.12,32.12,0,0,1,1239.87,121.37Z"/><path class="cls-3" d="M1136.26,212.4h-12a20.34,20.34,0,1,0-40.68,0h-12a32.34,32.34,0,1,1,64.68,0Z"/><circle class="cls-3" cx="1185.92" cy="223.04" r="8"/><polygon class="cls-3" points="1092.12 49.95 1100.61 41.46 1136.27 77.11 1127.78 85.6 1092.12 49.95"/><path class="cls-3" d="M1334.7,140.81a32.34,32.34,0,0,1-22.87-55.21l8.48,8.49a20.34,20.34,0,1,0,28.77,28.76l8.48,8.49A32.13,32.13,0,0,1,1334.7,140.81Z"/><path class="cls-3" d="M1472.57,150l-8.48-8.48a20.34,20.34,0,0,0-28.77-28.77l-8.48-8.48A32.34,32.34,0,1,1,1472.57,150Z"/><circle class="cls-3" cx="1393.38" cy="42.61" r="8"/><polygon class="cls-3" points="1366.05 231.04 1357.57 222.56 1393.22 186.9 1401.7 195.39 1366.05 231.04"/><path class="cls-3" d="M1674,121.37a32.35,32.35,0,0,1-55.21-22.87h12a20.34,20.34,0,1,0,40.68,0h12A32.12,32.12,0,0,1,1674,121.37Z"/><path class="cls-3" d="M1570.37,212.4h-12a20.34,20.34,0,1,0-40.68,0h-12a32.35,32.35,0,0,1,64.69,0Z"/><circle class="cls-3" cx="1620.02" cy="223.04" r="8"/><polygon class="cls-3" points="1526.22 49.95 1534.71 41.46 1570.37 77.11 1561.88 85.6 1526.22 49.95"/><path class="cls-3" d="M1768.8,140.81a32.34,32.34,0,0,1-22.87-55.21l8.49,8.49a20.34,20.34,0,1,0,28.76,28.76l8.49,8.49A32.17,32.17,0,0,1,1768.8,140.81Z"/><path class="cls-3" d="M1906.68,150l-8.49-8.48a20.34,20.34,0,0,0-28.77-28.77l-8.48-8.48A32.34,32.34,0,1,1,1906.68,150Z"/><circle class="cls-3" cx="1827.49" cy="42.61" r="8"/><polygon class="cls-3" points="1800.15 231.04 1791.67 222.56 1827.32 186.9 1835.81 195.39 1800.15 231.04"/><path class="cls-3" d="M409.68,53.15c-5.84,0-11.73-2.52-17.56-7.52-3.29-2.82-8.09-6-12.21-5-5,1.24-7.72,7.86-7.75,7.92l-10.25-4c.48-1.22,4.94-12,15.32-14.61,7-1.74,14.39.7,22,7.27,4.48,3.84,8.61,5.42,12.28,4.68,5.58-1.12,9.87-7.46,11.05-9.8L432.47,37c-.27.54-6.64,13.22-18.67,15.69A20.58,20.58,0,0,1,409.68,53.15Z"/><polygon class="cls-3" points="415.7 214.3 386.37 198.53 415.7 178.16 415.7 214.3"/><path class="cls-3" d="M1279.57,53.15c-5.84,0-11.73-2.52-17.56-7.52-3.3-2.82-8.09-6-12.22-5-4.94,1.24-7.71,7.86-7.74,7.92l-10.25-4c.48-1.22,4.94-12,15.32-14.61,7-1.74,14.39.7,22.05,7.27,4.48,3.84,8.61,5.42,12.28,4.68,5.58-1.12,9.87-7.46,11-9.8l9.86,4.88c-.27.54-6.64,13.22-18.67,15.69A20.58,20.58,0,0,1,1279.57,53.15Z"/><polygon class="cls-3" points="1285.59 214.3 1256.26 198.53 1285.59 178.16 1285.59 214.3"/><path class="cls-3" d="M827.06,190.62c5.83,0,11.72,2.51,17.55,7.51,3.3,2.83,8.09,6,12.22,5,4.94-1.24,7.71-7.85,7.74-7.92l10.25,4c-.47,1.22-4.93,12-15.32,14.6-7,1.74-14.39-.7-22-7.27-4.48-3.84-8.61-5.41-12.28-4.67-5.58,1.12-9.87,7.45-11,9.8l-9.86-4.89c.27-.54,6.64-13.22,18.67-15.68A20.6,20.6,0,0,1,827.06,190.62Z"/><polygon class="cls-3" points="821.03 29.47 850.36 45.23 821.03 65.61 821.03 29.47"/><path class="cls-3" d="M1699.81,190.62c5.84,0,11.72,2.51,17.55,7.51,3.3,2.83,8.09,6,12.22,5,4.94-1.24,7.71-7.85,7.74-7.92l10.25,4c-.47,1.22-4.93,12-15.32,14.6-7,1.74-14.39-.7-22-7.27-4.48-3.84-8.6-5.41-12.28-4.67-5.58,1.12-9.87,7.45-11.05,9.8l-9.86-4.89c.27-.54,6.65-13.22,18.67-15.68A20.6,20.6,0,0,1,1699.81,190.62Z"/><polygon class="cls-3" points="1693.78 29.47 1723.11 45.23 1693.78 65.61 1693.78 29.47"/></g></symbol></defs><title>cta-bg</title><g id="Layer_2" data-name="Layer 2"><g id="Background"><use id="CTA-teal-3" data-name="CTA-teal" width="1920" height="266.54" xlink:href="#CTA-teal"/></g></g></svg>