<svg xmlns="http://www.w3.org/2000/svg" viewBox="0 0 45.67 45.67"><defs><style>.cls-1,.cls-2{fill:none;}.cls-1{stroke:#00ad9e;stroke-linecap:round;stroke-miterlimit:10;stroke-width:2px;}</style></defs><title>mic-icon</title><g id="Layer_2" data-name="Layer 2"><g id="Layer_1-2" data-name="Layer 1"><line class="cls-1" x1="14.69" y1="43.32" x2="30.98" y2="43.32"/><path class="cls-1" d="M9.49,24.72s1.95,12.49,13.34,12.49S36.18,24.72,36.18,24.72"/><line class="cls-1" x1="24.75" y1="13" x2="30.91" y2="13"/><line class="cls-1" x1="24.75" y1="17.2" x2="30.91" y2="17.2"/><line class="cls-1" x1="24.75" y1="21.41" x2="30.91" y2="21.41"/><line class="cls-1" x1="14.76" y1="13" x2="20.83" y2="13"/><line class="cls-1" x1="14.76" y1="17.2" x2="20.83" y2="17.2"/><line class="cls-1" x1="14.76" y1="21.41" x2="20.83" y2="21.41"/><line class="cls-1" x1="22.83" y1="37.21" x2="22.83" y2="43.32"/><path class="cls-1" d="M30.94,10.45a8.11,8.11,0,0,0-16.21,0v13.3a8.11,8.11,0,1,0,16.21,0V10.45Z"/><rect class="cls-2" width="45.67" height="45.67"/></g></g></svg>