<svg xmlns="http://www.w3.org/2000/svg" viewBox="0 0 255 255"><defs><style>.cls-1,.cls-10,.cls-9{fill:none;}.cls-2{fill:#eafbf9;}.cls-3{fill:#166b6b;}.cls-4{fill:#22d1c1;}.cls-5{fill:#fff;}.cls-12,.cls-6{fill:#b2f1ec;}.cls-7{fill:#e6e6e6;}.cls-8{fill:#f86b54;}.cls-9{stroke:#093447;}.cls-10,.cls-12,.cls-9{stroke-miterlimit:10;}.cls-10,.cls-9{stroke-width:2px;}.cls-10{stroke:#e6e6e6;}.cls-11{fill:#f8f8f8;}.cls-12{stroke:#22d1c1;stroke-width:1.44px;}</style></defs><title>product-feature</title><g id="Layer_2" data-name="Layer 2"><g id="Layer_1-2" data-name="Layer 1"><rect class="cls-1" width="255" height="255"/><rect class="cls-2" x="94.9" y="105.7" width="105.3" height="105.3" rx="6.36" ry="6.36"/><rect class="cls-3" x="56.14" y="18.62" width="122.47" height="181.52" rx="10.73" ry="10.73"/><rect class="cls-4" x="68" y="18.62" width="122.47" height="181.52" rx="10.73" ry="10.73"/><rect class="cls-5" x="79.15" y="38.94" width="100.16" height="136.17"/><circle class="cls-6" cx="129.23" cy="187.5" r="5.99"/><rect class="cls-7" x="89.62" y="53.33" width="78.36" height="12.46"/><rect class="cls-7" x="89.62" y="145.08" width="78.36" height="23.21"/><rect class="cls-8" x="130.83" y="123.85" width="37.52" height="11.59" rx="2.07" ry="2.07"/><path class="cls-9" d="M38.88,32.59a27,27,0,0,0,27,27h15.7"/><line class="cls-9" x1="81.56" y1="55.21" x2="81.56" y2="63.91"/><rect class="cls-6" x="27.39" y="15.91" width="21.43" height="5.21" rx="1.18" ry="1.18"/><rect class="cls-6" x="27.39" y="23.72" width="21.43" height="5.21" rx="1.18" ry="1.18"/><rect class="cls-7" x="89.62" y="123.83" width="35.8" height="11.6"/><line class="cls-10" x1="93.91" y1="82.48" x2="120.53" y2="82.48"/><line class="cls-10" x1="93.91" y1="91.04" x2="120.53" y2="91.04"/><line class="cls-10" x1="93.91" y1="99.6" x2="120.53" y2="99.6"/><line class="cls-10" x1="93.91" y1="107.44" x2="112.11" y2="107.44"/><rect class="cls-6" x="115.31" y="26.44" width="27.83" height="4.98" rx="2.49" ry="2.49"/><polygon class="cls-4" points="131.2 112.74 142.37 92.26 149.59 103.09 149.59 112.74 131.2 112.74"/><polyline class="cls-6" points="167.98 112.74 152.84 84.2 137.71 112.74"/><line class="cls-9" x1="174.91" y1="133.58" x2="174.91" y2="125.7"/><line class="cls-9" x1="174.91" y1="129.64" x2="200.21" y2="129.64"/><rect class="cls-3" x="204.19" y="123.56" width="44.5" height="16.74" rx="2.2" ry="2.2" transform="translate(452.88 263.86) rotate(180)"/><rect class="cls-4" x="204.19" y="118.93" width="44.5" height="18.51" rx="2.32" ry="2.32" transform="translate(452.88 256.37) rotate(180)"/><ellipse class="cls-11" cx="125.42" cy="243.76" rx="69.95" ry="4.65"/><rect class="cls-6" x="214.58" y="126.12" width="23.71" height="4.14"/><rect class="cls-12" x="28.84" y="107.84" width="14.67" height="14.67" rx="1.98" ry="1.98"/><rect class="cls-12" x="28.84" y="136.43" width="14.67" height="14.67" rx="1.98" ry="1.98"/><rect class="cls-12" x="28.84" y="165.02" width="14.67" height="14.67" rx="1.98" ry="1.98"/><polyline class="cls-9" points="31.39 114.9 35.26 119.21 45.41 107.03"/><polyline class="cls-9" points="31.39 143.49 35.26 147.8 45.41 135.62"/></g></g></svg>