<svg xmlns="http://www.w3.org/2000/svg" viewBox="0 0 333.86 236.67"><defs><style>.cls-1{fill:#00cfbd;}.cls-2{fill:#166b6b;}.cls-3{fill:#80eadf;}.cls-4{fill:#1fa89e;}.cls-10,.cls-5,.cls-6,.cls-7,.cls-8{fill:none;}.cls-5,.cls-6,.cls-7,.cls-8{stroke:#093447;stroke-miterlimit:10;stroke-width:2px;}.cls-6{stroke-dasharray:4.09 4.09;}.cls-7{stroke-dasharray:4.06 4.06;}.cls-8{stroke-dasharray:3.9 3.9;}.cls-9{fill:#abfff5;}</style></defs><title>product-header</title><g id="Layer_2" data-name="Layer 2"><g id="Layer_1-2" data-name="Layer 1"><polygon class="cls-1" points="143.25 159.53 192.95 159.53 213.46 175.4 192.62 191.08 143.25 190.84 122.06 174.71 143.25 159.53"/><polygon class="cls-2" points="143.25 168.28 127.98 179.22 143.25 190.84 192.62 191.08 207.72 179.71 192.95 168.28 143.25 168.28"/><ellipse class="cls-1" cx="50.48" cy="175.3" rx="45.93" ry="16.43"/><ellipse class="cls-2" cx="50.48" cy="179.55" rx="44.36" ry="12.18"/><polygon class="cls-3" points="192.95 159.53 192.95 168.28 207.72 179.71 213.46 175.4 192.95 159.53"/><polygon class="cls-4" points="143.25 168.28 143.25 159.53 122.06 174.71 127.98 179.22 143.25 168.28"/><polygon class="cls-1" points="314.21 183.36 328.5 177.44 285.41 159.6 242.32 177.44 256.61 183.36 285.41 171.44 314.21 183.36"/><polygon class="cls-2" points="314.21 183.36 285.41 171.44 256.61 183.36 285.41 195.29 314.21 183.36"/><polygon class="cls-3" points="328.5 177.44 285.41 159.6 285.41 171.44 314.21 183.36 328.5 177.44"/><line class="cls-5" x1="50.65" y1="101.67" x2="50.65" y2="103.67"/><line class="cls-6" x1="50.65" y1="107.76" x2="50.65" y2="187.45"/><line class="cls-5" x1="50.65" y1="189.49" x2="50.65" y2="191.49"/><line class="cls-5" x1="168.16" y1="101.67" x2="168.16" y2="103.67"/><line class="cls-7" x1="168.16" y1="107.73" x2="168.16" y2="186.93"/><line class="cls-5" x1="168.16" y1="188.96" x2="168.16" y2="190.96"/><line class="cls-5" x1="285.41" y1="101.67" x2="285.41" y2="103.67"/><line class="cls-8" x1="285.41" y1="107.57" x2="285.41" y2="191.34"/><line class="cls-5" x1="285.41" y1="193.29" x2="285.41" y2="195.29"/><rect class="cls-4" x="264.15" y="73.96" width="42.52" height="57.62"/><polygon class="cls-9" points="264.15 131.58 241.51 116.71 241.51 59.09 264.15 73.96 264.15 131.58"/><polygon class="cls-2" points="306.67 131.58 329.31 116.71 329.31 59.09 306.67 73.96 306.67 131.58"/><polyline class="cls-1" points="329.31 59.09 306.67 73.96 264.15 73.96 241.51 59.09"/><polyline class="cls-1" points="329.31 59.09 306.67 44.21 264.15 44.21 241.51 59.09"/><path class="cls-9" d="M123.65,56.61v58.27c0,4.49,5.67,8.52,14.69,11.31V56.61Z"/><path class="cls-2" d="M181,56.61v72.87c18.33-1.89,31.7-7.71,31.7-14.6V56.61Z"/><path class="cls-1" d="M138.34,56.61v69.58c7.9,2.44,18.35,3.93,29.82,3.93a127.91,127.91,0,0,0,12.82-.64V56.61Z"/><ellipse class="cls-1" cx="168.16" cy="56.61" rx="44.51" ry="15.24"/><polygon class="cls-9" points="50.36 131.51 5.25 115.55 5.25 57.5 50.36 73.46 50.36 131.51"/><polygon class="cls-2" points="50.36 131.51 95.47 115.55 95.47 57.5 50.36 73.46 50.36 131.51"/><polygon class="cls-1" points="50.36 41.53 5.25 57.5 50.36 73.46 95.47 57.5 50.36 41.53"/><rect class="cls-10" width="333.86" height="236.67"/></g></g></svg>