<svg xmlns="http://www.w3.org/2000/svg" viewBox="0 0 99.4 99.4"><defs><style>.cls-1{fill:#ff7b57;}.cls-2{fill:#26d1c4;}.cls-3{fill:#007ae5;}.cls-4{fill:#39bbf9;}.cls-5{fill:none;}</style></defs><title>rm-logo-icon</title><g id="Layer_2" data-name="Layer 2"><g id="Layer_1-2" data-name="Layer 1"><circle class="cls-1" cx="75.71" cy="77.14" r="22.26"/><path class="cls-2" d="M34.54,12.48V3.82A1.55,1.55,0,0,0,33,2.27H3A1.55,1.55,0,0,0,1.43,3.82V74.27A74.27,74.27,0,0,1,34.54,12.48Z"/><path class="cls-3" d="M1.43,74.27V97.85A1.56,1.56,0,0,0,3,99.4H33a1.56,1.56,0,0,0,1.55-1.55V12.48A74.27,74.27,0,0,0,1.43,74.27Z"/><path class="cls-4" d="M34.54,12.48V74.27A41.22,41.22,0,0,1,74.19,33.12a1.55,1.55,0,0,0,1.52-1.55v-30A1.56,1.56,0,0,0,74.13,0,73.84,73.84,0,0,0,34.54,12.48Z"/><rect class="cls-5" width="99.4" height="99.4"/></g></g></svg>