<svg xmlns="http://www.w3.org/2000/svg" viewBox="0 0 333.86 236.67"><defs><style>.cls-1,.cls-5,.cls-8{fill:none;}.cls-2{fill:#0040af;}.cls-3{fill:#0074e0;}.cls-4{fill:#fff;}.cls-5{stroke:#093447;}.cls-5,.cls-8{stroke-miterlimit:10;stroke-width:2px;}.cls-6{fill:#9adcfa;}.cls-7{fill:#00abf5;}.cls-8{stroke:#0074e0;opacity:0.2;}</style></defs><title>tech-header</title><g id="Layer_2" data-name="Layer 2"><g id="Layer_1-2" data-name="Layer 1"><rect class="cls-1" width="333.86" height="236.67"/><rect class="cls-2" x="87.75" y="23.61" width="201.57" height="56.35" rx="8.65" ry="8.65" transform="translate(377.06 103.57) rotate(180)"/><rect class="cls-3" x="44.4" y="23.61" width="201.57" height="56.35" rx="8.65" ry="8.65" transform="translate(290.37 103.57) rotate(180)"/><path class="cls-2" d="M76.34,45.11H70V58.46h6.37a6.68,6.68,0,0,0,0-13.35Z"/><circle class="cls-4" cx="69.97" cy="51.78" r="6.67"/><path class="cls-2" d="M104.38,45.11H98V58.46h6.37a6.68,6.68,0,1,0,0-13.35Z"/><circle class="cls-4" cx="98.01" cy="51.78" r="6.67"/><circle class="cls-4" cx="185.07" cy="51.78" r="6.67"/><rect class="cls-2" x="87.75" y="89.71" width="201.57" height="56.35" rx="8.65" ry="8.65" transform="translate(377.06 235.78) rotate(180)"/><rect class="cls-3" x="44.4" y="89.71" width="201.57" height="56.35" rx="8.65" ry="8.65" transform="translate(290.37 235.78) rotate(180)"/><path class="cls-2" d="M76.34,111.22H70v13.35h6.37a6.68,6.68,0,0,0,0-13.35Z"/><circle class="cls-4" cx="69.97" cy="117.89" r="6.67"/><path class="cls-2" d="M104.38,111.22H98v13.35h6.37a6.68,6.68,0,1,0,0-13.35Z"/><circle class="cls-4" cx="98.01" cy="117.89" r="6.67"/><rect class="cls-2" x="87.75" y="155.82" width="201.57" height="56.35" rx="8.65" ry="8.65" transform="translate(377.06 368) rotate(180)"/><rect class="cls-3" x="44.4" y="155.82" width="201.57" height="56.35" rx="8.65" ry="8.65" transform="translate(290.37 368) rotate(180)"/><path class="cls-2" d="M76.34,177.32H70v13.35h6.37a6.68,6.68,0,0,0,0-13.35Z"/><circle class="cls-4" cx="69.97" cy="184" r="6.67"/><path class="cls-2" d="M104.38,177.32H98v13.35h6.37a6.68,6.68,0,1,0,0-13.35Z"/><circle class="cls-4" cx="98.01" cy="184" r="6.67"/><path class="cls-5" d="M70.41,117.89h-4.8a3.72,3.72,0,0,1-3.72-3.72V55.51a3.72,3.72,0,0,1,3.72-3.73h4.8"/><path class="cls-5" d="M98.45,184h-4.8a3.72,3.72,0,0,1-3.72-3.72V121.62a3.72,3.72,0,0,1,3.72-3.73h4.8"/><rect class="cls-2" x="124.85" y="44.42" width="40.4" height="3.9" rx="1.95" ry="1.95"/><rect class="cls-2" x="124.85" y="54.48" width="40.4" height="3.9" rx="1.95" ry="1.95"/><rect class="cls-2" x="124.85" y="110.52" width="40.4" height="3.9" rx="1.95" ry="1.95"/><rect class="cls-2" x="124.85" y="120.59" width="40.4" height="3.9" rx="1.95" ry="1.95"/><rect class="cls-2" x="124.85" y="176.63" width="40.4" height="3.9" rx="1.95" ry="1.95"/><rect class="cls-2" x="124.85" y="186.7" width="40.4" height="3.9" rx="1.95" ry="1.95"/><circle class="cls-2" cx="216.19" cy="51.78" r="10.88"/><path class="cls-6" d="M216.19,51.78l0,10.89h0a10.89,10.89,0,1,1,10.88-10.89Z"/><path class="cls-4" d="M216.19,51.78l-7.92-7.46a10.88,10.88,0,0,1,18.8,7.46Z"/><circle class="cls-4" cx="185.07" cy="117.89" r="6.67"/><circle class="cls-6" cx="185.07" cy="184" r="6.67"/><circle class="cls-6" cx="268.27" cy="185.68" r="6.23"/><circle class="cls-6" cx="268.27" cy="118.68" r="6.23"/><path class="cls-5" d="M268.27,118.68a33.5,33.5,0,0,1,0,67"/><circle class="cls-2" cx="216.19" cy="117.8" r="10.88"/><path class="cls-7" d="M216.19,117.8l7.61,7.77a10.89,10.89,0,0,1-15.72-.5Z"/><path class="cls-4" d="M216.19,117.8l-8,7.34a10.88,10.88,0,0,1,7.95-18.22Z"/><circle class="cls-2" cx="216.19" cy="184" r="10.88"/><path class="cls-7" d="M216.19,184l0-10.88h0A10.88,10.88,0,1,1,205.3,184Z"/><path class="cls-4" d="M216.19,184l7.87-7.51A10.88,10.88,0,1,1,205.3,184Z"/><line class="cls-8" x1="22.2" y1="213.01" x2="313.45" y2="213.01"/></g></g></svg>