<svg xmlns="http://www.w3.org/2000/svg" viewBox="0 0 255 255"><defs><style>.cls-1,.cls-4,.cls-5,.cls-8,.cls-9{fill:none;}.cls-2,.cls-6{fill:#0040af;}.cls-3{fill:#0074e0;}.cls-4{stroke:#0040af;}.cls-4,.cls-5,.cls-6,.cls-8,.cls-9{stroke-miterlimit:10;}.cls-4,.cls-5,.cls-8,.cls-9{stroke-width:4px;}.cls-5{stroke:#2ebaf6;}.cls-6{stroke:#00cfbd;stroke-width:3px;}.cls-7{fill:#fff;}.cls-8{stroke:#369af7;}.cls-9{stroke:#fff;}.cls-10{fill:#f8f8f8;}</style></defs><title>tech-feature</title><g id="Layer_2" data-name="Layer 2"><g id="Layer_1-2" data-name="Layer 1"><rect class="cls-1" width="255" height="255"/><path class="cls-2" d="M193.06,187.63H50.93L35.84,172.55V39.61L50.93,24.53H193.06l15.08,15.08V172.55Z"/><path class="cls-3" d="M204.07,187.56H63.61L48.53,172.48V39.54L63.61,24.46H204.07l15.09,15.08V172.48Z"/><polyline class="cls-4" points="65.91 82.16 65.91 48.1 73.7 40.3 107.18 40.3"/><rect class="cls-2" x="148.87" y="75.5" width="40.27" height="40.27"/><line class="cls-5" x1="152.35" y1="64.07" x2="152.35" y2="71.37"/><line class="cls-5" x1="160.68" y1="64.07" x2="160.68" y2="71.37"/><line class="cls-5" x1="169" y1="64.07" x2="169" y2="71.37"/><line class="cls-5" x1="177.33" y1="64.07" x2="177.33" y2="71.37"/><line class="cls-5" x1="185.65" y1="64.07" x2="185.65" y2="71.37"/><line class="cls-5" x1="137.44" y1="112.29" x2="144.74" y2="112.29"/><line class="cls-5" x1="137.44" y1="103.96" x2="144.74" y2="103.96"/><line class="cls-5" x1="137.44" y1="95.63" x2="144.74" y2="95.63"/><line class="cls-5" x1="137.44" y1="87.31" x2="144.74" y2="87.31"/><line class="cls-5" x1="137.44" y1="78.98" x2="144.74" y2="78.98"/><line class="cls-5" x1="185.65" y1="127.2" x2="185.65" y2="119.89"/><line class="cls-5" x1="177.33" y1="127.2" x2="177.33" y2="119.89"/><line class="cls-5" x1="169" y1="127.2" x2="169" y2="119.89"/><line class="cls-5" x1="160.68" y1="127.2" x2="160.68" y2="119.89"/><line class="cls-5" x1="152.35" y1="127.2" x2="152.35" y2="119.89"/><line class="cls-5" x1="200.57" y1="78.98" x2="193.26" y2="78.98"/><line class="cls-5" x1="200.57" y1="87.31" x2="193.26" y2="87.31"/><line class="cls-5" x1="200.57" y1="95.63" x2="193.26" y2="95.63"/><line class="cls-5" x1="200.57" y1="103.96" x2="193.26" y2="103.96"/><line class="cls-5" x1="200.57" y1="112.29" x2="193.26" y2="112.29"/><circle class="cls-3" cx="153.9" cy="80.42" r="2.64"/><circle class="cls-3" cx="184.1" cy="80.42" r="2.64"/><circle class="cls-3" cx="153.9" cy="110.73" r="2.64"/><circle class="cls-3" cx="184.1" cy="110.73" r="2.64"/><circle class="cls-2" cx="65.91" cy="82.84" r="4.01"/><circle class="cls-2" cx="92.64" cy="82.84" r="4.01"/><circle class="cls-2" cx="66.1" cy="169.81" r="4.01"/><circle class="cls-2" cx="107.18" cy="40.3" r="4.01"/><circle class="cls-2" cx="197.49" cy="40.96" r="4.01"/><circle class="cls-6" cx="65.91" cy="107.7" r="5.29"/><circle class="cls-6" cx="65.91" cy="127.2" r="5.29"/><circle class="cls-6" cx="65.91" cy="146.7" r="5.29"/><polyline class="cls-4" points="66.1 169.81 113.59 169.81 129.97 153.43 163.4 153.43 177.34 169.81 195.99 169.81"/><circle class="cls-2" cx="195.99" cy="169.81" r="4.01"/><polyline class="cls-4" points="195.99 152.25 177.34 152.25 163.4 135.87 124.64 135.87 124.64 93.82 97.74 93.82 97.74 103.05"/><circle class="cls-2" cx="195.99" cy="152.25" r="4.01"/><rect class="cls-7" x="134.58" y="164.59" width="24.21" height="8.17"/><rect class="cls-4" x="85.36" y="103.05" width="24.75" height="54.23" rx="1.92" ry="1.92"/><line class="cls-8" x1="93.61" y1="111.38" x2="101.56" y2="111.38"/><line class="cls-8" x1="93.61" y1="120.54" x2="101.56" y2="120.54"/><line class="cls-8" x1="93.61" y1="129.69" x2="101.56" y2="129.69"/><line class="cls-8" x1="93.61" y1="138.85" x2="101.56" y2="138.85"/><line class="cls-8" x1="93.61" y1="148.01" x2="101.56" y2="148.01"/><line class="cls-4" x1="133.67" y1="163.44" x2="133.67" y2="174.2"/><line class="cls-4" x1="158.78" y1="163.44" x2="158.78" y2="174.2"/><polyline class="cls-4" points="92.64 82.84 115.41 82.84 157.29 40.96 197.49 40.96"/><line class="cls-8" x1="161.28" y1="52.64" x2="200.57" y2="52.64"/><rect class="cls-7" x="78.62" y="51.04" width="10.32" height="20.37" rx="5.16" ry="5.16"/><rect class="cls-7" x="96.33" y="51.04" width="10.32" height="20.37" rx="5.16" ry="5.16"/><circle class="cls-2" cx="101.49" cy="56.53" r="4.06"/><circle class="cls-2" cx="83.78" cy="66.14" r="3.99"/><line class="cls-8" x1="141.05" y1="168.68" x2="151.59" y2="168.68"/><path class="cls-2" d="M122,57V39.05a1.1,1.1,0,0,1,1.1-1.1H141"/><line class="cls-9" x1="170.36" y1="52.64" x2="176.45" y2="52.64"/><line class="cls-9" x1="186.49" y1="52.64" x2="192.58" y2="52.64"/><ellipse class="cls-10" cx="127.88" cy="229.11" rx="91.27" ry="5"/><line class="cls-6" x1="162.21" y1="90.13" x2="175.79" y2="90.13"/><line class="cls-6" x1="162.21" y1="95.63" x2="175.79" y2="95.63"/><line class="cls-6" x1="162.21" y1="101.13" x2="175.79" y2="101.13"/></g></g></svg>