<svg xmlns="http://www.w3.org/2000/svg" viewBox="0 0 382.23 449.76"><defs><style>.cls-1{isolation:isolate;}.cls-2{fill:#fff;}.cls-3{fill:#143975;}.cls-4{fill:gray;}.cls-10,.cls-13,.cls-5{opacity:0.5;}.cls-6{fill:#31d4e0;}.cls-7{fill:none;}.cls-8{fill:#0cb0c2;}.cls-9{fill:#b2f1eb;}.cls-10,.cls-12{fill:#1a4684;}.cls-11{fill:#1b87aa;}.cls-13,.cls-18{mix-blend-mode:multiply;}.cls-14{fill:#404796;}.cls-15{fill:#83e9f0;}.cls-16{fill:#0c2b59;}.cls-17{fill:#e55ead;}.cls-18{opacity:0.1;}.cls-19{mix-blend-mode:screen;}.cls-20{fill:#0078b3;}.cls-21{fill:#a52f7e;}.cls-22{fill:#56e8d5;}.cls-23{fill:#169261;}.cls-24{fill:#3db79f;}.cls-25{fill:#46ceb7;}.cls-26{fill:#ccfcff;}.cls-27{fill:#ff7b57;}.cls-28{fill:#26d1c4;}.cls-29{fill:#007ae5;}.cls-30{fill:#3cb7f7;}.cls-31{fill:#093447;}</style></defs><title>tech-ebook-cover3</title><g class="cls-1"><g id="Layer_2" data-name="Layer 2"><g id="Layer_1-2" data-name="Layer 1"><path class="cls-2" d="M0,0H373.47a8.77,8.77,0,0,1,8.77,8.77V441a8.77,8.77,0,0,1-8.77,8.77H0a0,0,0,0,1,0,0V0A0,0,0,0,1,0,0Z"/><path class="cls-3" d="M256.73,0H373.94a8.4,8.4,0,0,1,8.29,8.5V441.26a8.39,8.39,0,0,1-8.29,8.5H256.73"/><rect class="cls-2" x="343.27" width="28.73" height="449.76"/><rect class="cls-4" x="350.42" width="2.52" height="449.76"/><rect class="cls-4" x="358.03" width="2.52" height="449.76"/><rect class="cls-4" x="365.12" width="2.52" height="449.76"/><g class="cls-5"><rect class="cls-6" width="343.13" height="449.76"/></g><polygon class="cls-7" points="15.47 305.34 15.47 89.08 0 73.64 0 322.85 15.47 305.34"/><polygon class="cls-8" points="23.98 89.08 23.98 90.91 315.44 89.08 281.47 56.48 0 56.48 0 65.14 23.98 89.08"/><path class="cls-6" d="M0,332.48v27.57H270.79v41.8h.56v-41.8c0-5.22,3.83-9.15,3.83-9.15l40.26-45.56H24Z"/><path class="cls-6" d="M25.62,34.18H0V56.49H281.47V0H41.64l-.06,18.22A16,16,0,0,1,25.62,34.18Z"/><path class="cls-6" d="M25.62,30.78A12.58,12.58,0,0,0,38.19,18.22L38.25,0H0V30.78Z"/><rect class="cls-9" y="360.05" width="270.79" height="41.8"/><polygon class="cls-10" points="0 401.85 0 402.82 271.35 415.89 271.35 401.85 270.79 401.85 0 401.85"/><polygon class="cls-3" points="0 332.45 23.96 305.34 15.47 305.34 0 322.85 0 332.45"/><polygon class="cls-3" points="0 332.45 0 332.48 23.98 305.34 23.96 305.34 0 332.45"/><polygon class="cls-11" points="0 65.68 0 73.64 15.47 89.08 15.47 305.34 23.96 305.34 23.98 305.34 23.98 90.91 23.96 90.91 0 65.68"/><polygon class="cls-11" points="0 65.14 0 65.68 23.96 90.91 23.98 90.91 23.98 89.08 0 65.14"/><path class="cls-3" d="M25.62,30.78H0v3.4H25.62a16,16,0,0,0,16-16L41.64,0H38.25l-.06,18.22A12.58,12.58,0,0,1,25.62,30.78Z"/><path class="cls-6" d="M0,449.76H85.6V423.65a5.59,5.59,0,0,1,5.59-5.59H183.5a5.57,5.57,0,0,1,3.95,1.63,5.43,5.43,0,0,1,.69.83c.1.15.19.3.28.46a5.59,5.59,0,0,1,.67,2.67v26.11h19.56V439a1,1,0,0,1,2,0v10.74h5.47V431.27a1,1,0,0,1,2,0v18.49h5.47V427.92a1,1,0,1,1,2,0v21.84H231V427.92a1,1,0,0,1,2,0v21.84h5.47V431.27a1,1,0,0,1,2,0v18.49h5.47V439a1,1,0,0,1,2,0v10.74h23.54V415.89L0,402.82Z"/><polyline class="cls-6" points="23.96 90.91 23.96 305.57 315.44 305.57 315.44 89.08"/><rect class="cls-9" x="23.98" y="303.56" width="291.46" height="1.79"/><rect class="cls-12" x="34.99" y="100" width="269.41" height="193.72" rx="11.72" ry="11.72" transform="translate(339.4 393.71) rotate(-180)"/><path class="cls-3" d="M45.73,104.69c-4.46,0-8.09,4.92-8.09,11V278c0,6.08,3.63,11,8.09,11"/><g class="cls-13"><ellipse class="cls-12" cx="99.03" cy="339.01" rx="10.07" ry="7.46" transform="translate(-122.73 64.14) rotate(-22.61)"/></g><ellipse class="cls-9" cx="98.85" cy="338.83" rx="6.42" ry="4.76" transform="translate(-122.68 64.06) rotate(-22.61)"/><g class="cls-13"><ellipse class="cls-12" cx="115.03" cy="321.61" rx="10.07" ry="7.46" transform="translate(-114.82 68.95) rotate(-22.61)"/></g><ellipse class="cls-14" cx="114.85" cy="321.43" rx="6.42" ry="4.76" transform="translate(-114.76 68.87) rotate(-22.61)"/><path class="cls-15" d="M53.11,349.19a33,33,0,0,1-11.18-1.81c-5.5-2-8.94-5.42-9.69-9.62s1.32-8.59,5.8-12.36c4.32-3.63,10.43-6.29,17.19-7.49A37.11,37.11,0,0,1,74,319c5.51,2,9,5.42,9.69,9.62s-1.31,8.59-5.8,12.36a37,37,0,0,1-17.19,7.49A42.61,42.61,0,0,1,53.11,349.19Zm9.68-29.81a41.37,41.37,0,0,0-7.18.64,34.93,34.93,0,0,0-16.19,7c-3.87,3.26-5.67,6.94-5.06,10.35s3.55,6.24,8.31,8c4.95,1.81,11.21,2.18,17.61,1s12.15-3.62,16.18-7,5.68-6.93,5.07-10.34-3.55-6.25-8.31-8A30.67,30.67,0,0,0,62.79,319.38Z"/><ellipse class="cls-12" cx="57.87" cy="333.21" rx="17.39" ry="10.05" transform="translate(-57.21 15.19) rotate(-10.04)"/><rect class="cls-16" x="55.9" y="304.57" width="3.93" height="30.22"/><circle class="cls-17" cx="57.87" cy="299.84" r="11.1"/><g class="cls-13"><ellipse class="cls-12" cx="233.48" cy="339.01" rx="10.07" ry="7.46" transform="translate(-112.4 115.83) rotate(-22.61)"/></g><ellipse class="cls-12" cx="233.4" cy="338.74" rx="6.3" ry="4.67" transform="translate(-112.3 115.78) rotate(-22.61)"/><g class="cls-13"><ellipse class="cls-12" cx="249.47" cy="321.61" rx="10.07" ry="7.46" transform="translate(-104.48 120.64) rotate(-22.61)"/></g><ellipse class="cls-9" cx="249.3" cy="321.43" rx="6.3" ry="4.67" transform="translate(-104.43 120.56) rotate(-22.61)"/><ellipse class="cls-12" cx="192.32" cy="333.21" rx="17.88" ry="10.34" transform="translate(-55.15 38.63) rotate(-10.04)"/><path class="cls-15" d="M187.48,349.19a33,33,0,0,1-11.17-1.81c-5.51-2-8.95-5.42-9.69-9.62s1.31-8.59,5.8-12.36c4.32-3.63,10.42-6.29,17.19-7.49A37.13,37.13,0,0,1,208.33,319c5.5,2,8.94,5.42,9.69,9.62s-1.32,8.59-5.8,12.36A37,37,0,0,1,195,348.51,42.72,42.72,0,0,1,187.48,349.19Zm9.68-29.81A41.45,41.45,0,0,0,190,320a34.84,34.84,0,0,0-16.18,7c-3.87,3.26-5.67,6.94-5.07,10.35s3.56,6.24,8.31,8a34.71,34.71,0,0,0,17.61,1c6.4-1.13,12.15-3.62,16.19-7,3.87-3.26,5.67-6.93,5.07-10.34s-3.56-6.25-8.32-8A30.67,30.67,0,0,0,197.16,319.38Z"/><rect class="cls-16" x="190.35" y="304.57" width="3.93" height="30.22"/><circle class="cls-9" cx="192.32" cy="299.84" r="11.1"/><g class="cls-18"><path class="cls-12" d="M266.44,350.9l40.26-45.56V89.07l-34-32.64V0h8.51V56.43l34,32.64V305.34L275,350.9a14.93,14.93,0,0,0-3.81,9.12l0,0v43.77H262.6V360.05l0,0a14.93,14.93,0,0,1,3.81-9.12"/></g><g class="cls-5"><path class="cls-3" d="M236,56.49h-3.4V42a16,16,0,0,1,16-16h33.78v3.4H248.51A12.57,12.57,0,0,0,236,42Z"/></g><path class="cls-9" d="M89.71,248.41H86.88v-1.49h7.3v1.49H91.35v7.74H89.71Z"/><path class="cls-9" d="M96.53,253.57a1.62,1.62,0,0,0,.55,1.09,1.71,1.71,0,0,0,1.14.39,1.87,1.87,0,0,0,1-.24,2.86,2.86,0,0,0,.7-.6l1.12.84a3.17,3.17,0,0,1-1.23,1,3.61,3.61,0,0,1-1.42.29,3.69,3.69,0,0,1-1.33-.24,3.2,3.2,0,0,1-1.08-.66,3.34,3.34,0,0,1-.72-1A3.25,3.25,0,0,1,95,253a3.32,3.32,0,0,1,.27-1.35,3.18,3.18,0,0,1,.72-1A3.23,3.23,0,0,1,97,250a3.91,3.91,0,0,1,1.33-.23,2.87,2.87,0,0,1,1.19.23,2.65,2.65,0,0,1,.93.65,3,3,0,0,1,.6,1.07,4.57,4.57,0,0,1,.21,1.45v.43Zm3.21-1.17a1.47,1.47,0,0,0-.43-1.09,1.59,1.59,0,0,0-1.16-.4,1.5,1.5,0,0,0-1.11.41,1.75,1.75,0,0,0-.51,1.08Z"/><path class="cls-9" d="M102.89,249.89h1.49v1h0a2.3,2.3,0,0,1,.68-.82,2,2,0,0,1,1.24-.34,2.41,2.41,0,0,1,1.06.21,2.06,2.06,0,0,1,.71.54,2,2,0,0,1,.39.79,3.46,3.46,0,0,1,.12.92v3.95H107V253c0-.17,0-.36,0-.58a2,2,0,0,0-.14-.6,1.12,1.12,0,0,0-.34-.47,1,1,0,0,0-.64-.18,1.47,1.47,0,0,0-.66.13,1.16,1.16,0,0,0-.44.35,1.54,1.54,0,0,0-.26.51,2.35,2.35,0,0,0-.07.6v3.41h-1.57Z"/><path class="cls-9" d="M113.76,251.22v-1.33h1.29v-1.81h1.56v1.81h1.72v1.33h-1.72V254a1.33,1.33,0,0,0,.18.74.76.76,0,0,0,.7.28,2.48,2.48,0,0,0,.45,0,.88.88,0,0,0,.39-.15v1.32a1.87,1.87,0,0,1-.6.16,5.27,5.27,0,0,1-.63.05,3.28,3.28,0,0,1-1-.14,1.32,1.32,0,0,1-.62-.42,1.5,1.5,0,0,1-.31-.7,4.48,4.48,0,0,1-.09-1v-2.87Z"/><path class="cls-9" d="M120.94,253.57a1.54,1.54,0,0,0,.55,1.09,1.71,1.71,0,0,0,1.13.39,1.91,1.91,0,0,0,1-.24,2.81,2.81,0,0,0,.69-.6l1.12.84a3.07,3.07,0,0,1-1.22,1,3.64,3.64,0,0,1-1.42.29,3.69,3.69,0,0,1-1.33-.24,3.11,3.11,0,0,1-1.08-.66,3.2,3.2,0,0,1-.73-1,3.42,3.42,0,0,1-.26-1.35,3.49,3.49,0,0,1,.26-1.35,3.06,3.06,0,0,1,.73-1,3.13,3.13,0,0,1,1.08-.67,3.91,3.91,0,0,1,1.33-.23A2.9,2.9,0,0,1,124,250a2.65,2.65,0,0,1,.93.65,3.15,3.15,0,0,1,.59,1.07,4.29,4.29,0,0,1,.22,1.45v.43Zm3.21-1.17a1.51,1.51,0,0,0-.43-1.09,1.6,1.6,0,0,0-1.16-.4,1.54,1.54,0,0,0-1.12.41,1.79,1.79,0,0,0-.5,1.08Z"/><path class="cls-9" d="M127.23,249.89h1.49v1h0a2.06,2.06,0,0,1,.67-.79,2,2,0,0,1,1.24-.34,1.92,1.92,0,0,1,2,1.16,2.17,2.17,0,0,1,.84-.88,2.46,2.46,0,0,1,1.21-.28,2.41,2.41,0,0,1,1.06.21,1.87,1.87,0,0,1,.7.57,2.35,2.35,0,0,1,.38.85,4.44,4.44,0,0,1,.12,1v3.73h-1.56v-3.54a2.53,2.53,0,0,0-.06-.56,1.21,1.21,0,0,0-.18-.47,1,1,0,0,0-.35-.32,1.21,1.21,0,0,0-.57-.11,1.29,1.29,0,0,0-.62.13,1.25,1.25,0,0,0-.42.37,1.29,1.29,0,0,0-.23.52,2.33,2.33,0,0,0-.08.59v3.39H131.3v-3.73a1.53,1.53,0,0,0-.25-.93.93.93,0,0,0-.82-.34,1.47,1.47,0,0,0-.66.13,1.24,1.24,0,0,0-.44.35,1.35,1.35,0,0,0-.25.51,2,2,0,0,0-.08.6v3.41h-1.57Z"/><path class="cls-9" d="M138.77,249.89h1.48v.94h0a2,2,0,0,1,.91-.83,3,3,0,0,1,1.24-.26,3.13,3.13,0,0,1,1.29.25,2.88,2.88,0,0,1,1,.7,3.17,3.17,0,0,1,.61,1,3.88,3.88,0,0,1,.21,1.29,3.65,3.65,0,0,1-.23,1.29,3.07,3.07,0,0,1-.61,1,2.9,2.9,0,0,1-1,.7,3,3,0,0,1-1.23.26,3,3,0,0,1-1.38-.33,2.61,2.61,0,0,1-.44-.31,1.79,1.79,0,0,1-.3-.32h0v3.77h-1.56ZM144,253a2.06,2.06,0,0,0-.12-.7,1.68,1.68,0,0,0-.37-.6,1.92,1.92,0,0,0-.58-.42,2,2,0,0,0-1.53,0,1.92,1.92,0,0,0-.58.42,1.68,1.68,0,0,0-.37.6,2.06,2.06,0,0,0-.12.7,2.12,2.12,0,0,0,.12.71,1.88,1.88,0,0,0,.37.6,1.74,1.74,0,0,0,.58.41,1.91,1.91,0,0,0,1.53,0,1.74,1.74,0,0,0,.58-.41,1.88,1.88,0,0,0,.37-.6A2.12,2.12,0,0,0,144,253Z"/><path class="cls-9" d="M147.13,246.3h1.57v9.85h-1.57Z"/><path class="cls-9" d="M154.53,255.29h0a1.93,1.93,0,0,1-.86.77,2.54,2.54,0,0,1-1.14.25,2.94,2.94,0,0,1-.84-.12,2.35,2.35,0,0,1-.73-.35,1.73,1.73,0,0,1-.52-.59,1.66,1.66,0,0,1-.19-.82,1.93,1.93,0,0,1,.18-.87,1.69,1.69,0,0,1,.49-.6,2.3,2.3,0,0,1,.71-.38,4.71,4.71,0,0,1,.84-.22c.29,0,.58-.07.88-.09l.83,0h.39v-.17a1,1,0,0,0-.4-.88,1.74,1.74,0,0,0-1-.29,2.32,2.32,0,0,0-.92.18,2.22,2.22,0,0,0-.75.47l-.82-.82a3.13,3.13,0,0,1,1.22-.77,4.62,4.62,0,0,1,1.44-.23,3.61,3.61,0,0,1,1.12.15,2.7,2.7,0,0,1,.76.38,1.79,1.79,0,0,1,.46.54,2.23,2.23,0,0,1,.23.62,3.33,3.33,0,0,1,.09.61c0,.19,0,.37,0,.51v3.6h-1.41Zm-.09-1.94h-.32l-.73,0a3.75,3.75,0,0,0-.77.13,1.75,1.75,0,0,0-.6.28.63.63,0,0,0-.25.53.62.62,0,0,0,.1.37.88.88,0,0,0,.25.26,1.09,1.09,0,0,0,.35.15,1.81,1.81,0,0,0,.4,0,1.62,1.62,0,0,0,1.19-.38,1.45,1.45,0,0,0,.38-1.05Z"/><path class="cls-9" d="M157,251.22v-1.33h1.29v-1.81h1.57v1.81h1.72v1.33h-1.72V254a1.33,1.33,0,0,0,.17.74.76.76,0,0,0,.7.28,2.68,2.68,0,0,0,.46,0,1,1,0,0,0,.39-.15v1.32a2,2,0,0,1-.61.16,5.27,5.27,0,0,1-.63.05,3.17,3.17,0,0,1-1-.14,1.3,1.3,0,0,1-.63-.42,1.5,1.5,0,0,1-.31-.7,4.48,4.48,0,0,1-.09-1v-2.87Z"/><path class="cls-9" d="M164.2,253.57a1.58,1.58,0,0,0,.55,1.09,1.71,1.71,0,0,0,1.13.39,1.91,1.91,0,0,0,1-.24,2.81,2.81,0,0,0,.69-.6l1.12.84a3.07,3.07,0,0,1-1.22,1,3.64,3.64,0,0,1-1.42.29,3.69,3.69,0,0,1-1.33-.24,3.11,3.11,0,0,1-1.08-.66,3,3,0,0,1-.72-1,3.25,3.25,0,0,1-.27-1.35,3.32,3.32,0,0,1,.27-1.35,2.9,2.9,0,0,1,.72-1,3.13,3.13,0,0,1,1.08-.67,3.91,3.91,0,0,1,1.33-.23,2.9,2.9,0,0,1,1.19.23,2.65,2.65,0,0,1,.93.65,3.35,3.35,0,0,1,.6,1.07,4.57,4.57,0,0,1,.21,1.45v.43Zm3.21-1.17a1.47,1.47,0,0,0-.43-1.09,1.6,1.6,0,0,0-1.16-.4,1.54,1.54,0,0,0-1.12.41,1.79,1.79,0,0,0-.5,1.08Z"/><path class="cls-9" d="M173.9,251.63a1.44,1.44,0,0,0-1.23-.64,1.24,1.24,0,0,0-.61.16.52.52,0,0,0-.3.5.43.43,0,0,0,.25.42,2.46,2.46,0,0,0,.62.22l.82.19a3.56,3.56,0,0,1,.81.3,2,2,0,0,1,.63.55,2,2,0,0,1,0,1.91,1.84,1.84,0,0,1-.62.62,2.77,2.77,0,0,1-.87.34,4.49,4.49,0,0,1-1,.11,4.05,4.05,0,0,1-1.34-.21,2.52,2.52,0,0,1-1.1-.76l1-1a3.07,3.07,0,0,0,.65.56,1.59,1.59,0,0,0,.84.21,1.45,1.45,0,0,0,.35,0,1,1,0,0,0,.34-.13.76.76,0,0,0,.25-.22.53.53,0,0,0,.1-.32.54.54,0,0,0-.25-.49,2.42,2.42,0,0,0-.62-.25c-.25-.06-.53-.13-.82-.18a3.1,3.1,0,0,1-.81-.28,1.76,1.76,0,0,1-.63-.52,1.61,1.61,0,0,1-.24-.94,1.88,1.88,0,0,1,.21-.91,1.91,1.91,0,0,1,.57-.63,2.3,2.3,0,0,1,.81-.36,3.57,3.57,0,0,1,.92-.12A3.8,3.8,0,0,1,174,250a2,2,0,0,1,1,.74Z"/><path class="cls-9" d="M181,251.22h-1.29v-1.33H181V249a6,6,0,0,1,.1-1.18,2.36,2.36,0,0,1,.34-.91,1.7,1.7,0,0,1,.71-.58,3.07,3.07,0,0,1,1.19-.2,5.21,5.21,0,0,1,1,.09l-.11,1.33-.32-.06a1.84,1.84,0,0,0-.33,0,1.09,1.09,0,0,0-.52.11.76.76,0,0,0-.31.28,1,1,0,0,0-.14.41,3.79,3.79,0,0,0,0,.49v1.13H184v1.33h-1.44v4.93H181Z"/><path class="cls-9" d="M184.87,253a3.32,3.32,0,0,1,.27-1.35,2.9,2.9,0,0,1,.72-1,3.13,3.13,0,0,1,1.08-.67,4,4,0,0,1,2.66,0,3.13,3.13,0,0,1,1.08.67,3,3,0,0,1,.72,1,3.32,3.32,0,0,1,.27,1.35,3.25,3.25,0,0,1-.27,1.35,3.18,3.18,0,0,1-.72,1,3.11,3.11,0,0,1-1.08.66,3.81,3.81,0,0,1-2.66,0,3.11,3.11,0,0,1-1.08-.66,3,3,0,0,1-.72-1A3.25,3.25,0,0,1,184.87,253Zm1.56,0a1.9,1.9,0,0,0,.13.71,1.85,1.85,0,0,0,.36.6,1.9,1.9,0,0,0,2.12.41,1.71,1.71,0,0,0,.94-1,1.9,1.9,0,0,0,.13-.71,1.85,1.85,0,0,0-.13-.7,1.66,1.66,0,0,0-.36-.6,2.06,2.06,0,0,0-.58-.42,2.05,2.05,0,0,0-1.54,0,1.92,1.92,0,0,0-.58.42,1.66,1.66,0,0,0-.36.6A1.85,1.85,0,0,0,186.43,253Z"/><path class="cls-9" d="M193.26,249.89h1.56v1h0a1.93,1.93,0,0,1,.74-.85,2.05,2.05,0,0,1,1.11-.3l.28,0,.28.07v1.51l-.38-.08a2.46,2.46,0,0,0-.37,0,1.61,1.61,0,0,0-.88.21,1.36,1.36,0,0,0-.51.46,1.52,1.52,0,0,0-.24.52,1.85,1.85,0,0,0-.06.39v3.35h-1.56Z"/><path class="cls-9" d="M202.45,246.3H204v4.39h0a2.86,2.86,0,0,1,.3-.32,2.61,2.61,0,0,1,.44-.31,3.26,3.26,0,0,1,.6-.23,3.1,3.1,0,0,1,.78-.09,2.94,2.94,0,0,1,1.23.25,2.9,2.9,0,0,1,1,.7,3.38,3.38,0,0,1,.62,1,4,4,0,0,1,0,2.58,3.07,3.07,0,0,1-.61,1,2.88,2.88,0,0,1-1,.7,3.13,3.13,0,0,1-1.29.26,3,3,0,0,1-1.24-.26,2,2,0,0,1-.91-.84h0v.94h-1.48Zm5.18,6.72a2.06,2.06,0,0,0-.12-.7,1.68,1.68,0,0,0-.37-.6,1.92,1.92,0,0,0-.58-.42,2,2,0,0,0-1.53,0,1.92,1.92,0,0,0-.58.42,1.68,1.68,0,0,0-.37.6,2.06,2.06,0,0,0-.12.7,2.12,2.12,0,0,0,.12.71,1.88,1.88,0,0,0,.37.6,1.74,1.74,0,0,0,.58.41,1.91,1.91,0,0,0,1.53,0,1.74,1.74,0,0,0,.58-.41,1.88,1.88,0,0,0,.37-.6A2.12,2.12,0,0,0,207.63,253Z"/><path class="cls-9" d="M216.49,256.15H215v-1h0a2.17,2.17,0,0,1-.68.81,2,2,0,0,1-1.23.35,2.49,2.49,0,0,1-1.07-.21,1.92,1.92,0,0,1-.71-.54,2.25,2.25,0,0,1-.39-.79,4.08,4.08,0,0,1-.11-.93v-4h1.56v3.17c0,.18,0,.37,0,.58a2,2,0,0,0,.13.6,1.24,1.24,0,0,0,.34.47,1,1,0,0,0,.65.19,1.39,1.39,0,0,0,.65-.13,1.43,1.43,0,0,0,.45-.35,1.35,1.35,0,0,0,.25-.51,2.35,2.35,0,0,0,.08-.6v-3.42h1.56Z"/><path class="cls-9" d="M218.2,247.77a.9.9,0,0,1,.28-.66,1,1,0,0,1,.71-.28,1,1,0,0,1,.72.27.9.9,0,0,1,0,1.34,1,1,0,0,1-.72.27,1,1,0,0,1-.71-.28A.9.9,0,0,1,218.2,247.77Zm.22,2.12H220v6.26h-1.57Z"/><path class="cls-9" d="M221.94,246.3h1.56v9.85h-1.56Z"/><path class="cls-9" d="M230.38,255.21h0a2.1,2.1,0,0,1-.91.84,3.06,3.06,0,0,1-1.24.26,3.14,3.14,0,0,1-1.3-.26,2.84,2.84,0,0,1-1-.7,2.92,2.92,0,0,1-.61-1,3.88,3.88,0,0,1-.21-1.29,3.64,3.64,0,0,1,.22-1.29,3.38,3.38,0,0,1,.62-1,2.8,2.8,0,0,1,1-.7,2.9,2.9,0,0,1,1.22-.25,3.12,3.12,0,0,1,.79.09,2.9,2.9,0,0,1,.59.23,2.35,2.35,0,0,1,.45.31,2.86,2.86,0,0,1,.3.32h0V246.3h1.56v9.85h-1.49Zm-3.7-2.19a1.9,1.9,0,0,0,.13.71,1.71,1.71,0,0,0,.94,1,1.87,1.87,0,0,0,2.12-.41,1.85,1.85,0,0,0,.36-.6,1.9,1.9,0,0,0,.13-.71,1.85,1.85,0,0,0-.13-.7,1.66,1.66,0,0,0-.36-.6,1.92,1.92,0,0,0-.58-.42,2.05,2.05,0,0,0-1.54,0,2.06,2.06,0,0,0-.58.42,1.66,1.66,0,0,0-.36.6A1.85,1.85,0,0,0,226.68,253Z"/><path class="cls-9" d="M233.58,247.77a.9.9,0,0,1,.28-.66,1,1,0,0,1,.71-.28,1,1,0,0,1,.72.27.92.92,0,0,1,0,1.34,1,1,0,0,1-.72.27.93.93,0,0,1-.71-.28A.9.9,0,0,1,233.58,247.77Zm.22,2.12h1.56v6.26H233.8Z"/><path class="cls-9" d="M237.29,249.89h1.49v1h0a2.3,2.3,0,0,1,.68-.82,2,2,0,0,1,1.24-.34,2.44,2.44,0,0,1,1.06.21,2.06,2.06,0,0,1,.71.54,2.17,2.17,0,0,1,.39.79,3.46,3.46,0,0,1,.12.92v3.95h-1.57V253c0-.17,0-.36,0-.58a2,2,0,0,0-.14-.6,1.21,1.21,0,0,0-.34-.47,1,1,0,0,0-.64-.18,1.47,1.47,0,0,0-.66.13,1.09,1.09,0,0,0-.44.35,1.37,1.37,0,0,0-.26.51,2.35,2.35,0,0,0-.08.6v3.41h-1.56Z"/><path class="cls-9" d="M251.34,249.89v5.7a5.24,5.24,0,0,1-.21,1.53,2.86,2.86,0,0,1-1.75,1.9,4.37,4.37,0,0,1-1.57.26,6.34,6.34,0,0,1-1.66-.22,3.71,3.71,0,0,1-1.44-.81l.93-1.28a4,4,0,0,0,1,.67,2.87,2.87,0,0,0,1.17.23,2.42,2.42,0,0,0,1-.16,1.44,1.44,0,0,0,.61-.43,1.74,1.74,0,0,0,.33-.65,3.85,3.85,0,0,0,.09-.86v-.45h0a2.12,2.12,0,0,1-.9.68,3.11,3.11,0,0,1-2.42,0,2.91,2.91,0,0,1-1-.68,3.13,3.13,0,0,1-.63-1,3.42,3.42,0,0,1-.22-1.25,3.88,3.88,0,0,1,.21-1.29,3,3,0,0,1,.61-1,2.84,2.84,0,0,1,1-.7,3.14,3.14,0,0,1,1.3-.25,3,3,0,0,1,1.23.26,2,2,0,0,1,.92.83h0v-.94ZM248,251.15a2,2,0,0,0-.75.13,1.67,1.67,0,0,0-.58.38,1.71,1.71,0,0,0-.38.59,2.06,2.06,0,0,0-.14.76,1.78,1.78,0,0,0,.14.7,1.88,1.88,0,0,0,.38.58,2,2,0,0,0,.59.39,1.94,1.94,0,0,0,.73.14,2.07,2.07,0,0,0,.77-.14,1.9,1.9,0,0,0,.59-.39,1.52,1.52,0,0,0,.37-.58,1.93,1.93,0,0,0,.13-.73,1.71,1.71,0,0,0-1.85-1.83Z"/><path class="cls-9" d="M106.29,270.93h0a2,2,0,0,1-.86.77,2.64,2.64,0,0,1-1.14.24,3.34,3.34,0,0,1-.84-.11,2.17,2.17,0,0,1-.73-.36,1.7,1.7,0,0,1-.52-.58,1.68,1.68,0,0,1-.19-.82,1.93,1.93,0,0,1,.18-.87,1.69,1.69,0,0,1,.49-.6,2.3,2.3,0,0,1,.71-.38,4.71,4.71,0,0,1,.84-.22,6.4,6.4,0,0,1,.88-.09l.83,0h.39v-.17a1,1,0,0,0-.4-.88,1.74,1.74,0,0,0-1-.29,2.51,2.51,0,0,0-.92.17,2.41,2.41,0,0,0-.75.48l-.82-.82a3.09,3.09,0,0,1,1.22-.77,4.34,4.34,0,0,1,1.44-.23,3.61,3.61,0,0,1,1.12.15,2.46,2.46,0,0,1,.76.38,1.79,1.79,0,0,1,.46.54,2.12,2.12,0,0,1,.23.62,3.33,3.33,0,0,1,.09.61c0,.19,0,.36,0,.51v3.6h-1.41ZM106.2,269h-.32l-.73,0a4.59,4.59,0,0,0-.77.12,2,2,0,0,0-.6.29.7.7,0,0,0-.15.9.75.75,0,0,0,.25.25,1.05,1.05,0,0,0,.36.15,1.31,1.31,0,0,0,.39,0,1.67,1.67,0,0,0,1.19-.38,1.45,1.45,0,0,0,.38-1.05Z"/><path class="cls-9" d="M112.77,266.86v-1.33h1.29v-1.81h1.56v1.81h1.72v1.33h-1.72v2.74a1.33,1.33,0,0,0,.18.74.78.78,0,0,0,.7.27,2.42,2.42,0,0,0,.45,0,.88.88,0,0,0,.39-.15v1.31a1.86,1.86,0,0,1-.6.17,5.06,5.06,0,0,1-.63,0,3.31,3.31,0,0,1-1-.13,1.4,1.4,0,0,1-.62-.42,1.67,1.67,0,0,1-.32-.7,5.47,5.47,0,0,1-.08-1v-2.87Z"/><path class="cls-9" d="M120,269.21a1.54,1.54,0,0,0,.55,1.09,1.71,1.71,0,0,0,1.13.39,1.85,1.85,0,0,0,1-.24,2.69,2.69,0,0,0,.7-.6l1.12.84a3.16,3.16,0,0,1-1.22,1,3.63,3.63,0,0,1-1.42.28,3.91,3.91,0,0,1-1.33-.23,3.13,3.13,0,0,1-1.08-.67,3.06,3.06,0,0,1-.73-1,3.49,3.49,0,0,1-.26-1.35,3.42,3.42,0,0,1,.26-1.35,3.2,3.2,0,0,1,.73-1,3.27,3.27,0,0,1,1.08-.66,3.68,3.68,0,0,1,1.33-.23,3.07,3.07,0,0,1,1.19.22,2.55,2.55,0,0,1,.92.66,3,3,0,0,1,.6,1.06,4.35,4.35,0,0,1,.22,1.46v.43Zm3.21-1.18a1.48,1.48,0,0,0-.43-1.08,1.6,1.6,0,0,0-1.16-.4,1.54,1.54,0,0,0-1.12.4A1.82,1.82,0,0,0,120,268Z"/><path class="cls-9" d="M130.58,267.41A2.68,2.68,0,0,0,130,267a1.25,1.25,0,0,0-.61-.17,1.71,1.71,0,0,0-.77.16,1.63,1.63,0,0,0-.58.42,1.84,1.84,0,0,0-.37.6,2.1,2.1,0,0,0,0,1.4,1.84,1.84,0,0,0,.37.6,1.63,1.63,0,0,0,.58.42,1.86,1.86,0,0,0,.77.16,1.5,1.5,0,0,0,.67-.15,1.52,1.52,0,0,0,.54-.44l1,1.12a2.17,2.17,0,0,1-.54.4,3.11,3.11,0,0,1-.62.28,3.76,3.76,0,0,1-.6.15,3.1,3.1,0,0,1-.49,0,3.91,3.91,0,0,1-1.33-.23A3.13,3.13,0,0,1,127,271a3.06,3.06,0,0,1-.73-1,3.32,3.32,0,0,1-.26-1.35,3.25,3.25,0,0,1,.26-1.35,3.2,3.2,0,0,1,.73-1,3.27,3.27,0,0,1,1.08-.66,3.68,3.68,0,0,1,1.33-.23,3.39,3.39,0,0,1,1.2.22,2.77,2.77,0,0,1,1.06.73Z"/><path class="cls-9" d="M134.28,266.4h0a1.92,1.92,0,0,1,.64-.71,2.1,2.1,0,0,1,1.2-.31,2.6,2.6,0,0,1,1.06.2,2.08,2.08,0,0,1,.71.55,2.2,2.2,0,0,1,.39.78,3.59,3.59,0,0,1,.12.93v4h-1.57v-3.17c0-.17,0-.37,0-.58a2.39,2.39,0,0,0-.14-.6,1.14,1.14,0,0,0-.34-.47,1,1,0,0,0-.64-.19,1.62,1.62,0,0,0-.66.13,1.29,1.29,0,0,0-.44.35,1.37,1.37,0,0,0-.26.51,2.35,2.35,0,0,0-.08.6v3.42h-1.56v-9.85h1.56Z"/><path class="cls-9" d="M140.33,265.53h1.49v1h0a2.13,2.13,0,0,1,.68-.82,2,2,0,0,1,1.24-.34,2.6,2.6,0,0,1,1.06.2,2.08,2.08,0,0,1,.71.55,2.2,2.2,0,0,1,.39.78,3.59,3.59,0,0,1,.12.93v4h-1.57v-3.17c0-.17,0-.37,0-.58a2.39,2.39,0,0,0-.14-.6A1.14,1.14,0,0,0,144,267a1,1,0,0,0-.64-.19,1.62,1.62,0,0,0-.66.13,1.29,1.29,0,0,0-.44.35,1.37,1.37,0,0,0-.26.51,2.35,2.35,0,0,0-.08.6v3.42h-1.56Z"/><path class="cls-9" d="M147.63,268.66a3.42,3.42,0,0,1,.26-1.35,3.2,3.2,0,0,1,.73-1,3.27,3.27,0,0,1,1.08-.66,4,4,0,0,1,2.66,0,3.48,3.48,0,0,1,1.08.66,3.34,3.34,0,0,1,.72,1,3.25,3.25,0,0,1,.27,1.35,3.32,3.32,0,0,1-.27,1.35,3.18,3.18,0,0,1-.72,1,3.33,3.33,0,0,1-1.08.67,4,4,0,0,1-2.66,0,3.13,3.13,0,0,1-1.08-.67,3.06,3.06,0,0,1-.73-1A3.49,3.49,0,0,1,147.63,268.66Zm1.56,0a2.06,2.06,0,0,0,.12.7,1.84,1.84,0,0,0,.37.6,1.63,1.63,0,0,0,.58.42,1.86,1.86,0,0,0,.77.16,1.93,1.93,0,0,0,.77-.16,1.73,1.73,0,0,0,.58-.42,1.66,1.66,0,0,0,.36-.6,1.95,1.95,0,0,0,0-1.4,1.66,1.66,0,0,0-.36-.6,1.73,1.73,0,0,0-.58-.42,1.77,1.77,0,0,0-.77-.16,1.71,1.71,0,0,0-.77.16,1.63,1.63,0,0,0-.58.42,1.84,1.84,0,0,0-.37.6A2.06,2.06,0,0,0,149.19,268.66Z"/><path class="cls-9" d="M156,261.94h1.57v9.85H156Z"/><path class="cls-9" d="M159.22,268.66a3.25,3.25,0,0,1,.27-1.35,3.34,3.34,0,0,1,.72-1,3.42,3.42,0,0,1,1.09-.66,3.93,3.93,0,0,1,2.65,0,3.42,3.42,0,0,1,1.09.66,3.34,3.34,0,0,1,.72,1,3.25,3.25,0,0,1,.27,1.35,3.32,3.32,0,0,1-.27,1.35,3.18,3.18,0,0,1-.72,1,3.27,3.27,0,0,1-1.09.67,3.93,3.93,0,0,1-2.65,0,3.27,3.27,0,0,1-1.09-.67,3.18,3.18,0,0,1-.72-1A3.32,3.32,0,0,1,159.22,268.66Zm1.57,0a2.06,2.06,0,0,0,.12.7,1.68,1.68,0,0,0,.37.6,1.63,1.63,0,0,0,.58.42,1.91,1.91,0,0,0,1.53,0A1.63,1.63,0,0,0,164,270a1.68,1.68,0,0,0,.37-.6,2.1,2.1,0,0,0,0-1.4,1.68,1.68,0,0,0-.37-.6,1.63,1.63,0,0,0-.58-.42,1.91,1.91,0,0,0-1.53,0,1.63,1.63,0,0,0-.58.42,1.68,1.68,0,0,0-.37.6A2.06,2.06,0,0,0,160.79,268.66Z"/><path class="cls-9" d="M174.05,265.53v5.7a5.24,5.24,0,0,1-.21,1.53,2.78,2.78,0,0,1-1.74,1.89,4.19,4.19,0,0,1-1.58.26,5.93,5.93,0,0,1-1.65-.22,3.62,3.62,0,0,1-1.45-.81l.94-1.27a3.76,3.76,0,0,0,1,.66,2.69,2.69,0,0,0,1.17.24,2.56,2.56,0,0,0,.94-.16,1.47,1.47,0,0,0,.94-1.09,3.2,3.2,0,0,0,.1-.85V271h0a2,2,0,0,1-.9.69,3,3,0,0,1-1.14.22,3,3,0,0,1-2.26-.93,3,3,0,0,1-.64-1,3.69,3.69,0,0,1-.22-1.25,3.88,3.88,0,0,1,.21-1.29,2.91,2.91,0,0,1,1.58-1.74,3.14,3.14,0,0,1,1.3-.25,2.87,2.87,0,0,1,1.24.26,2,2,0,0,1,.91.83h0v-.94Zm-3.33,1.25a2.06,2.06,0,0,0-.76.14,1.77,1.77,0,0,0-.58.38,1.67,1.67,0,0,0-.38.58,2.11,2.11,0,0,0-.13.77,1.82,1.82,0,0,0,.13.7,1.61,1.61,0,0,0,.39.57,1.65,1.65,0,0,0,.58.39,1.8,1.8,0,0,0,.73.15,1.94,1.94,0,0,0,.78-.15,1.71,1.71,0,0,0,.59-.38,1.65,1.65,0,0,0,.37-.58,2.2,2.2,0,0,0,.13-.73,1.83,1.83,0,0,0-.5-1.33A1.79,1.79,0,0,0,170.72,266.78Z"/><path class="cls-9" d="M175.11,265.53h1.72l1.74,4.34h0l1.56-4.34h1.63l-2.95,7.6a5,5,0,0,1-.38.77,2,2,0,0,1-.47.56,1.62,1.62,0,0,1-.65.34,2.88,2.88,0,0,1-.89.11,4.81,4.81,0,0,1-1.2-.15l.2-1.41.38.11a1.92,1.92,0,0,0,.41.05,1.65,1.65,0,0,0,.48-.06.77.77,0,0,0,.34-.16.82.82,0,0,0,.22-.29,2.78,2.78,0,0,0,.2-.42l.3-.74Z"/><path class="cls-9" d="M186.84,265.53h1.56v1h0a2,2,0,0,1,.74-.84,2.05,2.05,0,0,1,1.11-.3,1.32,1.32,0,0,1,.28,0l.28.07V267l-.39-.09a2.31,2.31,0,0,0-.37,0,1.74,1.74,0,0,0-.88.2,1.66,1.66,0,0,0-.51.47,1.6,1.6,0,0,0-.23.52,1.85,1.85,0,0,0-.06.39v3.35h-1.56Z"/><path class="cls-9" d="M191.72,268.66a3.25,3.25,0,0,1,.27-1.35,3.34,3.34,0,0,1,.72-1,3.48,3.48,0,0,1,1.08-.66,3.68,3.68,0,0,1,1.33-.23,3.65,3.65,0,0,1,1.33.23,3.27,3.27,0,0,1,1.08.66,3.2,3.2,0,0,1,.73,1,3.25,3.25,0,0,1,.26,1.35,3.32,3.32,0,0,1-.26,1.35,3.06,3.06,0,0,1-.73,1,3.13,3.13,0,0,1-1.08.67,3.87,3.87,0,0,1-1.33.23,3.91,3.91,0,0,1-1.33-.23,3.33,3.33,0,0,1-1.08-.67,3.18,3.18,0,0,1-.72-1A3.32,3.32,0,0,1,191.72,268.66Zm1.57,0a2.06,2.06,0,0,0,.12.7,1.66,1.66,0,0,0,.36.6,1.83,1.83,0,0,0,.58.42,1.93,1.93,0,0,0,.77.16,1.86,1.86,0,0,0,.77-.16,1.63,1.63,0,0,0,.58-.42,1.84,1.84,0,0,0,.37-.6,2.1,2.1,0,0,0,0-1.4,1.84,1.84,0,0,0-.37-.6,1.63,1.63,0,0,0-.58-.42,1.71,1.71,0,0,0-.77-.16,1.77,1.77,0,0,0-.77.16,1.83,1.83,0,0,0-.58.42,1.66,1.66,0,0,0-.36.6A2.06,2.06,0,0,0,193.29,268.66Z"/><path class="cls-9" d="M204,270.93h0a2,2,0,0,1-.86.77,2.68,2.68,0,0,1-1.14.24,3.34,3.34,0,0,1-.84-.11,2.17,2.17,0,0,1-.73-.36,1.7,1.7,0,0,1-.52-.58,1.68,1.68,0,0,1-.19-.82,1.93,1.93,0,0,1,.18-.87,1.69,1.69,0,0,1,.49-.6,2.3,2.3,0,0,1,.71-.38,4.71,4.71,0,0,1,.84-.22,6.4,6.4,0,0,1,.88-.09l.83,0H204v-.17a1,1,0,0,0-.4-.88,1.74,1.74,0,0,0-1-.29,2.51,2.51,0,0,0-.92.17,2.41,2.41,0,0,0-.75.48l-.82-.82a3,3,0,0,1,1.22-.77,4.34,4.34,0,0,1,1.44-.23,3.61,3.61,0,0,1,1.12.15,2.46,2.46,0,0,1,.76.38,1.79,1.79,0,0,1,.46.54,2.12,2.12,0,0,1,.23.62,3.33,3.33,0,0,1,.09.61c0,.19,0,.36,0,.51v3.6H204Zm-.09-1.95h-.32l-.73,0a4.59,4.59,0,0,0-.77.12,2,2,0,0,0-.6.29.7.7,0,0,0-.15.9.75.75,0,0,0,.25.25,1.09,1.09,0,0,0,.35.15,1.41,1.41,0,0,0,.4,0,1.67,1.67,0,0,0,1.19-.38,1.45,1.45,0,0,0,.38-1.05Z"/><path class="cls-9" d="M212.19,270.85h0a2,2,0,0,1-.91.83,2.9,2.9,0,0,1-1.24.26,3.14,3.14,0,0,1-1.3-.25,2.84,2.84,0,0,1-1-.7,2.92,2.92,0,0,1-.61-1,3.88,3.88,0,0,1-.21-1.29,3.64,3.64,0,0,1,.22-1.29,3.09,3.09,0,0,1,.62-1,2.71,2.71,0,0,1,1-.7,2.9,2.9,0,0,1,1.22-.25,3,3,0,0,1,.78.09,2.78,2.78,0,0,1,.6.23,2.35,2.35,0,0,1,.45.31,2.2,2.2,0,0,1,.3.32h0v-4.39h1.56v9.85h-1.49Zm-3.7-2.19a1.85,1.85,0,0,0,.13.7,1.66,1.66,0,0,0,.36.6,1.73,1.73,0,0,0,.58.42,1.93,1.93,0,0,0,1.54,0,1.73,1.73,0,0,0,.58-.42,1.66,1.66,0,0,0,.36-.6,1.95,1.95,0,0,0,0-1.4,1.66,1.66,0,0,0-.36-.6,1.84,1.84,0,0,0-2.7,0,1.66,1.66,0,0,0-.36.6A1.85,1.85,0,0,0,208.49,268.66Z"/><path class="cls-9" d="M215.52,265.53H217v1h0a2.07,2.07,0,0,1,.67-.79,2,2,0,0,1,1.24-.34,1.89,1.89,0,0,1,2,1.16,2.13,2.13,0,0,1,.85-.88,2.41,2.41,0,0,1,1.21-.28,2.52,2.52,0,0,1,1,.2,1.81,1.81,0,0,1,.7.58,2.2,2.2,0,0,1,.38.85,4.44,4.44,0,0,1,.12,1.05v3.73h-1.56v-3.55a3.31,3.31,0,0,0-.05-.55,1.33,1.33,0,0,0-.19-.47.84.84,0,0,0-.35-.32,1.2,1.2,0,0,0-.57-.12,1.29,1.29,0,0,0-.62.14,1.22,1.22,0,0,0-.42.36,1.58,1.58,0,0,0-.23.53,2.32,2.32,0,0,0-.07.59v3.39h-1.57v-3.73a1.53,1.53,0,0,0-.25-.93.93.93,0,0,0-.82-.35,1.53,1.53,0,0,0-.65.13,1.43,1.43,0,0,0-.45.35,1.52,1.52,0,0,0-.25.51,2.35,2.35,0,0,0-.08.6v3.42h-1.56Z"/><path class="cls-9" d="M231,270.93h0a2,2,0,0,1-.86.77,2.72,2.72,0,0,1-1.15.24,3.46,3.46,0,0,1-.84-.11,2.26,2.26,0,0,1-.73-.36,1.78,1.78,0,0,1-.51-.58,1.69,1.69,0,0,1-.2-.82,1.75,1.75,0,0,1,.67-1.47,2.42,2.42,0,0,1,.71-.38,4.71,4.71,0,0,1,.84-.22,6.56,6.56,0,0,1,.88-.09l.84,0H231v-.17a1,1,0,0,0-.41-.88,1.74,1.74,0,0,0-1-.29,2.55,2.55,0,0,0-.92.17,2.25,2.25,0,0,0-.74.48l-.82-.82a3,3,0,0,1,1.21-.77,4.43,4.43,0,0,1,1.44-.23,3.57,3.57,0,0,1,1.12.15,2.35,2.35,0,0,1,.76.38,1.79,1.79,0,0,1,.46.54,2.48,2.48,0,0,1,.24.62,3.3,3.3,0,0,1,.08.61c0,.19,0,.36,0,.51v3.6H231Zm-.09-1.95h-.33l-.73,0a4.47,4.47,0,0,0-.76.12,2,2,0,0,0-.61.29.64.64,0,0,0-.24.53.7.7,0,0,0,.09.37.78.78,0,0,0,.26.25,1,1,0,0,0,.35.15,1.31,1.31,0,0,0,.39,0,1.63,1.63,0,0,0,1.19-.38,1.42,1.42,0,0,0,.39-1.05Z"/><path class="cls-9" d="M234.18,265.53h1.48v.94h0a2,2,0,0,1,.91-.83,2.87,2.87,0,0,1,1.24-.26,3.13,3.13,0,0,1,1.29.25,2.88,2.88,0,0,1,1,.7,3.07,3.07,0,0,1,.61,1,3.88,3.88,0,0,1,.21,1.29,3.65,3.65,0,0,1-.23,1.29,3.07,3.07,0,0,1-.61,1,2.9,2.9,0,0,1-1,.7,2.94,2.94,0,0,1-1.23.25,3.1,3.1,0,0,1-.78-.09,3.26,3.26,0,0,1-.6-.23,2.61,2.61,0,0,1-.44-.31,2.2,2.2,0,0,1-.3-.32h0v3.77h-1.56Zm5.18,3.13a2.06,2.06,0,0,0-.12-.7,1.68,1.68,0,0,0-.37-.6,1.63,1.63,0,0,0-.58-.42,1.91,1.91,0,0,0-1.53,0,1.63,1.63,0,0,0-.58.42,1.68,1.68,0,0,0-.37.6,2.1,2.1,0,0,0,0,1.4,1.68,1.68,0,0,0,.37.6,1.63,1.63,0,0,0,.58.42,1.91,1.91,0,0,0,1.53,0,1.63,1.63,0,0,0,.58-.42,1.68,1.68,0,0,0,.37-.6A2.06,2.06,0,0,0,239.36,268.66Z"/><path class="cls-3" d="M122.64,153.62H58.08a1.55,1.55,0,0,0-1.34,1.52v7.43a1.28,1.28,0,0,0,1.34,1.24h64.56c.62,0,1-.43,1-1.24v-7.43C123.67,154.33,123.26,153.62,122.64,153.62Z"/><rect class="cls-17" x="56.74" y="107.38" width="66.93" height="17.94"/><path class="cls-17" d="M58.87,163.79h-1a1.32,1.32,0,0,1-1.13-1.44V155a1.31,1.31,0,0,1,1.13-1.44h1"/><path class="cls-3" d="M203,134.64H138.39a1.55,1.55,0,0,0-1.35,1.52v7.43a1.29,1.29,0,0,0,1.35,1.24H203c.62,0,1-.43,1-1.24v-7.43C204,135.35,203.57,134.64,203,134.64Z"/><g class="cls-19"><rect class="cls-20" x="137.21" y="107.58" width="66.92" height="17.7"/></g><g class="cls-19"><g class="cls-19"><path class="cls-20" d="M139.18,144.81h-1a1.31,1.31,0,0,1-1.14-1.44v-7.31a1.31,1.31,0,0,1,1.14-1.44h1"/></g></g><rect class="cls-12" x="150.5" y="115.01" width="40.33" height="2.97"/><rect class="cls-21" x="70.08" y="115.01" width="40.33" height="2.97"/><rect class="cls-17" x="63.33" y="136.22" width="1.34" height="1.34"/><rect class="cls-17" x="70.3" y="136.22" width="1.34" height="1.34"/><path class="cls-17" d="M66,145.6H64.68v1.34h1.83V145.6m5.13,0v-1.34H73v1.33h1.34v-4H73v-1.38H71.64V138.9H70.3v-1.34H69v1.34H66v-1.34H64.67v1.34H63.33v1.34H62v1.39H60.65v4.08H62v-1.45h1.34v1.34m5.19,0v1.34h1.79V145.6H69.25m-5.91,0h1.33v-1.34H70.3v1.34h1m-5.32-4H64.67v-1.34H66Zm4.28,0H69v-1.34H70.3Z"/><rect class="cls-17" x="86.05" y="136.22" width="1.34" height="1.34"/><rect class="cls-17" x="93.02" y="136.22" width="1.34" height="1.34"/><path class="cls-17" d="M88.73,145.6H87.39v1.34h1.83V145.6m5.14,0v-1.34H95.7v1.33H97v-4H95.7v-1.38H94.36V138.9H93v-1.34H91.68v1.34h-3v-1.34H87.39v1.34H86.05v1.34H84.71v1.39H83.37v4.08h1.34v-1.45h1.34v1.34m5.19,0v1.34H93V145.6H92m-5.91,0h1.33v-1.34H93v1.34h1m-5.33-4H87.39v-1.34h1.34Zm4.29,0H91.68v-1.34H93Z"/><rect class="cls-17" x="108.76" y="136.22" width="1.34" height="1.34"/><rect class="cls-17" x="115.73" y="136.22" width="1.34" height="1.34"/><path class="cls-17" d="M111.44,145.6h-1.33v1.34h1.83V145.6m5.13,0v-1.34h1.34v1.33h1.34v-4h-1.34v-1.38h-1.34V138.9h-1.34v-1.34h-1.34v1.34h-3v-1.34H110.1v1.34h-1.34v1.34h-1.34v1.39h-1.34v4.08h1.34v-1.45h1.34v1.34m5.19,0v1.34h1.79V145.6h-1.06m-5.91,0h1.33v-1.34h5.63v1.34h1m-5.33-4H110.1v-1.34h1.34Zm4.29,0h-1.34v-1.34h1.34Z"/><g class="cls-19"><polygon class="cls-22" points="269.93 155.45 269.93 156.79 270.6 156.79 271.27 156.79 271.27 155.45 270.6 155.45 269.93 155.45"/></g><g class="cls-19"><rect class="cls-22" x="268.59" y="154.11" width="1.34" height="1.34"/></g><g class="cls-19"><polygon class="cls-22" points="277.72 157.91 278.68 158.85 279.15 158.37 279.62 157.89 278.66 156.95 278.19 157.43 277.72 157.91"/></g><g class="cls-19"><rect class="cls-22" x="276.1" y="157.25" width="1.34" height="1.34" transform="translate(-29.86 244.62) rotate(-45.5)"/></g><g class="cls-19"><polygon class="cls-22" points="275.31 161.78 274.86 163.04 275.49 163.27 276.12 163.5 276.57 162.23 275.94 162.01 275.31 161.78"/></g><g class="cls-19"><rect class="cls-22" x="274.23" y="160.26" width="1.34" height="1.34" transform="translate(31.07 365.9) rotate(-70.4)"/></g><g class="cls-19"><polygon class="cls-22" points="274.75 155.16 275.3 154.77 274.52 153.67 273.98 154.06 273.43 154.44 274.2 155.54 274.75 155.16"/></g><g class="cls-19"><rect class="cls-22" x="274.02" y="152.07" width="1.34" height="1.34" transform="translate(-37.89 185.59) rotate(-35.08)"/></g><g class="cls-19"><polygon class="cls-22" points="269.21 162.27 269.88 162.27 269.88 160.93 269.21 160.93 268.54 160.93 268.54 162.27 269.21 162.27"/></g><g class="cls-19"><rect class="cls-22" x="269.88" y="159.58" width="1.34" height="1.34"/></g><path class="cls-3" d="M284.65,134.64H220.1a1.55,1.55,0,0,0-1.35,1.52v7.43a1.29,1.29,0,0,0,1.35,1.24h64.55c.63,0,1-.43,1-1.24v-7.43C285.68,135.35,285.28,134.64,284.65,134.64Z"/><g class="cls-19"><rect class="cls-22" x="218.92" y="107.58" width="66.92" height="17.7"/></g><g class="cls-19"><g class="cls-19"><path class="cls-22" d="M220.89,144.81h-1a1.31,1.31,0,0,1-1.13-1.44v-7.31a1.31,1.31,0,0,1,1.13-1.44h1"/></g></g><rect class="cls-23" x="232.21" y="115.01" width="40.33" height="2.97"/><g class="cls-19"><polygon class="cls-22" points="224.83 161.65 224.83 162.99 225.5 162.99 226.17 162.99 226.17 161.65 225.5 161.65 224.83 161.65"/></g><g class="cls-19"><rect class="cls-22" x="223.49" y="160.3" width="1.34" height="1.34"/></g><g class="cls-19"><polygon class="cls-22" points="226.17 158.96 226.17 160.31 227.51 160.31 228.86 160.31 228.86 158.96 227.51 158.96 226.17 158.96"/></g><g class="cls-19"><polygon class="cls-22" points="229.53 162.99 230.2 162.99 230.2 161.65 229.53 161.65 228.86 161.65 228.86 162.99 229.53 162.99"/></g><g class="cls-19"><rect class="cls-22" x="230.2" y="160.3" width="1.34" height="1.34"/></g><g class="cls-19"><path class="cls-22" d="M232.88,154.94V153.6H230.2v-1.34h-1.34v1.34h-2.69v-1.34h-1.34v1.34h-2.68v1.34h-1.34v4h4v1.34h1.34V159h2.69v1.34h1.34V159h4v-4Zm-6.71,2.68h-2.68v-1.34h2.68Zm5.37,0h-2.68v-1.34h2.68Z"/></g><g class="cls-19"><polygon class="cls-22" points="249.1 161.65 249.1 162.99 249.77 162.99 250.44 162.99 250.44 161.65 249.77 161.65 249.1 161.65"/></g><g class="cls-19"><rect class="cls-22" x="247.76" y="160.3" width="1.34" height="1.34"/></g><g class="cls-19"><polygon class="cls-22" points="250.44 158.96 250.44 160.31 251.78 160.31 253.12 160.31 253.12 158.96 251.78 158.96 250.44 158.96"/></g><g class="cls-19"><polygon class="cls-22" points="253.79 162.99 254.47 162.99 254.47 161.65 253.79 161.65 253.12 161.65 253.12 162.99 253.79 162.99"/></g><g class="cls-19"><rect class="cls-22" x="254.46" y="160.3" width="1.34" height="1.34"/></g><g class="cls-19"><path class="cls-22" d="M257.15,154.94V153.6h-2.69v-1.34h-1.34v1.34h-2.68v-1.34H249.1v1.34h-2.68v1.34h-1.34v4h4v1.34h1.34V159h2.68v1.34h1.34V159h4v-4Zm-6.71,2.68h-2.68v-1.34h2.68Zm5.37,0h-2.69v-1.34h2.69Z"/></g><g class="cls-19"><polygon class="cls-24" points="280.26 278.66 284.37 278.66 284.37 272.78 280.26 271.49 280.26 278.66"/></g><g class="cls-19"><polyline class="cls-25" points="280.26 271.49 280.26 278.66 273.43 278.66 273.43 266.43 274.88 266.43 274.88 271.49 280.26 271.49"/></g><g class="cls-19"><polyline class="cls-22" points="273.43 266.43 271.97 266.43 271.97 271.49 266.6 271.49 262.49 272.78 262.49 278.66 273.43 278.66"/></g><rect class="cls-22" x="272.75" y="252.46" width="1.36" height="6.01"/><rect class="cls-22" x="272.75" y="235.12" width="1.36" height="8.2"/><rect class="cls-22" x="272.89" y="167.53" width="1.08" height="3.85"/><rect class="cls-22" x="272.75" y="220.33" width="1.36" height="5.72"/><g class="cls-19"><rect class="cls-20" x="152.03" y="161.8" width="1.34" height="1.34"/><rect class="cls-20" x="150.69" y="160.46" width="1.34" height="1.34"/><path class="cls-20" d="M153.37,156.44V155.1H152v-1.35h-1.34v-1.34h-5.36v1.34H144v1.35h-1.34v1.34h-1.34v2.68h1.34v1.34H144v-1.34h2.69v1.34h2.69v-1.34H152v1.34h1.34v-1.34h1.34v-2.68Zm-8,1.34H144v-1.34h1.34Zm6.7,0h-1.34v-1.34H152Z"/><rect class="cls-20" x="142.65" y="161.8" width="1.34" height="1.34"/><rect class="cls-20" x="143.99" y="160.46" width="1.34" height="1.34"/><rect class="cls-20" x="174.75" y="161.8" width="1.34" height="1.34"/><rect class="cls-20" x="173.41" y="160.46" width="1.34" height="1.34"/><path class="cls-20" d="M176.09,156.44V155.1h-1.34v-1.35h-1.34v-1.34H168v1.34H166.7v1.35h-1.34v1.34H164v2.68h1.34v1.34h1.34v-1.34h2.69v1.34h2.69v-1.34h2.67v1.34h1.34v-1.34h1.34v-2.68ZM168,157.78H166.7v-1.34H168Zm6.71,0h-1.34v-1.34h1.34Z"/><rect class="cls-20" x="165.36" y="161.8" width="1.34" height="1.34"/><rect class="cls-20" x="166.7" y="160.46" width="1.34" height="1.34"/><rect class="cls-20" x="197.46" y="161.8" width="1.34" height="1.34"/><rect class="cls-20" x="196.12" y="160.46" width="1.34" height="1.34"/><path class="cls-20" d="M198.8,156.44V155.1h-1.34v-1.35h-1.34v-1.34h-5.36v1.34h-1.34v1.35h-1.34v1.34h-1.34v2.68h1.34v1.34h1.34v-1.34h2.69v1.34h2.68v-1.34h2.67v1.34h1.34v-1.34h1.34v-2.68Zm-8,1.34h-1.34v-1.34h1.34Zm6.7,0h-1.34v-1.34h1.34Z"/><rect class="cls-20" x="188.08" y="161.8" width="1.34" height="1.34"/><rect class="cls-20" x="189.42" y="160.46" width="1.34" height="1.34"/></g><path class="cls-6" d="M87.4,215.79h3.28v2.08h.06a4.09,4.09,0,0,1,1.55-1.78,4.33,4.33,0,0,1,2.33-.63,2.78,2.78,0,0,1,.58.06c.19,0,.39.08.59.13v3.17a7.78,7.78,0,0,0-.81-.17,4.08,4.08,0,0,0-.77-.07,3.57,3.57,0,0,0-1.85.42,3.32,3.32,0,0,0-1.56,2.06,4.3,4.3,0,0,0-.12.82v7H87.4Z"/><path class="cls-6" d="M97.38,222.35a6.84,6.84,0,0,1,.56-2.83,6.46,6.46,0,0,1,1.51-2.17,6.83,6.83,0,0,1,2.27-1.4,8.16,8.16,0,0,1,5.57,0,6.73,6.73,0,0,1,2.27,1.4,6.63,6.63,0,0,1,1.52,2.17,7,7,0,0,1,.56,2.83,6.92,6.92,0,0,1-.56,2.82,6.49,6.49,0,0,1-3.79,3.57,8.16,8.16,0,0,1-5.57,0,6.8,6.8,0,0,1-2.27-1.39,6.5,6.5,0,0,1-1.51-2.18A6.76,6.76,0,0,1,97.38,222.35Zm3.27,0a4.29,4.29,0,0,0,.26,1.47,3.69,3.69,0,0,0,.77,1.26,3.94,3.94,0,0,0,1.21.87,3.84,3.84,0,0,0,1.62.33,3.75,3.75,0,0,0,2.82-1.2,3.54,3.54,0,0,0,.77-1.26,4.29,4.29,0,0,0,.26-1.47,4.39,4.39,0,0,0-.26-1.48,3.72,3.72,0,0,0-.77-1.26,4,4,0,0,0-4.44-.87,3.94,3.94,0,0,0-1.21.87,3.89,3.89,0,0,0-.77,1.26A4.39,4.39,0,0,0,100.65,222.35Z"/><path class="cls-6" d="M122.89,227.1h-.08a4.2,4.2,0,0,1-1.8,1.63,5.77,5.77,0,0,1-2.41.5,6.5,6.5,0,0,1-1.76-.24,4.94,4.94,0,0,1-1.53-.74,3.87,3.87,0,0,1-1.08-1.23,3.53,3.53,0,0,1-.41-1.72,4,4,0,0,1,.38-1.82,3.83,3.83,0,0,1,1-1.26,5.3,5.3,0,0,1,1.49-.8,10.09,10.09,0,0,1,1.76-.45,14.35,14.35,0,0,1,1.84-.19c.62,0,1.21,0,1.75,0h.82v-.36a2.13,2.13,0,0,0-.84-1.84,3.61,3.61,0,0,0-2.16-.62,5,5,0,0,0-3.5,1.37l-1.72-1.72a6.39,6.39,0,0,1,2.55-1.62,9.65,9.65,0,0,1,3-.49,7.58,7.58,0,0,1,2.35.32,5.14,5.14,0,0,1,1.59.8,3.6,3.6,0,0,1,1,1.14,5.5,5.5,0,0,1,.49,1.29,7.32,7.32,0,0,1,.18,1.27c0,.41,0,.77,0,1.08v7.54h-3ZM122.7,223H122c-.46,0-1,0-1.53.05a8.77,8.77,0,0,0-1.6.26,3.66,3.66,0,0,0-1.27.61,1.29,1.29,0,0,0-.52,1.1,1.38,1.38,0,0,0,.21.78,1.68,1.68,0,0,0,.53.53,2.25,2.25,0,0,0,.74.32,3.75,3.75,0,0,0,.82.09,3.46,3.46,0,0,0,2.5-.8,3,3,0,0,0,.8-2.2Z"/><path class="cls-6" d="M139.75,226.94h-.06a4.24,4.24,0,0,1-1.91,1.75,6.23,6.23,0,0,1-2.59.54,6.67,6.67,0,0,1-2.72-.53,6,6,0,0,1-3.32-3.65,8.22,8.22,0,0,1-.44-2.7,7.75,7.75,0,0,1,.47-2.71,6.77,6.77,0,0,1,1.29-2.18,6.15,6.15,0,0,1,2-1.47,6.25,6.25,0,0,1,2.57-.53,6.66,6.66,0,0,1,1.64.19,6,6,0,0,1,1.26.5,5.22,5.22,0,0,1,.93.64,4.68,4.68,0,0,1,.62.67h.09v-9.21h3.27V228.9h-3.11ZM132,222.35a4.29,4.29,0,0,0,.26,1.47,3.66,3.66,0,0,0,.76,1.26,4,4,0,0,0,1.22.87,4.09,4.09,0,0,0,3.22,0,3.87,3.87,0,0,0,1.22-.87,3.69,3.69,0,0,0,.77-1.26,4.28,4.28,0,0,0,.25-1.47,4.38,4.38,0,0,0-.25-1.48,3.72,3.72,0,0,0-2-2.13,4.09,4.09,0,0,0-3.22,0,4,4,0,0,0-1.22.87,3.86,3.86,0,0,0-.76,1.26A4.39,4.39,0,0,0,132,222.35Z"/><path class="cls-6" d="M146.44,215.79h3.12v2.05h.05a4.37,4.37,0,0,1,1.41-1.65,4.23,4.23,0,0,1,2.61-.73,4,4,0,0,1,4.1,2.43,4.63,4.63,0,0,1,1.77-1.84,5.21,5.21,0,0,1,2.54-.59,5.08,5.08,0,0,1,2.22.44,3.9,3.9,0,0,1,1.46,1.2,5,5,0,0,1,.8,1.79,9.1,9.1,0,0,1,.25,2.2v7.81h-3.28v-7.43a6.34,6.34,0,0,0-.11-1.16,2.75,2.75,0,0,0-.38-1,1.92,1.92,0,0,0-.74-.67,2.49,2.49,0,0,0-1.2-.25,2.74,2.74,0,0,0-1.3.29,2.66,2.66,0,0,0-.87.76,3.14,3.14,0,0,0-.49,1.1,5.19,5.19,0,0,0-.15,1.24v7.1H155v-7.81a3.32,3.32,0,0,0-.52-2,2,2,0,0,0-1.72-.73,3,3,0,0,0-1.38.28,2.5,2.5,0,0,0-.93.73,2.76,2.76,0,0,0-.53,1.07,4.73,4.73,0,0,0-.17,1.26v7.15h-3.28Z"/><path class="cls-6" d="M178.54,227.1h-.08a4.2,4.2,0,0,1-1.8,1.63,5.76,5.76,0,0,1-2.4.5,6.57,6.57,0,0,1-1.77-.24,4.94,4.94,0,0,1-1.53-.74,4,4,0,0,1-1.08-1.23,3.53,3.53,0,0,1-.41-1.72,3.91,3.91,0,0,1,.39-1.82,3.69,3.69,0,0,1,1-1.26,5.45,5.45,0,0,1,1.49-.8,10.09,10.09,0,0,1,1.76-.45,14.32,14.32,0,0,1,1.85-.19c.62,0,1.2,0,1.75,0h.81v-.36a2.13,2.13,0,0,0-.84-1.84,3.61,3.61,0,0,0-2.16-.62,5,5,0,0,0-3.5,1.37l-1.72-1.72a6.35,6.35,0,0,1,2.56-1.62,9.59,9.59,0,0,1,3-.49,7.54,7.54,0,0,1,2.35.32,5.14,5.14,0,0,1,1.59.8,3.6,3.6,0,0,1,1,1.14,5.1,5.1,0,0,1,.49,1.29,7.32,7.32,0,0,1,.18,1.27q0,.61,0,1.08v7.54h-3Zm-.19-4.07h-.68c-.45,0-1,0-1.53.05a8.91,8.91,0,0,0-1.6.26,3.66,3.66,0,0,0-1.27.61,1.32,1.32,0,0,0-.52,1.1,1.38,1.38,0,0,0,.21.78,1.68,1.68,0,0,0,.53.53,2.25,2.25,0,0,0,.74.32,3.75,3.75,0,0,0,.82.09,3.44,3.44,0,0,0,2.5-.8,3,3,0,0,0,.8-2.2Z"/><path class="cls-6" d="M185,215.79h3.11v2h.06A4.19,4.19,0,0,1,190.1,216a6.13,6.13,0,0,1,2.6-.55,6.67,6.67,0,0,1,2.7.53,6.09,6.09,0,0,1,3.33,3.65,8,8,0,0,1,.44,2.71,7.73,7.73,0,0,1-.46,2.7,6.67,6.67,0,0,1-1.3,2.19,6.12,6.12,0,0,1-2,1.46,6.74,6.74,0,0,1-4.21.34,5.71,5.71,0,0,1-1.25-.49,5,5,0,0,1-.93-.64,4.27,4.27,0,0,1-.63-.67h-.08v7.89H185Zm10.87,6.56a4.16,4.16,0,0,0-.26-1.48,3.7,3.7,0,0,0-.76-1.26,3.87,3.87,0,0,0-1.22-.87,4.09,4.09,0,0,0-3.22,0,4,4,0,0,0-1.22.87,3.86,3.86,0,0,0-.76,1.26,4.39,4.39,0,0,0-.26,1.48,4.29,4.29,0,0,0,.26,1.47,3.66,3.66,0,0,0,.76,1.26,4,4,0,0,0,1.22.87,4.09,4.09,0,0,0,3.22,0,3.87,3.87,0,0,0,1.22-.87,3.52,3.52,0,0,0,.76-1.26A4.07,4.07,0,0,0,195.89,222.35Z"/><path class="cls-6" d="M202.23,215.79h3.12v2h.05a4.19,4.19,0,0,1,1.91-1.75,6.13,6.13,0,0,1,2.6-.55,6.67,6.67,0,0,1,2.7.53,6.14,6.14,0,0,1,3.34,3.65,8.23,8.23,0,0,1,.43,2.71,7.73,7.73,0,0,1-.46,2.7,6.67,6.67,0,0,1-1.3,2.19,5.92,5.92,0,0,1-2,1.46,6.71,6.71,0,0,1-4.2.34,5.61,5.61,0,0,1-1.26-.49,5.39,5.39,0,0,1-.93-.64,5.48,5.48,0,0,1-.63-.67h-.08v7.89h-3.28Zm10.88,6.56a4.39,4.39,0,0,0-.26-1.48,3.72,3.72,0,0,0-2-2.13,4.09,4.09,0,0,0-3.22,0,3.82,3.82,0,0,0-1.21.87,3.72,3.72,0,0,0-.77,1.26,4.39,4.39,0,0,0-.26,1.48,4.29,4.29,0,0,0,.26,1.47,3.54,3.54,0,0,0,.77,1.26,3.82,3.82,0,0,0,1.21.87,4.09,4.09,0,0,0,3.22,0,3.87,3.87,0,0,0,1.22-.87,3.69,3.69,0,0,0,.77-1.26A4.29,4.29,0,0,0,213.11,222.35Z"/><path class="cls-6" d="M219,211.34a1.89,1.89,0,0,1,.59-1.38,2,2,0,0,1,1.49-.59,2.19,2.19,0,0,1,1.52.56,1.92,1.92,0,0,1,0,2.81,2.15,2.15,0,0,1-1.52.56,2,2,0,0,1-1.49-.58A1.89,1.89,0,0,1,219,211.34Zm.47,4.45h3.28V228.9H219.5Z"/><path class="cls-6" d="M226.55,215.79h3.11v2.1h.06a4.58,4.58,0,0,1,1.42-1.7,4.13,4.13,0,0,1,2.59-.73,5.15,5.15,0,0,1,2.23.44,4.11,4.11,0,0,1,1.49,1.15,4.44,4.44,0,0,1,.82,1.64,7.7,7.7,0,0,1,.24,1.94v8.27h-3.28v-6.63c0-.37,0-.77,0-1.22a4.3,4.3,0,0,0-.29-1.26,2.26,2.26,0,0,0-.72-1,2.12,2.12,0,0,0-1.34-.4,3,3,0,0,0-1.38.28,2.67,2.67,0,0,0-.93.73,3.07,3.07,0,0,0-.53,1.07,4.73,4.73,0,0,0-.16,1.26v7.15h-3.28Z"/><path class="cls-6" d="M255.73,215.79v11.94a11.07,11.07,0,0,1-.44,3.21,6.13,6.13,0,0,1-1.35,2.43,6,6,0,0,1-2.31,1.54,8.93,8.93,0,0,1-3.31.55,12.65,12.65,0,0,1-3.47-.46,7.79,7.79,0,0,1-3-1.7l2-2.67a7.83,7.83,0,0,0,2.05,1.39,5.76,5.76,0,0,0,2.45.49,5.19,5.19,0,0,0,2-.33,3.25,3.25,0,0,0,1.29-.9,3.31,3.31,0,0,0,.68-1.38,7.09,7.09,0,0,0,.21-1.79v-1h-.06a4.36,4.36,0,0,1-1.88,1.43,6.36,6.36,0,0,1-2.41.48,6.59,6.59,0,0,1-2.67-.53,6.51,6.51,0,0,1-2.07-1.44A6.27,6.27,0,0,1,242,225a7.34,7.34,0,0,1-.47-2.62,8.24,8.24,0,0,1,.44-2.71,6.11,6.11,0,0,1,3.32-3.65,6.67,6.67,0,0,1,2.72-.53,6.08,6.08,0,0,1,2.59.55,4.26,4.26,0,0,1,1.92,1.75h.05v-2Zm-7,2.62a4.19,4.19,0,0,0-1.58.29,3.67,3.67,0,0,0-1.22.79,3.57,3.57,0,0,0-.79,1.23,4.34,4.34,0,0,0-.29,1.6,3.83,3.83,0,0,0,.29,1.48,3.88,3.88,0,0,0,.8,1.2,4,4,0,0,0,1.23.82,3.94,3.94,0,0,0,1.53.3,4.23,4.23,0,0,0,1.63-.3,3.76,3.76,0,0,0,1.23-.81,3.41,3.41,0,0,0,.78-1.21,4.32,4.32,0,0,0,.27-1.53,3.84,3.84,0,0,0-1-2.79A3.78,3.78,0,0,0,248.73,218.41Z"/><polygon class="cls-16" points="71.96 181.22 71.88 181.22 71.88 181.14 71.79 181.14 71.79 181.06 71.71 181.06 71.71 180.97 71.63 180.97 71.63 180.89 71.54 180.89 71.54 180.81 71.46 180.81 71.46 180.72 71.38 180.72 71.38 180.64 71.29 180.64 71.29 180.56 71.21 180.56 71.21 180.47 71.13 180.47 71.13 180.39 71.04 180.39 71.04 180.31 70.96 180.31 70.96 180.22 70.88 180.22 70.88 180.14 70.79 180.14 70.79 180.06 70.71 180.06 70.71 179.97 70.63 179.97 70.63 179.89 70.54 179.89 70.54 179.81 70.46 179.81 70.46 179.72 70.38 179.72 70.38 179.64 70.29 179.64 70.29 179.56 70.21 179.56 70.21 179.47 70.13 179.47 70.13 179.39 70.04 179.39 70.04 179.31 69.96 179.31 69.96 179.22 69.88 179.22 69.88 179.14 69.79 179.14 69.79 179.06 69.71 179.06 69.71 178.97 69.63 178.97 69.63 178.89 69.54 178.89 69.54 178.81 69.46 178.81 69.46 178.72 69.38 178.72 69.38 178.64 69.29 178.64 69.29 178.56 69.21 178.56 69.21 178.47 69.13 178.47 69.13 178.39 69.04 178.39 69.04 178.31 68.96 178.31 68.96 178.22 68.88 178.22 68.88 178.14 68.79 178.14 68.79 178.06 68.71 178.06 68.71 177.97 68.63 177.97 68.63 177.89 68.54 177.89 68.54 177.81 68.46 177.81 68.46 177.72 68.38 177.72 68.38 177.64 68.29 177.64 68.29 177.56 68.21 177.56 68.21 177.47 68.13 177.47 68.13 177.39 68.04 177.39 68.04 177.31 67.96 177.31 67.96 177.22 67.88 177.22 67.88 177.14 67.79 177.14 67.79 177.06 50.78 177.06 50.78 181.25 50.87 181.25 50.87 181.33 50.95 181.33 50.95 181.41 51.03 181.41 51.03 181.5 51.12 181.5 51.12 181.58 51.2 181.58 51.2 181.66 51.28 181.66 51.28 181.75 51.37 181.75 51.37 181.83 51.45 181.83 51.45 181.91 51.53 181.91 51.53 182 51.62 182 51.62 182.08 51.7 182.08 51.7 182.16 51.78 182.16 51.78 182.25 51.87 182.25 51.87 182.33 51.95 182.33 51.95 182.41 52.03 182.41 52.03 182.5 52.12 182.5 52.12 182.58 52.2 182.58 52.2 182.66 52.28 182.66 52.28 182.75 52.37 182.75 52.37 182.83 52.45 182.83 52.45 182.91 52.53 182.91 52.53 183 52.62 183 52.62 183.08 52.7 183.08 52.7 183.16 52.78 183.16 52.78 183.25 52.87 183.25 52.87 183.33 52.95 183.33 52.95 183.41 53.03 183.41 53.03 183.5 53.12 183.5 53.12 183.58 53.2 183.58 53.2 183.66 53.28 183.66 53.28 183.75 53.37 183.75 53.37 183.83 53.45 183.83 53.45 183.91 53.53 183.91 53.53 184 53.62 184 53.62 184.08 53.7 184.08 53.7 184.16 53.78 184.16 53.78 184.25 53.87 184.25 53.87 184.33 53.95 184.33 53.95 184.41 54.03 184.41 54.03 184.5 54.12 184.5 54.12 184.58 54.2 184.58 54.2 184.66 54.28 184.66 54.28 184.75 54.37 184.75 54.37 184.83 54.45 184.83 54.45 184.91 54.53 184.91 54.53 185 54.62 185 54.62 185.08 54.7 185.08 54.7 185.16 54.78 185.16 54.78 185.25 54.87 185.25 54.87 185.33 54.95 185.33 54.95 185.41 55.03 185.41 55.03 185.5 56.92 185.5 56.92 198.56 57 198.56 57 198.64 57.09 198.64 57.09 198.73 57.17 198.73 57.17 198.81 57.25 198.81 57.25 198.89 57.34 198.89 57.34 198.98 57.42 198.98 57.42 199.06 57.5 199.06 57.5 199.14 57.59 199.14 57.59 199.23 57.67 199.23 57.67 199.31 57.75 199.31 57.75 199.39 57.84 199.39 57.84 199.48 57.92 199.48 57.92 199.56 58 199.56 58 199.64 58.09 199.64 58.09 199.73 58.17 199.73 58.17 199.81 58.25 199.81 58.25 199.89 58.34 199.89 58.34 199.98 58.42 199.98 58.42 200.06 58.5 200.06 58.5 200.14 58.59 200.14 58.59 200.23 58.67 200.23 58.67 200.31 58.75 200.31 58.75 200.39 58.84 200.39 58.84 200.48 58.92 200.48 58.92 200.56 59 200.56 59 200.64 59.09 200.64 59.09 200.73 59.17 200.73 59.17 200.81 59.25 200.81 59.25 200.89 59.34 200.89 59.34 200.98 59.42 200.98 59.42 201.06 59.5 201.06 59.5 201.14 59.59 201.14 59.59 201.23 59.67 201.23 59.67 201.31 59.75 201.31 59.75 201.39 59.84 201.39 59.84 201.48 59.92 201.48 59.92 201.56 60 201.56 60 201.64 60.09 201.64 60.09 201.73 60.17 201.73 60.17 201.81 60.25 201.81 60.25 201.89 60.34 201.89 60.34 201.98 60.42 201.98 60.42 202.06 60.5 202.06 60.5 202.14 60.59 202.14 60.59 202.23 60.67 202.23 60.67 202.31 60.75 202.31 60.75 202.39 60.84 202.39 60.84 202.48 60.92 202.48 60.92 202.56 61 202.56 61 202.64 61.09 202.64 61.09 202.73 61.17 202.73 61.17 202.81 65.91 202.81 65.91 185.5 72.04 185.5 72.04 181.31 71.96 181.31 71.96 181.22"/><polygon class="cls-16" points="91.97 198.35 91.89 198.35 91.89 198.27 91.81 198.27 91.81 198.19 91.72 198.19 91.72 198.1 91.64 198.1 91.64 198.02 91.56 198.02 91.56 197.94 91.47 197.94 91.47 197.85 91.39 197.85 91.39 197.77 91.31 197.77 91.31 197.69 91.22 197.69 91.22 197.6 91.14 197.6 91.14 197.52 91.06 197.52 91.06 197.44 90.97 197.44 90.97 197.35 90.89 197.35 90.89 197.27 90.81 197.27 90.81 197.19 90.72 197.19 90.72 197.1 90.64 197.1 90.64 197.02 90.56 197.02 90.56 196.94 90.47 196.94 90.47 196.85 90.39 196.85 90.39 196.77 90.31 196.77 90.31 196.69 90.22 196.69 90.22 196.6 90.14 196.6 90.14 196.52 90.06 196.52 90.06 196.44 89.97 196.44 89.97 196.35 89.89 196.35 89.89 196.27 89.81 196.27 89.81 196.19 89.72 196.19 89.72 196.1 89.64 196.1 89.64 196.02 89.56 196.02 89.56 195.94 89.47 195.94 89.47 195.85 89.39 195.85 89.39 195.77 89.31 195.77 89.31 195.69 89.22 195.69 89.22 195.6 89.14 195.6 89.14 195.52 89.06 195.52 89.06 195.44 88.97 195.44 88.97 195.35 88.89 195.35 88.89 195.27 88.81 195.27 88.81 195.19 88.72 195.19 88.72 195.1 88.64 195.1 88.64 195.02 88.56 195.02 88.56 194.94 88.47 194.94 88.47 194.85 88.39 194.85 88.39 194.77 88.31 194.77 88.31 194.69 88.22 194.69 88.22 194.6 88.14 194.6 88.14 194.52 88.06 194.52 88.06 194.44 87.97 194.44 87.97 194.35 87.89 194.35 87.89 194.27 87.81 194.27 87.81 194.19 81.64 194.19 81.64 194.06 90.97 194.06 90.97 189.69 90.88 189.69 90.88 189.61 90.8 189.61 90.8 189.52 90.72 189.52 90.72 189.44 90.63 189.44 90.63 189.36 90.55 189.36 90.55 189.27 90.47 189.27 90.47 189.19 90.38 189.19 90.38 189.11 90.3 189.11 90.3 189.02 90.22 189.02 90.22 188.94 90.13 188.94 90.13 188.86 90.05 188.86 90.05 188.77 89.97 188.77 89.97 188.69 89.88 188.69 89.88 188.61 89.8 188.61 89.8 188.52 89.72 188.52 89.72 188.44 89.63 188.44 89.63 188.36 89.55 188.36 89.55 188.27 89.47 188.27 89.47 188.19 89.38 188.19 89.38 188.11 89.3 188.11 89.3 188.02 89.22 188.02 89.22 187.94 89.13 187.94 89.13 187.86 89.05 187.86 89.05 187.77 88.97 187.77 88.97 187.69 88.88 187.69 88.88 187.61 88.8 187.61 88.8 187.52 88.72 187.52 88.72 187.44 88.63 187.44 88.63 187.36 88.55 187.36 88.55 187.27 88.47 187.27 88.47 187.19 88.38 187.19 88.38 187.11 88.3 187.11 88.3 187.02 88.22 187.02 88.22 186.94 88.13 186.94 88.13 186.86 88.05 186.86 88.05 186.77 87.97 186.77 87.97 186.69 87.88 186.69 87.88 186.61 87.8 186.61 87.8 186.52 87.72 186.52 87.72 186.44 87.63 186.44 87.63 186.36 87.55 186.36 87.55 186.27 87.47 186.27 87.47 186.19 87.38 186.19 87.38 186.11 87.3 186.11 87.3 186.02 87.22 186.02 87.22 185.94 87.13 185.94 87.13 185.86 87.05 185.86 87.05 185.77 86.97 185.77 86.97 185.69 86.88 185.69 86.88 185.68 91.51 185.68 91.51 181.31 91.43 181.31 91.43 181.22 91.34 181.22 91.34 181.14 91.26 181.14 91.26 181.06 91.18 181.06 91.18 180.97 91.09 180.97 91.09 180.89 91.01 180.89 91.01 180.81 90.93 180.81 90.93 180.72 90.84 180.72 90.84 180.64 90.76 180.64 90.76 180.56 90.68 180.56 90.68 180.47 90.59 180.47 90.59 180.39 90.51 180.39 90.51 180.31 90.43 180.31 90.43 180.22 90.34 180.22 90.34 180.14 90.26 180.14 90.26 180.06 90.18 180.06 90.18 179.97 90.09 179.97 90.09 179.89 90.01 179.89 90.01 179.81 89.93 179.81 89.93 179.72 89.84 179.72 89.84 179.64 89.76 179.64 89.76 179.56 89.68 179.56 89.68 179.47 89.59 179.47 89.59 179.39 89.51 179.39 89.51 179.31 89.43 179.31 89.43 179.22 89.34 179.22 89.34 179.14 89.26 179.14 89.26 179.06 89.18 179.06 89.18 178.97 89.09 178.97 89.09 178.89 89.01 178.89 89.01 178.81 88.93 178.81 88.93 178.72 88.84 178.72 88.84 178.64 88.76 178.64 88.76 178.56 88.68 178.56 88.68 178.47 88.59 178.47 88.59 178.39 88.51 178.39 88.51 178.31 88.43 178.31 88.43 178.22 88.34 178.22 88.34 178.14 88.26 178.14 88.26 178.06 88.18 178.06 88.18 177.97 88.09 177.97 88.09 177.89 88.01 177.89 88.01 177.81 87.93 177.81 87.93 177.72 87.84 177.72 87.84 177.64 87.76 177.64 87.76 177.56 87.68 177.56 87.68 177.47 87.59 177.47 87.59 177.39 87.51 177.39 87.51 177.31 87.43 177.31 87.43 177.22 87.34 177.22 87.34 177.14 87.26 177.14 87.26 177.06 72.65 177.06 72.65 198.56 72.74 198.56 72.74 198.64 72.82 198.64 72.82 198.73 72.9 198.73 72.9 198.81 72.99 198.81 72.99 198.89 73.07 198.89 73.07 198.98 73.15 198.98 73.15 199.06 73.24 199.06 73.24 199.14 73.32 199.14 73.32 199.23 73.4 199.23 73.4 199.31 73.49 199.31 73.49 199.39 73.57 199.39 73.57 199.48 73.65 199.48 73.65 199.56 73.74 199.56 73.74 199.64 73.82 199.64 73.82 199.73 73.9 199.73 73.9 199.81 73.99 199.81 73.99 199.89 74.07 199.89 74.07 199.98 74.15 199.98 74.15 200.06 74.24 200.06 74.24 200.14 74.32 200.14 74.32 200.23 74.4 200.23 74.4 200.31 74.49 200.31 74.49 200.39 74.57 200.39 74.57 200.48 74.65 200.48 74.65 200.56 74.74 200.56 74.74 200.64 74.82 200.64 74.82 200.73 74.9 200.73 74.9 200.81 74.99 200.81 74.99 200.89 75.07 200.89 75.07 200.98 75.15 200.98 75.15 201.06 75.24 201.06 75.24 201.14 75.32 201.14 75.32 201.23 75.4 201.23 75.4 201.31 75.49 201.31 75.49 201.39 75.57 201.39 75.57 201.48 75.65 201.48 75.65 201.56 75.74 201.56 75.74 201.64 75.82 201.64 75.82 201.73 75.9 201.73 75.9 201.81 75.99 201.81 75.99 201.89 76.07 201.89 76.07 201.98 76.15 201.98 76.15 202.06 76.24 202.06 76.24 202.14 76.32 202.14 76.32 202.23 76.4 202.23 76.4 202.31 76.49 202.31 76.49 202.39 76.57 202.39 76.57 202.48 76.65 202.48 76.65 202.56 76.74 202.56 76.74 202.64 76.82 202.64 76.82 202.73 76.9 202.73 76.9 202.81 92.06 202.81 92.06 198.44 91.97 198.44 91.97 198.35"/><path class="cls-16" d="M116.27,199.54l-.09-.07v0l-.09-.07h0l-.1-.07h0l-.09-.07v0l-.09-.07h0l-.1-.07h0l-.09-.07v0l-.09-.07h0l-.1-.07h0l-.09-.07v0l-.09-.07h0l-.1-.07h0l-.09-.07v0l-.09-.07h0l-.1-.07h0l-.09-.07v0l-.09-.07h0l-.1-.07h0l-.09-.07v0l-.09-.07h0l-.1-.07h0l-.09-.07v0l-.09-.07h0l-.1-.07h0l-.09-.07v0l-.09-.07h0l-.1-.07h0l-.09-.07v0l-.09-.07h0l-.1-.07h0l-.09-.07v0l-.09-.07h0l-.1-.07h0l-.09-.07v0l-.09-.07h0l-.1-.07h0l-.09-.07v0l-.09-.07h0l-.1-.07h0l-.09-.07v0l-.09-.07h0l-.1-.07h0l-.09-.07v0l-.09-.07h0l-.1-.07h0l-.09-.07v0l-.09-.07h0l-.1-.07h0l-.09-.07v0l-.09-.07h0l-4-3a5.25,5.25,0,0,1-1.86,1.71,5.37,5.37,0,0,1-2.58.6,5.76,5.76,0,0,1-1.45-.18,7.93,7.93,0,0,1-.37-2.49,8.1,8.1,0,0,1,.47-2.77,6.63,6.63,0,0,1,1.31-2.2,5.87,5.87,0,0,1,2-1.44,6,6,0,0,1,2.47-.52,5.78,5.78,0,0,1,2.36.46,4.63,4.63,0,0,1,1.1.69l0,0h0a.71.71,0,0,1,.07.09h0l.08.09h0l.08.09h0a.71.71,0,0,1,.07.09h0l.08.09h0l.08.09h0a.71.71,0,0,1,.07.09l3.65-3a8.49,8.49,0,0,0-.75-.82L115,183l-.08-.09-.08-.08-.09-.08-.08-.09-.08-.08-.09-.08-.08-.09-.08-.08-.09-.08-.08-.09-.08-.08L114,182l-.08-.09-.08-.08-.09-.08-.08-.09-.08-.08-.09-.08-.08-.09-.08-.08-.09-.08-.08-.09-.08-.08L113,181l-.08-.09-.08-.08-.09-.08-.08-.09-.08-.08-.09-.08-.08-.09-.08-.08-.09-.08-.08-.09-.08-.08L112,180l-.08-.09-.08-.08-.09-.08-.08-.09-.08-.08-.09-.08-.08-.09-.08-.08-.09-.08-.08-.09-.08-.08L111,179l-.08-.09a8,8,0,0,0-.91-.75,8.78,8.78,0,0,0-1.84-1,10.34,10.34,0,0,0-1.94-.53,11.55,11.55,0,0,0-1.9-.17,13.2,13.2,0,0,0-4.65.79A10.74,10.74,0,0,0,96,179.56a10.31,10.31,0,0,0-2.42,3.57,13.16,13.16,0,0,0,0,9.36A10.36,10.36,0,0,0,96,196.05h0l.08.08h0l.09.08h0l.08.08h0l.08.08h0l.09.08h0l.08.08h0l.08.08h0l.09.08h0l.08.08h0l.08.08h0l.09.08h0l.08.08h0l.08.08h0l.09.08h0l.08.08h0l.08.08h0l.09.08h0l.08.08h0l.08.08h0l.09.08h0l.08.08h0l.08.08h0l.09.08h0l.08.08h0l.08.08h0l.09.08h0l.08.08h0l.08.08h0l.09.08h0l.08.08h0l.08.08h0l.09.08h0l.08.08h0l.08.08h0l.09.08h0l.08.08h0l.08.08h0l.09.08h0l.08.08h0l.08.08h0l.09.08h0l.08.08h0l.08.08h0l.09.08h0l.08.08h0l.08.08h0l.09.08h0l.08.08h0l.08.08h0l.09.08h0l.08.08a10.61,10.61,0,0,0,3.67,2.27,13.43,13.43,0,0,0,4.65.79,10.79,10.79,0,0,0,4.31-.91,8.28,8.28,0,0,0,3.47-2.83l-.1-.07Z"/><polygon class="cls-16" points="139.81 181.22 139.73 181.22 139.73 181.14 139.64 181.14 139.64 181.06 139.56 181.06 139.56 180.97 139.48 180.97 139.48 180.89 139.39 180.89 139.39 180.81 139.31 180.81 139.31 180.72 139.23 180.72 139.23 180.64 139.14 180.64 139.14 180.56 139.06 180.56 139.06 180.47 138.98 180.47 138.98 180.39 138.89 180.39 138.89 180.31 138.81 180.31 138.81 180.22 138.73 180.22 138.73 180.14 138.64 180.14 138.64 180.06 138.56 180.06 138.56 179.97 138.48 179.97 138.48 179.89 138.39 179.89 138.39 179.81 138.31 179.81 138.31 179.72 138.23 179.72 138.23 179.64 138.14 179.64 138.14 179.56 138.06 179.56 138.06 179.47 137.98 179.47 137.98 179.39 137.89 179.39 137.89 179.31 137.81 179.31 137.81 179.22 137.73 179.22 137.73 179.14 137.64 179.14 137.64 179.06 137.56 179.06 137.56 178.97 137.48 178.97 137.48 178.89 137.39 178.89 137.39 178.81 137.31 178.81 137.31 178.72 137.23 178.72 137.23 178.64 137.14 178.64 137.14 178.56 137.06 178.56 137.06 178.47 136.98 178.47 136.98 178.39 136.89 178.39 136.89 178.31 136.81 178.31 136.81 178.22 136.73 178.22 136.73 178.14 136.64 178.14 136.64 178.06 136.56 178.06 136.56 177.97 136.48 177.97 136.48 177.89 136.39 177.89 136.39 177.81 136.31 177.81 136.31 177.72 136.23 177.72 136.23 177.64 136.14 177.64 136.14 177.56 136.06 177.56 136.06 177.47 135.98 177.47 135.98 177.39 135.89 177.39 135.89 177.31 135.81 177.31 135.81 177.22 135.73 177.22 135.73 177.14 135.64 177.14 135.64 177.06 130.91 177.06 130.91 185.07 125.95 185.07 125.95 181.31 125.87 181.31 125.87 181.22 125.79 181.22 125.79 181.14 125.7 181.14 125.7 181.06 125.62 181.06 125.62 180.97 125.54 180.97 125.54 180.89 125.45 180.89 125.45 180.81 125.37 180.81 125.37 180.72 125.29 180.72 125.29 180.64 125.2 180.64 125.2 180.56 125.12 180.56 125.12 180.47 125.04 180.47 125.04 180.39 124.95 180.39 124.95 180.31 124.87 180.31 124.87 180.22 124.79 180.22 124.79 180.14 124.7 180.14 124.7 180.06 124.62 180.06 124.62 179.97 124.54 179.97 124.54 179.89 124.45 179.89 124.45 179.81 124.37 179.81 124.37 179.72 124.29 179.72 124.29 179.64 124.2 179.64 124.2 179.56 124.12 179.56 124.12 179.47 124.04 179.47 124.04 179.39 123.95 179.39 123.95 179.31 123.87 179.31 123.87 179.22 123.79 179.22 123.79 179.14 123.7 179.14 123.7 179.06 123.62 179.06 123.62 178.97 123.54 178.97 123.54 178.89 123.45 178.89 123.45 178.81 123.37 178.81 123.37 178.72 123.29 178.72 123.29 178.64 123.2 178.64 123.2 178.56 123.12 178.56 123.12 178.47 123.04 178.47 123.04 178.39 122.95 178.39 122.95 178.31 122.87 178.31 122.87 178.22 122.79 178.22 122.79 178.14 122.7 178.14 122.7 178.06 122.62 178.06 122.62 177.97 122.54 177.97 122.54 177.89 122.45 177.89 122.45 177.81 122.37 177.81 122.37 177.72 122.29 177.72 122.29 177.64 122.2 177.64 122.2 177.56 122.12 177.56 122.12 177.47 122.04 177.47 122.04 177.39 121.95 177.39 121.95 177.31 121.87 177.31 121.87 177.22 121.79 177.22 121.79 177.14 121.7 177.14 121.7 177.06 116.97 177.06 116.97 198.56 117.05 198.56 117.05 198.64 117.13 198.64 117.13 198.73 117.22 198.73 117.22 198.81 117.3 198.81 117.3 198.89 117.38 198.89 117.38 198.98 117.47 198.98 117.47 199.06 117.55 199.06 117.55 199.14 117.63 199.14 117.63 199.23 117.72 199.23 117.72 199.31 117.8 199.31 117.8 199.39 117.88 199.39 117.88 199.48 117.97 199.48 117.97 199.56 118.05 199.56 118.05 199.64 118.13 199.64 118.13 199.73 118.22 199.73 118.22 199.81 118.3 199.81 118.3 199.89 118.38 199.89 118.38 199.98 118.47 199.98 118.47 200.06 118.55 200.06 118.55 200.14 118.63 200.14 118.63 200.23 118.72 200.23 118.72 200.31 118.8 200.31 118.8 200.39 118.88 200.39 118.88 200.48 118.97 200.48 118.97 200.56 119.05 200.56 119.05 200.64 119.13 200.64 119.13 200.73 119.22 200.73 119.22 200.81 119.3 200.81 119.3 200.89 119.38 200.89 119.38 200.98 119.47 200.98 119.47 201.06 119.55 201.06 119.55 201.14 119.63 201.14 119.63 201.23 119.72 201.23 119.72 201.31 119.8 201.31 119.8 201.39 119.88 201.39 119.88 201.48 119.97 201.48 119.97 201.56 120.05 201.56 120.05 201.64 120.13 201.64 120.13 201.73 120.22 201.73 120.22 201.81 120.3 201.81 120.3 201.89 120.38 201.89 120.38 201.98 120.47 201.98 120.47 202.06 120.55 202.06 120.55 202.14 120.63 202.14 120.63 202.23 120.72 202.23 120.72 202.31 120.8 202.31 120.8 202.39 120.88 202.39 120.88 202.48 120.97 202.48 120.97 202.56 121.05 202.56 121.05 202.64 121.13 202.64 121.13 202.73 121.22 202.73 121.22 202.81 125.95 202.81 125.95 193.52 130.91 193.52 130.91 198.56 130.99 198.56 130.99 198.64 131.07 198.64 131.07 198.73 131.16 198.73 131.16 198.81 131.24 198.81 131.24 198.89 131.32 198.89 131.32 198.98 131.41 198.98 131.41 199.06 131.49 199.06 131.49 199.14 131.57 199.14 131.57 199.23 131.66 199.23 131.66 199.31 131.74 199.31 131.74 199.39 131.82 199.39 131.82 199.48 131.91 199.48 131.91 199.56 131.99 199.56 131.99 199.64 132.07 199.64 132.07 199.73 132.16 199.73 132.16 199.81 132.24 199.81 132.24 199.89 132.32 199.89 132.32 199.98 132.41 199.98 132.41 200.06 132.49 200.06 132.49 200.14 132.57 200.14 132.57 200.23 132.66 200.23 132.66 200.31 132.74 200.31 132.74 200.39 132.82 200.39 132.82 200.48 132.91 200.48 132.91 200.56 132.99 200.56 132.99 200.64 133.07 200.64 133.07 200.73 133.16 200.73 133.16 200.81 133.24 200.81 133.24 200.89 133.32 200.89 133.32 200.98 133.41 200.98 133.41 201.06 133.49 201.06 133.49 201.14 133.57 201.14 133.57 201.23 133.66 201.23 133.66 201.31 133.74 201.31 133.74 201.39 133.82 201.39 133.82 201.48 133.91 201.48 133.91 201.56 133.99 201.56 133.99 201.64 134.07 201.64 134.07 201.73 134.16 201.73 134.16 201.81 134.24 201.81 134.24 201.89 134.32 201.89 134.32 201.98 134.41 201.98 134.41 202.06 134.49 202.06 134.49 202.14 134.57 202.14 134.57 202.23 134.66 202.23 134.66 202.31 134.74 202.31 134.74 202.39 134.82 202.39 134.82 202.48 134.91 202.48 134.91 202.56 134.99 202.56 134.99 202.64 135.07 202.64 135.07 202.73 135.16 202.73 135.16 202.81 139.89 202.81 139.89 181.31 139.81 181.31 139.81 181.22"/><polygon class="cls-16" points="166.84 181.22 166.76 181.22 166.76 181.14 166.68 181.14 166.68 181.06 166.59 181.06 166.59 180.97 166.51 180.97 166.51 180.89 166.43 180.89 166.43 180.81 166.34 180.81 166.34 180.72 166.26 180.72 166.26 180.64 166.18 180.64 166.18 180.56 166.09 180.56 166.09 180.47 166.01 180.47 166.01 180.39 165.93 180.39 165.93 180.31 165.84 180.31 165.84 180.22 165.76 180.22 165.76 180.14 165.68 180.14 165.68 180.06 165.59 180.06 165.59 179.97 165.51 179.97 165.51 179.89 165.43 179.89 165.43 179.81 165.34 179.81 165.34 179.72 165.26 179.72 165.26 179.64 165.18 179.64 165.18 179.56 165.09 179.56 165.09 179.47 165.01 179.47 165.01 179.39 164.93 179.39 164.93 179.31 164.84 179.31 164.84 179.22 164.76 179.22 164.76 179.14 164.68 179.14 164.68 179.06 164.59 179.06 164.59 178.97 164.51 178.97 164.51 178.89 164.43 178.89 164.43 178.81 164.34 178.81 164.34 178.72 164.26 178.72 164.26 178.64 164.18 178.64 164.18 178.56 164.09 178.56 164.09 178.47 164.01 178.47 164.01 178.39 163.93 178.39 163.93 178.31 163.84 178.31 163.84 178.22 163.76 178.22 163.76 178.14 163.68 178.14 163.68 178.06 163.59 178.06 163.59 177.97 163.51 177.97 163.51 177.89 163.43 177.89 163.43 177.81 163.34 177.81 163.34 177.72 163.26 177.72 163.26 177.64 163.18 177.64 163.18 177.56 163.09 177.56 163.09 177.47 163.01 177.47 163.01 177.39 162.93 177.39 162.93 177.31 162.84 177.31 162.84 177.22 162.76 177.22 162.76 177.14 162.68 177.14 162.68 177.06 157.94 177.06 157.94 189.4 152.98 181.31 152.95 181.31 152.9 181.22 152.87 181.22 152.82 181.14 152.78 181.14 152.73 181.06 152.7 181.06 152.65 180.97 152.62 180.97 152.57 180.89 152.53 180.89 152.48 180.81 152.45 180.81 152.4 180.72 152.37 180.72 152.32 180.64 152.28 180.64 152.23 180.56 152.2 180.56 152.15 180.47 152.12 180.47 152.07 180.39 152.03 180.39 151.98 180.31 151.95 180.31 151.9 180.22 151.87 180.22 151.82 180.14 151.78 180.14 151.73 180.06 151.7 180.06 151.65 179.97 151.62 179.97 151.57 179.89 151.53 179.89 151.48 179.81 151.45 179.81 151.4 179.72 151.37 179.72 151.32 179.64 151.28 179.64 151.23 179.56 151.2 179.56 151.15 179.47 151.12 179.47 151.07 179.39 151.03 179.39 150.98 179.31 150.95 179.31 150.9 179.22 150.87 179.22 150.82 179.14 150.78 179.14 150.73 179.06 150.7 179.06 150.65 178.97 150.62 178.97 150.57 178.89 150.53 178.89 150.48 178.81 150.45 178.81 150.4 178.72 150.37 178.72 150.32 178.64 150.28 178.64 150.23 178.56 150.2 178.56 150.15 178.47 150.12 178.47 150.07 178.39 150.03 178.39 149.98 178.31 149.95 178.31 149.9 178.22 149.87 178.22 149.82 178.14 149.78 178.14 149.73 178.06 149.7 178.06 149.65 177.97 149.62 177.97 149.57 177.89 149.53 177.89 149.48 177.81 149.45 177.81 149.4 177.72 149.37 177.72 149.32 177.64 149.28 177.64 149.23 177.56 149.2 177.56 149.15 177.47 149.12 177.47 149.07 177.39 149.03 177.39 148.98 177.31 148.95 177.31 148.9 177.22 148.87 177.22 148.82 177.14 148.78 177.14 148.73 177.06 142.29 177.06 142.29 198.56 142.38 198.56 142.38 198.64 142.46 198.64 142.46 198.73 142.54 198.73 142.54 198.81 142.63 198.81 142.63 198.89 142.71 198.89 142.71 198.98 142.79 198.98 142.79 199.06 142.88 199.06 142.88 199.14 142.96 199.14 142.96 199.23 143.04 199.23 143.04 199.31 143.13 199.31 143.13 199.39 143.21 199.39 143.21 199.48 143.29 199.48 143.29 199.56 143.38 199.56 143.38 199.64 143.46 199.64 143.46 199.73 143.54 199.73 143.54 199.81 143.63 199.81 143.63 199.89 143.71 199.89 143.71 199.98 143.79 199.98 143.79 200.06 143.88 200.06 143.88 200.14 143.96 200.14 143.96 200.23 144.04 200.23 144.04 200.31 144.13 200.31 144.13 200.39 144.21 200.39 144.21 200.48 144.29 200.48 144.29 200.56 144.38 200.56 144.38 200.64 144.46 200.64 144.46 200.73 144.54 200.73 144.54 200.81 144.63 200.81 144.63 200.89 144.71 200.89 144.71 200.98 144.79 200.98 144.79 201.06 144.88 201.06 144.88 201.14 144.96 201.14 144.96 201.23 145.04 201.23 145.04 201.31 145.13 201.31 145.13 201.39 145.21 201.39 145.21 201.48 145.29 201.48 145.29 201.56 145.38 201.56 145.38 201.64 145.46 201.64 145.46 201.73 145.54 201.73 145.54 201.81 145.63 201.81 145.63 201.89 145.71 201.89 145.71 201.98 145.79 201.98 145.79 202.06 145.88 202.06 145.88 202.14 145.96 202.14 145.96 202.23 146.04 202.23 146.04 202.31 146.13 202.31 146.13 202.39 146.21 202.39 146.21 202.48 146.29 202.48 146.29 202.56 146.38 202.56 146.38 202.64 146.46 202.64 146.46 202.73 146.54 202.73 146.54 202.81 151.28 202.81 151.28 190.09 156.48 198.56 156.51 198.56 156.56 198.64 156.59 198.64 156.65 198.73 156.68 198.73 156.73 198.81 156.76 198.81 156.81 198.89 156.84 198.89 156.9 198.98 156.93 198.98 156.98 199.06 157.01 199.06 157.06 199.14 157.09 199.14 157.15 199.23 157.18 199.23 157.23 199.31 157.26 199.31 157.31 199.39 157.34 199.39 157.4 199.48 157.43 199.48 157.48 199.56 157.51 199.56 157.56 199.64 157.59 199.64 157.65 199.73 157.68 199.73 157.73 199.81 157.76 199.81 157.81 199.89 157.84 199.89 157.9 199.98 157.93 199.98 157.98 200.06 158.01 200.06 158.06 200.14 158.09 200.14 158.15 200.23 158.18 200.23 158.23 200.31 158.26 200.31 158.31 200.39 158.34 200.39 158.4 200.48 158.43 200.48 158.48 200.56 158.51 200.56 158.56 200.64 158.59 200.64 158.65 200.73 158.68 200.73 158.73 200.81 158.76 200.81 158.81 200.89 158.84 200.89 158.9 200.98 158.93 200.98 158.98 201.06 159.01 201.06 159.06 201.14 159.09 201.14 159.15 201.23 159.18 201.23 159.23 201.31 159.26 201.31 159.31 201.39 159.34 201.39 159.4 201.48 159.43 201.48 159.48 201.56 159.51 201.56 159.56 201.64 159.59 201.64 159.65 201.73 159.68 201.73 159.73 201.81 159.76 201.81 159.81 201.89 159.84 201.89 159.9 201.98 159.93 201.98 159.98 202.06 160.01 202.06 160.06 202.14 160.09 202.14 160.15 202.23 160.18 202.23 160.23 202.31 160.26 202.31 160.31 202.39 160.34 202.39 160.4 202.48 160.43 202.48 160.48 202.56 160.51 202.56 160.56 202.64 160.59 202.64 160.65 202.73 160.68 202.73 160.73 202.81 166.93 202.81 166.93 181.31 166.84 181.31 166.84 181.22"/><polygon class="cls-16" points="214.74 198.35 214.65 198.35 214.65 198.27 214.57 198.27 214.57 198.19 214.49 198.19 214.49 198.1 214.4 198.1 214.4 198.02 214.32 198.02 214.32 197.94 214.24 197.94 214.24 197.85 214.15 197.85 214.15 197.77 214.07 197.77 214.07 197.69 213.99 197.69 213.99 197.6 213.9 197.6 213.9 197.52 213.82 197.52 213.82 197.44 213.74 197.44 213.74 197.35 213.65 197.35 213.65 197.27 213.57 197.27 213.57 197.19 213.49 197.19 213.49 197.1 213.4 197.1 213.4 197.02 213.32 197.02 213.32 196.94 213.24 196.94 213.24 196.85 213.15 196.85 213.15 196.77 213.07 196.77 213.07 196.69 212.99 196.69 212.99 196.6 212.9 196.6 212.9 196.52 212.82 196.52 212.82 196.44 212.74 196.44 212.74 196.35 212.65 196.35 212.65 196.27 212.57 196.27 212.57 196.19 212.49 196.19 212.49 196.1 212.4 196.1 212.4 196.02 212.32 196.02 212.32 195.94 212.24 195.94 212.24 195.85 212.15 195.85 212.15 195.77 212.07 195.77 212.07 195.69 211.99 195.69 211.99 195.6 211.9 195.6 211.9 195.52 211.82 195.52 211.82 195.44 211.74 195.44 211.74 195.35 211.65 195.35 211.65 195.27 211.57 195.27 211.57 195.19 211.49 195.19 211.49 195.1 211.4 195.1 211.4 195.02 211.32 195.02 211.32 194.94 211.24 194.94 211.24 194.85 211.15 194.85 211.15 194.77 211.07 194.77 211.07 194.69 210.99 194.69 210.99 194.6 210.9 194.6 210.9 194.52 210.82 194.52 210.82 194.44 210.74 194.44 210.74 194.35 210.65 194.35 210.65 194.27 210.57 194.27 210.57 194.19 206.04 194.19 206.04 181.31 205.96 181.31 205.96 181.22 205.88 181.22 205.88 181.14 205.79 181.14 205.79 181.06 205.71 181.06 205.71 180.97 205.63 180.97 205.63 180.89 205.54 180.89 205.54 180.81 205.46 180.81 205.46 180.72 205.38 180.72 205.38 180.64 205.29 180.64 205.29 180.56 205.21 180.56 205.21 180.47 205.13 180.47 205.13 180.39 205.04 180.39 205.04 180.31 204.96 180.31 204.96 180.22 204.88 180.22 204.88 180.14 204.79 180.14 204.79 180.06 204.71 180.06 204.71 179.97 204.63 179.97 204.63 179.89 204.54 179.89 204.54 179.81 204.46 179.81 204.46 179.72 204.38 179.72 204.38 179.64 204.29 179.64 204.29 179.56 204.21 179.56 204.21 179.47 204.13 179.47 204.13 179.39 204.04 179.39 204.04 179.31 203.96 179.31 203.96 179.22 203.88 179.22 203.88 179.14 203.79 179.14 203.79 179.06 203.71 179.06 203.71 178.97 203.63 178.97 203.63 178.89 203.54 178.89 203.54 178.81 203.46 178.81 203.46 178.72 203.38 178.72 203.38 178.64 203.29 178.64 203.29 178.56 203.21 178.56 203.21 178.47 203.13 178.47 203.13 178.39 203.04 178.39 203.04 178.31 202.96 178.31 202.96 178.22 202.88 178.22 202.88 178.14 202.79 178.14 202.79 178.06 202.71 178.06 202.71 177.97 202.63 177.97 202.63 177.89 202.54 177.89 202.54 177.81 202.46 177.81 202.46 177.72 202.38 177.72 202.38 177.64 202.29 177.64 202.29 177.56 202.21 177.56 202.21 177.47 202.13 177.47 202.13 177.39 202.04 177.39 202.04 177.31 201.96 177.31 201.96 177.22 201.88 177.22 201.88 177.14 201.79 177.14 201.79 177.06 197.06 177.06 197.06 198.56 197.14 198.56 197.14 198.64 197.22 198.64 197.22 198.73 197.31 198.73 197.31 198.81 197.39 198.81 197.39 198.89 197.47 198.89 197.47 198.98 197.56 198.98 197.56 199.06 197.64 199.06 197.64 199.14 197.72 199.14 197.72 199.23 197.81 199.23 197.81 199.31 197.89 199.31 197.89 199.39 197.97 199.39 197.97 199.48 198.06 199.48 198.06 199.56 198.14 199.56 198.14 199.64 198.22 199.64 198.22 199.73 198.31 199.73 198.31 199.81 198.39 199.81 198.39 199.89 198.47 199.89 198.47 199.98 198.56 199.98 198.56 200.06 198.64 200.06 198.64 200.14 198.72 200.14 198.72 200.23 198.81 200.23 198.81 200.31 198.89 200.31 198.89 200.39 198.97 200.39 198.97 200.48 199.06 200.48 199.06 200.56 199.14 200.56 199.14 200.64 199.22 200.64 199.22 200.73 199.31 200.73 199.31 200.81 199.39 200.81 199.39 200.89 199.47 200.89 199.47 200.98 199.56 200.98 199.56 201.06 199.64 201.06 199.64 201.14 199.72 201.14 199.72 201.23 199.81 201.23 199.81 201.31 199.89 201.31 199.89 201.39 199.97 201.39 199.97 201.48 200.06 201.48 200.06 201.56 200.14 201.56 200.14 201.64 200.22 201.64 200.22 201.73 200.31 201.73 200.31 201.81 200.39 201.81 200.39 201.89 200.47 201.89 200.47 201.98 200.56 201.98 200.56 202.06 200.64 202.06 200.64 202.14 200.72 202.14 200.72 202.23 200.81 202.23 200.81 202.31 200.89 202.31 200.89 202.39 200.97 202.39 200.97 202.48 201.06 202.48 201.06 202.56 201.14 202.56 201.14 202.64 201.22 202.64 201.22 202.73 201.31 202.73 201.31 202.81 214.82 202.81 214.82 198.44 214.74 198.44 214.74 198.35"/><path class="cls-16" d="M266.64,190h-.08v-.08h-.08v-.09h-.09v-.08h-.08v-.08h-.08v-.09h-.09v-.08h-.08v-.08H266v-.09h-.09v-.08h-.08v-.08h-.08v-.09h-.09V189h-.08v-.08h-.08v-.09h-.09v-.08h-.08v-.08h-.08v-.09h-.09v-.08h-.08v-.08H265v-.09h-.09v-.08h-.08v-.08h-.08v-.09h-.09V188h-.08v-.08h-.08v-.09h-.09v-.08h-.08v-.08h-.08v-.09h-.09v-.08h-.08v-.08H264v-.09h-.09v-.08h-.08v-.08h-.08v-.09h-.09V187h-.08v-.08h-.08v-.09h-.09v-.08h-.05l2.93-3.2-.09-.07h0l-.09-.08h0l-.08-.08h0l-.09-.07h0l-.09-.08h0l-.08-.08h0l-.09-.07h0l-.09-.08h0l-.08-.08h0l-.09-.07h0l-.09-.08h0l-.08-.08h0l-.09-.07h0l-.09-.08h0l-.08-.08h0l-.09-.07h0l-.09-.08h0l-.08-.08h0l-.09-.07h0l-.09-.08h0l-.08-.08h0l-.09-.07h0l-.09-.08h0l-.08-.08h0l-.09-.07h0l-.09-.08h0l-.08-.08h0l-.09-.07h0l-.09-.08h0l-.08-.08h0l-.09-.07h0l-.09-.08h0l-.08-.08h0l-.09-.07h0l-.09-.08h0l-.08-.08h0l-.09-.07h0l-.09-.08h0l-.08-.08h0l-.09-.07h0l-.09-.08h0l-.08-.08h0l-.09-.07h0l-.09-.08h0l-.08-.08h0l-.09-.07h0l-.09-.08h0l-.08-.08h0l-.09-.07h0l-.09-.08h0l-.08-.08h0a9.34,9.34,0,0,0-3.81-2.14,17.39,17.39,0,0,0-4.75-.62,13.16,13.16,0,0,0-4.65.79,10.78,10.78,0,0,0-3.68,2.26,10.28,10.28,0,0,0-2.41,3.57,13,13,0,0,0,0,9.36,10.34,10.34,0,0,0,2.41,3.56h0l.08.08h0l.08.08h0l.08.08h0l.08.08h0l.08.08h0l.08.08h0l.08.08h0l.08.08h0l.08.08h0l.08.08h0l.08.08h0l.08.08h0l.08.08h0l.08.08h0l.08.08h0l.08.08h0l.08.08h0l.08.08h0l.08.08h0l.08.08h0l.08.08h0l.08.08h0l.08.08h0l.08.08h0l.08.08h0l.08.08h0l.08.08h0l.08.08h0l.08.08h0l.08.08h0l.08.08h0l.08.08h0l.08.08h0l.08.08h0l.08.08h0l.08.08h0l.08.08h0l.08.08h0l.08.08h0l.08.08h0l.08.08h0l.08.08h0l.08.08h0l.08.08h0l.08.08h0l.08.08h0l.08.08h0l.08.08h0l.08.08h0l.08.08h0l.08.08a10.65,10.65,0,0,0,3.68,2.27,13.39,13.39,0,0,0,4.65.79,22.42,22.42,0,0,0,4.64-.49,17,17,0,0,0,4.38-1.58V190.05h-.09Zm-12,.71v.08h.08v.08h.08v.09h.09V191H255v.08h.08v.09h.09v.08h.08v.08h.08v.09h.09v.08h.08v.08h.08v.09h.09v.08h.08v.08h.08v.09h.09V192H256v.08h.08v.09h.09v.08h.08v.08h.08v.09h.09v.08h.08v.08h.08v.09h.09v.08h.08v.08h.08v.09h.09V193H257v.08h.08v.09h.09v.08h.08v.08h.08v.09h.09v.08h.08v.08h.08v.09h.09v.08h.08a10.63,10.63,0,0,1-1.6.61,8.82,8.82,0,0,1-2.67.35,7.46,7.46,0,0,1-2.1-.28,8.31,8.31,0,0,1-.34-2.39,8.1,8.1,0,0,1,.47-2.77,6.42,6.42,0,0,1,1.36-2.2,5.71,5.71,0,0,1,1.21-1v4.07h.09v.08h.08v.08h.08v.09h.09v.08h.08v.08h.08v.09Zm.31-5a7.09,7.09,0,0,1,2.75-.52,7.85,7.85,0,0,1,3,.52l.34.15h-6.46Z"/><path class="cls-16" d="M192.35,183.81h0l-.08-.08h0a.6.6,0,0,0-.08-.08h0a.3.3,0,0,1-.08-.08h0l-.08-.08h0a.6.6,0,0,0-.08-.08h0a.3.3,0,0,1-.08-.08h0l-.08-.08h0a.6.6,0,0,0-.08-.08h0a.3.3,0,0,1-.08-.08h0l-.08-.08h0a.6.6,0,0,0-.08-.08h0a.3.3,0,0,1-.08-.08h0l-.08-.08h0a.6.6,0,0,0-.08-.08h0a.3.3,0,0,1-.08-.08h0l-.08-.08h0a.6.6,0,0,0-.08-.08h0a.3.3,0,0,1-.08-.08h0l-.08-.08h0a.6.6,0,0,0-.08-.08h0a.3.3,0,0,1-.08-.08h0l-.08-.08h0a.6.6,0,0,0-.08-.08h0a.3.3,0,0,1-.08-.08h0l-.08-.08h0a.6.6,0,0,0-.08-.08h0a.3.3,0,0,1-.08-.08h0l-.08-.08h0a.6.6,0,0,0-.08-.08h0a.3.3,0,0,1-.08-.08h0l-.08-.08h0a.6.6,0,0,0-.08-.08h0a.3.3,0,0,1-.08-.08h0l-.08-.08h0a.6.6,0,0,0-.08-.08h0a.3.3,0,0,1-.08-.08h0l-.08-.08h0a.6.6,0,0,0-.08-.08h0a.3.3,0,0,1-.08-.08h0l-.08-.08h0a.6.6,0,0,0-.08-.08h0a.3.3,0,0,1-.08-.08h0l-.08-.08h0a.6.6,0,0,0-.08-.08h0a.3.3,0,0,1-.08-.08h0l-.08-.08h0a.6.6,0,0,0-.08-.08h0a.3.3,0,0,1-.08-.08h0l-.08-.08h0a.6.6,0,0,0-.08-.08h0a.3.3,0,0,1-.08-.08,10.78,10.78,0,0,0-3.68-2.26,14.05,14.05,0,0,0-9.29,0,10.69,10.69,0,0,0-3.68,2.26,10.15,10.15,0,0,0-2.41,3.57,13,13,0,0,0,0,9.36,10.2,10.2,0,0,0,2.41,3.56h0l.08.08h0l.08.08h0l.08.08h0l.08.08h0l.08.08h0l.08.08h0l.09.08h0l.08.08h0l.08.08h0l.08.08h0l.08.08h0l.08.08h0l.08.08h0l.08.08h0l.08.08h0l.08.08h0l.08.08h0l.08.08h0l.08.08h0l.08.08h0l.08.08h0l.08.08h0l.08.08h0l.08.08h0l.08.08h0l.08.08h0l.08.08h0l.08.08h0l.08.08h0l.08.08h0l.08.08h0l.08.08h0l.08.08h0l.08.08h0l.08.08h0l.08.08h0l.08.08h0l.08.08h0l.08.08h0l.08.08h0l.08.08h0l.08.08h0l.08.08h0l.08.08h0l.08.08h0l.08.08h0l.08.08h0l.08.08h0l.08.08h0l.08.08h0l.08.08a10.56,10.56,0,0,0,3.68,2.27,14.05,14.05,0,0,0,9.29,0,10.65,10.65,0,0,0,3.68-2.27,10.34,10.34,0,0,0,2.41-3.56,13,13,0,0,0,0-9.36A10.28,10.28,0,0,0,192.35,183.81Zm-15,8.25a8.1,8.1,0,0,1,.47-2.77,6.56,6.56,0,0,1,1.35-2.2,6.27,6.27,0,0,1,2.12-1.44,7.08,7.08,0,0,1,2.74-.52,7.33,7.33,0,0,1,2.09.29,8.4,8.4,0,0,1-.12,5.17,6.34,6.34,0,0,1-1.36,2.18,6.16,6.16,0,0,1-2.11,1.45,7.09,7.09,0,0,1-2.75.51,7.38,7.38,0,0,1-2.09-.28A8.31,8.31,0,0,1,177.34,192.06Z"/><path class="cls-16" d="M238.48,183.81h0a.6.6,0,0,1-.08-.08h0a.3.3,0,0,0-.08-.08h0a.6.6,0,0,1-.08-.08h0a.6.6,0,0,1-.08-.08h0a.3.3,0,0,0-.08-.08h0a.6.6,0,0,1-.08-.08h0a.6.6,0,0,1-.08-.08h0a.3.3,0,0,0-.08-.08h0a.6.6,0,0,1-.08-.08h0a.6.6,0,0,1-.08-.08h0a.3.3,0,0,0-.08-.08h0a.6.6,0,0,1-.08-.08h0a.6.6,0,0,1-.08-.08h0a.3.3,0,0,0-.08-.08h0a.6.6,0,0,1-.08-.08h0a.6.6,0,0,1-.08-.08h0a.3.3,0,0,0-.08-.08h0a.6.6,0,0,1-.08-.08h0a.6.6,0,0,1-.08-.08h0a.3.3,0,0,0-.08-.08h0a.6.6,0,0,1-.08-.08h0a.6.6,0,0,1-.08-.08h0a.3.3,0,0,0-.08-.08h0a.6.6,0,0,1-.08-.08h0a.6.6,0,0,1-.08-.08h0a.3.3,0,0,0-.08-.08h0a.6.6,0,0,1-.08-.08h0a.6.6,0,0,1-.08-.08h0a.3.3,0,0,0-.08-.08h0a.6.6,0,0,1-.08-.08h0a.6.6,0,0,1-.08-.08h0a.3.3,0,0,0-.08-.08h0a.6.6,0,0,1-.08-.08h0a.6.6,0,0,1-.08-.08h0a.3.3,0,0,0-.08-.08h0a.6.6,0,0,1-.08-.08h0a.6.6,0,0,1-.08-.08h0a.3.3,0,0,0-.08-.08h0a.6.6,0,0,1-.08-.08h0a.6.6,0,0,1-.08-.08h0a.3.3,0,0,0-.08-.08h0a.6.6,0,0,1-.08-.08h0a.6.6,0,0,1-.08-.08h0a.3.3,0,0,0-.08-.08h0a.6.6,0,0,1-.08-.08h0a.6.6,0,0,1-.08-.08h0a.3.3,0,0,0-.08-.08h0a.6.6,0,0,1-.08-.08h0a.6.6,0,0,1-.08-.08h0a.3.3,0,0,0-.08-.08h0a.6.6,0,0,1-.08-.08,10.74,10.74,0,0,0-3.67-2.26,14.08,14.08,0,0,0-9.3,0,10.64,10.64,0,0,0-3.67,2.26,10.17,10.17,0,0,0-2.42,3.57,13.16,13.16,0,0,0,0,9.36,10.22,10.22,0,0,0,2.42,3.56h0l.08.08h0l.08.08h0l.08.08h0l.08.08h0l.08.08h0l.08.08h0l.08.08h0l.08.08h0l.08.08h0l.08.08h0l.08.08h0l.08.08h0l.08.08h0l.08.08h0l.08.08h0l.08.08h0l.08.08h0l.08.08h0l.08.08h0l.08.08h0l.08.08h0l.08.08h0l.08.08h0l.08.08h0l.08.08h0l.08.08h0l.08.08h0l.08.08h0l.08.08h0l.08.08h0l.08.08h0l.08.08h0l.08.08h0l.08.08h0l.08.08h0l.08.08h0l.08.08h0l.08.08h0l.08.08h0l.08.08h0l.08.08h0l.08.08h0l.08.08h0l.08.08h0l.08.08h0l.08.08h0l.08.08h0l.08.08h0l.08.08h0l.08.08h0l.08.08a10.52,10.52,0,0,0,3.67,2.27,14.08,14.08,0,0,0,9.3,0,10.61,10.61,0,0,0,3.67-2.27,10.36,10.36,0,0,0,2.42-3.56,13.16,13.16,0,0,0,0-9.36A10.31,10.31,0,0,0,238.48,183.81Zm-15,8.25a7.86,7.86,0,0,1,.47-2.77,6.14,6.14,0,0,1,3.46-3.64,7.13,7.13,0,0,1,2.75-.52,7.26,7.26,0,0,1,2.08.29,8.4,8.4,0,0,1-.12,5.17,6.17,6.17,0,0,1-1.35,2.18,6.26,6.26,0,0,1-2.11,1.45,7.13,7.13,0,0,1-2.75.51,7.34,7.34,0,0,1-2.09-.28A8,8,0,0,1,223.48,192.06Z"/><polygon class="cls-16" points="291.13 181.31 291.18 181.22 291.05 181.22 291.1 181.14 290.96 181.14 291.02 181.06 290.88 181.06 290.93 180.97 290.8 180.97 290.85 180.89 290.71 180.89 290.77 180.81 290.63 180.81 290.68 180.72 290.55 180.72 290.6 180.64 290.46 180.64 290.52 180.56 290.38 180.56 290.43 180.47 290.3 180.47 290.35 180.39 290.21 180.39 290.27 180.31 290.13 180.31 290.18 180.22 290.05 180.22 290.1 180.14 289.96 180.14 290.02 180.06 289.88 180.06 289.93 179.97 289.8 179.97 289.85 179.89 289.71 179.89 289.77 179.81 289.63 179.81 289.68 179.72 289.55 179.72 289.6 179.64 289.46 179.64 289.52 179.56 289.38 179.56 289.43 179.47 289.3 179.47 289.35 179.39 289.21 179.39 289.27 179.31 289.13 179.31 289.18 179.22 289.05 179.22 289.1 179.14 288.96 179.14 289.02 179.06 288.88 179.06 288.93 178.97 288.8 178.97 288.85 178.89 288.71 178.89 288.77 178.81 288.63 178.81 288.68 178.72 288.55 178.72 288.6 178.64 288.46 178.64 288.52 178.56 288.38 178.56 288.43 178.47 288.3 178.47 288.35 178.39 288.21 178.39 288.27 178.31 288.13 178.31 288.18 178.22 288.05 178.22 288.1 178.14 287.96 178.14 288.02 178.06 287.88 178.06 287.93 177.97 287.8 177.97 287.85 177.89 287.71 177.89 287.77 177.81 287.63 177.81 287.68 177.72 287.55 177.72 287.6 177.64 287.46 177.64 287.52 177.56 287.38 177.56 287.43 177.47 287.3 177.47 287.35 177.39 287.21 177.39 287.27 177.31 287.13 177.31 287.18 177.22 287.05 177.22 287.1 177.14 286.96 177.14 287.02 177.06 281.4 177.06 277.52 183.52 276.26 181.31 276.23 181.31 276.18 181.22 276.14 181.22 276.1 181.14 276.06 181.14 276.01 181.06 275.98 181.06 275.93 180.97 275.89 180.97 275.85 180.89 275.81 180.89 275.76 180.81 275.73 180.81 275.68 180.72 275.64 180.72 275.6 180.64 275.56 180.64 275.51 180.56 275.48 180.56 275.43 180.47 275.39 180.47 275.35 180.39 275.31 180.39 275.26 180.31 275.23 180.31 275.18 180.22 275.14 180.22 275.1 180.14 275.06 180.14 275.01 180.06 274.98 180.06 274.93 179.97 274.89 179.97 274.85 179.89 274.81 179.89 274.76 179.81 274.73 179.81 274.68 179.72 274.64 179.72 274.6 179.64 274.56 179.64 274.51 179.56 274.48 179.56 274.43 179.47 274.39 179.47 274.35 179.39 274.31 179.39 274.26 179.31 274.23 179.31 274.18 179.22 274.14 179.22 274.1 179.14 274.06 179.14 274.01 179.06 273.98 179.06 273.93 178.97 273.89 178.97 273.85 178.89 273.81 178.89 273.76 178.81 273.73 178.81 273.68 178.72 273.64 178.72 273.6 178.64 273.56 178.64 273.51 178.56 273.48 178.56 273.43 178.47 273.39 178.47 273.35 178.39 273.31 178.39 273.26 178.31 273.23 178.31 273.18 178.22 273.14 178.22 273.1 178.14 273.06 178.14 273.01 178.06 272.98 178.06 272.93 177.97 272.89 177.97 272.85 177.89 272.81 177.89 272.76 177.81 272.73 177.81 272.68 177.72 272.64 177.72 272.6 177.64 272.56 177.64 272.51 177.56 272.48 177.56 272.43 177.47 272.39 177.47 272.35 177.39 272.31 177.39 272.26 177.31 272.23 177.31 272.18 177.22 272.14 177.22 272.1 177.14 272.06 177.14 272.01 177.06 266.12 177.06 274.2 189.39 274.2 198.56 274.28 198.56 274.28 198.64 274.37 198.64 274.37 198.73 274.45 198.73 274.45 198.81 274.53 198.81 274.53 198.89 274.62 198.89 274.62 198.98 274.7 198.98 274.7 199.06 274.78 199.06 274.78 199.14 274.87 199.14 274.87 199.23 274.95 199.23 274.95 199.31 275.03 199.31 275.03 199.39 275.12 199.39 275.12 199.48 275.2 199.48 275.2 199.56 275.28 199.56 275.28 199.64 275.37 199.64 275.37 199.73 275.45 199.73 275.45 199.81 275.53 199.81 275.53 199.89 275.62 199.89 275.62 199.98 275.7 199.98 275.7 200.06 275.78 200.06 275.78 200.14 275.87 200.14 275.87 200.23 275.95 200.23 275.95 200.31 276.03 200.31 276.03 200.39 276.12 200.39 276.12 200.48 276.2 200.48 276.2 200.56 276.28 200.56 276.28 200.64 276.37 200.64 276.37 200.73 276.45 200.73 276.45 200.81 276.53 200.81 276.53 200.89 276.62 200.89 276.62 200.98 276.7 200.98 276.7 201.06 276.78 201.06 276.78 201.14 276.87 201.14 276.87 201.23 276.95 201.23 276.95 201.31 277.03 201.31 277.03 201.39 277.12 201.39 277.12 201.48 277.2 201.48 277.2 201.56 277.28 201.56 277.28 201.64 277.37 201.64 277.37 201.73 277.45 201.73 277.45 201.81 277.53 201.81 277.53 201.89 277.62 201.89 277.62 201.98 277.7 201.98 277.7 202.06 277.78 202.06 277.78 202.14 277.87 202.14 277.87 202.23 277.95 202.23 277.95 202.31 278.03 202.31 278.03 202.39 278.12 202.39 278.12 202.48 278.2 202.48 278.2 202.56 278.28 202.56 278.28 202.64 278.37 202.64 278.37 202.73 278.45 202.73 278.45 202.81 283.19 202.81 283.19 193.64 291.27 181.31 291.13 181.31"/><path class="cls-26" d="M56.92,181.25H50.78v-4.19h17v4.19H61.66v17.31H56.92Z"/><path class="cls-26" d="M72.65,177.06H87.26v4.37H77.39v4h9.32v4.37H77.39v4.38H87.81v4.37H72.65Z"/><path class="cls-26" d="M107.94,182.65a4.51,4.51,0,0,0-1.71-1.31,5.78,5.78,0,0,0-2.36-.46,6,6,0,0,0-2.47.52,5.87,5.87,0,0,0-2,1.44,6.63,6.63,0,0,0-1.31,2.2,8.43,8.43,0,0,0,0,5.55,6.67,6.67,0,0,0,1.29,2.18,6,6,0,0,0,1.93,1.45,5.62,5.62,0,0,0,2.38.51,5.37,5.37,0,0,0,2.58-.6,5.25,5.25,0,0,0,1.86-1.71l4,3a8.28,8.28,0,0,1-3.47,2.83,10.79,10.79,0,0,1-4.31.91,13.43,13.43,0,0,1-4.65-.79A10.61,10.61,0,0,1,96,196.05a10.36,10.36,0,0,1-2.42-3.56,13.16,13.16,0,0,1,0-9.36A10.31,10.31,0,0,1,96,179.56a10.74,10.74,0,0,1,3.67-2.26,13.2,13.2,0,0,1,4.65-.79,11.55,11.55,0,0,1,1.9.17,10.34,10.34,0,0,1,1.94.53,8.78,8.78,0,0,1,1.84,1,7.41,7.41,0,0,1,1.58,1.49Z"/><path class="cls-26" d="M117,177.06h4.73v8h9.21v-8h4.73v21.5h-4.73v-9.29H121.7v9.29H117Z"/><path class="cls-26" d="M142.3,177.06h6.43L157.88,192h.06V177.06h4.73v21.5h-6.19l-9.39-15.31H147v15.31H142.3Z"/><path class="cls-26" d="M168.17,187.81a12.12,12.12,0,0,1,.87-4.68,10.15,10.15,0,0,1,2.41-3.57,10.69,10.69,0,0,1,3.68-2.26,14.05,14.05,0,0,1,9.29,0,10.78,10.78,0,0,1,3.68,2.26,10.28,10.28,0,0,1,2.41,3.57,13,13,0,0,1,0,9.36,10.34,10.34,0,0,1-2.41,3.56,10.65,10.65,0,0,1-3.68,2.27,14.05,14.05,0,0,1-9.29,0,10.56,10.56,0,0,1-3.68-2.27,10.2,10.2,0,0,1-2.41-3.56A12.12,12.12,0,0,1,168.17,187.81Zm4.92,0a8,8,0,0,0,.47,2.78,6.47,6.47,0,0,0,1.35,2.18,6.3,6.3,0,0,0,2.12,1.45,7.64,7.64,0,0,0,5.49,0,6.16,6.16,0,0,0,2.11-1.45,6.34,6.34,0,0,0,1.36-2.18,8.43,8.43,0,0,0,0-5.55,6.42,6.42,0,0,0-1.36-2.2,6.14,6.14,0,0,0-2.11-1.44,7.51,7.51,0,0,0-5.49,0,6.27,6.27,0,0,0-2.12,1.44,6.56,6.56,0,0,0-1.35,2.2A8.05,8.05,0,0,0,173.09,187.81Z"/><path class="cls-26" d="M197.06,177.06h4.73v17.13h8.78v4.37H197.06Z"/><path class="cls-26" d="M214.31,187.81a12.31,12.31,0,0,1,.86-4.68,10.17,10.17,0,0,1,2.42-3.57,10.64,10.64,0,0,1,3.67-2.26,14.08,14.08,0,0,1,9.3,0,10.74,10.74,0,0,1,3.67,2.26,10.31,10.31,0,0,1,2.42,3.57,13.16,13.16,0,0,1,0,9.36,10.36,10.36,0,0,1-2.42,3.56,10.61,10.61,0,0,1-3.67,2.27,14.08,14.08,0,0,1-9.3,0,10.52,10.52,0,0,1-3.67-2.27,10.22,10.22,0,0,1-2.42-3.56A12.31,12.31,0,0,1,214.31,187.81Zm4.92,0a7.76,7.76,0,0,0,.47,2.78,6.17,6.17,0,0,0,1.35,2.18,6.26,6.26,0,0,0,2.11,1.45,7.67,7.67,0,0,0,5.5,0,6.26,6.26,0,0,0,2.11-1.45,6.17,6.17,0,0,0,1.35-2.18,8.43,8.43,0,0,0,0-5.55,6.14,6.14,0,0,0-3.46-3.64,7.53,7.53,0,0,0-5.5,0A6.14,6.14,0,0,0,219.7,185,7.82,7.82,0,0,0,219.23,187.81Z"/><path class="cls-26" d="M262.48,197a17,17,0,0,1-4.38,1.58,22.42,22.42,0,0,1-4.64.49,13.39,13.39,0,0,1-4.65-.79,10.65,10.65,0,0,1-3.68-2.27,10.34,10.34,0,0,1-2.41-3.56,13,13,0,0,1,0-9.36,10.28,10.28,0,0,1,2.41-3.57,10.78,10.78,0,0,1,3.68-2.26,13.16,13.16,0,0,1,4.65-.79,17.39,17.39,0,0,1,4.75.62,9.34,9.34,0,0,1,3.81,2.14l-3.34,3.65a6.6,6.6,0,0,0-2.19-1.52,7.85,7.85,0,0,0-3-.52,7.09,7.09,0,0,0-2.75.52,6.14,6.14,0,0,0-2.11,1.44,6.42,6.42,0,0,0-1.36,2.2,8.43,8.43,0,0,0,0,5.55,6.34,6.34,0,0,0,1.36,2.18,6.16,6.16,0,0,0,2.11,1.45,7.09,7.09,0,0,0,2.75.51,8.82,8.82,0,0,0,2.67-.35,10.21,10.21,0,0,0,1.79-.71v-3.49h-3.86V185.8h8.42Z"/><path class="cls-26" d="M274.2,189.39l-8.08-12.33H272l4.56,8.05,4.83-8.05H287l-8.08,12.33v9.17H274.2Z"/><g id="Layer_2-2" data-name="Layer 2"><g id="Layer_1-2-2" data-name="Layer 1-2"><circle class="cls-27" cx="95.83" cy="384.35" r="3.07"/><path class="cls-28" d="M90.16,375.43v-1.19a.21.21,0,0,0-.22-.21H85.81a.21.21,0,0,0-.21.21V384A10.24,10.24,0,0,1,90.16,375.43Z"/><path class="cls-29" d="M85.6,384v3.25a.22.22,0,0,0,.21.22h4.13a.22.22,0,0,0,.22-.22h0V375.43A10.24,10.24,0,0,0,85.6,384Z"/><path class="cls-30" d="M90.16,375.43V384a5.68,5.68,0,0,1,5.47-5.67.23.23,0,0,0,.21-.21v-4.14a.23.23,0,0,0-.22-.22h0A10.21,10.21,0,0,0,90.16,375.43Z"/><path class="cls-31" d="M108.26,377.14a2.59,2.59,0,0,0-2.6,1.47v-1.09a.15.15,0,0,0-.15-.15H104a.15.15,0,0,0-.14.15h0v8.27a.15.15,0,0,0,.14.15h1.54a.15.15,0,0,0,.15-.15h0v-4.42A2.15,2.15,0,0,1,108,379a2.21,2.21,0,0,1,1.39.39.16.16,0,0,0,.21,0v0l.73-1.39a.15.15,0,0,0,0-.19A3.33,3.33,0,0,0,108.26,377.14Z"/><path class="cls-31" d="M152.09,381.25v4.53a.15.15,0,0,0,.15.15h1.54a.15.15,0,0,0,.15-.15h0v-4.53c0-1.87-.6-4.1-3.47-4.1a2.93,2.93,0,0,0-2.88,1.77,2.5,2.5,0,0,0-2.5-1.81,2.31,2.31,0,0,0-2.38,1.63v-1.22a.15.15,0,0,0-.14-.15H141a.15.15,0,0,0-.15.15v8.27a.15.15,0,0,0,.15.15h1.53a.15.15,0,0,0,.15-.15h0v-4.55a2.09,2.09,0,0,1,2-2.34c1.3,0,1.88,1.22,1.88,2.35v4.53a.15.15,0,0,0,.15.14h1.54a.15.15,0,0,0,.15-.14v-4.53a2.12,2.12,0,0,1,2-2.32C151.42,378.93,152.09,379.82,152.09,381.25Z"/><path class="cls-31" d="M114.94,377.14a4.52,4.52,0,1,0,4.52,4.52h0A4.52,4.52,0,0,0,114.94,377.14Zm0,7.24a2.73,2.73,0,1,1,2.74-2.73h0a2.74,2.74,0,0,1-2.74,2.74Z"/><path class="cls-31" d="M179.53,385.93h2a.15.15,0,0,0,.15-.15.14.14,0,0,0,0-.1l-3.73-4.31,3.16-3.71a.14.14,0,0,0,0-.21.21.21,0,0,0-.1,0h-2a.13.13,0,0,0-.11.06L176,380.84v-6.67a.15.15,0,0,0-.14-.15h-1.54a.15.15,0,0,0-.15.15h0v11.62a.15.15,0,0,0,.15.15h1.53a.15.15,0,0,0,.15-.15h0v-3.87l3.42,4A.17.17,0,0,0,179.53,385.93Z"/><path class="cls-31" d="M158.6,386.16a3.3,3.3,0,0,0,2.83-1.46v1.09a.15.15,0,0,0,.15.15h1.54a.15.15,0,0,0,.15-.15v-8.27a.15.15,0,0,0-.15-.15h-1.54a.15.15,0,0,0-.15.15V382h0a2.26,2.26,0,0,1-2.18,2.47,2.18,2.18,0,0,1-2.21-2.42v-4.55a.15.15,0,0,0-.15-.15h-1.54a.14.14,0,0,0-.14.15v4.64C155.23,384.59,156.55,386.16,158.6,386.16Z"/><path class="cls-31" d="M169.35,377.14a3.32,3.32,0,0,0-2.83,1.45v-1.07a.15.15,0,0,0-.15-.15h-1.54a.15.15,0,0,0-.15.15h0v8.27a.15.15,0,0,0,.15.15h1.54a.15.15,0,0,0,.15-.15h0v-4.51h0a2.27,2.27,0,0,1,2.19-2.48,2.18,2.18,0,0,1,2.2,2.42v4.57a.15.15,0,0,0,.15.15h1.54a.15.15,0,0,0,.14-.15h0v-4.65C172.71,378.71,171.39,377.14,169.35,377.14Z"/><path class="cls-31" d="M134.91,386.17a3.05,3.05,0,0,0,2.57-1.16v.78a.15.15,0,0,0,.15.15h1.54a.15.15,0,0,0,.14-.15V374.17a.14.14,0,0,0-.14-.15h-1.54a.15.15,0,0,0-.15.15h0v4.13a3,3,0,0,0-2.57-1.16h0a4.52,4.52,0,1,0,0,9Zm2.73-4.52a2.74,2.74,0,1,1-2.73-2.73,2.73,2.73,0,0,1,2.73,2.73Z"/><path class="cls-31" d="M124.91,386.17a3.05,3.05,0,0,0,2.57-1.16v.78a.15.15,0,0,0,.15.15h1.54a.15.15,0,0,0,.15-.15h0v-8.27a.15.15,0,0,0-.15-.15h-1.54a.15.15,0,0,0-.15.15h0v.78a3.05,3.05,0,0,0-2.57-1.16h0a4.52,4.52,0,0,0,0,9Zm2.73-4.52a2.73,2.73,0,1,1-2.73-2.73,2.72,2.72,0,0,1,2.73,2.73Z"/></g></g><rect class="cls-12" y="400.55" width="271.35" height="3.27"/><path class="cls-10" d="M94.53,432.2a1.55,1.55,0,0,1,1.56-1.55h12.8a1.55,1.55,0,0,1,1.55,1.55v17.56h46.17V432.2a1.55,1.55,0,0,1,1.55-1.55H171a1.55,1.55,0,0,1,1.56,1.55v17.56h12.53V423.65a5.59,5.59,0,0,0-5.59-5.59H91.19a5.59,5.59,0,0,0-5.59,5.59v26.11h8.93Z"/><path class="cls-12" d="M188.42,421a5.59,5.59,0,0,1,.67,2.67v26.11h0V423.65A5.59,5.59,0,0,0,188.42,421Z"/><path class="cls-12" d="M187.45,419.69a5.43,5.43,0,0,1,.69.83A5.43,5.43,0,0,0,187.45,419.69Z"/><path class="cls-12" d="M185.05,423.65v26.11h4V423.65a5.59,5.59,0,0,0-.67-2.67c-.09-.16-.18-.31-.28-.46a5.43,5.43,0,0,0-.69-.83,5.57,5.57,0,0,0-3.95-1.63h-4A5.59,5.59,0,0,1,185.05,423.65Z"/><path class="cls-9" d="M171,430.65h-12.8a1.55,1.55,0,0,0-1.55,1.55v17.56h4.53V437h2.14v12.73h9.24V432.2A1.55,1.55,0,0,0,171,430.65Zm-3.14,17.07a2.14,2.14,0,1,1,2.14-2.14A2.14,2.14,0,0,1,167.82,447.72Zm0-6.13a2.15,2.15,0,1,1,2.14-2.14A2.14,2.14,0,0,1,167.82,441.59Z"/><rect class="cls-12" x="161.14" y="437.03" width="2.14" height="12.73"/><path class="cls-17" d="M167.82,437.3a2.15,2.15,0,1,0,2.14,2.15A2.14,2.14,0,0,0,167.82,437.3Z"/><path class="cls-6" d="M167.82,443.44a2.14,2.14,0,1,0,2.14,2.14A2.14,2.14,0,0,0,167.82,443.44Z"/><path class="cls-9" d="M108.89,430.65H96.09a1.55,1.55,0,0,0-1.56,1.55v17.56h4.54V437h2.13v12.73h9.24V432.2A1.55,1.55,0,0,0,108.89,430.65Zm-3.14,17.07a2.14,2.14,0,1,1,2.14-2.14A2.14,2.14,0,0,1,105.75,447.72Zm0-6.13a2.15,2.15,0,1,1,2.14-2.14A2.14,2.14,0,0,1,105.75,441.59Z"/><rect class="cls-12" x="99.07" y="437.03" width="2.13" height="12.73"/><circle class="cls-17" cx="105.75" cy="439.45" r="2.14"/><circle class="cls-6" cx="105.75" cy="445.58" r="2.14"/><path class="cls-16" d="M279.86,360.05l0,0a14.93,14.93,0,0,1,3.81-9.12L324,305.34V89.07L290,56.43V0h-8.52V56.43l34,32.64V305.34L275.18,350.9a14.93,14.93,0,0,0-3.81,9.12l0,0v89.71h8.51Z"/><path class="cls-12" d="M209.64,438a1,1,0,0,0-1,1v10.74h2V439A1,1,0,0,0,209.64,438Z"/><path class="cls-12" d="M217.07,430.29a1,1,0,0,0-1,1v18.49h2V431.27A1,1,0,0,0,217.07,430.29Z"/><path class="cls-12" d="M224.51,426.93a1,1,0,0,0-1,1v21.84h2V427.92A1,1,0,0,0,224.51,426.93Z"/><path class="cls-12" d="M232,426.94a1,1,0,0,0-1,1v21.84h2V427.92A1,1,0,0,0,232,426.94Z"/><path class="cls-12" d="M239.39,430.29a1,1,0,0,0-1,1v18.49h2V431.27A1,1,0,0,0,239.39,430.29Z"/><path class="cls-12" d="M246.83,438a1,1,0,0,0-1,1v10.74h2V439A1,1,0,0,0,246.83,438Z"/><path class="cls-3" d="M281.47,0H290V56.43l34,32.64V305.34L283.69,350.9a14.93,14.93,0,0,0-3.81,9.12l0,0v89.71h63.27V27.4L290.38,0Z"/></g></g></g></svg>