<svg xmlns="http://www.w3.org/2000/svg" viewBox="0 0 45.67 45.67"><defs><style>.cls-1{fill:none;}.cls-2{fill:#ffb40e;}</style></defs><title>template-icon</title><g id="Layer_2" data-name="Layer 2"><g id="Layer_1-2" data-name="Layer 1"><rect class="cls-1" width="45.67" height="45.67"/><path class="cls-2" d="M-522.35-201.55H-552a4.93,4.93,0,0,1-4.93-4.93v-21.38a4.93,4.93,0,0,1,4.93-4.93h29.64a4.93,4.93,0,0,1,4.93,4.93v21.38A4.93,4.93,0,0,1-522.35-201.55ZM-552-230.79a2.94,2.94,0,0,0-2.93,2.93v21.38a2.93,2.93,0,0,0,2.93,2.93h29.64a2.93,2.93,0,0,0,2.93-2.93v-21.38a2.93,2.93,0,0,0-2.93-2.93Z" transform="translate(560 240)"/><rect class="cls-2" x="11.08" y="16.66" width="15.72" height="2"/><rect class="cls-2" x="19.15" y="26.72" width="16.3" height="2"/><path class="cls-2" d="M-526.46-219.42a2.91,2.91,0,0,1-2.91-2.92,2.91,2.91,0,0,1,2.91-2.91,2.92,2.92,0,0,1,2.92,2.91A2.92,2.92,0,0,1-526.46-219.42Zm0-3.83a.91.91,0,0,0-.91.91.92.92,0,0,0,.91.92.92.92,0,0,0,.92-.92A.92.92,0,0,0-526.46-223.25Z" transform="translate(560 240)"/><path class="cls-2" d="M-547.26-209.09a2.92,2.92,0,0,1-2.92-2.92,2.92,2.92,0,0,1,2.92-2.91,2.92,2.92,0,0,1,2.91,2.91A2.92,2.92,0,0,1-547.26-209.09Zm0-3.83a.92.92,0,0,0-.92.91.92.92,0,0,0,.92.92.92.92,0,0,0,.91-.92A.91.91,0,0,0-547.26-212.92Z" transform="translate(560 240)"/></g></g></svg>