<svg xmlns="http://www.w3.org/2000/svg" viewBox="0 0 369.61 49.48"><defs><style>.cls-1{fill:#ff7b57;}.cls-2{fill:#26d1c4;}.cls-3{fill:#007ae5;}.cls-4{fill:#3cb7f7;}.cls-5{fill:#093447;}.cls-6{fill:none;stroke:#bcbcbc;stroke-miterlimit:10;stroke-width:2px;}.cls-7{fill:#969696;}</style></defs><title>roadmunk-blog</title><g id="Layer_2" data-name="Layer 2"><g id="Layer_1-2" data-name="Layer 1"><circle class="cls-1" cx="25.99" cy="34.53" r="7.79"/><path class="cls-2" d="M11.59,11.9v-3A.55.55,0,0,0,11,8.33H.54A.54.54,0,0,0,0,8.87V33.52A26,26,0,0,1,11.59,11.9Z"/><path class="cls-3" d="M0,33.52v8.25a.54.54,0,0,0,.54.54H11a.55.55,0,0,0,.55-.54V11.9A26,26,0,0,0,0,33.52Z"/><path class="cls-4" d="M11.59,11.9V33.52a14.42,14.42,0,0,1,13.87-14.4.54.54,0,0,0,.53-.54V8.08a.55.55,0,0,0-.55-.55A25.77,25.77,0,0,0,11.59,11.9Z"/><path class="cls-5" d="M57.51,16.23c-5.26,0-6.6,3.72-6.6,3.72V17.2a.38.38,0,0,0-.37-.38H46.63a.38.38,0,0,0-.37.38v21a.38.38,0,0,0,.37.37h3.91a.38.38,0,0,0,.37-.37V27c0-5.49,4.51-5.92,5.88-5.92a5.74,5.74,0,0,1,3.51,1,.39.39,0,0,0,.56-.13l1.84-3.55a.38.38,0,0,0-.09-.47A8.47,8.47,0,0,0,57.51,16.23Z"/><path class="cls-5" d="M168.82,26.66V38.15a.38.38,0,0,0,.38.38h3.9a.38.38,0,0,0,.38-.38V26.66c0-4.75-1.53-10.41-8.81-10.41-5.76,0-7.31,4.49-7.31,4.49A6.36,6.36,0,0,0,151,16.15c-5.05,0-6,4.14-6,4.14V17.2a.38.38,0,0,0-.38-.38h-3.9a.38.38,0,0,0-.38.38v21a.38.38,0,0,0,.38.37h3.9a.38.38,0,0,0,.38-.37V26.64c0-3.9,2.49-5.95,4.94-5.95,3.28,0,4.78,3.09,4.78,6V38.15a.38.38,0,0,0,.38.38H159a.38.38,0,0,0,.38-.38V26.66c0-3.35,2.18-5.88,5.07-5.88C167.12,20.78,168.82,23,168.82,26.66Z"/><path class="cls-5" d="M74.51,16.23A11.46,11.46,0,1,0,86,27.69,11.47,11.47,0,0,0,74.51,16.23Zm0,18.4a6.94,6.94,0,1,1,6.93-6.94A7,7,0,0,1,74.51,34.63Z"/><path class="cls-5" d="M238.46,38.54h5.16a.38.38,0,0,0,.29-.63L234.45,27l8-9.44a.38.38,0,0,0-.29-.63h-5.11a.37.37,0,0,0-.29.14l-7.27,8.57V8.68a.38.38,0,0,0-.38-.38h-3.9a.38.38,0,0,0-.38.38V38.16a.38.38,0,0,0,.38.38h3.9a.38.38,0,0,0,.38-.38V28.37l8.68,10A.41.41,0,0,0,238.46,38.54Z"/><path class="cls-5" d="M185.35,39.13a8.39,8.39,0,0,0,7.18-3.7v2.73a.38.38,0,0,0,.38.38h3.9a.38.38,0,0,0,.38-.38v-21a.38.38,0,0,0-.38-.38h-3.9a.38.38,0,0,0-.38.38V28.61h0c0,3.53-2.2,6.29-5.55,6.29s-5.6-2.4-5.6-6.12V17.19a.38.38,0,0,0-.38-.38h-3.9a.38.38,0,0,0-.38.38V29C176.79,35.14,180.16,39.13,185.35,39.13Z"/><path class="cls-5" d="M212.62,16.22a8.39,8.39,0,0,0-7.18,3.7V17.19a.38.38,0,0,0-.38-.38h-3.9a.38.38,0,0,0-.38.38v21a.38.38,0,0,0,.38.38h3.9a.38.38,0,0,0,.38-.38V26.74h0c0-3.53,2.2-6.29,5.55-6.29s5.6,2.4,5.6,6.12V38.16a.38.38,0,0,0,.38.38h3.9a.38.38,0,0,0,.38-.38V26.39C221.18,20.21,217.81,16.22,212.62,16.22Z"/><path class="cls-5" d="M125.19,39.15a7.78,7.78,0,0,0,6.53-2.94v2a.38.38,0,0,0,.38.38H136a.38.38,0,0,0,.38-.38V8.68A.38.38,0,0,0,136,8.3h-3.9a.38.38,0,0,0-.38.38V19.17a7.78,7.78,0,0,0-6.53-2.94h0a11.46,11.46,0,1,0,0,22.92Zm6.94-11.46a6.94,6.94,0,1,1-6.94-6.94A6.94,6.94,0,0,1,132.13,27.69Z"/><path class="cls-5" d="M99.81,39.15a7.78,7.78,0,0,0,6.53-2.94v2a.38.38,0,0,0,.37.38h3.91a.38.38,0,0,0,.37-.38v-21a.38.38,0,0,0-.37-.38h-3.91a.38.38,0,0,0-.37.38v2a7.78,7.78,0,0,0-6.53-2.94h0a11.46,11.46,0,0,0,0,22.92Zm6.94-11.46a6.94,6.94,0,1,1-6.94-6.94A6.94,6.94,0,0,1,106.75,27.69Z"/><line class="cls-6" x1="270.05" x2="270.05" y2="49.48"/><path class="cls-7" d="M293.5,11h7.95q5.6,0,8.1,1.68A5.91,5.91,0,0,1,312.06,18a6.11,6.11,0,0,1-1.4,4.13,6.69,6.69,0,0,1-4.07,2.11v.19q6.41,1.1,6.41,6.74A7.24,7.24,0,0,1,310.45,37a10.87,10.87,0,0,1-7.13,2.12H293.5ZM296.77,23h5.39q3.46,0,5-1.08a4.22,4.22,0,0,0,1.52-3.67,3.72,3.72,0,0,0-1.7-3.42,10.56,10.56,0,0,0-5.39-1h-4.81Zm0,2.78V36.34h5.87A8.36,8.36,0,0,0,307.77,35a4.87,4.87,0,0,0,1.72-4.13A4.35,4.35,0,0,0,307.73,27a9.41,9.41,0,0,0-5.36-1.23Z"/><path class="cls-7" d="M321.76,39.13h-3.2V9.18h3.2Z"/><path class="cls-7" d="M346.74,28.56q0,5.16-2.6,8.05a9.11,9.11,0,0,1-7.18,2.9,9.46,9.46,0,0,1-5-1.33,8.76,8.76,0,0,1-3.39-3.81,13.33,13.33,0,0,1-1.19-5.81q0-5.16,2.58-8a9.1,9.1,0,0,1,7.16-2.87,8.92,8.92,0,0,1,7,2.94A11.58,11.58,0,0,1,346.74,28.56Zm-16.07,0a10,10,0,0,0,1.62,6.16,6.4,6.4,0,0,0,9.51,0c1.09-1.41,1.63-3.46,1.63-6.17s-.54-4.72-1.63-6.11a5.71,5.71,0,0,0-4.8-2.09,5.62,5.62,0,0,0-4.73,2.06Q330.67,24.48,330.67,28.56Z"/><path class="cls-7" d="M369.61,18v2l-3.91.46a6.72,6.72,0,0,1,1,1.76,6.61,6.61,0,0,1,.43,2.46A6.27,6.27,0,0,1,365,29.68a8.54,8.54,0,0,1-5.81,1.84,9.9,9.9,0,0,1-1.77-.15c-1.36.72-2,1.62-2,2.71a1.36,1.36,0,0,0,.71,1.28,5.11,5.11,0,0,0,2.44.42h3.74a8.36,8.36,0,0,1,5.26,1.44,5,5,0,0,1,1.84,4.2,6,6,0,0,1-2.81,5.34c-1.87,1.22-4.61,1.84-8.2,1.84A11.24,11.24,0,0,1,352,47.06a5,5,0,0,1-2.24-4.35,4.87,4.87,0,0,1,1.23-3.33,6.27,6.27,0,0,1,3.46-1.91,3.26,3.26,0,0,1-1.35-1.13,3,3,0,0,1-.55-1.79,3.41,3.41,0,0,1,.61-2,6.56,6.56,0,0,1,1.95-1.67,5.72,5.72,0,0,1-2.67-2.29,6.71,6.71,0,0,1-1-3.7,6.81,6.81,0,0,1,2.08-5.34,8.5,8.5,0,0,1,5.89-1.87,10.56,10.56,0,0,1,3,.38ZM352.78,42.67a2.88,2.88,0,0,0,1.45,2.6,8,8,0,0,0,4.14.88,11.55,11.55,0,0,0,5.95-1.2,3.67,3.67,0,0,0,1.94-3.26,2.57,2.57,0,0,0-1.06-2.38,8.26,8.26,0,0,0-4-.66h-3.83a5,5,0,0,0-3.39,1A3.7,3.7,0,0,0,352.78,42.67Zm1.74-17.88a4.29,4.29,0,0,0,1.25,3.35,5,5,0,0,0,3.48,1.13q4.68,0,4.68-4.54,0-4.76-4.73-4.76a4.69,4.69,0,0,0-3.47,1.22A4.87,4.87,0,0,0,354.52,24.79Z"/></g></g></svg>