<svg xmlns="http://www.w3.org/2000/svg" viewBox="0 0 158.48 21.42"><defs><style>.cls-1{fill:#7e8a94;}</style></defs><title>roadmunk-back</title><g id="Layer_2" data-name="Layer 2"><g id="Layer_1-2" data-name="Layer 1"><path class="cls-1" d="M29,5.51c-3.65,0-4.58,2.57-4.58,2.57V6.18a.26.26,0,0,0-.26-.26H21.46a.25.25,0,0,0-.26.26V20.74a.26.26,0,0,0,.26.26h2.71a.26.26,0,0,0,.26-.26V13a3.8,3.8,0,0,1,4.08-4.1A4,4,0,0,1,31,9.54a.25.25,0,0,0,.38-.09L32.61,7a.26.26,0,0,0-.06-.33A5.84,5.84,0,0,0,29,5.51Z"/><path class="cls-1" d="M106.29,12.74v8a.27.27,0,0,0,.27.27h2.7a.27.27,0,0,0,.27-.27v-8c0-3.3-1.06-7.23-6.12-7.23a5.17,5.17,0,0,0-5.07,3.13,4.42,4.42,0,0,0-4.41-3.19,4.06,4.06,0,0,0-4.19,2.87V6.18a.25.25,0,0,0-.26-.26H86.75a.26.26,0,0,0-.26.26V20.74a.26.26,0,0,0,.26.26h2.71a.26.26,0,0,0,.26-.26v-8c0-2.71,1.73-4.13,3.43-4.13,2.28,0,3.32,2.15,3.32,4.14v8a.26.26,0,0,0,.27.26h2.71a.26.26,0,0,0,.26-.26v-8c0-2.32,1.52-4.08,3.52-4.08S106.29,10.23,106.29,12.74Z"/><path class="cls-1" d="M40.81,5.5a8,8,0,1,0,8,8A8,8,0,0,0,40.81,5.5Zm0,12.78a4.82,4.82,0,1,1,4.82-4.82A4.83,4.83,0,0,1,40.81,18.28Z"/><path class="cls-1" d="M154.64,21h3.58a.26.26,0,0,0,.2-.43L151.85,13l5.56-6.56a.26.26,0,0,0-.2-.43h-3.55a.25.25,0,0,0-.2.09L148.41,12V.26a.26.26,0,0,0-.26-.26h-2.71a.26.26,0,0,0-.26.26V20.73a.26.26,0,0,0,.26.26h2.71a.26.26,0,0,0,.26-.26v-6.8l6,7A.25.25,0,0,0,154.64,21Z"/><path class="cls-1" d="M117.77,21.4a5.83,5.83,0,0,0,5-2.57v1.9A.26.26,0,0,0,123,21h2.71a.26.26,0,0,0,.26-.26V6.17a.26.26,0,0,0-.26-.27H123a.27.27,0,0,0-.26.27V14.1h0c0,2.45-1.53,4.37-3.86,4.37S115,16.8,115,14.22v-8a.27.27,0,0,0-.26-.27H112a.26.26,0,0,0-.26.27v8.17C111.82,18.63,114.16,21.4,117.77,21.4Z"/><path class="cls-1" d="M136.7,5.5a5.84,5.84,0,0,0-5,2.57V6.17a.26.26,0,0,0-.26-.26h-2.71a.25.25,0,0,0-.26.26V20.73a.25.25,0,0,0,.26.26h2.71a.26.26,0,0,0,.26-.26V12.8h0c0-2.45,1.53-4.37,3.86-4.37s3.88,1.67,3.88,4.25v8.05a.26.26,0,0,0,.26.26h2.71a.26.26,0,0,0,.27-.26V12.56C142.64,8.26,140.3,5.5,136.7,5.5Z"/><path class="cls-1" d="M76,21.41a5.38,5.38,0,0,0,4.53-2v1.37a.26.26,0,0,0,.26.26H83.5a.26.26,0,0,0,.26-.26V.26A.26.26,0,0,0,83.5,0H80.79a.26.26,0,0,0-.26.26V7.54A5.38,5.38,0,0,0,76,5.5h0a8,8,0,1,0,0,15.91Zm4.82-7.95A4.82,4.82,0,1,1,76,8.64,4.82,4.82,0,0,1,80.82,13.46Z"/><path class="cls-1" d="M58.38,21.41a5.38,5.38,0,0,0,4.53-2v1.37a.26.26,0,0,0,.26.26h2.71a.26.26,0,0,0,.26-.26V6.18a.26.26,0,0,0-.26-.27H63.17a.27.27,0,0,0-.26.27V7.54a5.38,5.38,0,0,0-4.53-2h0a8,8,0,1,0,0,15.91Zm4.81-7.95a4.82,4.82,0,1,1-4.81-4.82A4.81,4.81,0,0,1,63.19,13.46Z"/><polygon class="cls-1" points="7.24 20.47 0 13.23 7.24 5.98 7.24 20.47"/></g></g></svg>