<svg xmlns="http://www.w3.org/2000/svg" viewBox="0 0 96.76 96.76"><defs><style>.cls-1{fill:#fbd5c6;}.cls-2,.cls-6{fill:none;}.cls-3{fill:#ef290a;}.cls-4{fill:#e01e00;}.cls-5{fill:#f76631;}.cls-6{stroke:#093447;stroke-miterlimit:10;stroke-width:1.36px;}</style></defs><title>basics-ch4</title><g id="Layer_2" data-name="Layer 2"><g id="Layer_1-2" data-name="Layer 1"><polyline class="cls-1" points="22.45 47.45 14.46 39.41 5.79 39.41 3.05 47.45"/><polyline class="cls-1" points="22.45 49.29 14.46 57.33 5.79 57.33 3.05 49.29"/><rect class="cls-2" width="96.76" height="96.76"/><rect class="cls-3" x="63.86" y="3.88" width="9.92" height="89.01"/><ellipse class="cls-4" cx="73.78" cy="48.38" rx="15.64" ry="44.5"/><ellipse class="cls-1" cx="63.86" cy="48.38" rx="15.64" ry="44.5"/><ellipse class="cls-5" cx="63.86" cy="48.38" rx="11.42" ry="32.5"/><ellipse class="cls-1" cx="63.86" cy="48.38" rx="7.33" ry="20.85"/><ellipse class="cls-4" cx="63.86" cy="48.38" rx="2.48" ry="7.05"/><line class="cls-6" x1="63.86" y1="48.38" x2="54.25" y2="48.38"/><polyline class="cls-5" points="9.18 39.41 17.52 47.85 16.55 48.8 7.27 39.41"/><polyline class="cls-5" points="4.78 42.36 10.24 47.88 9.27 48.84 4.29 43.8"/><polyline class="cls-5" points="9.18 57.33 17.52 48.88 16.55 47.93 7.27 57.32"/><polyline class="cls-5" points="4.78 54.37 10.24 48.85 9.27 47.9 4.29 52.93"/><path class="cls-4" d="M52.23,50.38l-49.18-1v-2l49.18-1a2,2,0,0,1,2,2h0A2,2,0,0,1,52.23,50.38Z"/><line class="cls-6" x1="43.99" y1="38.31" x2="38.18" y2="31.95"/><line class="cls-6" x1="40.59" y1="42.13" x2="34.75" y2="40.1"/><line class="cls-6" x1="43.99" y1="58.42" x2="38.18" y2="64.78"/><line class="cls-6" x1="40.59" y1="54.6" x2="34.75" y2="56.63"/></g></g></svg>