<svg xmlns="http://www.w3.org/2000/svg" viewBox="0 0 96.76 96.76"><defs><style>.cls-1{fill:none;}.cls-2{fill:#88e6c1;}.cls-3{fill:#096642;}.cls-4{fill:#093447;}</style></defs><title>bus-ch7</title><g id="Layer_2" data-name="Layer 2"><g id="Layer_1-2" data-name="Layer 1"><rect class="cls-1" width="96.76" height="96.76"/><polygon class="cls-2" points="72.91 93.96 23.04 93.96 18.41 62.12 77.54 62.12 72.91 93.96"/><path class="cls-3" d="M18.41,62.12H77.54L72.91,94H57.47l3.74-22.89c.27-1.7-1.49-3.21-3.77-3.21l-38.21-.09Z"/><path class="cls-4" d="M65.73,84.64a6.64,6.64,0,0,1-5-2.38c-1.08-1-2-1.92-3.93-1.92s-2.85.89-3.93,1.92a6.51,6.51,0,0,1-10.06,0c-1.08-1-2-1.92-3.93-1.92a5.12,5.12,0,0,0-3.92,1.92,6.65,6.65,0,0,1-5,2.38c-2.51,0-3.86-1.3-5.05-2.45s-2.09-2-4-1.85l-.14-1.59c2.64-.23,4,1.11,5.26,2.29s2.07,2,3.94,2,2.85-.9,3.93-1.93a6.53,6.53,0,0,1,10.07,0c1.07,1,2,1.93,3.92,1.93s2.85-.9,3.93-1.93a6.52,6.52,0,0,1,10.06,0c1.08,1,2,1.93,3.93,1.93s2.84-.91,3.94-2a6.49,6.49,0,0,1,5.15-2.34l-.07,1.6c-1.92-.09-2.87.83-4,1.89A6.74,6.74,0,0,1,65.73,84.64Z"/><path class="cls-3" d="M66.74,51.39C69.63,26.82,67,9.12,65.58,2.26a1.2,1.2,0,0,0-1.22-.92,1.14,1.14,0,0,0-1,.59,140.66,140.66,0,0,0-7.65,17.62,142.55,142.55,0,0,1,3.87,31.84Z"/><path class="cls-3" d="M57,51.39c0-1.08,0-2.14-.08-3.19v-.06c0-1.32-.11-2.61-.18-3.88v-.15c-.08-1.22-.17-2.43-.27-3.6l0-.24q-.15-1.71-.33-3.33l0-.32c-.12-1-.25-2.06-.38-3.06,0-.13,0-.26-.05-.38-.14-1-.28-1.91-.42-2.83,0-.13,0-.27-.07-.4-.15-.93-.3-1.82-.46-2.69L54.64,27c-.17-1-.36-1.88-.54-2.77h0a106.91,106.91,0,0,0-3.72-13.61,1.49,1.49,0,0,0-2.66,0,123.52,123.52,0,0,0-7.93,40.86Z"/><path class="cls-3" d="M69,51.39h6.81c6.22-17.33,6.92-30.81,6.92-36a1.18,1.18,0,0,0-1.9-.9A101.51,101.51,0,0,0,70.23,24.73,184.41,184.41,0,0,1,69,51.39Z"/><path class="cls-3" d="M37.93,51.39c-.59-1.37-1.19-2.7-1.81-4L36,47.22c-1.49-3.14-3-6.1-4.58-8.85L31,37.6c-.28-.49-.56-1-.83-1.44s-.43-.72-.64-1.08-.47-.79-.7-1.17L28,32.53A119.43,119.43,0,0,0,17.9,18.42a1.12,1.12,0,0,0-.87-.37,1.36,1.36,0,0,0-1.42,1.24,114.24,114.24,0,0,0,5.09,32.1Z"/><path class="cls-3" d="M37.53,44.85a129.08,129.08,0,0,1,3.91-23.09,115.2,115.2,0,0,0-9.84-17,1.71,1.71,0,0,0-2.71.65,126.23,126.23,0,0,0-1.52,21.76A147,147,0,0,1,37.53,44.85Z"/><rect class="cls-4" x="22.32" y="88.2" width="51.31" height="1.6"/><rect class="cls-2" x="14.84" y="51.39" width="66.26" height="10.74" rx="1.97" ry="1.97"/></g></g></svg>