<svg xmlns="http://www.w3.org/2000/svg" viewBox="0 0 96.76 96.76"><defs><style>.cls-1{fill:#0061bc;}.cls-2{fill:none;}.cls-3{fill:#9adcfa;}.cls-4{fill:#2ebaf6;}.cls-5{fill:#093447;}.cls-6{fill:#0074e0;}.cls-7{fill:#e9f7fd;}</style></defs><title>bus-ch2</title><g id="Layer_2" data-name="Layer 2"><g id="Nav"><rect class="cls-1" x="7.21" y="13.08" width="87.33" height="69.49" rx="5" ry="5"/><rect class="cls-2" width="96.76" height="96.76"/><rect class="cls-3" x="3.71" y="13.08" width="87.33" height="69.49" rx="5" ry="5"/><path class="cls-4" d="M3.71,75.31l11.38-4.47h13l13-15.41L51.71,61,71,31.17H81.89l6.62-9.94h2.54V77.58a5,5,0,0,1-5,5H8.71a5,5,0,0,1-5-5Z"/><path class="cls-5" d="M4,76.1,3.4,74.53l11.38-4.48a.85.85,0,0,1,.31-.06H27.7l12.75-15.1a.84.84,0,0,1,1-.21l9.94,5.17L70.29,30.71a.85.85,0,0,1,.71-.39H81.43l6.38-9.56a.84.84,0,0,1,.7-.37h2.54v1.69H89l-6.37,9.56a.86.86,0,0,1-.7.38H71.46l-19,29.4a.85.85,0,0,1-1.1.29l-10-5.21L28.74,71.38a.85.85,0,0,1-.65.3H15.25Z"/><circle class="cls-1" cx="28.09" cy="69.84" r="4.33"/><circle class="cls-1" cx="51.71" cy="59.58" r="4.33"/><circle class="cls-1" cx="71.65" cy="31.65" r="4.33"/><rect class="cls-1" x="12.09" y="19.84" width="5.69" height="5.69"/><rect class="cls-6" x="12.09" y="28.81" width="5.69" height="5.69"/><rect class="cls-7" x="12.09" y="37.78" width="5.69" height="5.69"/><rect class="cls-5" x="23.76" y="21.84" width="10.67" height="1.69"/><rect class="cls-5" x="23.76" y="30.81" width="10.67" height="1.69"/><rect class="cls-5" x="23.76" y="39.78" width="10.67" height="1.69"/></g></g></svg>