<svg xmlns="http://www.w3.org/2000/svg" viewBox="0 0 96.76 96.76"><defs><style>.cls-1{fill:none;}.cls-2{fill:#0064bc;}.cls-3{fill:#d5f1fd;}.cls-4{fill:#008ee0;}.cls-5{fill:#093447;}</style></defs><title>bus-ch5</title><g id="Layer_2" data-name="Layer 2"><g id="Layer_1-2" data-name="Layer 1"><rect class="cls-1" width="96.76" height="96.76"/><path class="cls-2" d="M4.13,38.41,42.47,11.07a7.81,7.81,0,0,1,8.82,0L89.62,38.41,46.88,88.31Z"/><rect class="cls-3" x="12.4" y="18.45" width="69.12" height="44.91"/><polygon class="cls-4" points="4.13 38.41 4.13 88.31 38.77 58.91 4.13 38.41"/><polygon class="cls-4" points="89.62 38.41 89.62 88.31 54.98 58.91 89.62 38.41"/><path class="cls-2" d="M42.28,55.57,4.13,88.31H89.62L51.48,55.57A7.31,7.31,0,0,0,42.28,55.57Z"/><rect class="cls-5" x="74.62" y="5.59" width="1.53" height="7.7" transform="matrix(1, -0.03, 0.03, 1, -0.26, 2.42)"/><rect class="cls-5" x="82.46" y="11.4" width="8.28" height="1.53" transform="translate(16.79 64.83) rotate(-45.03)"/><rect class="cls-5" x="86.86" y="22.68" width="7.77" height="1.53"/><rect class="cls-4" x="44.72" y="15.11" width="1.91" height="36.08" transform="translate(10.85 77.56) rotate(-87.86)"/><rect class="cls-4" x="28.51" y="40.86" width="35.22" height="1.91" transform="translate(-2.1 2.44) rotate(-2.96)"/></g></g></svg>