<svg xmlns="http://www.w3.org/2000/svg" viewBox="0 0 96.76 96.76"><defs><style>.cls-1{fill:none;}.cls-2{fill:#ef290a;}.cls-3{fill:#fbd5c6;}.cls-4{fill:#f76631;}.cls-5{fill:#093447;}.cls-6{fill:#ffcab8;}.cls-7{fill:#ff6239;}.cls-8{opacity:0.8;}.cls-9{fill:#fff;}</style></defs><title>bus-ch1</title><g id="Layer_2" data-name="Layer 2"><g id="Layer_1-2" data-name="Layer 1"><rect class="cls-1" width="96.76" height="96.76"/><rect class="cls-2" x="11.9" y="15.93" width="83.75" height="57.46"/><path class="cls-3" d="M9.36,15.9H93.11a0,0,0,0,1,0,0V71.05a0,0,0,0,1,0,0H12.33a3,3,0,0,1-3-3V15.9A0,0,0,0,1,9.36,15.9Z"/><circle class="cls-4" cx="34.65" cy="43.51" r="14.35"/><path class="cls-2" d="M44.79,53.65,34.65,43.51V29.16A14.35,14.35,0,0,1,44.8,53.66"/><rect class="cls-4" x="66.44" y="40.03" width="26.88" height="6.97" transform="translate(123.39 -36.37) rotate(90)"/><rect class="cls-4" x="61.83" y="45.63" width="15.66" height="6.97" transform="translate(118.78 -20.55) rotate(90)"/><rect class="cls-4" x="47.71" y="42.36" width="22.21" height="6.97" transform="translate(104.65 -12.96) rotate(90)"/><rect class="cls-5" x="53.39" y="56.39" width="31.9" height="1.13"/><rect class="cls-5" x="50.67" y="71.05" width="1.13" height="3.71"/><path class="cls-5" d="M51.24,79.74A2.79,2.79,0,1,1,54,77,2.79,2.79,0,0,1,51.24,79.74Zm0-4.45A1.67,1.67,0,1,0,52.9,77,1.67,1.67,0,0,0,51.24,75.29Z"/><path class="cls-2" d="M7,10.05H96.44a0,0,0,0,1,0,0v5.88a0,0,0,0,1,0,0H9.11A2.1,2.1,0,0,1,7,13.83V10.05a0,0,0,0,1,0,0Z"/><polygon class="cls-6" points="27.27 90.41 4.77 90.41 1.96 52.15 30.09 52.15 27.27 90.41"/><path class="cls-2" d="M3.93,49.47H28.11a2,2,0,0,1,2,2v.9a0,0,0,0,1,0,0H2a0,0,0,0,1,0,0v-.9A2,2,0,0,1,3.93,49.47Z"/><circle class="cls-7" cx="19.31" cy="71.28" r="7.5"/><path class="cls-5" d="M19.32,81.71l-.71-.87c2.42-2,1.38-6.2.38-10.28s-1.93-7.83.37-9.72l.71.88c-1.75,1.43-.89,4.9,0,8.57C21.17,74.71,22.3,79.28,19.32,81.71Z"/><g class="cls-8"><path class="cls-9" d="M13.77,37.54a6.39,6.39,0,0,1,0-12.78"/></g><g class="cls-8"><path class="cls-9" d="M13.77,13a7.48,7.48,0,1,1,0,15"/></g><g class="cls-8"><path class="cls-9" d="M13.77,34.75a4.52,4.52,0,1,1,0,9"/></g><path class="cls-2" d="M7,47.29H25a1.06,1.06,0,0,1,1.06,1.06V50a0,0,0,0,1,0,0H5.95a0,0,0,0,1,0,0V48.35A1.06,1.06,0,0,1,7,47.29Z"/><rect class="cls-9" x="5.56" y="56.06" width="1.13" height="30.77" transform="translate(-5.87 0.75) rotate(-4.73)"/></g></g></svg>