<svg xmlns="http://www.w3.org/2000/svg" viewBox="0 0 96.76 96.76"><defs><style>.cls-1{fill:#b2f1eb;}.cls-2{fill:none;}.cls-3{fill:#00baaa;}.cls-4{fill:#007369;}.cls-5{fill:#00ab9c;}.cls-6{fill:#fff;}.cls-7{fill:#093447;}</style></defs><title>bus-ch3</title><g id="Layer_2" data-name="Layer 2"><g id="Layer_1-2" data-name="Layer 1"><path class="cls-1" d="M84.2,46.71H28.34a6,6,0,0,0-5.85,4.57c-1.4,6-.86,15.83-18.68,16.85h0a3.78,3.78,0,0,0-3.69,3L0,84.45H53.16L53.39,72a5.24,5.24,0,0,1,4.73-4C83.16,66.22,84.2,46.71,84.2,46.71Z"/><rect class="cls-2" width="96.76" height="96.76"/><path class="cls-3" d="M42.48,70.73H16.67a1.21,1.21,0,0,1-.79-2.12h0a1.2,1.2,0,0,1,.79-.29H42.48a1.2,1.2,0,0,1,.78,2.11h0A1.17,1.17,0,0,1,42.48,70.73Z"/><circle class="cls-3" cx="25.59" cy="63.26" r="1.74"/><circle class="cls-3" cx="35.72" cy="63.26" r="1.74"/><circle class="cls-3" cx="45.84" cy="63.26" r="1.74"/><circle class="cls-3" cx="55.97" cy="63.26" r="1.74"/><circle class="cls-3" cx="31.14" cy="58.44" r="1.74"/><circle class="cls-3" cx="40.98" cy="58.44" r="1.74"/><circle class="cls-3" cx="50.77" cy="58.44" r="1.74"/><circle class="cls-3" cx="60.94" cy="58.44" r="1.74"/><circle class="cls-3" cx="35.75" cy="53.11" r="1.74"/><circle class="cls-3" cx="45.87" cy="53.11" r="1.74"/><circle class="cls-3" cx="56" cy="53.11" r="1.74"/><circle class="cls-3" cx="66.12" cy="53.11" r="1.74"/><path class="cls-4" d="M83,46.71a4.64,4.64,0,0,0-4.58,3.72C77.36,56.18,76.2,66.71,58.12,68a5.24,5.24,0,0,0-4.73,4l-.23,12.47H94.68V49.71a3,3,0,0,0-3-3Z"/><rect class="cls-5" x="81.63" y="77.49" width="8.99" height="3.92" rx="0.64" ry="0.64"/><path class="cls-4" d="M82.82,46.71h9V42.78a4.52,4.52,0,0,0-4.52-4.52H80.52v8.45Z"/><path class="cls-5" d="M86.24,21A4.38,4.38,0,1,1,95,21V31.68H84.55L86.24,21"/><path class="cls-6" d="M46.81,21c.41-2.49,2-4.38,4.37-4.38H90.62c-2.42,0-4,1.87-4.38,4.38L82.15,46.71H42.72Z"/><rect class="cls-7" x="52.35" y="24.14" width="25.19" height="1.53" transform="translate(-0.54 1.45) rotate(-1.28)"/><rect class="cls-7" x="63.7" y="19.38" width="1.53" height="25.68" transform="translate(31.48 96.29) rotate(-89.31)"/><rect class="cls-7" x="50.9" y="38.62" width="25.06" height="1.53" transform="translate(-0.86 1.42) rotate(-1.28)"/><circle class="cls-5" cx="77.64" cy="79.45" r="1.96"/></g></g></svg>