<svg xmlns="http://www.w3.org/2000/svg" viewBox="0 0 96.76 96.76"><defs><style>.cls-1{fill:none;}.cls-2{fill:#db4619;}.cls-3{fill:#f66631;}.cls-4{fill:#fff8e3;}.cls-5{fill:#093447;}</style></defs><title>bus-ch6</title><g id="Layer_2" data-name="Layer 2"><g id="Layer_1-2" data-name="Layer 1"><rect class="cls-1" width="96.76" height="96.76"/><rect class="cls-2" x="4.84" y="9.47" width="91.93" height="75.27" rx="5.4" ry="5.4"/><rect class="cls-3" x="0.58" y="9.47" width="91.93" height="75.27" rx="5.4" ry="5.4"/><rect class="cls-4" x="5.26" y="14.97" width="82.56" height="51.76"/><path class="cls-2" d="M12.28,82.64a6.8,6.8,0,0,0,0-13.6H10.1v13.6Z"/><circle class="cls-4" cx="10.1" cy="75.84" r="6.8"/><path class="cls-2" d="M84,82.64A6.8,6.8,0,1,0,84,69H81.78v13.6Z"/><circle class="cls-4" cx="81.78" cy="75.84" r="6.8"/><path class="cls-5" d="M13.51,57H11.89V48.68a2.89,2.89,0,0,1,2.89-2.89l66.91-.22V32.23H5.26V30.61H82.5a.82.82,0,0,1,.81.81v15a.81.81,0,0,1-.81.81l-67.72.23a1.26,1.26,0,0,0-1.27,1.26Z"/><rect class="cls-4" x="16.57" y="28.12" width="31.67" height="6.6" rx="3.3" ry="3.3"/><path class="cls-5" d="M45,35.53H19.87a4.11,4.11,0,1,1,0-8.22H45a4.11,4.11,0,0,1,0,8.22ZM19.87,28.94a2.49,2.49,0,1,0,0,5H45a2.49,2.49,0,1,0,0-5Z"/><rect class="cls-4" x="26.66" y="43.31" width="25.54" height="6.6" rx="3.3" ry="3.3"/><path class="cls-5" d="M48.9,50.71H30a4.11,4.11,0,0,1,0-8.21h19a4.11,4.11,0,1,1,0,8.21ZM30,44.12a2.49,2.49,0,0,0,0,5h19a2.49,2.49,0,1,0,0-5Z"/><rect class="cls-4" x="58.49" y="43.31" width="17.12" height="6.6" rx="3.3" ry="3.3"/><path class="cls-5" d="M72.31,50.71H61.78a4.11,4.11,0,1,1,0-8.21H72.31a4.11,4.11,0,1,1,0,8.21ZM61.78,44.12a2.49,2.49,0,0,0,0,5H72.31a2.49,2.49,0,1,0,0-5Z"/><circle class="cls-4" cx="64.06" cy="31.42" r="3.3"/><path class="cls-5" d="M64.06,35.53a4.11,4.11,0,1,1,4.1-4.11A4.11,4.11,0,0,1,64.06,35.53Zm0-6.59a2.49,2.49,0,1,0,2.48,2.48A2.49,2.49,0,0,0,64.06,28.94Z"/><rect class="cls-2" x="31.45" y="74.66" width="8.09" height="2.27" transform="translate(-47.31 87.92) rotate(-73.24)"/><path class="cls-2" d="M41.25,79.38H37.08V77.11h3.31l1.27-4.34,2.18.63-1.5,5.16A1.14,1.14,0,0,1,41.25,79.38Z"/><rect class="cls-2" x="44.91" y="75.36" width="2.5" height="2.27"/><path class="cls-2" d="M48.63,80.35l-.5-2.21c1.73-.39,1.75-.78,1.83-2.08a6.43,6.43,0,0,1,.81-3.15l1.95,1.17a4.28,4.28,0,0,0-.49,2.11C52.14,77.63,52,79.59,48.63,80.35Z"/><path class="cls-2" d="M57.91,79.38H54.75A1.13,1.13,0,0,1,53.64,78l1.08-4.75,2.21.5-.76,3.36h1.74Z"/></g></g></svg>