<svg xmlns="http://www.w3.org/2000/svg" viewBox="0 0 96.76 96.76"><defs><style>.cls-1{fill:#b2b3ec;}.cls-2{fill:none;}.cls-3{fill:#1f2372;}.cls-4{fill:#d7daf2;}.cls-5{fill:#383a9b;}</style></defs><title>bus-ch4</title><g id="Layer_2" data-name="Layer 2"><g id="Layer_1-2" data-name="Layer 1"><path class="cls-1" d="M34.84,63.22H62.25a30.69,30.69,0,1,0-27.41,0Z"/><rect class="cls-2" width="96.76" height="96.76"/><rect class="cls-3" x="17.86" y="76.29" width="61.36" height="16"/><path class="cls-4" d="M25.08,45.69A25.47,25.47,0,0,1,62,14.13,27.54,27.54,0,0,0,33.36,20.9C20.36,33.89,25.08,45.69,25.08,45.69Z"/><circle class="cls-4" cx="34.47" cy="22.32" r="3.55"/><rect class="cls-5" x="61.12" y="76.29" width="4.01" height="16"/><rect class="cls-4" x="84.53" y="34.07" width="8.86" height="1.61"/><rect class="cls-4" x="79.5" y="13.96" width="8.86" height="1.61" transform="translate(3.86 43.94) rotate(-30)"/><rect class="cls-4" x="83.13" y="50.54" width="1.61" height="8.86" transform="translate(-5.64 100.18) rotate(-60)"/><rect class="cls-4" x="2.75" y="34.07" width="8.86" height="1.61"/><rect class="cls-4" x="11.4" y="10.34" width="1.61" height="8.86" transform="translate(-6.69 17.96) rotate(-60.01)"/><rect class="cls-4" x="7.78" y="54.17" width="8.86" height="1.61" transform="translate(-25.85 13.47) rotate(-30)"/><path class="cls-3" d="M74,74.25s-5.93-4.38-8.54-8.76H58.63a103.25,103.25,0,0,0,6.25,8.76Z"/><path class="cls-3" d="M56,65.49H31.62c-2.73,5.15-8.55,8.76-8.55,8.76H61.12A52.64,52.64,0,0,1,56,65.49Z"/><path class="cls-5" d="M49.14,40.7H47.25V36.83A.94.94,0,0,1,48,35.9a5.63,5.63,0,0,0,4.19-5.12,3,3,0,0,0-1-2.39,3.21,3.21,0,0,0-2.73-.51,5.68,5.68,0,0,0-3.61,2.89l-1.68-.89A7.51,7.51,0,0,1,48,26a5,5,0,0,1,4.33.88,4.83,4.83,0,0,1,1.76,3.87,7.46,7.46,0,0,1-4.94,6.76Z"/><ellipse class="cls-5" cx="48.1" cy="44.76" rx="1.32" ry="1.05" transform="translate(-17.33 50.82) rotate(-48.23)"/></g></g></svg>