<svg xmlns="http://www.w3.org/2000/svg" viewBox="0 0 80.63 80.63"><defs><style>.cls-1{fill:none;}.cls-2{fill:#d9f1fd;}.cls-3{fill:#0074e0;}.cls-4{fill:#0034c5;}.cls-5{fill:#093447;}</style></defs><title>product-ch6</title><g id="Layer_2" data-name="Layer 2"><g id="Layer_1-2" data-name="Layer 1"><rect class="cls-1" width="80.63" height="80.63"/><polygon class="cls-2" points="32.88 64.69 7.34 50.25 48.22 26.93 73.29 41.64 32.88 64.69"/><polygon class="cls-3" points="32.89 79.83 7.34 65.28 7.34 50.27 32.88 64.71 32.89 79.83"/><polygon class="cls-4" points="32.89 79.83 73.29 56.62 73.29 41.6 32.88 64.71 32.89 79.83"/><polygon class="cls-5" points="73.29 41.57 71.63 42.53 71.63 29.54 73.29 29.54 73.29 41.57"/><polygon class="cls-5" points="24.34 40.55 22.68 41.51 22.68 28.52 24.34 28.52 24.34 40.55"/><ellipse class="cls-2" cx="48.5" cy="43.77" rx="4.63" ry="2.63"/><path class="cls-3" d="M53.11,43.93C53,45.31,51,46.4,48.5,46.4s-4.63-1.18-4.63-2.63V49.2h0c.16,1.37,2.16,2.46,4.61,2.46S53,50.57,53.11,49.2h0v0a.57.57,0,0,0,0-.3Z"/><ellipse class="cls-2" cx="35.73" cy="36.7" rx="4.63" ry="2.63"/><path class="cls-3" d="M40.34,36.85c-.14,1.38-2.15,2.47-4.61,2.47S31.1,38.15,31.1,36.7v5.43h0c.15,1.37,2.16,2.45,4.61,2.45s4.45-1.08,4.61-2.45h0v0a.81.81,0,0,0,0-.16.76.76,0,0,0,0-.15Z"/><ellipse class="cls-2" cx="34.5" cy="51.84" rx="4.63" ry="2.63"/><path class="cls-3" d="M39.12,52C39,53.37,37,54.47,34.5,54.47s-4.62-1.18-4.62-2.63v5.43h0c.16,1.37,2.16,2.46,4.61,2.46s4.46-1.09,4.61-2.46h0v0s0-.1,0-.15,0-.11,0-.16Z"/><ellipse class="cls-2" cx="21.73" cy="44.76" rx="4.63" ry="2.63"/><path class="cls-3" d="M26.34,44.91c-.14,1.38-2.14,2.48-4.61,2.48s-4.62-1.18-4.62-2.63v5.43h0c.16,1.37,2.16,2.46,4.61,2.46s4.46-1.09,4.61-2.46h0v0a.77.77,0,0,0,0-.15,1,1,0,0,0,0-.16Z"/><ellipse class="cls-2" cx="61.19" cy="36.7" rx="4.63" ry="2.63"/><path class="cls-3" d="M65.8,36.85c-.14,1.38-2.15,2.47-4.61,2.47s-4.63-1.17-4.63-2.62v5.43h0c.16,1.37,2.16,2.45,4.61,2.45s4.45-1.08,4.61-2.45h0v0a.61.61,0,0,0,0-.31Z"/><polygon class="cls-5" points="49.05 55.47 47.39 56.43 47.39 43.44 49.05 43.44 49.05 55.47"/><polygon class="cls-2" points="48.22 29.95 22.68 15.51 48.22 1.07 73.29 15.78 48.22 29.95"/><polygon class="cls-3" points="48.24 45.09 22.68 30.53 22.68 15.51 48.22 29.95 48.24 45.09"/><polygon class="cls-4" points="48.24 45.09 73.29 30.79 73.29 15.78 48.22 29.95 48.24 45.09"/><ellipse class="cls-2" cx="48.5" cy="3.44" rx="4.63" ry="2.63"/><path class="cls-3" d="M53.11,3.6C53,5,51,6.07,48.5,6.07S43.87,4.9,43.87,3.44V8.87h0c.16,1.38,2.16,2.46,4.61,2.46S53,10.25,53.11,8.87h0a.88.88,0,0,0,0-.16.77.77,0,0,0,0-.15Z"/><ellipse class="cls-2" cx="48.5" cy="17.8" rx="4.63" ry="2.63"/><path class="cls-3" d="M53.11,18C53,19.33,51,20.43,48.5,20.43s-4.63-1.18-4.63-2.63v5.43h0c.16,1.37,2.16,2.45,4.61,2.45S53,24.6,53.11,23.23h0v0a.61.61,0,0,0,0-.31Z"/><ellipse class="cls-2" cx="35.73" cy="10.72" rx="4.63" ry="2.63"/><path class="cls-3" d="M40.34,10.87c-.14,1.38-2.15,2.48-4.61,2.48s-4.63-1.18-4.63-2.63v5.43h0c.15,1.37,2.16,2.46,4.61,2.46s4.45-1.09,4.61-2.46h0v0a.76.76,0,0,0,0-.15.86.86,0,0,0,0-.16Z"/><ellipse class="cls-2" cx="61.19" cy="10.72" rx="4.63" ry="2.63"/><path class="cls-3" d="M65.8,10.87c-.14,1.38-2.15,2.48-4.61,2.48s-4.63-1.18-4.63-2.63v5.43h0c.16,1.37,2.16,2.46,4.61,2.46s4.45-1.09,4.61-2.46h0v0a.77.77,0,0,0,0-.15.88.88,0,0,0,0-.16Z"/></g></g></svg>