<svg xmlns="http://www.w3.org/2000/svg" viewBox="0 0 2572.2 450.45"><defs><style>.cls-1,.cls-3{fill:none;}.cls-2{fill:#f66631;}.cls-3{stroke:#093447;stroke-miterlimit:10;stroke-width:5px;}.cls-4{fill:#e6e6e6;}.cls-5{fill:#ef290a;}.cls-6{fill:#ffb40e;}.cls-7{fill:#ffe682;}.cls-8{fill:#fff8e3;}</style></defs><title>Tech-ch4-3</title><g id="Layer_2" data-name="Layer 2"><g id="Layer_1-2" data-name="Layer 1"><rect class="cls-1" width="2572.2" height="450.45"/><rect class="cls-2" x="841.42" y="4.01" width="204.16" height="413.05"/><circle class="cls-3" cx="1012.35" cy="226.75" r="13.29"/><rect class="cls-4" x="822.13" y="417.06" width="242.74" height="29.38"/><circle class="cls-5" cx="943.5" cy="115.38" r="47.84"/><path class="cls-6" d="M938.28,125.75v-3.27a16.71,16.71,0,0,1,1.16-6.49,13.06,13.06,0,0,1,2.79-4.39,39.48,39.48,0,0,1,3.26-2.86,16.29,16.29,0,0,0,2.8-2.76,5.25,5.25,0,0,0,1.16-3.3A4.54,4.54,0,0,0,948,99.23a5.53,5.53,0,0,0-3.95-1.34q-6.47,0-6.46,7.84H927.1q0-8.64,4.65-13.31t12.33-4.68q7.47,0,11.64,4.17a14.57,14.57,0,0,1,4.17,10.77,13.55,13.55,0,0,1-1.16,5.8,12.27,12.27,0,0,1-2.79,4q-1.63,1.49-3.26,2.82a13.66,13.66,0,0,0-2.8,3.16,7.54,7.54,0,0,0-1.16,4.13v3.2Zm10,15.46a6.45,6.45,0,0,1-4.65,1.81,6.29,6.29,0,0,1-4.6-1.81,6.06,6.06,0,0,1-1.85-4.5,6.3,6.3,0,0,1,1.85-4.57,6.19,6.19,0,0,1,4.6-1.88,6.35,6.35,0,0,1,4.65,1.88,6.25,6.25,0,0,1,1.88,4.57A6,6,0,0,1,948.29,141.21Z"/><rect class="cls-6" x="1184.02" y="4.01" width="204.16" height="413.05"/><circle class="cls-3" cx="1354.95" cy="226.75" r="13.29"/><rect class="cls-4" x="1164.73" y="417.06" width="242.74" height="29.38"/><circle class="cls-7" cx="1286.1" cy="115.38" r="47.84"/><path class="cls-6" d="M1280.87,125.75v-3.27A16.9,16.9,0,0,1,1282,116a13.23,13.23,0,0,1,2.8-4.39,39.48,39.48,0,0,1,3.26-2.86,16.29,16.29,0,0,0,2.8-2.76,5.25,5.25,0,0,0,1.16-3.3,4.54,4.54,0,0,0-1.42-3.45,5.53,5.53,0,0,0-4-1.34q-6.47,0-6.46,7.84H1269.7q0-8.64,4.65-13.31t12.33-4.68q7.47,0,11.64,4.17a14.57,14.57,0,0,1,4.17,10.77,13.55,13.55,0,0,1-1.16,5.8,12.27,12.27,0,0,1-2.79,4q-1.63,1.49-3.27,2.82a13.39,13.39,0,0,0-2.79,3.16,7.54,7.54,0,0,0-1.16,4.13v3.2Zm10,15.46a6.45,6.45,0,0,1-4.65,1.81,6.29,6.29,0,0,1-4.6-1.81,6,6,0,0,1-1.85-4.5,6.26,6.26,0,0,1,1.85-4.57,6.19,6.19,0,0,1,4.6-1.88,6.35,6.35,0,0,1,4.65,1.88,6.25,6.25,0,0,1,1.88,4.57A6,6,0,0,1,1290.89,141.21Z"/><rect class="cls-7" x="1526.62" y="4.01" width="204.16" height="413.05"/><circle class="cls-3" cx="1697.55" cy="226.75" r="13.29"/><rect class="cls-4" x="1507.33" y="417.06" width="242.74" height="29.38"/><circle class="cls-8" cx="1628.7" cy="115.38" r="47.84"/><path class="cls-6" d="M1623.47,125.75v-3.27a16.9,16.9,0,0,1,1.16-6.49,13.23,13.23,0,0,1,2.8-4.39,36.47,36.47,0,0,1,3.26-2.86,15.87,15.87,0,0,0,2.79-2.76,5.19,5.19,0,0,0,1.16-3.3,4.57,4.57,0,0,0-1.41-3.45,5.53,5.53,0,0,0-4-1.34q-6.46,0-6.46,7.84H1612.3q0-8.64,4.65-13.31t12.33-4.68q7.47,0,11.64,4.17a14.57,14.57,0,0,1,4.17,10.77,13.55,13.55,0,0,1-1.16,5.8,12.43,12.43,0,0,1-2.79,4q-1.64,1.49-3.27,2.82a13.39,13.39,0,0,0-2.79,3.16,7.54,7.54,0,0,0-1.16,4.13v3.2Zm10,15.46a6.41,6.41,0,0,1-4.64,1.81,6.29,6.29,0,0,1-4.6-1.81,6,6,0,0,1-1.85-4.5,6.26,6.26,0,0,1,1.85-4.57,6.19,6.19,0,0,1,4.6-1.88,6.31,6.31,0,0,1,4.64,1.88,6.22,6.22,0,0,1,1.89,4.57A6,6,0,0,1,1633.48,141.21Z"/></g></g></svg>