<svg xmlns="http://www.w3.org/2000/svg" viewBox="0 0 2572.2 415.37"><defs><style>.cls-1,.cls-4{fill:none;}.cls-2{fill:#f66631;}.cls-3{fill:#ef290a;}.cls-4{stroke:#093447;stroke-miterlimit:10;stroke-width:5px;}.cls-5{fill:#ffcb0e;}.cls-6{fill:#ffb40e;}</style></defs><title>Tech-ch4-5</title><g id="Layer_2" data-name="Layer 2"><g id="Layer_1-2" data-name="Layer 1"><rect class="cls-1" width="2572.2" height="415.37"/><circle class="cls-2" cx="883.23" cy="246.72" r="105.34"/><path class="cls-3" d="M883.23,141.38a105.34,105.34,0,0,1,0,210.67"/><path class="cls-4" d="M928.7,98.57c4.3,51.74-45.12,45.11-45.12,45.11S877,94.26,928.7,98.57Z"/><path class="cls-4" d="M855.26,115.36c-2.7,32.48,28.32,28.32,28.32,28.32S887.74,112.66,855.26,115.36Z"/><line class="cls-4" x1="883.58" y1="143.68" x2="883.58" y2="95.32"/><circle class="cls-2" cx="1473.77" cy="246.72" r="105.34"/><path class="cls-3" d="M1473.77,141.38a105.34,105.34,0,1,1,0,210.67"/><path class="cls-4" d="M1519.24,98.57c4.3,51.74-45.12,45.11-45.12,45.11S1467.5,94.26,1519.24,98.57Z"/><path class="cls-4" d="M1445.8,115.36c-2.7,32.48,28.32,28.32,28.32,28.32S1478.28,112.66,1445.8,115.36Z"/><line class="cls-4" x1="1474.12" y1="143.68" x2="1466.72" y2="95.32"/><circle class="cls-2" cx="1178.5" cy="246.72" r="105.34"/><path class="cls-3" d="M1178.5,141.38a105.34,105.34,0,0,1,0,210.67"/><path class="cls-4" d="M1138.2,103c-3.88,46.62,40.65,40.65,40.65,40.65S1184.82,99.15,1138.2,103Z"/><path class="cls-4" d="M1207.3,115.23c2.72,32.63-28.45,28.45-28.45,28.45S1174.67,112.52,1207.3,115.23Z"/><line class="cls-4" x1="1178.85" y1="143.68" x2="1178.85" y2="110.34"/><path class="cls-4" d="M1194.79,94.4a15.94,15.94,0,0,0-15.94,15.94"/><path class="cls-5" d="M1733.49,92.58a59.78,59.78,0,0,0-58.76,59.78,60.5,60.5,0,0,0,1.21,12l-.26-1.35,51,238.61a7.78,7.78,0,0,0,7.81,6.31"/><path class="cls-6" d="M1734.52,408a7.79,7.79,0,0,0,7.81-6.31l51-238.61a60.87,60.87,0,0,0,.84-14.48,60.07,60.07,0,0,0-55.86-55.89c-1.63-.1-3.24-.14-4.84-.11"/><line class="cls-4" x1="1674.73" y1="152.36" x2="1743.21" y2="152.36"/><line class="cls-4" x1="1731.07" y1="192.92" x2="1786.64" y2="192.92"/><line class="cls-4" x1="1691.15" y1="233.47" x2="1731.07" y2="233.47"/><line class="cls-4" x1="1728.52" y1="272.12" x2="1768.44" y2="272.12"/><line class="cls-4" x1="1708.56" y1="312.99" x2="1734.52" y2="312.99"/><line class="cls-4" x1="1735.86" y1="348.76" x2="1754.48" y2="348.76"/><line class="cls-4" x1="1721.54" y1="380.38" x2="1734.52" y2="380.38"/><path class="cls-4" d="M1701.07,31.17l32.42,74.32V24.42a16.92,16.92,0,1,0-32.43,6.75Z"/><path class="cls-4" d="M1756.33,53.15l-22.84,52.34V48.4a11.92,11.92,0,1,1,22.84,4.75Z"/></g></g></svg>