<svg xmlns="http://www.w3.org/2000/svg" viewBox="0 0 80.26 80.26"><defs><style>.cls-1{fill:#9adcfa;}.cls-2{fill:#2ebaf6;}.cls-3{fill:#0061bc;}.cls-4{fill:#e9f7fd;}.cls-5{fill:#093447;}.cls-6{fill:none;}</style></defs><title>tech-ch2</title><g id="Layer_2" data-name="Layer 2"><g id="Layer_1-2" data-name="Layer 1"><polygon class="cls-1" points="26.17 63.39 57.25 63.39 59.22 71.69 28.14 71.69 26.17 63.39"/><polygon class="cls-2" points="26.17 63.39 57.25 63.39 57.99 66.53 26.92 66.53 26.17 63.39"/><rect class="cls-1" x="13.73" y="70.55" width="37.59" height="5.14" rx="2.57" ry="2.57"/><rect class="cls-3" x="39.66" y="70.55" width="20" height="5.14" rx="2.57" ry="2.57"/><polygon class="cls-3" points="57.25 63.39 51.35 63.39 53.52 72.26 59.6 72.59 57.25 63.39"/><rect class="cls-3" x="7.26" y="8.86" width="71.14" height="55.13" rx="4.64" ry="4.64" transform="translate(85.67 72.84) rotate(-180)"/><rect class="cls-1" x="2.28" y="8.86" width="71.14" height="55.13" rx="4.64" ry="4.64" transform="translate(75.7 72.84) rotate(-180)"/><rect class="cls-4" x="6.18" y="13.2" width="63.52" height="41.84" transform="translate(75.89 68.23) rotate(-180)"/><circle class="cls-2" cx="38.26" cy="59.51" r="3.06"/><rect class="cls-5" x="13.28" y="22.21" width="49.14" height="1.5"/><rect class="cls-5" x="13.28" y="33.88" width="49.14" height="1.5"/><path class="cls-3" d="M23,37.94,20.43,34.8a.27.27,0,0,1,0-.34L23,31.32a.26.26,0,0,1,.42,0l2.54,3.14a.27.27,0,0,1,0,.34l-2.54,3.14A.27.27,0,0,1,23,37.94Z"/><rect class="cls-1" x="16" y="20.09" width="17.6" height="5.74" rx="2.87" ry="2.87"/><circle class="cls-3" cx="54.51" cy="22.96" r="2.87"/><rect class="cls-2" x="35.79" y="40.83" width="22.87" height="5.74" rx="2.87" ry="2.87"/><rect class="cls-2" x="39.98" y="20.1" width="5.72" height="5.72" rx="0.11" ry="0.11"/><path class="cls-3" d="M54.45,48.62l-5.44-4a.14.14,0,0,0-.22.12v6.85a.14.14,0,0,0,.22.11l2.12-1.12,1.4,2.43,1.18-.67L52.32,50l2.13-1.13A.14.14,0,0,0,54.45,48.62Z"/><rect class="cls-6" width="80.26" height="80.26"/></g></g></svg>