<svg xmlns="http://www.w3.org/2000/svg" viewBox="0 0 80.26 80.26"><defs><style>.cls-1{fill:#093447;}.cls-2{fill:#d11c00;}.cls-3{fill:#fbd5c6;}.cls-4{fill:#f76631;}.cls-5{fill:#ef290a;}.cls-6{fill:none;}</style></defs><title>tech-ch1</title><g id="Layer_2" data-name="Layer 2"><g id="Layer_1-2" data-name="Layer 1"><path class="cls-1" d="M50.5,79.21a3.29,3.29,0,1,1,3.3-3.29A3.3,3.3,0,0,1,50.5,79.21Zm0-5.08a1.79,1.79,0,1,0,1.8,1.79A1.79,1.79,0,0,0,50.5,74.13Z"/><path class="cls-1" d="M32.61,79.21a3.29,3.29,0,1,1,3.3-3.29A3.3,3.3,0,0,1,32.61,79.21Zm0-5.08a1.79,1.79,0,1,0,1.8,1.79A1.79,1.79,0,0,0,32.61,74.13Z"/><rect class="cls-1" x="31.86" y="68.04" width="1.5" height="5.34"/><rect class="cls-1" x="49.75" y="68.04" width="1.5" height="5.34"/><path class="cls-2" d="M49.42,62.61H53A1.35,1.35,0,0,1,54.35,64v3.21A1.35,1.35,0,0,1,53,68.53H49.42a0,0,0,0,1,0,0V62.61A0,0,0,0,1,49.42,62.61Z" transform="translate(117.46 13.69) rotate(90)"/><path class="cls-2" d="M31.53,62.61H35.1A1.35,1.35,0,0,1,36.45,64v3.21a1.35,1.35,0,0,1-1.35,1.35H31.53a0,0,0,0,1,0,0V62.61A0,0,0,0,1,31.53,62.61Z" transform="translate(99.56 31.59) rotate(90)"/><path class="cls-2" d="M49.42,11.73H53a1.35,1.35,0,0,1,1.35,1.35V16.3A1.35,1.35,0,0,1,53,17.65H49.42a0,0,0,0,1,0,0V11.73A0,0,0,0,1,49.42,11.73Z" transform="translate(37.2 66.58) rotate(-90)"/><path class="cls-2" d="M31.53,11.73H35.1a1.35,1.35,0,0,1,1.35,1.35V16.3a1.35,1.35,0,0,1-1.35,1.35H31.53a0,0,0,0,1,0,0V11.73A0,0,0,0,1,31.53,11.73Z" transform="translate(19.3 48.68) rotate(-90)"/><rect class="cls-3" x="17.15" y="17.15" width="45.96" height="45.96" rx="3.87" ry="3.87"/><rect class="cls-4" x="26.21" y="26.21" width="27.84" height="27.84" rx="3.16" ry="3.16"/><path class="cls-1" d="M32.42,7.64a3.3,3.3,0,1,1,3.3-3.3A3.3,3.3,0,0,1,32.42,7.64Zm0-5.09a1.8,1.8,0,1,0,1.8,1.79A1.8,1.8,0,0,0,32.42,2.55Z"/><path class="cls-1" d="M50.31,7.64a3.3,3.3,0,1,1,3.3-3.3A3.3,3.3,0,0,1,50.31,7.64Zm0-5.09a1.8,1.8,0,1,0,1.8,1.79A1.79,1.79,0,0,0,50.31,2.55Z"/><path class="cls-5" d="M47,62.61H50.6A1.35,1.35,0,0,1,52,64v3.21a1.35,1.35,0,0,1-1.35,1.35H47a0,0,0,0,1,0,0V62.61A0,0,0,0,1,47,62.61Z" transform="translate(115.07 16.08) rotate(90)"/><path class="cls-5" d="M29.13,62.61H32.7A1.35,1.35,0,0,1,34.06,64v3.21a1.35,1.35,0,0,1-1.35,1.35H29.13a0,0,0,0,1,0,0V62.61A0,0,0,0,1,29.13,62.61Z" transform="translate(97.17 33.98) rotate(90)"/><path class="cls-5" d="M47,11.73H50.6A1.35,1.35,0,0,1,52,13.08V16.3a1.35,1.35,0,0,1-1.35,1.35H47a0,0,0,0,1,0,0V11.73a0,0,0,0,1,0,0Z" transform="translate(34.8 64.18) rotate(-90)"/><path class="cls-5" d="M29.13,11.73H32.7a1.35,1.35,0,0,1,1.35,1.35V16.3a1.35,1.35,0,0,1-1.35,1.35H29.13a0,0,0,0,1,0,0V11.73a0,0,0,0,1,0,0Z" transform="translate(16.9 46.28) rotate(-90)"/><rect class="cls-1" x="49.56" y="6.89" width="1.5" height="5.34"/><rect class="cls-1" x="31.67" y="6.89" width="1.5" height="5.34"/><rect class="cls-5" x="30.72" y="30.99" width="19.11" height="2.9" rx="1.45" ry="1.45"/><rect class="cls-5" x="30.72" y="38.68" width="13.25" height="2.9" rx="1.45" ry="1.45"/><rect class="cls-5" x="30.72" y="46.37" width="19.11" height="2.9" rx="1.45" ry="1.45"/><circle class="cls-5" cx="48.22" cy="40.13" r="1.61"/><circle class="cls-4" cx="58.38" cy="21.87" r="1.84"/><circle class="cls-4" cx="21.93" cy="21.87" r="1.84"/><circle class="cls-4" cx="58.38" cy="58.54" r="1.84"/><circle class="cls-4" cx="21.93" cy="58.54" r="1.84"/><path class="cls-1" d="M4.34,51.82a3.29,3.29,0,1,1,3.3-3.29A3.3,3.3,0,0,1,4.34,51.82Zm0-5.08a1.79,1.79,0,1,0,1.8,1.79A1.79,1.79,0,0,0,4.34,46.74Z"/><path class="cls-1" d="M12.23,31.39H6.89a.75.75,0,0,1-.53-.22L2.71,27.52l1.06-1.06L7.2,29.89h5Z"/><rect class="cls-1" x="6.89" y="47.78" width="5.34" height="1.5"/><path class="cls-2" d="M12.23,46.95H15.8a1.35,1.35,0,0,1,1.35,1.35v3.21a1.35,1.35,0,0,1-1.35,1.35H12.23a0,0,0,0,1,0,0V46.95A0,0,0,0,1,12.23,46.95Z" transform="translate(29.38 99.82) rotate(180)"/><path class="cls-2" d="M12.23,29.05H15.8a1.35,1.35,0,0,1,1.35,1.35v3.21A1.35,1.35,0,0,1,15.8,35H12.23a0,0,0,0,1,0,0V29.05A0,0,0,0,1,12.23,29.05Z" transform="translate(29.38 64.02) rotate(180)"/><path class="cls-5" d="M12.23,44.56H15.8a1.35,1.35,0,0,1,1.35,1.35v3.21a1.35,1.35,0,0,1-1.35,1.35H12.23a0,0,0,0,1,0,0V44.56A0,0,0,0,1,12.23,44.56Z" transform="translate(29.38 95.03) rotate(180)"/><path class="cls-5" d="M12.23,26.66H15.8A1.35,1.35,0,0,1,17.15,28v3.21a1.35,1.35,0,0,1-1.35,1.35H12.23a0,0,0,0,1,0,0V26.66A0,0,0,0,1,12.23,26.66Z" transform="translate(29.38 59.23) rotate(180)"/><path class="cls-1" d="M75.92,34.29A3.29,3.29,0,1,1,79.21,31,3.29,3.29,0,0,1,75.92,34.29Zm0-5.08A1.79,1.79,0,1,0,77.71,31,1.79,1.79,0,0,0,75.92,29.21Z"/><path class="cls-1" d="M76.49,53.07l-3.42-3.43H68v-1.5h5.34a.75.75,0,0,1,.53.22L77.55,52Z"/><rect class="cls-1" x="68.04" y="30.25" width="5.34" height="1.5"/><path class="cls-2" d="M63.11,26.66h3.57A1.35,1.35,0,0,1,68,28v3.21a1.35,1.35,0,0,1-1.35,1.35H63.11a0,0,0,0,1,0,0V26.66A0,0,0,0,1,63.11,26.66Z"/><path class="cls-2" d="M63.11,44.56h3.57A1.35,1.35,0,0,1,68,45.91v3.21a1.35,1.35,0,0,1-1.35,1.35H63.11a0,0,0,0,1,0,0V44.56A0,0,0,0,1,63.11,44.56Z"/><path class="cls-5" d="M63.11,29.05h3.57A1.35,1.35,0,0,1,68,30.4v3.21A1.35,1.35,0,0,1,66.68,35H63.11a0,0,0,0,1,0,0V29.05A0,0,0,0,1,63.11,29.05Z"/><path class="cls-5" d="M63.11,46.95h3.57A1.35,1.35,0,0,1,68,48.3v3.21a1.35,1.35,0,0,1-1.35,1.35H63.11a0,0,0,0,1,0,0V46.95A0,0,0,0,1,63.11,46.95Z"/><rect class="cls-6" width="80.26" height="80.26"/></g></g></svg>