<svg xmlns="http://www.w3.org/2000/svg" viewBox="0 0 2572.2 447.11"><defs><style>.cls-1,.cls-6{fill:none;}.cls-2{fill:#ef290a;}.cls-3{fill:#f76631;}.cls-4{fill:#fbd5c6;}.cls-5{fill:#fff;}.cls-6{stroke:#093447;stroke-miterlimit:10;stroke-width:5px;}</style></defs><title>Tech-ch1-1</title><g id="Layer_2" data-name="Layer 2"><g id="Layer_1-2" data-name="Layer 1"><rect class="cls-1" width="2572.2" height="447.11"/><circle class="cls-2" cx="1296.28" cy="224.16" r="216.83"/><circle class="cls-3" cx="1275.92" cy="224.16" r="216.83"/><circle class="cls-4" cx="1275.92" cy="224.16" r="199.5"/><path class="cls-5" d="M1275.92,223.42V43.75c98.56,0,179.67,81.11,179.67,179.67s-81.11,179.67-179.67,179.67S1096.25,322,1096.25,223.42A179.71,179.71,0,0,1,1120.11,134Z"/><line class="cls-6" x1="1275.92" y1="73.75" x2="1275.92" y2="43.75"/><line class="cls-6" x1="1186.09" y1="67.82" x2="1201.08" y2="93.8"/><line class="cls-6" x1="1120.32" y1="133.58" x2="1146.3" y2="148.58"/><line class="cls-6" x1="1096.25" y1="223.42" x2="1126.25" y2="223.42"/><line class="cls-6" x1="1120.32" y1="313.25" x2="1146.3" y2="298.25"/><line class="cls-6" x1="1186.09" y1="379.02" x2="1201.08" y2="353.04"/><line class="cls-6" x1="1275.92" y1="403.09" x2="1275.92" y2="373.09"/><line class="cls-6" x1="1365.75" y1="379.02" x2="1350.76" y2="353.04"/><line class="cls-6" x1="1431.52" y1="313.25" x2="1405.54" y2="298.25"/><line class="cls-6" x1="1455.59" y1="223.42" x2="1425.59" y2="223.42"/><line class="cls-6" x1="1431.52" y1="133.58" x2="1405.54" y2="148.58"/><line class="cls-6" x1="1365.75" y1="67.82" x2="1350.76" y2="93.8"/><polygon class="cls-3" points="1275.92 224.16 1286.71 208.17 1281.32 58.75 1269.84 58.75 1264.36 208.76 1275.92 224.16"/><polygon class="cls-3" points="1275.92 224.16 1268.22 207.25 1174.77 159.53 1169.03 169.47 1257.42 226.83 1275.92 224.16"/><circle class="cls-2" cx="1275.92" cy="224.16" r="20.36"/></g></g></svg>