<svg xmlns="http://www.w3.org/2000/svg" viewBox="0 0 2572.2 442.65"><defs><style>.cls-1,.cls-3{fill:none;}.cls-2{fill:#9adcfa;}.cls-3{stroke:#093447;stroke-miterlimit:10;stroke-width:5px;}.cls-4{fill:#093447;}.cls-5{fill:#fe5f16;}.cls-6{fill:#2ebaf6;}</style></defs><title>Tech-ch2-3</title><g id="Layer_2" data-name="Layer 2"><g id="Layer_1-2" data-name="Layer 1"><rect class="cls-1" y="0.07" width="2572.2" height="441.53"/><path class="cls-2" d="M1187,175.71l12.79-13.27s5.66,30.34,23.63,24.56-3.31,20.58-3.31,20.58l-20.32-4.76A43,43,0,0,1,1187,175.71Z"/><path class="cls-2" d="M1371.51,131.81c-6.77-7.62-14.14-14.88-31.44-16.81a107.11,107.11,0,0,0-21-2c-55.25,0-59.8,39.64-76.87,58.48s-46.11,29.38-46.11,29.38c15.56,23.24,42.3,22.6,42.3,22.6l43.77-46.25c7.45-7.87,21.14-19.49,21.14-19.49s22.72-12.26,29.78,7.16c0,0-.57,5,10.44-1.34S1378.29,139.43,1371.51,131.81Z"/><path class="cls-3" d="M1250.29,111.17c-.2-1-63.25,64.54-63.25,64.54s5.85,49.1,51.4,47.76l59-62.37S1258,151,1250.29,111.17Z"/><path class="cls-3" d="M1113.59,10a47.43,47.43,0,0,0-72.94,42.8"/><path class="cls-3" d="M1113.58,10C1141.91,29,1150,50.8,1150,50.8a4.74,4.74,0,0,1-2.73,7.69l-15,4.92-8.14,47.06-.8,7.66s7.21,47.16,36.69,50.25,52.22-32.25,52.22-32.25"/><path class="cls-3" d="M1040.67,52.83l8.42,65.4c-44.8,24.85-70.85,148.12,36.21,159.37,52.42,5.51,138.14-44.55,138.14-44.55"/><path class="cls-3" d="M1167.89,260.79S1170,371.35,1158,393.58l38,39.72a2.43,2.43,0,0,1-1.75,4.1H1017l16.47-182"/><line class="cls-3" x1="1113.5" y1="318.64" x2="1113.5" y2="437.4"/><circle class="cls-4" cx="1111.8" cy="50.11" r="4.23"/><path class="cls-3" d="M1067.74,183.45s0,38.74,48.58,38.74c27,0,75.89-33.66,75.89-33.66l7.62-5.08"/><line class="cls-3" x1="1212.22" y1="205.36" x2="1190.62" y2="219.96"/><path class="cls-3" d="M1297.46,161.1c-4.91-39.38-47.17-49.93-47.17-49.93"/><path class="cls-5" d="M1430.38,258.46c0,7-.25,13.81-2.33,20.33-1.5,4.71-3.71,8.95-9.92,8.56-6-.38-8.35-4.51-9.39-9.4a56.14,56.14,0,0,1-.7-11.83c0-6.88,2.58-13.32,3.87-20,2.77-14.46-4.43-27.5-18.64-33.45-.15,2.58-.15,5.08-.47,7.54-1.23,9.38-7.18,15.52-14.4,15s-11.92-7.51-11.63-17c.23-7.32,3.17-14,5.52-21.53-5.9,1.14-34.46,8.52-29,45.85,1.27,8.68,3.23,17.27,4.28,26,.77,6.4-2.54,10.49-9.22,10.58s-7.56-4.76-7.47-10c0-2.28.28-4.56.49-7.82-10.77,12.09-14.43,34.05,2,49.08,24.71,22.59,59.63,27.7,88.19,11.09S1439.05,268.58,1430.38,258.46Z"/><rect class="cls-3" x="1320.09" y="312.92" width="124.47" height="124.47" transform="translate(2764.65 750.32) rotate(-180)"/><rect class="cls-3" x="1409.56" y="339.37" width="176.05" height="34.93" transform="translate(2055.74 1791.6) rotate(-124.66)"/><polyline class="cls-3" points="1128.26 86.51 1114.62 81.67 1102.71 85.63 1089.72 81.66"/><line class="cls-3" x1="1346.53" y1="402.86" x2="1417.66" y2="402.86"/><line class="cls-3" x1="1346.53" y1="375.16" x2="1417.66" y2="375.16"/><path class="cls-2" d="M1376,152.41c-6.86-8.81,22.58,14.26,20.78,24.21-2,11.16-15.06,10.66-19.22,3.69C1374.5,175.15,1382.16,160.29,1376,152.41Z"/><path class="cls-6" d="M1379.08,117.23c-8-4.36,21.5,3.34,23.38,11.37,2.1,9-7.81,12.84-13.17,9C1385.31,134.72,1386.22,121.13,1379.08,117.23Z"/></g></g></svg>