<svg xmlns="http://www.w3.org/2000/svg" viewBox="0 0 2572.2 445.09"><defs><style>.cls-1,.cls-4{fill:none;}.cls-2{fill:#9adcfa;}.cls-3{fill:#2ebaf6;}.cls-4{stroke:#093447;stroke-miterlimit:10;stroke-width:5px;}.cls-5{fill:#093447;}</style></defs><title>Tech-ch2-4</title><g id="Layer_2" data-name="Layer 2"><g id="Layer_1-2" data-name="Layer 1"><rect class="cls-1" width="2572.2" height="445.09"/><path class="cls-2" d="M1262.73,249a28.95,28.95,0,0,1-57.89,0"/><polygon class="cls-2" points="893.44 304.8 858.87 297.81 858.87 277.49 860.41 230.04 860.41 201.1 893.44 215.57 893.44 304.8"/><polygon class="cls-2" points="928.05 198.1 966.09 206.36 966.09 222.92 966.09 270.92 966.09 301.62 928.05 285.75 928.05 198.1"/><polygon class="cls-3" points="928.05 198.1 893.44 215.57 893.44 304.8 928.05 285.75 928.05 198.1"/><path class="cls-4" d="M891,12.31A47.42,47.42,0,0,0,823,62.5"/><path class="cls-4" d="M951.86,273.36s57.8-2.54,57.8-48.26S912,111.1,912,111.1l3.17-47.65L929.61,57a4.75,4.75,0,0,0,1.9-7.94S921.17,28.22,891,12.32"/><path class="cls-4" d="M976,243.72a91.41,91.41,0,0,1-24.1,5.08"/><path class="cls-4" d="M976,220a91.41,91.41,0,0,1-24.1,5.08"/><path class="cls-4" d="M823,62.5l15.22,64.16S771.5,173,771.5,217.47s78.89,61,98.19,61"/><path class="cls-4" d="M850.72,251.85a115.67,115.67,0,0,0,21.17,2.78"/><path class="cls-4" d="M871.89,231.29a68.49,68.49,0,0,1-21.17-2.78c-21.11-6.59-27.46-17.07-27.46-30.41"/><polyline class="cls-4" points="966.09 222.92 966.09 206.36 928.05 198.1 893.44 215.57 860.41 201.1 860.41 230.04"/><polyline class="cls-4" points="858.87 277.49 858.87 297.81 893.44 304.8 928.05 285.75 966.09 301.62 966.09 270.92"/><path class="cls-4" d="M946.2,293.32s-.05,78.48-12.12,100.7l38,39.73a2.42,2.42,0,0,1-1.75,4.09H793.1L809,262.61"/><line class="cls-4" x1="889.63" y1="319.09" x2="889.63" y2="437.84"/><circle class="cls-5" cx="893.44" cy="52.36" r="4.23"/><path class="cls-4" d="M861.31,62.5s6.61,29.61,51.94,29.61"/><rect class="cls-4" x="1113.12" y="277.91" width="238.79" height="32.81"/><rect class="cls-4" x="1113.12" y="310.72" width="27.31" height="121.56"/><rect class="cls-4" x="1324.6" y="310.72" width="27.31" height="121.56"/><rect class="cls-4" x="1612.71" y="328.72" width="187.98" height="32.81"/><rect class="cls-4" x="1612.71" y="361.52" width="27.31" height="70.75"/><rect class="cls-4" x="1773.38" y="361.52" width="27.31" height="70.75"/><rect class="cls-4" x="1401.02" y="201.7" width="162.58" height="32.81"/><rect class="cls-4" x="1401.02" y="234.51" width="27.31" height="197.77"/><rect class="cls-4" x="1536.29" y="234.51" width="27.31" height="197.77"/><path class="cls-4" d="M1262.73,249a28.95,28.95,0,0,1-57.89,0"/><path class="cls-4" d="M1204.84,249c0-28.95,10.53-37.06,10.53-72.63l-10.53-7.62h55l-7.62,7.62c0,35.57,10.53,43.68,10.53,72.63"/><path class="cls-4" d="M1233.79,260.17V149.67c0-36.83-26-51.44-26-51.44"/><circle class="cls-2" cx="1207.75" cy="98.23" r="14.84"/><circle class="cls-3" cx="1234.02" cy="99.35" r="11.43"/><circle class="cls-3" cx="1208.87" cy="71.96" r="11.43"/><circle class="cls-3" cx="1181.48" cy="97.11" r="11.43"/><circle class="cls-3" cx="1206.63" cy="124.5" r="11.43"/><circle class="cls-3" cx="1234.02" cy="99.35" r="11.43"/><circle class="cls-3" cx="1208.87" cy="71.96" r="11.43"/><circle class="cls-3" cx="1181.48" cy="97.11" r="11.43"/><circle class="cls-3" cx="1206.63" cy="124.5" r="11.43"/></g></g></svg>