<svg xmlns="http://www.w3.org/2000/svg" xmlns:xlink="http://www.w3.org/1999/xlink" viewBox="0 0 2572.2 476.68"><defs><style>.cls-1{fill:none;}.cls-2{fill:#231f20;}.cls-3{fill:#f66631;}.cls-4{fill:#ffd6c4;}.cls-5{fill:#f99a6b;}.cls-6{fill:url(#_10_dpi_30_);}</style><pattern id="_10_dpi_30_" data-name="10 dpi 30%" width="28.8" height="28.8" patternTransform="matrix(2.21, 1.34, -1.33, 2.23, 50.85, -58.15)" patternUnits="userSpaceOnUse" viewBox="0 0 28.8 28.8"><rect class="cls-1" width="28.8" height="28.8"/><path class="cls-2" d="M28.8,31a2.16,2.16,0,1,0-2.16-2.16A2.16,2.16,0,0,0,28.8,31Z"/><path class="cls-2" d="M14.4,31a2.16,2.16,0,1,0-2.16-2.16A2.16,2.16,0,0,0,14.4,31Z"/><path class="cls-2" d="M28.8,16.56a2.16,2.16,0,1,0-2.16-2.16A2.16,2.16,0,0,0,28.8,16.56Z"/><path class="cls-2" d="M14.4,16.56a2.16,2.16,0,1,0-2.16-2.16A2.16,2.16,0,0,0,14.4,16.56Z"/><path class="cls-2" d="M7.2,23.76A2.16,2.16,0,1,0,5,21.6,2.16,2.16,0,0,0,7.2,23.76Z"/><path class="cls-2" d="M21.6,23.76a2.16,2.16,0,1,0-2.16-2.16A2.16,2.16,0,0,0,21.6,23.76Z"/><path class="cls-2" d="M7.2,9.36A2.16,2.16,0,1,0,5,7.2,2.16,2.16,0,0,0,7.2,9.36Z"/><path class="cls-2" d="M21.6,9.36A2.16,2.16,0,1,0,19.44,7.2,2.16,2.16,0,0,0,21.6,9.36Z"/><path class="cls-2" d="M0,31A2.16,2.16,0,0,0,2.16,28.8,2.16,2.16,0,0,0,0,26.64,2.16,2.16,0,0,0,0,31Z"/><path class="cls-2" d="M0,16.56A2.16,2.16,0,0,0,2.16,14.4,2.16,2.16,0,0,0,0,12.24a2.16,2.16,0,1,0,0,4.32Z"/><path class="cls-2" d="M28.8,2.16A2.16,2.16,0,0,0,31,0a2.16,2.16,0,0,0-4.32,0A2.16,2.16,0,0,0,28.8,2.16Z"/><path class="cls-2" d="M14.4,2.16A2.16,2.16,0,0,0,16.56,0a2.16,2.16,0,1,0-4.32,0A2.16,2.16,0,0,0,14.4,2.16Z"/><path class="cls-2" d="M0,2.16A2.16,2.16,0,0,0,2.16,0,2.16,2.16,0,0,0,0-2.16,2.16,2.16,0,0,0-2.16,0,2.16,2.16,0,0,0,0,2.16Z"/></pattern></defs><title>Tech-ch4-4</title><g id="Layer_2" data-name="Layer 2"><g id="Layer_1-2" data-name="Layer 1"><rect class="cls-1" width="2572.2" height="476.68"/><polygon class="cls-3" points="1063.61 467.6 1022.45 399.32 1251.61 6 1397.34 262.22 1324.48 262.22 1250.5 134.11 1063.61 467.6"/><polyline class="cls-4" points="1251.25 262.22 1397.34 262.22 1251.61 6 1323.92 6 1549.75 399.32 1477.44 399.32 1436.28 327.96 1213.23 327.96 1251.25 262.22"/><polygon class="cls-5" points="1397.34 394.82 1178.19 394.82 1134.8 467.6 1063.61 467.6 1250.5 134.11 1287.89 198.86 1213.23 327.96 1436.28 327.96 1397.34 394.82"/><polygon class="cls-3" points="1436.28 327.96 1397.34 394.82 1439.62 465.24 1477.44 399.32 1436.28 327.96"/><polygon class="cls-6" points="1063.61 467.6 1022.45 399.32 1251.61 6 1397.34 262.22 1324.48 262.22 1250.5 134.11 1063.61 467.6"/><polygon class="cls-6" points="1436.28 327.96 1397.34 394.82 1439.62 465.24 1477.44 399.32 1436.28 327.96"/><polygon class="cls-5" points="1477.44 399.32 1549.75 399.32 1513.6 465.24 1439.62 465.24 1477.44 399.32"/></g></g></svg>