<svg xmlns="http://www.w3.org/2000/svg" viewBox="0 0 80.26 80.26"><defs><style>.cls-1{fill:#007369;}.cls-2{fill:#b2f1eb;}.cls-3{fill:#093447;}.cls-4{fill:none;}</style></defs><title>tech-ch3</title><g id="Layer_2" data-name="Layer 2"><g id="Layer_1-2" data-name="Layer 1"><rect class="cls-1" x="24.51" y="4.2" width="45.8" height="21.9" rx="2.21" ry="2.21"/><rect class="cls-2" x="20.94" y="4.2" width="45.8" height="21.9" rx="2.21" ry="2.21"/><rect class="cls-1" x="27.34" y="9.62" width="15.34" height="3.52" rx="1.76" ry="1.76"/><rect class="cls-1" x="52.01" y="9.62" width="8.33" height="3.52" rx="1.76" ry="1.76"/><circle class="cls-1" cx="47.68" cy="11.38" r="1.76"/><rect class="cls-1" x="27.34" y="17.16" width="25.33" height="3.52" rx="1.76" ry="1.76"/><circle class="cls-1" cx="58.58" cy="18.92" r="1.76"/><rect class="cls-1" x="24.51" y="29.18" width="45.8" height="21.9" rx="2.21" ry="2.21"/><rect class="cls-2" x="20.94" y="29.18" width="45.8" height="21.9" rx="2.21" ry="2.21"/><rect class="cls-1" x="27.45" y="34.6" width="25.33" height="3.52" rx="1.76" ry="1.76"/><circle class="cls-1" cx="58.47" cy="36.36" r="1.76"/><rect class="cls-1" x="34.9" y="42.14" width="25.33" height="3.52" rx="1.76" ry="1.76" transform="translate(95.12 87.8) rotate(180)"/><circle class="cls-1" cx="29.21" cy="43.9" r="1.76"/><rect class="cls-1" x="24.51" y="54.17" width="45.8" height="21.9" rx="2.21" ry="2.21"/><rect class="cls-2" x="20.94" y="54.17" width="45.8" height="21.9" rx="2.21" ry="2.21"/><path class="cls-3" d="M10.7,40.13H9.2v-22A3.75,3.75,0,0,1,13,14.4h8v1.5H13a2.25,2.25,0,0,0-2.25,2.24Z"/><path class="cls-3" d="M20.94,65.87H13A3.75,3.75,0,0,1,9.2,62.12v-22h1.5v22A2.25,2.25,0,0,0,13,64.37h8Z"/><rect class="cls-3" x="9.95" y="39.38" width="10.99" height="1.5"/><rect class="cls-1" x="45" y="67.13" width="15.34" height="3.52" rx="1.76" ry="1.76" transform="translate(105.34 137.77) rotate(-180)"/><rect class="cls-1" x="27.34" y="67.13" width="8.33" height="3.52" rx="1.76" ry="1.76" transform="translate(63.01 137.77) rotate(-180)"/><circle class="cls-1" cx="39.99" cy="68.89" r="1.76"/><rect class="cls-1" x="35.01" y="59.59" width="25.33" height="3.52" rx="1.76" ry="1.76" transform="translate(95.35 122.69) rotate(-180)"/><circle class="cls-1" cx="29.1" cy="61.35" r="1.76"/><rect class="cls-4" width="80.26" height="80.26"/></g></g></svg>