<svg xmlns="http://www.w3.org/2000/svg" viewBox="0 0 2572.2 298.95"><defs><style>.cls-1,.cls-5,.cls-7{fill:none;}.cls-2{fill:#007369;}.cls-3{fill:#00cfbd;}.cls-4{fill:#fff;}.cls-5,.cls-7{stroke:#093447;}.cls-5{stroke-miterlimit:10;stroke-width:5px;}.cls-6{fill:#b2f1eb;}.cls-7{stroke-linejoin:round;stroke-width:1.5px;}</style></defs><title>Tech-ch3-1</title><g id="Layer_2" data-name="Layer 2"><g id="Layer_1-2" data-name="Layer 1"><rect class="cls-1" width="2572.2" height="298.95"/><rect class="cls-2" x="1012.64" y="10.55" width="291.19" height="277.85"/><rect class="cls-3" x="926.5" y="10.55" width="291.19" height="277.85"/><rect class="cls-2" x="1354.51" y="10.55" width="291.19" height="277.85"/><rect class="cls-3" x="1268.36" y="10.55" width="291.19" height="277.85"/><path class="cls-4" d="M982.54,112.47a69.16,69.16,0,1,1,138.32,0"/><path class="cls-2" d="M1039,112.47a12.74,12.74,0,0,1,25.48,0"/><line class="cls-5" x1="1031.07" y1="62.12" x2="1051.7" y2="110.04"/><circle class="cls-6" cx="1005.29" cy="157.97" r="16.69"/><circle class="cls-6" cx="1053.88" cy="157.97" r="16.69"/><circle class="cls-6" cx="1102.46" cy="157.97" r="16.69"/><rect class="cls-2" x="1303.83" y="43.31" width="38.31" height="131.35"/><rect class="cls-2" x="1361.88" y="43.31" width="38.31" height="131.35"/><rect class="cls-2" x="1418.72" y="43.31" width="38.31" height="131.35"/><rect class="cls-2" x="1508.96" y="43.31" width="18.28" height="131.35"/><rect class="cls-6" x="1490.45" y="127.67" width="55.29" height="21.81"/><rect class="cls-6" x="1303.83" y="81.6" width="38.31" height="25.8"/><rect class="cls-6" x="1361.88" y="123.68" width="38.31" height="25.8"/><rect class="cls-6" x="1418.72" y="55.8" width="38.31" height="25.8"/><line class="cls-7" x1="1321.4" y1="269.64" x2="1388.52" y2="202.51"/><line class="cls-7" x1="1342.23" y1="202.51" x2="1306.98" y2="237.76"/><line class="cls-5" x1="1306.98" y1="237.76" x2="1342.23" y2="202.51"/><line class="cls-7" x1="1367.69" y1="269.64" x2="1434.81" y2="202.51"/><line class="cls-5" x1="1388.52" y1="202.51" x2="1321.4" y2="269.64"/><line class="cls-5" x1="1434.81" y1="202.51" x2="1367.69" y2="269.64"/><line class="cls-7" x1="1413.98" y1="269.64" x2="1481.11" y2="202.51"/><line class="cls-5" x1="1519.75" y1="255.42" x2="1506.56" y2="269.64"/><line class="cls-5" x1="1481.11" y1="202.51" x2="1413.98" y2="269.64"/><line class="cls-5" x1="1460.27" y1="269.64" x2="1511.55" y2="218.35"/><rect class="cls-2" x="967.96" y="206.08" width="168.63" height="24.55"/><rect class="cls-2" x="967.96" y="244" width="168.63" height="24.55"/><circle class="cls-6" cx="1178.99" cy="218.35" r="12.52"/><circle class="cls-4" cx="1178.99" cy="256.27" r="12.52"/></g></g></svg>