<svg xmlns="http://www.w3.org/2000/svg" viewBox="0 0 80.28 80.26"><defs><style>.cls-1{fill:#f66631;}.cls-2{fill:#ffe682;}.cls-3{fill:#fff8e3;}.cls-4{fill:#ffb40e;}.cls-5{fill:#093447;}.cls-6{fill:none;}.cls-7{fill:#ffcb0e;}.cls-8{fill:#fff;}</style></defs><title>tech-ch4</title><g id="Layer_2" data-name="Layer 2"><g id="Layer_1-2" data-name="Layer 1"><path class="cls-1" d="M17.92,71.84H76a4.26,4.26,0,0,0,4.26-4.26l-.54-48.35a4.71,4.71,0,0,0-2.31-4L67,9l-49-.61a4.25,4.25,0,0,0-4.25,4.26v54.9A4.25,4.25,0,0,0,17.92,71.84Z"/><rect class="cls-2" x="9.07" y="8.42" width="59.94" height="63.41" rx="4.25" ry="4.25"/><rect class="cls-3" x="12.52" y="12.57" width="53.02" height="42.32" transform="translate(78.07 67.46) rotate(-180)"/><circle class="cls-4" cx="39.89" cy="63.76" r="3.42"/><circle class="cls-1" cx="48.8" cy="63.76" r="4.3"/><rect class="cls-5" x="43.31" y="63.01" width="5.49" height="1.5"/><path class="cls-1" d="M69,57.28l-8.27,9.37a3.12,3.12,0,0,0,2.34,5.19H69Z"/><path class="cls-2" d="M9.07,57.28.79,66.65a3.12,3.12,0,0,0,2.34,5.19H16.05Z"/><rect class="cls-6" width="80.26" height="80.26"/><circle class="cls-1" cx="15.22" cy="63.76" r="2.6"/><circle class="cls-4" cx="22.67" cy="63.76" r="2.6"/><path class="cls-7" d="M29.8,32.91l-6.06,4.32a7.44,7.44,0,1,0-.37-8Z"/><path class="cls-1" d="M53.67,23.59a8.35,8.35,0,0,0-8.35,8.35v9.47l2.64-3,2.93,3,2.64-3,2.92,3,2.65-3,2.92,3V31.94A8.35,8.35,0,0,0,53.67,23.59Z"/><circle class="cls-8" cx="48.97" cy="30.37" r="2.13"/><circle class="cls-8" cx="54.82" cy="30.37" r="2.13"/><circle class="cls-5" cx="48.28" cy="30.37" r="0.83"/><circle class="cls-5" cx="54" cy="30.37" r="0.83"/><path class="cls-5" d="M22.67,34.88a1.53,1.53,0,0,1-1.06-.45,1.34,1.34,0,0,1-.32-.49,1.38,1.38,0,0,1-.12-.56,1.5,1.5,0,0,1,.44-1.07,2,2,0,0,1,.23-.18A1.35,1.35,0,0,1,22.1,32l.28-.08a1.52,1.52,0,0,1,1.35.41,2.11,2.11,0,0,1,.19.23l.14.25a2.63,2.63,0,0,1,.08.3,1.23,1.23,0,0,1,0,.29,1.45,1.45,0,0,1-.44,1A1.51,1.51,0,0,1,22.67,34.88Z"/><path class="cls-5" d="M16.06,34.88A1.55,1.55,0,0,1,15,34.43a1.48,1.48,0,0,1-.43-1A1.54,1.54,0,0,1,15,32.31a2,2,0,0,1,.23-.18,1.35,1.35,0,0,1,.26-.15l.28-.08a1.47,1.47,0,0,1,.59,0l.28.08a1.35,1.35,0,0,1,.26.15,2,2,0,0,1,.23.18,1.52,1.52,0,0,1,0,2.12A1.54,1.54,0,0,1,16.06,34.88Z"/><path class="cls-2" d="M36.5,19.92h-24v-1.5h24a3.83,3.83,0,0,0,3.83-3.82v-2h1.5v2A5.33,5.33,0,0,1,36.5,19.92Z"/><path class="cls-2" d="M43.43,55.06h-1.5V53a5.33,5.33,0,0,1,5.32-5.33h18.3v1.5H47.25A3.83,3.83,0,0,0,43.43,53Z"/></g></g></svg>