<svg xmlns="http://www.w3.org/2000/svg" viewBox="0 0 2572.2 447.11"><defs><style>.cls-1,.cls-5{fill:none;}.cls-2{fill:#ffe682;}.cls-3{fill:#ffc542;}.cls-4,.cls-7{fill:#f66631;}.cls-5{stroke:#093447;stroke-miterlimit:10;stroke-width:5px;}.cls-6{fill:#093447;}.cls-7{font-size:142.6px;font-family:Overpass-Black, Overpass;letter-spacing:-0.04em;}</style></defs><title>Tech-ch4-1</title><g id="Layer_2" data-name="Layer 2"><g id="Layer_1-2" data-name="Layer 1"><rect class="cls-1" width="2572.2" height="447.11"/><rect class="cls-2" x="1237.81" y="180.01" width="260.3" height="220.58" rx="27.28" ry="27.28"/><path class="cls-3" d="M1349.6,258V180h-84.51a27.28,27.28,0,0,0-27.28,27.28v77.94h84.51A27.28,27.28,0,0,0,1349.6,258Z"/><rect class="cls-4" x="1074.09" y="45.64" width="260.3" height="220.58" rx="27.28" ry="27.28"/><path class="cls-5" d="M1368,83.67h60.85A25.35,25.35,0,0,1,1454.16,109v38"/><path class="cls-5" d="M1204.24,358.76h-60.85A25.36,25.36,0,0,1,1118,333.4v-38"/><polygon class="cls-6" points="1118.02 287.77 1108.9 303.3 1127.38 303.3 1118.02 287.77"/><polygon class="cls-6" points="1454.29 150.81 1463.41 135.28 1444.92 135.28 1454.29 150.81"/><text class="cls-7" transform="translate(1320.32 344.66)">A</text><polyline class="cls-4" points="1084.37 51.59 1168.53 0 1168.53 48.17"/><polyline class="cls-2" points="1486.55 395.52 1402.38 447.11 1402.38 398.94"/><rect class="cls-3" x="1182.21" y="107.75" width="64.81" height="35.5"/><rect class="cls-3" x="1122.79" y="168.6" width="31.16" height="35.5" transform="translate(2276.73 372.7) rotate(180)"/><rect class="cls-3" x="1262.87" y="107.75" width="17.75" height="35.5"/><rect class="cls-3" x="1122.79" y="107.75" width="44.37" height="35.5"/><rect class="cls-3" x="1168.53" y="168.6" width="17.75" height="35.5"/><rect class="cls-3" x="1201.38" y="168.6" width="79.24" height="35.5"/></g></g></svg>