<svg xmlns="http://www.w3.org/2000/svg" viewBox="0 0 2572.2 398.53"><defs><style>.cls-1{fill:none;}.cls-2{fill:#00cfbd;}.cls-3{fill:#b2f1eb;}.cls-4{fill:#fff;}.cls-5{fill:#007369;}</style></defs><title>Tech-ch3-3</title><g id="Layer_2" data-name="Layer 2"><g id="Layer_1-2" data-name="Layer 1"><rect class="cls-1" width="2572.2" height="398.53"/><path class="cls-2" d="M1024,50.73h524.13a0,0,0,0,1,0,0V374.52a13.61,13.61,0,0,1-13.61,13.61H1037.64A13.61,13.61,0,0,1,1024,374.52V50.73A0,0,0,0,1,1024,50.73Z"/><path class="cls-3" d="M1037.64,10.41h496.92A13.61,13.61,0,0,1,1548.16,24V50.73a0,0,0,0,1,0,0H1024a0,0,0,0,1,0,0V24A13.61,13.61,0,0,1,1037.64,10.41Z"/><circle class="cls-4" cx="1114.29" cy="30.57" r="9.02"/><circle class="cls-2" cx="1082.42" cy="30.57" r="9.02"/><circle class="cls-5" cx="1050.56" cy="30.57" r="9.02"/><rect class="cls-5" x="1079.43" y="93.02" width="158.72" height="17.97" rx="8.99" ry="8.99"/><rect class="cls-3" x="1236.69" y="151.73" width="158.72" height="17.97" rx="8.99" ry="8.99"/><rect class="cls-4" x="1391.56" y="93.02" width="101.21" height="17.97" rx="8.99" ry="8.99"/><rect class="cls-5" x="1079.43" y="151.73" width="79.36" height="17.97" rx="8.99" ry="8.99"/><rect class="cls-5" x="1135.79" y="210.44" width="79.36" height="17.97" rx="8.99" ry="8.99"/><rect class="cls-5" x="1301.94" y="210.44" width="145.9" height="17.97" rx="8.99" ry="8.99"/><circle class="cls-5" cx="1276.49" cy="102" r="8.99"/><circle class="cls-4" cx="1199.02" cy="160.71" r="8.99"/><circle class="cls-5" cx="1264.11" cy="219.43" r="8.99"/><circle class="cls-4" cx="1089.62" cy="219.43" r="8.99"/><circle class="cls-3" cx="1316.05" cy="102" r="8.99"/><circle class="cls-5" cx="1355.61" cy="102" r="8.99"/><rect class="cls-5" x="1334.05" y="269.15" width="158.72" height="17.97" rx="8.99" ry="8.99" transform="translate(2826.81 556.28) rotate(-180)"/><rect class="cls-3" x="1079.43" y="269.15" width="101.21" height="17.97" rx="8.99" ry="8.99" transform="translate(2260.07 556.28) rotate(-180)"/><circle class="cls-5" cx="1295.7" cy="278.14" r="8.99"/><circle class="cls-4" cx="1256.14" cy="278.14" r="8.99"/><circle class="cls-5" cx="1216.58" cy="278.14" r="8.99"/><circle class="cls-5" cx="1438.85" cy="160.71" r="8.99"/><circle class="cls-5" cx="1478.41" cy="160.71" r="8.99"/><circle class="cls-3" cx="1478.41" cy="219.43" r="8.99"/><rect class="cls-5" x="1351.68" y="327.86" width="79.36" height="17.97" rx="8.99" ry="8.99" transform="translate(2782.71 673.7) rotate(-180)"/><rect class="cls-5" x="1118.99" y="327.86" width="145.9" height="17.97" rx="8.99" ry="8.99" transform="translate(2383.88 673.7) rotate(-180)"/><circle class="cls-3" cx="1302.71" cy="336.85" r="8.99"/><circle class="cls-4" cx="1477.21" cy="336.85" r="8.99"/><circle class="cls-5" cx="1088.42" cy="336.85" r="8.99"/></g></g></svg>