<svg xmlns="http://www.w3.org/2000/svg" viewBox="0 0 2572.2 412.6"><defs><style>.cls-1,.cls-6{fill:none;}.cls-2{fill:#007369;}.cls-3{fill:#00cfbd;}.cls-4{fill:#b2f1eb;}.cls-5{fill:#fff;}.cls-6{stroke:#093447;stroke-miterlimit:10;stroke-width:5px;}</style></defs><title>Tech-ch3-2</title><g id="Layer_2" data-name="Layer 2"><g id="Layer_1-2" data-name="Layer 1"><rect class="cls-1" width="2572.2" height="412.6"/><rect class="cls-2" x="1165.78" y="12.27" width="268.79" height="388.05" rx="26.03" ry="26.03"/><rect class="cls-3" x="1137.63" y="12.27" width="268.79" height="388.05" rx="26.03" ry="26.03"/><circle class="cls-4" cx="1272.03" cy="372.52" r="18.15"/><rect class="cls-4" x="1242.31" y="35.91" width="59.43" height="11.07" rx="5.53" ry="5.53" transform="translate(2544.05 82.89) rotate(180)"/><rect class="cls-3" x="1414.68" y="76.29" width="10.74" height="45.26" rx="5.37" ry="5.37" transform="translate(2840.1 197.84) rotate(-180)"/><circle class="cls-3" cx="1420.05" cy="137.11" r="5.21"/><circle class="cls-3" cx="1420.05" cy="155.5" r="5.21"/><rect class="cls-5" x="1152.24" y="69.12" width="232.82" height="274.4" transform="translate(2537.3 412.64) rotate(-180)"/><rect class="cls-4" x="1304.67" y="109.03" width="41.18" height="28.12"/><rect class="cls-4" x="1304.67" y="148.08" width="41.18" height="28.12"/><circle class="cls-3" cx="1230.89" cy="270.17" r="38.87"/><path class="cls-2" d="M1258.35,297.62l-27.46-27.45V231.3a38.87,38.87,0,0,1,27.49,66.35"/><rect class="cls-4" x="1298.32" y="237" width="53.87" height="11.1"/><rect class="cls-4" x="1298.32" y="264.62" width="53.87" height="11.1"/><rect class="cls-4" x="1298.32" y="292.25" width="53.87" height="11.1"/><rect class="cls-6" x="1197.31" y="109.03" width="67.17" height="67.17"/><line class="cls-6" x1="1197.31" y1="109.03" x2="1264.48" y2="176.19"/></g></g></svg>