<svg xmlns="http://www.w3.org/2000/svg" viewBox="0 0 2572.2 477.8"><defs><style>.cls-1,.cls-4{fill:none;}.cls-2{fill:#9adcfa;}.cls-3{fill:#2ebaf6;}.cls-4{stroke:#093447;stroke-miterlimit:10;stroke-width:5px;}.cls-5{fill:#093447;}</style></defs><title>Tech-ch2-1</title><g id="Layer_2" data-name="Layer 2"><g id="Layer_1-2" data-name="Layer 1"><rect class="cls-1" width="2572.2" height="477.71"/><polygon class="cls-2" points="1242.93 342.25 1277.5 335.26 1277.5 314.95 1275.96 267.49 1275.96 238.56 1242.93 253.02 1242.93 342.25"/><polygon class="cls-2" points="1208.32 235.56 1170.28 243.81 1170.28 260.37 1170.28 308.37 1170.28 339.08 1208.32 323.2 1208.32 235.56"/><polygon class="cls-3" points="1208.32 235.56 1242.93 253.02 1242.93 342.25 1208.32 323.2 1208.32 235.56"/><path class="cls-4" d="M1245.35,49.76a47.42,47.42,0,0,1,68.06,50.2"/><path class="cls-4" d="M1184.51,310.81s-57.79-2.54-57.79-48.26,97.66-114,97.66-114l-3.17-47.65-14.45-6.46a4.74,4.74,0,0,1-1.9-7.93s10.34-20.83,40.49-36.74"/><path class="cls-4" d="M1160.41,281.18a91.21,91.21,0,0,0,24.1,5.07"/><path class="cls-4" d="M1160.41,257.48a91.21,91.21,0,0,0,24.1,5.07"/><path class="cls-4" d="M1313.4,100l-15.22,64.15s66.69,46.36,66.69,90.82-78.89,61-98.19,61"/><path class="cls-4" d="M1285.65,289.3a115.56,115.56,0,0,1-21.17,2.78"/><path class="cls-4" d="M1264.48,268.74a68.49,68.49,0,0,0,21.17-2.78c21.11-6.59,27.46-17.06,27.46-30.4"/><polyline class="cls-4" points="1170.28 260.37 1170.28 243.81 1208.32 235.56 1242.93 253.02 1275.96 238.56 1275.96 267.49"/><polyline class="cls-4" points="1277.5 314.95 1277.5 335.26 1242.93 342.25 1208.32 323.2 1170.28 339.08 1170.28 308.37"/><path class="cls-4" d="M1190.18,330.77s0,78.48,12.11,100.71l-38,39.73a2.42,2.42,0,0,0,1.75,4.09h177.2l-15.85-175.24"/><line class="cls-4" x1="1246.74" y1="356.54" x2="1246.74" y2="475.3"/><circle class="cls-5" cx="1242.93" cy="89.81" r="4.23"/><circle class="cls-2" cx="1179.15" cy="58.74" r="13.77"/><circle class="cls-2" cx="1126.72" cy="82.21" r="20.45"/><circle class="cls-2" cx="1009.67" cy="74.57" r="74.57"/><path class="cls-4" d="M990,59.29A19.69,19.69,0,1,1,1009.67,79V94.36"/><circle class="cls-5" cx="1009.67" cy="108.97" r="5.46"/><path class="cls-4" d="M1223.89,122.82l36.67,3.07c5.08.21,8-4.24,8-5.51"/></g></g></svg>