<svg xmlns="http://www.w3.org/2000/svg" viewBox="0 0 2572.2 456.06"><defs><style>.cls-1,.cls-7{fill:none;}.cls-2{fill:#2ebaf6;}.cls-3{fill:#0061bc;}.cls-4{fill:#9adcfa;}.cls-5{fill:#fff;}.cls-6{fill:#e9f7fd;}.cls-7{stroke:#093447;stroke-miterlimit:10;stroke-width:5px;}.cls-8{fill:#093447;}</style></defs><title>Tech-ch2-2</title><g id="Layer_2" data-name="Layer 2"><g id="Layer_1-2" data-name="Layer 1"><rect class="cls-1" width="2572.2" height="456.06"/><rect class="cls-2" x="1165.2" y="162.35" width="20.44" height="156.43" rx="6.2" ry="6.2" transform="translate(236.52 -506.4) rotate(26.94)"/><path class="cls-3" d="M1219.25,183.31c20.13,10.22,55.07-18.12,78-63.32s25.27-90.12,5.14-100.35L1281.6,9.06c-20.13-10.23-55.06,18.11-78,63.31s-25.27,90.12-5.14,100.35Z"/><ellipse class="cls-4" cx="1240.01" cy="90.89" rx="91.79" ry="40.88" transform="translate(597.22 1155.18) rotate(-63.06)"/><ellipse class="cls-5" cx="1240.01" cy="90.89" rx="78.41" ry="33.19" transform="translate(597.22 1155.18) rotate(-63.06)"/><path class="cls-6" d="M1224.4,85.84c17.26-34,41.89-57,58.69-56.46a16.93,16.93,0,0,0-7.55-8.4c-16.34-8.3-45.49,16.27-65.11,54.87s-22.28,76.64-5.94,84.94a15.33,15.33,0,0,0,6.42,1.6C1203.89,147.14,1208.72,116.68,1224.4,85.84Z"/><rect class="cls-3" x="1190.11" y="176.33" width="27.54" height="13.68" rx="2.82" ry="2.82" transform="translate(213.61 -525.52) rotate(26.94)"/><path class="cls-7" d="M950,78.3a48.95,48.95,0,0,1,61.29-60.45"/><circle class="cls-8" cx="1025.56" cy="55.09" r="4.23"/><path class="cls-7" d="M1011.31,17.85c25.15,7.66,45.18,34,53.11,45.83a3.73,3.73,0,0,1-3.1,5.81H1044l-6.51,60.06s52.55,91,158,91"/><path class="cls-7" d="M1083,224.66V339.81c0,34.3-4.76,69.44-4.76,69.44l33.83,33.46a3.46,3.46,0,0,1-2.43,5.91H936s4.65-121.93,14-147.76c0,0-15.67,18.63-32.6,1.7,0,0,16.93-4.24,16.93-16.09s-11.85-9.74-11.85-9.74-67.32-19.9-67.32-63.51S966.29,134.9,966.29,134.9L950,78.3"/><line class="cls-7" x1="1030.3" y1="328.38" x2="1030.3" y2="448.62"/><path class="cls-7" d="M1191,276.1c-70.5,0-108-40.33-108-40.33"/><path class="cls-7" d="M1162.1,244s11.43,3.82,28.9,3.82"/><path class="cls-7" d="M1040.44,102.12s-31.6,0-41.34-18.45"/><rect class="cls-7" x="1296.31" y="411.37" width="235.4" height="37.26"/><rect class="cls-7" x="1328.84" y="374.11" width="235.4" height="37.26"/><rect class="cls-7" x="1488.1" y="355.48" width="235.4" height="37.26" transform="translate(402.19 -752.78) rotate(30)"/></g></g></svg>