<svg xmlns="http://www.w3.org/2000/svg" viewBox="0 0 2572.2 412.6"><defs><style>.cls-1,.cls-6,.cls-7{fill:none;}.cls-2{fill:#f66631;}.cls-3{fill:#ffcb0e;}.cls-4{fill:#ffe682;}.cls-5{fill:#ffb40e;}.cls-6{stroke:#093447;stroke-miterlimit:10;stroke-width:5px;}.cls-7{stroke:#b3b3b3;stroke-linejoin:round;stroke-width:4px;}</style></defs><title>Tech-ch4-2</title><g id="Layer_2" data-name="Layer 2"><g id="Layer_1-2" data-name="Layer 1"><rect class="cls-1" width="2572.2" height="412.6"/><path class="cls-2" d="M1440.64,258.62l.06.37a119.75,119.75,0,0,0,22.45,52.31l16.58-12.53a99.07,99.07,0,0,0,14.61,15.52l-13.51,15.8a120,120,0,0,0,50.78,25.66l4.68-20.23a97.91,97.91,0,0,0,21.17,2.52l-.19,20.76a120.17,120.17,0,0,0,55.38-13l-9.41-18.5a97.65,97.65,0,0,0,17.83-11.71l13.2,16.06a120.06,120.06,0,0,0,34.09-45.51L1649.24,278a99,99,0,0,0,6.24-20.39l20.38,3.83a119,119,0,0,0,.42-41.66,121.12,121.12,0,0,0-3.53-15.12l-19.87,6a97.84,97.84,0,0,0-8.36-19.63l18.1-10.17a120,120,0,0,0-38.91-41.52l-11.36,17.41a98.87,98.87,0,0,0-19-9.65l7.36-19.44a119.54,119.54,0,0,0-56.53-6.85l2.5,20.59c-1.47.18-2.93.38-4.4.62a98.84,98.84,0,0,0-16.36,4.21l-6.83-19.61a119.53,119.53,0,0,0-47.73,31.08l15.18,14.21a99.35,99.35,0,0,0-12.81,17l-17.86-10.65a119.68,119.68,0,0,0-16.64,54.46l20.74,1.14a98.38,98.38,0,0,0,1.12,21.31Zm108.62-74.7A56.22,56.22,0,1,1,1503,248.61,56.29,56.29,0,0,1,1549.26,183.92Z"/><circle class="cls-3" cx="1558.49" cy="239.38" r="35.89"/><path class="cls-4" d="M1267.11,100.51l.05.26a83,83,0,0,0,15.57,36.3l11.51-8.7a68.09,68.09,0,0,0,10.14,10.77l-9.38,11a83.28,83.28,0,0,0,35.23,17.81l3.25-14a67.62,67.62,0,0,0,14.69,1.75L1348,170a83.4,83.4,0,0,0,38.42-9l-6.53-12.84a68.23,68.23,0,0,0,12.37-8.12l9.16,11.14a83.57,83.57,0,0,0,23.66-31.58L1411.85,114a68.49,68.49,0,0,0,4.33-14.14l14.15,2.66a82.57,82.57,0,0,0,.28-28.91,84.92,84.92,0,0,0-2.44-10.49l-13.79,4.17a68.15,68.15,0,0,0-5.8-13.62l12.55-7.06a83.29,83.29,0,0,0-27-28.81l-7.88,12.08a69.19,69.19,0,0,0-13.18-6.69l5.11-13.5A83,83,0,0,0,1339,4.91l1.74,14.28c-1,.13-2,.26-3.06.43a69.43,69.43,0,0,0-11.35,2.92l-4.74-13.6a82.9,82.9,0,0,0-33.11,21.56L1299,40.36a68.73,68.73,0,0,0-8.89,11.82l-12.4-7.39a83.14,83.14,0,0,0-11.54,37.79l14.39.79a68.36,68.36,0,0,0,.78,14.78Zm75.37-51.83a39,39,0,1,1-32.08,44.89A39.07,39.07,0,0,1,1342.48,48.68Z"/><circle class="cls-5" cx="1348.88" cy="87.16" r="17.68"/><path class="cls-2" d="M1055.46,161.16l0,.22A71.77,71.77,0,0,0,1069,192.77l10-7.51a59.52,59.52,0,0,0,8.77,9.31l-8.11,9.48A72,72,0,0,0,1110,219.44l2.81-12.14a58.3,58.3,0,0,0,12.71,1.51l-.12,12.46a72.16,72.16,0,0,0,33.23-7.78l-5.65-11.1a59.31,59.31,0,0,0,10.7-7l7.92,9.63a72.16,72.16,0,0,0,20.46-27.31l-11.48-4.89a59.62,59.62,0,0,0,3.75-12.24l12.23,2.3a71.89,71.89,0,0,0-1.87-34.07l-11.92,3.61a58.73,58.73,0,0,0-5-11.78l10.86-6.1a72,72,0,0,0-23.35-24.91l-6.81,10.44a59.31,59.31,0,0,0-11.4-5.79l4.42-11.66a71.58,71.58,0,0,0-33.91-4.11l1.49,12.35c-.88.11-1.76.23-2.64.38a58.54,58.54,0,0,0-9.81,2.52L1102.54,82a71.69,71.69,0,0,0-28.64,18.64l9.11,8.53a60.15,60.15,0,0,0-7.69,10.21L1064.6,113a71.71,71.71,0,0,0-10,32.68l12.44.68a58.72,58.72,0,0,0,.67,12.78Zm65.18-44.82a33.74,33.74,0,1,1-27.74,38.82A33.77,33.77,0,0,1,1120.64,116.34Z"/><circle class="cls-3" cx="1126.17" cy="149.62" r="21.38"/><path class="cls-3" d="M1262.37,285.88l0,.2a63.4,63.4,0,0,0,11.88,27.68l8.77-6.63a52.38,52.38,0,0,0,7.74,8.21l-7.16,8.36a63.44,63.44,0,0,0,26.88,13.58l2.47-10.7a52.08,52.08,0,0,0,11.21,1.33l-.11,11a63.73,63.73,0,0,0,11-.87,63,63,0,0,0,18.29-6l-5-9.79a51.49,51.49,0,0,0,9.43-6.19l7,8.5a63.7,63.7,0,0,0,18-24.09l-10.12-4.32a51.65,51.65,0,0,0,3.3-10.79l10.79,2a63,63,0,0,0,.22-22.05,65.85,65.85,0,0,0-1.86-8l-10.52,3.19a51.87,51.87,0,0,0-4.42-10.39l9.57-5.38a63.55,63.55,0,0,0-20.59-22l-6,9.22a51.92,51.92,0,0,0-10-5.11l3.9-10.29a63.33,63.33,0,0,0-29.91-3.62l1.32,10.9c-.78.09-1.55.19-2.33.32a52.36,52.36,0,0,0-8.66,2.23L1303.89,216a63.31,63.31,0,0,0-25.26,16.45l8,7.52a52.22,52.22,0,0,0-6.78,9l-9.45-5.63a63.19,63.19,0,0,0-8.8,28.82l11,.6a52.32,52.32,0,0,0,.59,11.27Zm57.48-39.53a29.75,29.75,0,1,1-24.47,34.24A29.79,29.79,0,0,1,1319.85,246.35Z"/><circle class="cls-5" cx="1324.73" cy="275.7" r="13.48"/><path class="cls-5" d="M1001.64,405.8a61.52,61.52,0,0,1,123,0v.07l46.44-.47a107.46,107.46,0,0,0-2.62-23.2l22.18-4.95a131,131,0,0,0-27.74-55.79l-17.37,14.7a108.93,108.93,0,0,0-16.88-16.09L1142.52,302a130.72,130.72,0,0,0-57.1-25l-3.85,22.39a107.46,107.46,0,0,0-18.41-1.61c-1.63,0-3.24.06-4.86.13l-1-22.68a130.88,130.88,0,0,0-59.79,17.54L1009,312.48a109.1,109.1,0,0,0-18.77,13.83L974.8,309.56a131.4,131.4,0,0,0-34.53,51.81l21.36,7.72a107.28,107.28,0,0,0-5.5,22.69l-22.53-2.93a133.14,133.14,0,0,0-1.09,16.95v.07h69.14S1001.64,405.83,1001.64,405.8Z"/><path class="cls-2" d="M1110.12,405.76a47,47,0,0,0-93.91,0v.11h93.9S1110.12,405.8,1110.12,405.76Z"/><path class="cls-6" d="M1574.88,206.66,1359.16,72.78a17.68,17.68,0,0,0-20.55,28.77l0,0L1536.42,270.9a35.66,35.66,0,0,0,27.33,6.06,37.54,37.54,0,0,0,11.15-70.34Z"/><path class="cls-6" d="M1016.66,405.87v-.11a47,47,0,0,1,31.51-44.36h0l274.34-99a13.48,13.48,0,0,1,9.43,24.68l.51-.35-176.18,119"/><line class="cls-7" x1="869.47" y1="405.87" x2="1702.72" y2="405.87"/></g></g></svg>