<svg xmlns="http://www.w3.org/2000/svg" viewBox="0 0 2572.2 412.6"><defs><style>.cls-1,.cls-3{fill:none;}.cls-2{fill:#f76631;}.cls-3{stroke:#093447;stroke-miterlimit:10;stroke-width:5px;}.cls-4{fill:#ef290a;}.cls-5{fill:#fbd5c6;}</style></defs><title>Tech-ch1-2</title><g id="Layer_2" data-name="Layer 2"><g id="Layer_1-2" data-name="Layer 1"><rect class="cls-1" width="2572.2" height="412.6"/><circle class="cls-2" cx="871.31" cy="311.64" r="60.74"/><path class="cls-3" d="M820.06,279a60.75,60.75,0,0,0,51.25,93.35h247.15"/><circle class="cls-4" cx="871.31" cy="310.88" r="24.35"/><rect class="cls-2" x="1033.37" y="47.2" width="244.32" height="121.48"/><circle class="cls-2" cx="1492.56" cy="107.14" r="60.74"/><circle class="cls-2" cx="1332.1" cy="308.56" r="60.74"/><path class="cls-3" d="M1492.56,46.4a60.75,60.75,0,0,1,20.31,118"/><line class="cls-3" x1="1304.6" y1="254.39" x2="1512.85" y2="164.34"/><circle class="cls-2" cx="1658.73" cy="307.81" r="60.74"/><circle class="cls-2" cx="1277.7" cy="107.94" r="60.74"/><circle class="cls-2" cx="1033.37" cy="107.94" r="60.74"/><circle class="cls-4" cx="1277.7" cy="107.94" r="24.35"/><path class="cls-5" d="M1277.7,107.94l-17.34-17.1.12-.12a24.35,24.35,0,0,1,34.44,34.44Z"/><circle class="cls-4" cx="1033.37" cy="107.94" r="24.35"/><path class="cls-5" d="M1033.37,107.94l-24.35.17v-.17a24.36,24.36,0,0,1,48.71,0Z"/><circle class="cls-4" cx="1492.56" cy="107.14" r="24.35"/><path class="cls-5" d="M1492.56,107.14l-24.35.17v-.17a24.35,24.35,0,0,1,48.7,0Z"/><circle class="cls-4" cx="1332.1" cy="307.81" r="24.35"/><path class="cls-5" d="M1332.1,307.81l24.35-.17v.17a24.35,24.35,0,0,1-48.7,0Z"/><circle class="cls-4" cx="1658.73" cy="307.81" r="24.35"/><path class="cls-5" d="M1658.73,307.81l-17.1,17.33-.12-.11A24.35,24.35,0,1,1,1676,290.59Z"/><path class="cls-3" d="M1658.73,47.2a60.74,60.74,0,0,1,60.74,60.74V307.81a60.74,60.74,0,0,1-60.74,60.74"/><path class="cls-3" d="M1492.56,46.4H1033.37c-29.85,0-48.1,24.18-48.1,24.18L820.06,279"/><path class="cls-3" d="M1304.6,254.39a60.75,60.75,0,0,0,27.5,114.91h326.63"/><path class="cls-5" d="M871.31,310.88l.17,24.35h-.17a24.35,24.35,0,1,1,0-48.7Z"/><circle class="cls-2" cx="1118.46" cy="313.62" r="60.74"/><circle class="cls-4" cx="1118.46" cy="312.86" r="24.35"/><path class="cls-5" d="M1118.46,312.86l.17,24.35h-.17a24.35,24.35,0,0,1,0-48.7Z"/><circle class="cls-2" cx="1660.88" cy="105.96" r="60.74"/><circle class="cls-4" cx="1660.88" cy="105.96" r="24.35"/><path class="cls-5" d="M1660.88,106l-17.1,17.33-.12-.11a24.35,24.35,0,0,1,34.44-34.44Z"/></g></g></svg>